<?xml version="1.0" encoding="UTF-8" standalone="no"?>
<svg xmlns:xlink="http://www.w3.org/1999/xlink" height="6.6px" width="6.6px" xmlns="http://www.w3.org/2000/svg">
  <g transform="matrix(1.0, 0.0, 0.0, 1.0, 3.3, 3.3)">
    <path d="M-3.3 0.0 L-3.3 0.0 -3.25 0.6 -3.1 1.15 -2.95 1.45 -2.6 2.0 -2.35 2.3 -1.75 2.8 -0.55 3.25 0.0 3.3 0.5 3.25 0.7 3.2 Q1.45 3.05 2.05 2.55 L2.35 2.3 Q3.3 1.35 3.3 0.0 L3.25 -0.6 Q3.1 -1.6 2.35 -2.35 L1.0 -3.15 0.0 -3.3 -0.2 -3.3 -1.2 -3.1 -2.25 -2.45 -2.35 -2.35 -2.9 -1.6 -3.1 -1.05 -3.25 -0.55 -3.3 0.0" fill="#990000" fill-rule="evenodd" stroke="none">
      <animate attributeName="fill" dur="2s" repeatCount="indefinite" values="#990000;#990001"/>
      <animate attributeName="fill-opacity" dur="2s" repeatCount="indefinite" values="1.0;1.0"/>
      <animate attributeName="d" dur="2s" repeatCount="indefinite" values="M-3.3 0.0 L-3.3 0.0 -3.25 0.6 -3.1 1.15 -2.95 1.45 -2.6 2.0 -2.35 2.3 -1.75 2.8 -0.55 3.25 0.0 3.3 0.5 3.25 0.7 3.2 Q1.45 3.05 2.05 2.55 L2.35 2.3 Q3.3 1.35 3.3 0.0 L3.25 -0.6 Q3.1 -1.6 2.35 -2.35 L1.0 -3.15 0.0 -3.3 -0.2 -3.3 -1.2 -3.1 -2.25 -2.45 -2.35 -2.35 -2.9 -1.6 -3.1 -1.05 -3.25 -0.55 -3.3 0.0;M-1.45 -0.3 L-1.45 -0.25 -1.45 0.0 -1.45 0.25 -1.3 0.5 -1.15 0.4 -1.15 0.25 -1.05 0.0 -0.95 0.55 -0.75 0.85 -0.5 1.1 -0.4 1.15 Q0.1 1.25 0.6 1.3 L0.8 1.25 Q1.6 1.0 1.8 0.35 L1.85 0.0 Q1.65 -0.5 1.45 -1.0 L0.6 -1.4 -0.05 -1.35 -0.25 -1.3 -0.5 -1.1 -0.95 -0.55 -0.95 -0.55 -1.05 -0.05 -1.15 -0.45 -1.3 -0.5 -1.45 -0.3"/>
    </path>
    <path d="M-3.3 0.0 L-3.25 -0.55 -3.1 -1.05 -2.9 -1.6 -2.35 -2.35 -2.25 -2.45 -1.2 -3.1 -0.2 -3.3 0.0 -3.3 1.0 -3.15 2.35 -2.35 Q3.1 -1.6 3.25 -0.6 L3.3 0.0 Q3.3 1.35 2.35 2.3 L2.05 2.55 Q1.45 3.05 0.7 3.2 L0.5 3.25 0.0 3.3 -0.55 3.25 -1.75 2.8 -2.35 2.3 -2.6 2.0 -2.95 1.45 -3.1 1.15 -3.25 0.6 -3.3 0.0 -3.3 0.0" fill="none" stroke="#000000" stroke-linecap="round" stroke-linejoin="round" stroke-opacity="0.0" stroke-width="1.0">
      <animate attributeName="stroke" dur="2s" repeatCount="indefinite" values="#000000;#000001"/>
      <animate attributeName="stroke-width" dur="2s" repeatCount="indefinite" values="0.0;0.0"/>
      <animate attributeName="fill-opacity" dur="2s" repeatCount="indefinite" values="0.0;0.0"/>
      <animate attributeName="d" dur="2s" repeatCount="indefinite" values="M-3.3 0.0 L-3.25 -0.55 -3.1 -1.05 -2.9 -1.6 -2.35 -2.35 -2.25 -2.45 -1.2 -3.1 -0.2 -3.3 0.0 -3.3 1.0 -3.15 2.35 -2.35 Q3.1 -1.6 3.25 -0.6 L3.3 0.0 Q3.3 1.35 2.35 2.3 L2.05 2.55 Q1.45 3.05 0.7 3.2 L0.5 3.25 0.0 3.3 -0.55 3.25 -1.75 2.8 -2.35 2.3 -2.6 2.0 -2.95 1.45 -3.1 1.15 -3.25 0.6 -3.3 0.0 -3.3 0.0;M-1.45 -0.3 L-1.3 -0.5 -1.15 -0.45 -1.05 -0.05 -0.95 -0.55 -0.95 -0.55 -0.5 -1.1 -0.25 -1.3 -0.05 -1.35 0.6 -1.4 1.45 -1.0 Q1.65 -0.5 1.85 0.0 L1.8 0.35 Q1.6 1.0 0.8 1.25 L0.6 1.3 Q0.1 1.25 -0.4 1.15 L-0.5 1.1 -0.75 0.85 -0.95 0.55 -1.05 0.0 -1.15 0.25 -1.15 0.4 -1.3 0.5 -1.45 0.25 -1.45 0.0 -1.45 -0.25 -1.45 -0.3"/>
    </path>
  </g>
</svg>
