<?xml version="1.0" encoding="UTF-8" standalone="no"?>
<svg xmlns:xlink="http://www.w3.org/1999/xlink" height="5.6px" width="5.6px" xmlns="http://www.w3.org/2000/svg">
  <g transform="matrix(1.0, 0.0, 0.0, 1.0, 2.85, 2.9)">
    <path d="M-2.85 -0.1 Q-2.85 1.05 -2.05 1.9 -1.25 2.7 -0.05 2.7 1.1 2.7 1.9 1.9 2.7 1.05 2.75 -0.1 2.7 -1.3 1.9 -2.1 1.1 -2.9 -0.05 -2.9 -1.25 -2.9 -2.05 -2.1 -2.85 -1.3 -2.85 -0.1" fill="#ffffff" fill-rule="evenodd" stroke="none">
      <animate attributeName="fill" dur="2s" repeatCount="indefinite" values="#ffffff;#ffffff"/>
      <animate attributeName="fill-opacity" dur="2s" repeatCount="indefinite" values="1.0;1.0"/>
      <animate attributeName="d" dur="2s" repeatCount="indefinite" values="M-2.85 -0.1 Q-2.85 1.05 -2.05 1.9 -1.25 2.7 -0.05 2.7 1.1 2.7 1.9 1.9 2.7 1.05 2.75 -0.1 2.7 -1.3 1.9 -2.1 1.1 -2.9 -0.05 -2.9 -1.25 -2.9 -2.05 -2.1 -2.85 -1.3 -2.85 -0.1;M-2.05 -0.1 Q-2.05 0.75 -1.45 1.3 -0.9 1.9 -0.05 1.9 0.8 1.9 1.35 1.3 1.9 0.75 1.95 -0.1 1.9 -0.9 1.35 -1.5 0.8 -2.1 -0.05 -2.1 -0.9 -2.1 -1.45 -1.5 -2.05 -0.9 -2.05 -0.1"/>
    </path>
    <path d="M-2.85 -0.1 Q-2.85 -1.3 -2.05 -2.1 -1.25 -2.9 -0.05 -2.9 1.1 -2.9 1.9 -2.1 2.7 -1.3 2.75 -0.1 2.7 1.05 1.9 1.9 1.1 2.7 -0.05 2.7 -1.25 2.7 -2.05 1.9 -2.85 1.05 -2.85 -0.1" fill="none" stroke="#000000" stroke-linecap="round" stroke-linejoin="round" stroke-opacity="0.0" stroke-width="1.0">
      <animate attributeName="stroke" dur="2s" repeatCount="indefinite" values="#000000;#000001"/>
      <animate attributeName="stroke-width" dur="2s" repeatCount="indefinite" values="0.0;0.0"/>
      <animate attributeName="fill-opacity" dur="2s" repeatCount="indefinite" values="0.0;0.0"/>
      <animate attributeName="d" dur="2s" repeatCount="indefinite" values="M-2.85 -0.1 Q-2.85 -1.3 -2.05 -2.1 -1.25 -2.9 -0.05 -2.9 1.1 -2.9 1.9 -2.1 2.7 -1.3 2.75 -0.1 2.7 1.05 1.9 1.9 1.1 2.7 -0.05 2.7 -1.25 2.7 -2.05 1.9 -2.85 1.05 -2.85 -0.1;M-2.05 -0.1 Q-2.05 -0.9 -1.45 -1.5 -0.9 -2.1 -0.05 -2.1 0.8 -2.1 1.35 -1.5 1.9 -0.9 1.95 -0.1 1.9 0.75 1.35 1.3 0.8 1.9 -0.05 1.9 -0.9 1.9 -1.45 1.3 -2.05 0.75 -2.05 -0.1"/>
    </path>
  </g>
</svg>
