<?xml version="1.0" encoding="UTF-8" standalone="no"?>
<svg xmlns:xlink="http://www.w3.org/1999/xlink" height="23.0px" width="28.6px" xmlns="http://www.w3.org/2000/svg">
  <g transform="matrix(1.0, 0.0, 0.0, 1.0, -29.4, 12.3)">
    <path d="M29.4 -9.45 L29.45 -9.45 33.7 -9.85 Q39.7 -9.9 43.95 -7.0 L44.9 -6.3 Q48.2 -3.65 48.2 0.0 48.2 4.05 43.95 6.95 42.05 8.25 39.85 8.95 37.2 9.8 34.05 9.85 36.9 10.65 40.25 10.7 L40.75 10.7 Q47.9 10.7 52.95 7.35 L53.8 6.75 Q57.95 3.55 58.0 -0.8 57.95 -4.3 55.25 -7.05 L52.95 -8.95 Q47.9 -12.3 40.75 -12.3 34.2 -12.3 29.4 -9.45" fill="url(#gradient0)" fill-rule="evenodd" stroke="none">
      <animate attributeName="d" dur="2s" repeatCount="indefinite" values="M29.4 -9.45 L29.45 -9.45 33.7 -9.85 Q39.7 -9.9 43.95 -7.0 L44.9 -6.3 Q48.2 -3.65 48.2 0.0 48.2 4.05 43.95 6.95 42.05 8.25 39.85 8.95 37.2 9.8 34.05 9.85 36.9 10.65 40.25 10.7 L40.75 10.7 Q47.9 10.7 52.95 7.35 L53.8 6.75 Q57.95 3.55 58.0 -0.8 57.95 -4.3 55.25 -7.05 L52.95 -8.95 Q47.9 -12.3 40.75 -12.3 34.2 -12.3 29.4 -9.45;M29.4 -6.45 L29.4 -6.45 29.7 -4.65 Q30.1 -2.3 30.45 0.0 L30.55 0.5 Q32.15 0.3 33.75 0.1 35.6 -0.15 37.45 -0.4 38.5 -0.55 39.55 -0.7 40.05 0.5 40.5 1.7 41.0 3.0 41.5 4.3 L41.9 4.1 Q45.2 2.35 45.45 0.1 L45.5 -0.4 Q45.45 -2.2 43.5 -3.75 42.5 -4.6 40.95 -5.35 L39.9 -5.8 Q37.45 -6.75 34.4 -6.85 31.9 -6.65 29.4 -6.45"/>
    </path>
    <path d="M29.5 -6.45 L30.65 0.5 39.65 -0.7 41.6 4.3 Q45.65 2.35 45.6 -0.4 45.55 -3.15 41.05 -5.35 36.55 -7.6 29.5 -6.45" fill="#ffffff" fill-opacity="0.9019608" fill-rule="evenodd" stroke="none">
      <animate attributeName="fill" dur="2s" repeatCount="indefinite" values="#ffffff;#ffffff"/>
      <animate attributeName="fill-opacity" dur="2s" repeatCount="indefinite" values="0.9019608;0.0"/>
      <animate attributeName="d" dur="2s" repeatCount="indefinite" values="M29.5 -6.45 L30.65 0.5 39.65 -0.7 41.6 4.3 Q45.65 2.35 45.6 -0.4 45.55 -3.15 41.05 -5.35 36.55 -7.6 29.5 -6.45;M29.4 -6.45 L30.55 0.5 39.55 -0.7 41.5 4.3 Q45.55 2.35 45.5 -0.4 45.45 -3.15 40.95 -5.35 36.45 -7.6 29.4 -6.45"/>
    </path>
    <path d="M29.4 -9.45 Q34.2 -12.3 40.75 -12.3 47.9 -12.3 52.95 -8.95 L55.25 -7.05 Q57.95 -4.3 58.0 -0.8 57.95 3.55 53.8 6.75 L52.95 7.35 Q47.9 10.7 40.75 10.7 L40.25 10.7 Q36.9 10.65 34.05 9.85 37.2 9.8 39.85 8.95 42.05 8.25 43.95 6.95 48.2 4.05 48.2 0.0 48.2 -3.65 44.9 -6.3 L43.95 -7.0 Q39.7 -9.9 33.7 -9.85 L29.45 -9.45 29.4 -9.45 M29.5 -6.45 Q36.55 -7.6 41.05 -5.35 45.55 -3.15 45.6 -0.4 45.65 2.35 41.6 4.3 L39.65 -0.7 30.65 0.5 29.5 -6.45 Q36.55 -7.6 41.05 -5.35 45.55 -3.15 45.6 -0.4 45.65 2.35 41.6 4.3 L39.65 -0.7 30.65 0.5 29.5 -6.45" fill="none" stroke="#000000" stroke-linecap="round" stroke-linejoin="round" stroke-opacity="0.0" stroke-width="1.0">
      <animate attributeName="stroke" dur="2s" repeatCount="indefinite" values="#000000;#000001"/>
      <animate attributeName="stroke-width" dur="2s" repeatCount="indefinite" values="0.0;0.0"/>
      <animate attributeName="fill-opacity" dur="2s" repeatCount="indefinite" values="0.0;0.0"/>
      <animate attributeName="d" dur="2s" repeatCount="indefinite" values="M29.4 -9.45 Q34.2 -12.3 40.75 -12.3 47.9 -12.3 52.95 -8.95 L55.25 -7.05 Q57.95 -4.3 58.0 -0.8 57.95 3.55 53.8 6.75 L52.95 7.35 Q47.9 10.7 40.75 10.7 L40.25 10.7 Q36.9 10.65 34.05 9.85 37.2 9.8 39.85 8.95 42.05 8.25 43.95 6.95 48.2 4.05 48.2 0.0 48.2 -3.65 44.9 -6.3 L43.95 -7.0 Q39.7 -9.9 33.7 -9.85 L29.45 -9.45 29.4 -9.45 M29.5 -6.45 Q36.55 -7.6 41.05 -5.35 45.55 -3.15 45.6 -0.4 45.65 2.35 41.6 4.3 L39.65 -0.7 30.65 0.5 29.5 -6.45 Q36.55 -7.6 41.05 -5.35 45.55 -3.15 45.6 -0.4 45.65 2.35 41.6 4.3 L39.65 -0.7 30.65 0.5 29.5 -6.45;M29.4 -6.45 Q31.9 -6.65 34.4 -6.85 37.45 -6.75 39.9 -5.8 L40.95 -5.35 Q42.5 -4.6 43.5 -3.75 45.45 -2.2 45.5 -0.4 L45.45 0.1 Q45.2 2.35 41.9 4.1 L41.5 4.3 Q41.0 3.0 40.5 1.7 40.05 0.5 39.55 -0.7 38.5 -0.55 37.45 -0.4 35.6 -0.15 33.75 0.1 32.15 0.3 30.55 0.5 L30.45 0.0 Q30.1 -2.3 29.7 -4.65 L29.4 -6.45 29.4 -6.45 M29.4 -6.45 Q36.45 -7.6 40.95 -5.35 45.45 -3.15 45.5 -0.4 45.55 2.35 41.5 4.3 L39.55 -0.7 30.55 0.5 29.4 -6.45 Q36.45 -7.6 40.95 -5.35 45.45 -3.15 45.5 -0.4 45.55 2.35 41.5 4.3 L39.55 -0.7 30.55 0.5 29.4 -6.45"/>
    </path>
  </g>
  <defs>
    <radialGradient cx="0" cy="0" gradientTransform="matrix(0.0289, 0.0, 0.0, 0.0195, 34.1, -0.6)" gradientUnits="userSpaceOnUse" id="gradient0" r="819.2" spreadMethod="pad">
      <animateTransform additive="replace" attributeName="gradientTransform" dur="2s" from="1" repeatCount="indefinite" to="1" type="scale"/>
      <animateTransform additive="sum" attributeName="gradientTransform" dur="2s" from="34.1 -0.6" repeatCount="indefinite" to="34.1 -0.6" type="translate"/>
      <animateTransform additive="sum" attributeName="gradientTransform" dur="2s" from="0.0" repeatCount="indefinite" to="0.0" type="rotate"/>
      <animateTransform additive="sum" attributeName="gradientTransform" dur="2s" from="0.0289 0.0195" repeatCount="indefinite" to="0.0289 0.0195" type="scale"/>
      <animateTransform additive="sum" attributeName="gradientTransform" dur="2s" from="0.0" repeatCount="indefinite" to="0.0" type="skewX"/>
      <stop offset="0.6470588235294118" stop-color="#5ebfff" stop-opacity="0.0">
        <animate attributeName="offset" dur="2s" repeatCount="indefinite" values="0.6470588235294118;0.6470588235294118"/>
        <animate attributeName="stop-color" dur="2s" repeatCount="indefinite" values="#5ebfff;#ffffff"/>
        <animate attributeName="stop-opacity" dur="2s" repeatCount="indefinite" values="0.0;0.0"/>
      </stop>
      <stop offset="1.0" stop-color="#ffffff">
        <animate attributeName="offset" dur="2s" repeatCount="indefinite" values="1.0;1.0"/>
        <animate attributeName="stop-color" dur="2s" repeatCount="indefinite" values="#ffffff;#ffffff"/>
        <animate attributeName="stop-opacity" dur="2s" repeatCount="indefinite" values="1.0;0.0"/>
      </stop>
    </radialGradient>
  </defs>
</svg>
