<?xml version="1.0" encoding="UTF-8" standalone="no"?>
<svg xmlns:xlink="http://www.w3.org/1999/xlink" height="2.8px" width="3.35px" xmlns="http://www.w3.org/2000/svg">
  <g transform="matrix(1.0, 0.0, 0.0, 1.0, 1.5, 1.45)">
    <path d="M-1.45 -0.3 L-1.45 0.0 -1.45 0.25 -1.3 0.5 -1.15 0.4 -1.05 0.0 -0.95 0.55 -0.5 1.1 -0.4 1.15 0.6 1.3 Q1.75 1.05 1.85 0.0 1.75 -1.2 0.6 -1.4 L-0.25 -1.3 -0.5 -1.1 -0.95 -0.55 -1.05 -0.05 -1.15 -0.45 -1.3 -0.5 -1.45 -0.3" fill="#999900" fill-rule="evenodd" stroke="none">
      <animate attributeName="fill" dur="2s" repeatCount="indefinite" values="#999900;#999901"/>
      <animate attributeName="fill-opacity" dur="2s" repeatCount="indefinite" values="1.0;1.0"/>
      <animate attributeName="d" dur="2s" repeatCount="indefinite" values="M-1.45 -0.3 L-1.45 0.0 -1.45 0.25 -1.3 0.5 -1.15 0.4 -1.05 0.0 -0.95 0.55 -0.5 1.1 -0.4 1.15 0.6 1.3 Q1.75 1.05 1.85 0.0 1.75 -1.2 0.6 -1.4 L-0.25 -1.3 -0.5 -1.1 -0.95 -0.55 -1.05 -0.05 -1.15 -0.45 -1.3 -0.5 -1.45 -0.3;M-1.45 -0.3 L-1.45 0.0 -1.45 0.25 -1.3 0.5 -1.15 0.4 -1.05 0.0 -0.95 0.55 -0.5 1.1 -0.4 1.15 0.6 1.3 Q1.75 1.05 1.85 0.0 1.75 -1.2 0.6 -1.4 L-0.25 -1.3 -0.5 -1.1 -0.95 -0.55 -1.05 -0.05 -1.15 -0.45 -1.3 -0.5 -1.45 -0.3"/>
    </path>
    <path d="M-1.45 -0.3 L-1.3 -0.5 -1.15 -0.45 -1.05 -0.05 -0.95 -0.55 -0.5 -1.1 -0.25 -1.3 0.6 -1.4 Q1.75 -1.2 1.85 0.0 1.75 1.05 0.6 1.3 L-0.4 1.15 -0.5 1.1 -0.95 0.55 -1.05 0.0 -1.15 0.4 -1.3 0.5 -1.45 0.25 -1.45 0.0 -1.45 -0.3" fill="none" stroke="#000000" stroke-linecap="round" stroke-linejoin="round" stroke-opacity="0.0" stroke-width="1.0">
      <animate attributeName="stroke" dur="2s" repeatCount="indefinite" values="#000000;#000001"/>
      <animate attributeName="stroke-width" dur="2s" repeatCount="indefinite" values="0.0;0.0"/>
      <animate attributeName="fill-opacity" dur="2s" repeatCount="indefinite" values="0.0;0.0"/>
      <animate attributeName="d" dur="2s" repeatCount="indefinite" values="M-1.45 -0.3 L-1.3 -0.5 -1.15 -0.45 -1.05 -0.05 -0.95 -0.55 -0.5 -1.1 -0.25 -1.3 0.6 -1.4 Q1.75 -1.2 1.85 0.0 1.75 1.05 0.6 1.3 L-0.4 1.15 -0.5 1.1 -0.95 0.55 -1.05 0.0 -1.15 0.4 -1.3 0.5 -1.45 0.25 -1.45 0.0 -1.45 -0.3;M-1.45 -0.3 L-1.3 -0.5 -1.15 -0.45 -1.05 -0.05 -0.95 -0.55 -0.5 -1.1 -0.25 -1.3 0.6 -1.4 Q1.75 -1.2 1.85 0.0 1.75 1.05 0.6 1.3 L-0.4 1.15 -0.5 1.1 -0.95 0.55 -1.05 0.0 -1.15 0.4 -1.3 0.5 -1.45 0.25 -1.45 0.0 -1.45 -0.3"/>
    </path>
  </g>
</svg>
