<?xml version="1.0" encoding="UTF-8" standalone="no"?>
<svg xmlns:xlink="http://www.w3.org/1999/xlink" height="2.75px" width="3.35px" xmlns="http://www.w3.org/2000/svg">
  <g transform="matrix(1.0, 0.0, 0.0, 1.0, 1.5, 1.45)">
    <path d="M-1.45 -0.3 L-1.45 -0.3 -1.45 0.0 -1.45 0.25 -1.35 0.4 -1.3 0.5 -1.15 0.4 -1.05 0.1 -1.05 0.0 -1.05 0.35 -0.95 0.55 -0.7 0.9 -0.5 1.1 -0.4 1.15 0.4 1.3 0.6 1.3 1.4 0.95 1.85 0.1 1.85 0.0 1.85 -0.2 Q1.7 -0.95 1.15 -1.25 L0.8 -1.4 0.6 -1.4 -0.15 -1.3 -0.25 -1.3 -0.5 -1.1 -0.85 -0.75 -0.95 -0.55 -1.05 -0.15 -1.05 -0.05 -1.15 -0.45 -1.3 -0.5 -1.45 -0.3" fill="#999900" fill-rule="evenodd" stroke="none">
      <animate attributeName="fill" dur="2s" repeatCount="indefinite" values="#999900;#8a9901"/>
      <animate attributeName="fill-opacity" dur="2s" repeatCount="indefinite" values="1.0;0.0"/>
      <animate attributeName="d" dur="2s" repeatCount="indefinite" values="M-1.45 -0.3 L-1.45 -0.3 -1.45 0.0 -1.45 0.25 -1.35 0.4 -1.3 0.5 -1.15 0.4 -1.05 0.1 -1.05 0.0 -1.05 0.35 -0.95 0.55 -0.7 0.9 -0.5 1.1 -0.4 1.15 0.4 1.3 0.6 1.3 1.4 0.95 1.85 0.1 1.85 0.0 1.85 -0.2 Q1.7 -0.95 1.15 -1.25 L0.8 -1.4 0.6 -1.4 -0.15 -1.3 -0.25 -1.3 -0.5 -1.1 -0.85 -0.75 -0.95 -0.55 -1.05 -0.15 -1.05 -0.05 -1.15 -0.45 -1.3 -0.5 -1.45 -0.3;M-1.05 -0.45 L-1.05 -0.3 -0.95 -0.1 -0.85 0.05 -0.85 0.05 -0.85 0.05 -0.65 0.2 -0.4 0.25 -0.4 0.3 -0.4 0.45 -0.35 0.65 -0.2 0.9 -0.05 1.05 -0.05 1.05 0.25 1.1 0.35 1.1 0.75 0.9 0.95 0.45 0.95 0.35 0.75 -0.05 Q0.5 -0.15 0.25 -0.25 L0.3 -0.45 0.3 -0.55 0.1 -0.9 0.1 -0.9 -0.1 -1.05 -0.4 -1.1 -0.5 -1.1 -0.85 -0.9 -0.85 -0.85 -0.95 -0.75 -1.05 -0.65 -1.05 -0.45"/>
    </path>
    <path d="M-1.45 -0.3 L-1.3 -0.5 -1.15 -0.45 -1.05 -0.05 -1.05 -0.15 -0.95 -0.55 -0.85 -0.75 -0.5 -1.1 -0.25 -1.3 -0.15 -1.3 0.6 -1.4 0.8 -1.4 1.15 -1.25 Q1.7 -0.95 1.85 -0.2 L1.85 0.0 1.85 0.1 1.4 0.95 0.6 1.3 0.4 1.3 -0.4 1.15 -0.5 1.1 -0.7 0.9 -0.95 0.55 -1.05 0.35 -1.05 0.0 -1.05 0.1 -1.15 0.4 -1.3 0.5 -1.35 0.4 -1.45 0.25 -1.45 0.0 -1.45 -0.3 -1.45 -0.3" fill="none" stroke="#000000" stroke-linecap="round" stroke-linejoin="round" stroke-opacity="0.0" stroke-width="1.0">
      <animate attributeName="stroke" dur="2s" repeatCount="indefinite" values="#000000;#000001"/>
      <animate attributeName="stroke-width" dur="2s" repeatCount="indefinite" values="0.0;0.0"/>
      <animate attributeName="fill-opacity" dur="2s" repeatCount="indefinite" values="0.0;0.0"/>
      <animate attributeName="d" dur="2s" repeatCount="indefinite" values="M-1.45 -0.3 L-1.3 -0.5 -1.15 -0.45 -1.05 -0.05 -1.05 -0.15 -0.95 -0.55 -0.85 -0.75 -0.5 -1.1 -0.25 -1.3 -0.15 -1.3 0.6 -1.4 0.8 -1.4 1.15 -1.25 Q1.7 -0.95 1.85 -0.2 L1.85 0.0 1.85 0.1 1.4 0.95 0.6 1.3 0.4 1.3 -0.4 1.15 -0.5 1.1 -0.7 0.9 -0.95 0.55 -1.05 0.35 -1.05 0.0 -1.05 0.1 -1.15 0.4 -1.3 0.5 -1.35 0.4 -1.45 0.25 -1.45 0.0 -1.45 -0.3 -1.45 -0.3;M-1.05 -0.45 L-1.05 -0.65 -0.95 -0.75 -0.85 -0.85 -0.85 -0.9 -0.5 -1.1 -0.4 -1.1 -0.1 -1.05 0.1 -0.9 0.1 -0.9 0.3 -0.55 0.3 -0.45 0.25 -0.25 Q0.5 -0.15 0.75 -0.05 L0.95 0.35 0.95 0.45 0.75 0.9 0.35 1.1 0.25 1.1 -0.05 1.05 -0.05 1.05 -0.2 0.9 -0.35 0.65 -0.4 0.45 -0.4 0.3 -0.4 0.25 -0.65 0.2 -0.85 0.05 -0.85 0.05 -0.85 0.05 -0.95 -0.1 -1.05 -0.3 -1.05 -0.45"/>
    </path>
  </g>
</svg>
