<?xml version="1.0" encoding="UTF-8" standalone="no"?>
<svg xmlns:xlink="http://www.w3.org/1999/xlink" height="6.55px" width="6.55px" xmlns="http://www.w3.org/2000/svg">
  <g transform="matrix(1.0, 0.0, 0.0, 1.0, 3.3, 3.35)">
    <path d="M-3.3 -0.1 Q-3.3 1.3 -2.3 2.3 -1.4 3.15 0.0 3.2 1.25 3.15 2.25 2.3 3.25 1.3 3.25 -0.1 3.25 -1.5 2.25 -2.35 1.25 -3.35 0.0 -3.35 -1.4 -3.35 -2.3 -2.35 -3.3 -1.5 -3.3 -0.1" fill="#4d95ff" fill-opacity="0.3019608" fill-rule="evenodd" stroke="none">
      <animate attributeName="fill" dur="2s" repeatCount="indefinite" values="#4d95ff;#4d95ff"/>
      <animate attributeName="fill-opacity" dur="2s" repeatCount="indefinite" values="0.3019608;0.0"/>
      <animate attributeName="d" dur="2s" repeatCount="indefinite" values="M-3.3 -0.1 Q-3.3 1.3 -2.3 2.3 -1.4 3.15 0.0 3.2 1.25 3.15 2.25 2.3 3.25 1.3 3.25 -0.1 3.25 -1.5 2.25 -2.35 1.25 -3.35 0.0 -3.35 -1.4 -3.35 -2.3 -2.35 -3.3 -1.5 -3.3 -0.1;M-1.35 -0.05 Q-1.35 0.5 -0.95 0.9 -0.45 1.1 0.0 1.3 0.5 1.1 0.95 0.9 1.35 0.5 1.35 -0.05 1.35 -0.65 0.95 -1.0 0.5 -1.45 0.0 -1.4 -0.6 -1.45 -0.95 -1.0 -1.35 -0.65 -1.35 -0.05"/>
    </path>
    <path d="M-3.3 -0.1 Q-3.3 -1.5 -2.3 -2.35 -1.4 -3.35 0.0 -3.35 1.25 -3.35 2.25 -2.35 3.25 -1.5 3.25 -0.1 3.25 1.3 2.25 2.3 1.25 3.15 0.0 3.2 -1.4 3.15 -2.3 2.3 -3.3 1.3 -3.3 -0.1" fill="none" stroke="#000000" stroke-linecap="round" stroke-linejoin="round" stroke-opacity="0.0" stroke-width="1.0">
      <animate attributeName="stroke" dur="2s" repeatCount="indefinite" values="#000000;#000001"/>
      <animate attributeName="stroke-width" dur="2s" repeatCount="indefinite" values="0.0;0.0"/>
      <animate attributeName="fill-opacity" dur="2s" repeatCount="indefinite" values="0.0;0.0"/>
      <animate attributeName="d" dur="2s" repeatCount="indefinite" values="M-3.3 -0.1 Q-3.3 -1.5 -2.3 -2.35 -1.4 -3.35 0.0 -3.35 1.25 -3.35 2.25 -2.35 3.25 -1.5 3.25 -0.1 3.25 1.3 2.25 2.3 1.25 3.15 0.0 3.2 -1.4 3.15 -2.3 2.3 -3.3 1.3 -3.3 -0.1;M-1.35 -0.05 Q-1.35 -0.65 -0.95 -1.0 -0.6 -1.45 0.0 -1.4 0.5 -1.45 0.95 -1.0 1.35 -0.65 1.35 -0.05 1.35 0.5 0.95 0.9 0.5 1.1 0.0 1.3 -0.45 1.1 -0.95 0.9 -1.35 0.5 -1.35 -0.05"/>
    </path>
  </g>
</svg>
