<?xml version="1.0" encoding="UTF-8" standalone="no"?>
<svg xmlns:xlink="http://www.w3.org/1999/xlink" height="6.6px" width="6.6px" xmlns="http://www.w3.org/2000/svg">
  <g transform="matrix(1.0, 0.0, 0.0, 1.0, 3.3, 3.3)">
    <path d="M-3.3 0.0 Q-3.3 1.35 -2.35 2.3 -1.35 3.3 0.0 3.3 1.35 3.3 2.35 2.3 3.3 1.35 3.3 0.0 3.3 -1.4 2.35 -2.35 1.35 -3.35 0.0 -3.3 -1.35 -3.35 -2.35 -2.35 -3.3 -1.4 -3.3 0.0" fill="#fdfd0b" fill-opacity="0.7019608" fill-rule="evenodd" stroke="none">
      <animate attributeName="fill" dur="2s" repeatCount="indefinite" values="#fdfd0b;#e3e303"/>
      <animate attributeName="fill-opacity" dur="2s" repeatCount="indefinite" values="0.7019608;0.7019608"/>
      <animate attributeName="d" dur="2s" repeatCount="indefinite" values="M-3.3 0.0 Q-3.3 1.35 -2.35 2.3 -1.35 3.3 0.0 3.3 1.35 3.3 2.35 2.3 3.3 1.35 3.3 0.0 3.3 -1.4 2.35 -2.35 1.35 -3.35 0.0 -3.3 -1.35 -3.35 -2.35 -2.35 -3.3 -1.4 -3.3 0.0;M-1.3 -0.05 Q-1.05 0.5 -0.85 1.0 -0.4 1.45 0.2 1.45 0.8 1.45 1.25 1.0 1.7 0.55 1.7 -0.05 1.7 -0.65 1.25 -1.1 0.8 -1.55 0.2 -1.55 -0.4 -1.55 -0.85 -1.1 -1.1 -0.55 -1.3 -0.05"/>
    </path>
    <path d="M-3.3 0.0 Q-3.3 -1.4 -2.35 -2.35 -1.35 -3.35 0.0 -3.3 1.35 -3.35 2.35 -2.35 3.3 -1.4 3.3 0.0 3.3 1.35 2.35 2.3 1.35 3.3 0.0 3.3 -1.35 3.3 -2.35 2.3 -3.3 1.35 -3.3 0.0" fill="none" stroke="#000000" stroke-linecap="round" stroke-linejoin="round" stroke-opacity="0.0" stroke-width="1.0">
      <animate attributeName="stroke" dur="2s" repeatCount="indefinite" values="#000000;#000001"/>
      <animate attributeName="stroke-width" dur="2s" repeatCount="indefinite" values="0.0;0.0"/>
      <animate attributeName="fill-opacity" dur="2s" repeatCount="indefinite" values="0.0;0.0"/>
      <animate attributeName="d" dur="2s" repeatCount="indefinite" values="M-3.3 0.0 Q-3.3 -1.4 -2.35 -2.35 -1.35 -3.35 0.0 -3.3 1.35 -3.35 2.35 -2.35 3.3 -1.4 3.3 0.0 3.3 1.35 2.35 2.3 1.35 3.3 0.0 3.3 -1.35 3.3 -2.35 2.3 -3.3 1.35 -3.3 0.0;M-1.3 -0.05 Q-1.1 -0.55 -0.85 -1.1 -0.4 -1.55 0.2 -1.55 0.8 -1.55 1.25 -1.1 1.7 -0.65 1.7 -0.05 1.7 0.55 1.25 1.0 0.8 1.45 0.2 1.45 -0.4 1.45 -0.85 1.0 -1.05 0.5 -1.3 -0.05"/>
    </path>
  </g>
</svg>
