<?xml version="1.0" encoding="UTF-8" standalone="no"?>
<svg xmlns:xlink="http://www.w3.org/1999/xlink" height="3.0px" width="3.0px" xmlns="http://www.w3.org/2000/svg">
  <g transform="matrix(1.0, 0.0, 0.0, 1.0, 1.3, 1.55)">
    <path d="M-1.3 -0.05 L-0.85 1.0 Q-0.4 1.45 0.2 1.45 0.8 1.45 1.25 1.0 1.7 0.55 1.7 -0.05 1.7 -0.65 1.25 -1.1 0.8 -1.55 0.2 -1.55 -0.4 -1.55 -0.85 -1.1 L-1.3 -0.05" fill="#e3e302" fill-rule="evenodd" stroke="none">
      <animate attributeName="fill" dur="2s" repeatCount="indefinite" values="#e3e302;#e3e303"/>
      <animate attributeName="fill-opacity" dur="2s" repeatCount="indefinite" values="1.0;0.0"/>
      <animate attributeName="d" dur="2s" repeatCount="indefinite" values="M-1.3 -0.05 L-0.85 1.0 Q-0.4 1.45 0.2 1.45 0.8 1.45 1.25 1.0 1.7 0.55 1.7 -0.05 1.7 -0.65 1.25 -1.1 0.8 -1.55 0.2 -1.55 -0.4 -1.55 -0.85 -1.1 L-1.3 -0.05;M-1.05 0.1 L-0.75 0.85 Q-0.4 1.0 -0.05 1.15 0.3 1.0 0.65 0.85 0.8 0.45 0.95 0.1 0.8 -0.3 0.65 -0.65 0.3 -0.8 -0.05 -0.95 -0.4 -0.8 -0.75 -0.65 L-1.05 0.1"/>
    </path>
    <path d="M-1.3 -0.05 L-0.85 -1.1 Q-0.4 -1.55 0.2 -1.55 0.8 -1.55 1.25 -1.1 1.7 -0.65 1.7 -0.05 1.7 0.55 1.25 1.0 0.8 1.45 0.2 1.45 -0.4 1.45 -0.85 1.0 L-1.3 -0.05" fill="none" stroke="#000000" stroke-linecap="round" stroke-linejoin="round" stroke-opacity="0.0" stroke-width="1.0">
      <animate attributeName="stroke" dur="2s" repeatCount="indefinite" values="#000000;#000001"/>
      <animate attributeName="stroke-width" dur="2s" repeatCount="indefinite" values="0.0;0.0"/>
      <animate attributeName="fill-opacity" dur="2s" repeatCount="indefinite" values="0.0;0.0"/>
      <animate attributeName="d" dur="2s" repeatCount="indefinite" values="M-1.3 -0.05 L-0.85 -1.1 Q-0.4 -1.55 0.2 -1.55 0.8 -1.55 1.25 -1.1 1.7 -0.65 1.7 -0.05 1.7 0.55 1.25 1.0 0.8 1.45 0.2 1.45 -0.4 1.45 -0.85 1.0 L-1.3 -0.05;M-1.05 0.1 L-0.75 -0.65 Q-0.4 -0.8 -0.05 -0.95 0.3 -0.8 0.65 -0.65 0.8 -0.3 0.95 0.1 0.8 0.45 0.65 0.85 0.3 1.0 -0.05 1.15 -0.4 1.0 -0.75 0.85 L-1.05 0.1"/>
    </path>
  </g>
</svg>
