<?xml version="1.0" encoding="UTF-8" standalone="no"?>
<svg xmlns:xlink="http://www.w3.org/1999/xlink" height="16.05px" width="14.65px" xmlns="http://www.w3.org/2000/svg">
  <g transform="matrix(1.0, 0.0, 0.0, 1.0, 7.3, 13.2)">
    <path d="M-4.55 -5.2 Q-4.55 -3.15 -3.2 -1.65 -1.9 -0.15 0.0 -0.15 1.9 -0.15 3.25 -1.65 4.65 -3.15 4.65 -5.2 4.65 -7.25 3.25 -8.75 1.9 -10.2 0.0 -10.2 -1.9 -10.2 -3.2 -8.75 -4.55 -7.25 -4.55 -5.2" fill="#ffffff" fill-rule="evenodd" stroke="none">
      <animate attributeName="fill" dur="2s" repeatCount="indefinite" values="#ffffff;#ffffff"/>
      <animate attributeName="fill-opacity" dur="2s" repeatCount="indefinite" values="1.0;0.0"/>
      <animate attributeName="d" dur="2s" repeatCount="indefinite" values="M-4.55 -5.2 Q-4.55 -3.15 -3.2 -1.65 -1.9 -0.15 0.0 -0.15 1.9 -0.15 3.25 -1.65 4.65 -3.15 4.65 -5.2 4.65 -7.25 3.25 -8.75 1.9 -10.2 0.0 -10.2 -1.9 -10.2 -3.2 -8.75 -4.55 -7.25 -4.55 -5.2;M-7.3 -5.2 Q-7.35 -1.9 -5.2 0.45 -3.05 2.8 -0.05 2.85 3.0 2.8 5.15 0.45 7.35 -1.9 7.35 -5.2 7.35 -8.55 5.15 -10.9 3.0 -13.2 -0.05 -13.2 -3.05 -13.2 -5.2 -10.9 -7.35 -8.55 -7.3 -5.2"/>
    </path>
    <path d="M-4.55 -5.2 Q-4.55 -7.25 -3.2 -8.75 -1.9 -10.2 0.0 -10.2 1.9 -10.2 3.25 -8.75 4.65 -7.25 4.65 -5.2 4.65 -3.15 3.25 -1.65 1.9 -0.15 0.0 -0.15 -1.9 -0.15 -3.2 -1.65 -4.55 -3.15 -4.55 -5.2" fill="none" stroke="#000000" stroke-linecap="round" stroke-linejoin="round" stroke-opacity="0.0" stroke-width="1.0">
      <animate attributeName="stroke" dur="2s" repeatCount="indefinite" values="#000000;#000001"/>
      <animate attributeName="stroke-width" dur="2s" repeatCount="indefinite" values="0.0;0.0"/>
      <animate attributeName="fill-opacity" dur="2s" repeatCount="indefinite" values="0.0;0.0"/>
      <animate attributeName="d" dur="2s" repeatCount="indefinite" values="M-4.55 -5.2 Q-4.55 -7.25 -3.2 -8.75 -1.9 -10.2 0.0 -10.2 1.9 -10.2 3.25 -8.75 4.65 -7.25 4.65 -5.2 4.65 -3.15 3.25 -1.65 1.9 -0.15 0.0 -0.15 -1.9 -0.15 -3.2 -1.65 -4.55 -3.15 -4.55 -5.2;M-7.3 -5.2 Q-7.35 -8.55 -5.2 -10.9 -3.05 -13.2 -0.05 -13.2 3.0 -13.2 5.15 -10.9 7.35 -8.55 7.35 -5.2 7.35 -1.9 5.15 0.45 3.0 2.8 -0.05 2.85 -3.05 2.8 -5.2 0.45 -7.35 -1.9 -7.3 -5.2"/>
    </path>
  </g>
</svg>
