<?xml version="1.0" encoding="UTF-8" standalone="no"?>
<svg xmlns:xlink="http://www.w3.org/1999/xlink" height="6.6px" width="6.6px" xmlns="http://www.w3.org/2000/svg">
  <g transform="matrix(1.0, 0.0, 0.0, 1.0, 3.3, 3.3)">
    <path d="M-3.3 0.0 L-3.3 0.0 Q-3.3 1.0 -2.8 1.75 L-2.35 2.3 -1.65 2.85 -0.7 3.2 0.0 3.3 1.25 3.05 2.35 2.3 3.2 0.95 3.3 0.0 Q3.3 -1.05 2.8 -1.85 L2.35 -2.35 Q1.4 -3.3 0.2 -3.3 L0.0 -3.3 Q-1.35 -3.35 -2.35 -2.35 L-2.35 -2.25 Q-3.15 -1.5 -3.25 -0.5 L-3.3 0.0" fill="#5ecfff" fill-rule="evenodd" stroke="none">
      <animate attributeName="fill" dur="2s" repeatCount="indefinite" values="#5ecfff;#3333cd"/>
      <animate attributeName="fill-opacity" dur="2s" repeatCount="indefinite" values="1.0;1.0"/>
      <animate attributeName="d" dur="2s" repeatCount="indefinite" values="M-3.3 0.0 L-3.3 0.0 Q-3.3 1.0 -2.8 1.75 L-2.35 2.3 -1.65 2.85 -0.7 3.2 0.0 3.3 1.25 3.05 2.35 2.3 3.2 0.95 3.3 0.0 Q3.3 -1.05 2.8 -1.85 L2.35 -2.35 Q1.4 -3.3 0.2 -3.3 L0.0 -3.3 Q-1.35 -3.35 -2.35 -2.35 L-2.35 -2.25 Q-3.15 -1.5 -3.25 -0.5 L-3.3 0.0;M-1.0 -0.05 L-1.0 0.05 Q-0.8 0.5 -0.6 0.95 L-0.2 1.2 0.0 1.3 0.4 1.35 0.85 1.3 1.4 0.95 1.7 0.5 1.8 -0.05 1.8 -0.35 Q1.6 -0.7 1.4 -1.05 L1.25 -1.15 Q0.8 -1.3 0.4 -1.45 L0.4 -1.45 Q-0.15 -1.45 -0.5 -1.05 L-0.6 -1.05 Q-0.8 -0.65 -1.0 -0.25 L-1.0 -0.05"/>
    </path>
    <path d="M-3.3 0.0 L-3.25 -0.5 Q-3.15 -1.5 -2.35 -2.25 L-2.35 -2.35 Q-1.35 -3.35 0.0 -3.3 L0.2 -3.3 Q1.4 -3.3 2.35 -2.35 L2.8 -1.85 Q3.3 -1.05 3.3 0.0 L3.2 0.95 2.35 2.3 1.25 3.05 0.0 3.3 -0.7 3.2 -1.65 2.85 -2.35 2.3 -2.8 1.75 Q-3.3 1.0 -3.3 0.0 L-3.3 0.0" fill="none" stroke="#000000" stroke-linecap="round" stroke-linejoin="round" stroke-opacity="0.0" stroke-width="1.0">
      <animate attributeName="stroke" dur="2s" repeatCount="indefinite" values="#000000;#000001"/>
      <animate attributeName="stroke-width" dur="2s" repeatCount="indefinite" values="0.0;0.0"/>
      <animate attributeName="fill-opacity" dur="2s" repeatCount="indefinite" values="0.0;0.0"/>
      <animate attributeName="d" dur="2s" repeatCount="indefinite" values="M-3.3 0.0 L-3.25 -0.5 Q-3.15 -1.5 -2.35 -2.25 L-2.35 -2.35 Q-1.35 -3.35 0.0 -3.3 L0.2 -3.3 Q1.4 -3.3 2.35 -2.35 L2.8 -1.85 Q3.3 -1.05 3.3 0.0 L3.2 0.95 2.35 2.3 1.25 3.05 0.0 3.3 -0.7 3.2 -1.65 2.85 -2.35 2.3 -2.8 1.75 Q-3.3 1.0 -3.3 0.0 L-3.3 0.0;M-1.0 -0.05 L-1.0 -0.25 Q-0.8 -0.65 -0.6 -1.05 L-0.5 -1.05 Q-0.15 -1.45 0.4 -1.45 L0.4 -1.45 Q0.8 -1.3 1.25 -1.15 L1.4 -1.05 Q1.6 -0.7 1.8 -0.35 L1.8 -0.05 1.7 0.5 1.4 0.95 0.85 1.3 0.4 1.35 0.0 1.3 -0.2 1.2 -0.6 0.95 Q-0.8 0.5 -1.0 0.05 L-1.0 -0.05"/>
    </path>
  </g>
</svg>
