<?xml version="1.0" encoding="UTF-8" standalone="no"?>
<svg xmlns:xlink="http://www.w3.org/1999/xlink" height="17.65px" width="16.3px" xmlns="http://www.w3.org/2000/svg">
  <g transform="matrix(1.0, 0.0, 0.0, 1.0, 11.25, 12.65)">
    <path d="M1.75 3.35 L1.75 3.45 Q1.85 3.6 1.9 3.75 L1.9 3.8 2.0 3.9 2.1 3.9 Q2.25 3.95 2.35 3.95 L2.35 3.95 Q2.55 3.85 2.75 3.8 2.85 3.55 2.95 3.35 L2.95 3.35 Q2.85 3.15 2.8 2.95 L2.75 2.95 2.75 2.95 Q2.55 2.85 2.35 2.75 L2.2 2.8 Q2.05 2.9 1.9 2.95 1.8 3.15 1.75 3.35 M-5.05 -0.05 Q-5.05 2.05 -3.6 3.55 L-3.4 3.75 Q-1.95 5.0 0.0 5.0 L0.3 5.0 Q2.2 4.9 3.55 3.55 L3.75 3.35 Q5.05 1.9 5.05 -0.05 5.05 -2.15 3.55 -3.6 L3.5 -3.65 Q2.9 -4.1 2.35 -4.55 1.15 -4.85 0.0 -5.1 L-0.3 -5.1 Q-1.7 -5.0 -2.75 -4.3 L-3.6 -3.6 Q-5.05 -2.15 -5.05 -0.05" fill="#3333cc" fill-opacity="0.5019608" fill-rule="evenodd" stroke="none">
      <animate attributeName="fill" dur="2s" repeatCount="indefinite" values="#3333cc;#3333cd"/>
      <animate attributeName="fill-opacity" dur="2s" repeatCount="indefinite" values="0.5019608;0.0"/>
      <animate attributeName="d" dur="2s" repeatCount="indefinite" values="M1.75 3.35 L1.75 3.45 Q1.85 3.6 1.9 3.75 L1.9 3.8 2.0 3.9 2.1 3.9 Q2.25 3.95 2.35 3.95 L2.35 3.95 Q2.55 3.85 2.75 3.8 2.85 3.55 2.95 3.35 L2.95 3.35 Q2.85 3.15 2.8 2.95 L2.75 2.95 2.75 2.95 Q2.55 2.85 2.35 2.75 L2.2 2.8 Q2.05 2.9 1.9 2.95 1.8 3.15 1.75 3.35 M-5.05 -0.05 Q-5.05 2.05 -3.6 3.55 L-3.4 3.75 Q-1.95 5.0 0.0 5.0 L0.3 5.0 Q2.2 4.9 3.55 3.55 L3.75 3.35 Q5.05 1.9 5.05 -0.05 5.05 -2.15 3.55 -3.6 L3.5 -3.65 Q2.9 -4.1 2.35 -4.55 1.15 -4.85 0.0 -5.1 L-0.3 -5.1 Q-1.7 -5.0 -2.75 -4.3 L-3.6 -3.6 Q-5.05 -2.15 -5.05 -0.05;M-10.55 -6.55 L-10.55 -6.55 Q-10.55 -4.65 -9.4 -3.25 L-9.2 -2.95 -8.95 -2.6 -8.15 -1.95 Q-6.95 -1.15 -5.45 -1.05 L-5.05 -1.05 Q-2.75 -1.05 -1.15 -2.65 0.3 -4.15 0.45 -6.15 L0.45 -6.55 Q0.45 -8.4 -0.55 -9.8 L-1.15 -10.45 -2.1 -11.2 Q-2.85 -11.7 -4.65 -12.05 L-6.4 -11.9 Q-7.65 -11.6 -8.95 -10.45 -10.55 -8.85 -10.55 -6.55 M-11.25 -6.7 Q-11.25 -4.4 -9.75 -2.65 L-9.55 -2.45 Q-7.85 -0.85 -5.6 -0.75 L-5.3 -0.75 Q-3.05 -0.75 -1.4 -2.25 L-1.1 -2.45 Q0.65 -4.25 0.65 -6.8 0.6 -9.15 -1.1 -10.9 L-1.1 -10.9 Q-1.7 -11.5 -2.4 -11.9 -3.55 -12.55 -4.9 -12.65 L-5.3 -12.65 Q-6.9 -12.65 -8.25 -11.9 L-9.55 -10.9 Q-11.25 -9.15 -11.25 -6.7"/>
    </path>
    <path d="M1.75 3.35 Q1.85 3.55 1.9 3.75 L1.9 3.8 1.9 3.8 2.0 3.9 Q2.2 3.95 2.35 3.95 2.55 3.85 2.75 3.8 2.85 3.55 2.95 3.35 L2.95 3.35 Q2.85 3.15 2.8 2.95 L2.75 2.95 2.75 2.95 Q2.55 2.85 2.35 2.75 L2.2 2.8 Q2.05 2.9 1.9 2.95 1.8 3.15 1.75 3.35" fill="#0066ff" fill-opacity="0.0" fill-rule="evenodd" stroke="none">
      <animate attributeName="fill" dur="2s" repeatCount="indefinite" values="#0066ff;#0033ff"/>
      <animate attributeName="fill-opacity" dur="2s" repeatCount="indefinite" values="0.0;0.0"/>
      <animate attributeName="d" dur="2s" repeatCount="indefinite" values="M1.75 3.35 Q1.85 3.55 1.9 3.75 L1.9 3.8 1.9 3.8 2.0 3.9 Q2.2 3.95 2.35 3.95 2.55 3.85 2.75 3.8 2.85 3.55 2.95 3.35 L2.95 3.35 Q2.85 3.15 2.8 2.95 L2.75 2.95 2.75 2.95 Q2.55 2.85 2.35 2.75 L2.2 2.8 Q2.05 2.9 1.9 2.95 1.8 3.15 1.75 3.35;M-10.55 -6.55 Q-10.55 -4.45 -9.2 -2.95 L-8.95 -2.65 -8.85 -2.6 -8.15 -1.95 Q-6.8 -1.05 -5.05 -1.05 -2.75 -1.05 -1.15 -2.65 0.3 -4.15 0.45 -6.15 L0.45 -6.55 Q0.45 -8.4 -0.55 -9.8 L-1.15 -10.45 -2.1 -11.2 Q-2.85 -11.7 -4.65 -12.05 L-6.4 -11.9 Q-7.65 -11.6 -8.95 -10.45 -10.55 -8.85 -10.55 -6.55"/>
    </path>
    <path d="M-5.05 -0.05 Q-5.05 -2.15 -3.6 -3.6 L-2.75 -4.3 Q-1.7 -5.0 -0.3 -5.1 L0.0 -5.1 Q1.15 -4.85 2.35 -4.55 2.9 -4.1 3.5 -3.65 L3.55 -3.6 Q5.05 -2.15 5.05 -0.05 5.05 1.9 3.75 3.35 L3.55 3.55 Q2.2 4.9 0.3 5.0 L0.0 5.0 Q-1.95 5.0 -3.4 3.75 L-3.6 3.55 Q-5.05 2.05 -5.05 -0.05 M1.75 3.35 Q1.8 3.15 1.9 2.95 2.05 2.9 2.2 2.8 L2.35 2.75 Q2.55 2.85 2.75 2.95 L2.75 2.95 2.8 2.95 Q2.85 3.15 2.95 3.35 L2.95 3.35 Q2.85 3.55 2.75 3.8 2.55 3.85 2.35 3.95 L2.35 3.95 Q2.25 3.95 2.1 3.9 L2.0 3.9 1.9 3.8 1.9 3.75 Q1.85 3.6 1.75 3.45 L1.75 3.35 Q1.8 3.15 1.9 2.95 2.05 2.9 2.2 2.8 L2.35 2.75 Q2.55 2.85 2.75 2.95 L2.75 2.95 2.8 2.95 Q2.85 3.15 2.95 3.35 L2.95 3.35 Q2.85 3.55 2.75 3.8 2.55 3.85 2.35 3.95 2.2 3.95 2.0 3.9 L1.9 3.8 1.9 3.8 1.9 3.75 Q1.85 3.55 1.75 3.35" fill="none" stroke="#000000" stroke-linecap="round" stroke-linejoin="round" stroke-opacity="0.0" stroke-width="1.0">
      <animate attributeName="stroke" dur="2s" repeatCount="indefinite" values="#000000;#000001"/>
      <animate attributeName="stroke-width" dur="2s" repeatCount="indefinite" values="0.0;0.0"/>
      <animate attributeName="fill-opacity" dur="2s" repeatCount="indefinite" values="0.0;0.0"/>
      <animate attributeName="d" dur="2s" repeatCount="indefinite" values="M-5.05 -0.05 Q-5.05 -2.15 -3.6 -3.6 L-2.75 -4.3 Q-1.7 -5.0 -0.3 -5.1 L0.0 -5.1 Q1.15 -4.85 2.35 -4.55 2.9 -4.1 3.5 -3.65 L3.55 -3.6 Q5.05 -2.15 5.05 -0.05 5.05 1.9 3.75 3.35 L3.55 3.55 Q2.2 4.9 0.3 5.0 L0.0 5.0 Q-1.95 5.0 -3.4 3.75 L-3.6 3.55 Q-5.05 2.05 -5.05 -0.05 M1.75 3.35 Q1.8 3.15 1.9 2.95 2.05 2.9 2.2 2.8 L2.35 2.75 Q2.55 2.85 2.75 2.95 L2.75 2.95 2.8 2.95 Q2.85 3.15 2.95 3.35 L2.95 3.35 Q2.85 3.55 2.75 3.8 2.55 3.85 2.35 3.95 L2.35 3.95 Q2.25 3.95 2.1 3.9 L2.0 3.9 1.9 3.8 1.9 3.75 Q1.85 3.6 1.75 3.45 L1.75 3.35 Q1.8 3.15 1.9 2.95 2.05 2.9 2.2 2.8 L2.35 2.75 Q2.55 2.85 2.75 2.95 L2.75 2.95 2.8 2.95 Q2.85 3.15 2.95 3.35 L2.95 3.35 Q2.85 3.55 2.75 3.8 2.55 3.85 2.35 3.95 2.2 3.95 2.0 3.9 L1.9 3.8 1.9 3.8 1.9 3.75 Q1.85 3.55 1.75 3.35;M-11.25 -6.7 Q-11.25 -9.15 -9.55 -10.9 L-8.25 -11.9 Q-6.9 -12.65 -5.3 -12.65 L-4.9 -12.65 Q-3.55 -12.55 -2.4 -11.9 -1.7 -11.5 -1.1 -10.9 L-1.1 -10.9 Q0.6 -9.15 0.65 -6.8 0.65 -4.25 -1.1 -2.45 L-1.4 -2.25 Q-3.05 -0.75 -5.3 -0.75 L-5.6 -0.75 Q-7.85 -0.85 -9.55 -2.45 L-9.75 -2.65 Q-11.25 -4.4 -11.25 -6.7 M-10.55 -6.55 Q-10.55 -8.85 -8.95 -10.45 -7.65 -11.6 -6.4 -11.9 L-4.65 -12.05 Q-2.85 -11.7 -2.1 -11.2 L-1.15 -10.45 -0.55 -9.8 Q0.45 -8.4 0.45 -6.55 L0.45 -6.15 Q0.3 -4.15 -1.15 -2.65 -2.75 -1.05 -5.05 -1.05 L-5.45 -1.05 Q-6.95 -1.15 -8.15 -1.95 L-8.95 -2.6 -9.2 -2.95 -9.4 -3.25 Q-10.55 -4.65 -10.55 -6.55 L-10.55 -6.55 Q-10.55 -8.85 -8.95 -10.45 -7.65 -11.6 -6.4 -11.9 L-4.65 -12.05 Q-2.85 -11.7 -2.1 -11.2 L-1.15 -10.45 -0.55 -9.8 Q0.45 -8.4 0.45 -6.55 L0.45 -6.15 Q0.3 -4.15 -1.15 -2.65 -2.75 -1.05 -5.05 -1.05 -6.8 -1.05 -8.15 -1.95 L-8.85 -2.6 -8.95 -2.65 -9.2 -2.95 Q-10.55 -4.45 -10.55 -6.55"/>
    </path>
  </g>
</svg>
