<?xml version="1.0" encoding="UTF-8" standalone="no"?>
<svg xmlns:xlink="http://www.w3.org/1999/xlink" height="2.8px" width="2.85px" xmlns="http://www.w3.org/2000/svg">
  <g transform="matrix(1.0, 0.0, 0.0, 1.0, 1.05, 1.45)">
    <path d="M-1.0 -0.05 L-1.0 -0.05 -0.85 0.65 -0.6 0.95 -0.1 1.3 0.2 1.35 0.4 1.35 0.9 1.3 1.4 0.95 1.5 0.85 1.8 0.05 1.8 -0.05 1.8 -0.3 1.6 -0.85 1.4 -1.05 1.1 -1.25 0.9 -1.35 0.4 -1.45 0.4 -1.45 -0.25 -1.3 Q-0.45 -1.2 -0.6 -1.05 L-0.7 -0.85 -1.0 -0.05" fill="#3333cc" fill-rule="evenodd" stroke="none">
      <animate attributeName="fill" dur="2s" repeatCount="indefinite" values="#3333cc;#3333cd"/>
      <animate attributeName="fill-opacity" dur="2s" repeatCount="indefinite" values="1.0;0.0"/>
      <animate attributeName="d" dur="2s" repeatCount="indefinite" values="M-1.0 -0.05 L-1.0 -0.05 -0.85 0.65 -0.6 0.95 -0.1 1.3 0.2 1.35 0.4 1.35 0.9 1.3 1.4 0.95 1.5 0.85 1.8 0.05 1.8 -0.05 1.8 -0.3 1.6 -0.85 1.4 -1.05 1.1 -1.25 0.9 -1.35 0.4 -1.45 0.4 -1.45 -0.25 -1.3 Q-0.45 -1.2 -0.6 -1.05 L-0.7 -0.85 -1.0 -0.05;M-1.05 -0.45 L-1.05 -0.35 -0.85 0.05 -0.7 0.2 -0.4 0.25 -0.4 0.45 -0.35 0.65 -0.2 0.9 0.05 1.1 0.25 1.1 0.75 0.9 0.75 0.9 0.95 0.45 0.75 -0.05 0.6 -0.15 0.25 -0.25 0.3 -0.45 0.15 -0.85 0.1 -0.9 -0.4 -1.1 Q-0.55 -1.05 -0.7 -1.0 L-0.85 -0.9 -1.05 -0.45"/>
    </path>
    <path d="M-1.0 -0.05 L-0.7 -0.85 -0.6 -1.05 Q-0.45 -1.2 -0.25 -1.3 L0.4 -1.45 0.4 -1.45 0.9 -1.35 1.1 -1.25 1.4 -1.05 1.6 -0.85 1.8 -0.3 1.8 -0.05 1.8 0.05 1.5 0.85 1.4 0.95 0.9 1.3 0.4 1.35 0.2 1.35 -0.1 1.3 -0.6 0.95 -0.85 0.65 -1.0 -0.05 -1.0 -0.05" fill="none" stroke="#000000" stroke-linecap="round" stroke-linejoin="round" stroke-opacity="0.0" stroke-width="1.0">
      <animate attributeName="stroke" dur="2s" repeatCount="indefinite" values="#000000;#000001"/>
      <animate attributeName="stroke-width" dur="2s" repeatCount="indefinite" values="0.0;0.0"/>
      <animate attributeName="fill-opacity" dur="2s" repeatCount="indefinite" values="0.0;0.0"/>
      <animate attributeName="d" dur="2s" repeatCount="indefinite" values="M-1.0 -0.05 L-0.7 -0.85 -0.6 -1.05 Q-0.45 -1.2 -0.25 -1.3 L0.4 -1.45 0.4 -1.45 0.9 -1.35 1.1 -1.25 1.4 -1.05 1.6 -0.85 1.8 -0.3 1.8 -0.05 1.8 0.05 1.5 0.85 1.4 0.95 0.9 1.3 0.4 1.35 0.2 1.35 -0.1 1.3 -0.6 0.95 -0.85 0.65 -1.0 -0.05 -1.0 -0.05;M-1.05 -0.45 L-0.85 -0.9 -0.7 -1.0 Q-0.55 -1.05 -0.4 -1.1 L0.1 -0.9 0.15 -0.85 0.3 -0.45 0.25 -0.25 0.6 -0.15 0.75 -0.05 0.95 0.45 0.75 0.9 0.75 0.9 0.25 1.1 0.05 1.1 -0.2 0.9 -0.35 0.65 -0.4 0.45 -0.4 0.25 -0.7 0.2 -0.85 0.05 -1.05 -0.35 -1.05 -0.45"/>
    </path>
  </g>
</svg>
