<?xml version="1.0" encoding="UTF-8" standalone="no"?>
<svg xmlns:xlink="http://www.w3.org/1999/xlink" height="6.0px" width="6.0px" xmlns="http://www.w3.org/2000/svg">
  <g transform="matrix(1.0, 0.0, 0.0, 1.0, 2.95, 3.0)">
    <path d="M-2.95 -0.75 L-2.95 0.7 -0.65 0.7 -0.65 3.0 0.8 3.0 0.8 0.7 3.05 0.7 3.05 -0.75 0.8 -0.75 0.8 -3.0 -0.65 -3.0 -0.65 -0.75 -2.95 -0.75" fill="#ffffff" fill-rule="evenodd" stroke="none">
      <animate attributeName="fill" dur="2s" repeatCount="indefinite" values="#ffffff;#ffffff"/>
      <animate attributeName="fill-opacity" dur="2s" repeatCount="indefinite" values="1.0;1.0"/>
      <animate attributeName="d" dur="2s" repeatCount="indefinite" values="M-2.95 -0.75 L-2.95 0.7 -0.65 0.7 -0.65 3.0 0.8 3.0 0.8 0.7 3.05 0.7 3.05 -0.75 0.8 -0.75 0.8 -3.0 -0.65 -3.0 -0.65 -0.75 -2.95 -0.75;M-2.95 -0.75 L-2.95 0.7 -0.65 0.7 -0.65 3.0 0.8 3.0 0.8 0.7 3.05 0.7 3.05 -0.75 0.8 -0.75 0.8 -3.0 -0.65 -3.0 -0.65 -0.75 -2.95 -0.75"/>
    </path>
    <path d="M-2.95 -0.75 L-0.65 -0.75 -0.65 -3.0 0.8 -3.0 0.8 -0.75 3.05 -0.75 3.05 0.7 0.8 0.7 0.8 3.0 -0.65 3.0 -0.65 0.7 -2.95 0.7 -2.95 -0.75" fill="none" stroke="#000000" stroke-linecap="round" stroke-linejoin="round" stroke-opacity="0.0" stroke-width="1.0">
      <animate attributeName="stroke" dur="2s" repeatCount="indefinite" values="#000000;#000001"/>
      <animate attributeName="stroke-width" dur="2s" repeatCount="indefinite" values="0.0;0.0"/>
      <animate attributeName="fill-opacity" dur="2s" repeatCount="indefinite" values="0.0;0.0"/>
      <animate attributeName="d" dur="2s" repeatCount="indefinite" values="M-2.95 -0.75 L-0.65 -0.75 -0.65 -3.0 0.8 -3.0 0.8 -0.75 3.05 -0.75 3.05 0.7 0.8 0.7 0.8 3.0 -0.65 3.0 -0.65 0.7 -2.95 0.7 -2.95 -0.75;M-2.95 -0.75 L-0.65 -0.75 -0.65 -3.0 0.8 -3.0 0.8 -0.75 3.05 -0.75 3.05 0.7 0.8 0.7 0.8 3.0 -0.65 3.0 -0.65 0.7 -2.95 0.7 -2.95 -0.75"/>
    </path>
  </g>
</svg>
