<?xml version="1.0" encoding="UTF-8" standalone="no"?>
<svg xmlns:xlink="http://www.w3.org/1999/xlink" height="36.75px" width="13.3px" xmlns="http://www.w3.org/2000/svg">
  <g transform="matrix(1.0, 0.0, 0.0, 1.0, 6.65, 4.0)">
    <path d="M3.35 24.9 L4.1 25.9 Q3.7 26.0 3.2 26.35 2.2 27.0 1.9 27.75 1.85 27.05 2.1 26.35 L2.85 25.55 3.35 24.9 M5.1 30.8 Q4.65 32.3 4.1 32.25 3.55 32.2 2.9 31.75 2.25 31.25 2.3 29.95 L3.1 30.8 4.75 30.85 5.1 30.8" fill="#13112b" fill-rule="evenodd" stroke="none"/>
    <path d="M1.1 -0.1 Q1.1 -0.8 0.6 -1.3 0.1 -1.8 -0.6 -1.8 -1.3 -1.8 -1.8 -1.3 -2.3 -0.8 -2.3 -0.1 -2.3 0.6 -1.8 1.1 -1.3 1.6 -0.6 1.6 0.1 1.6 0.6 1.1 1.1 0.6 1.1 -0.1 1.1 0.6 0.6 1.1 0.1 1.6 -0.6 1.6 -1.3 1.6 -1.8 1.1 -2.3 0.6 -2.3 -0.1 -2.3 -0.8 -1.8 -1.3 -1.3 -1.8 -0.6 -1.8 0.1 -1.8 0.6 -1.3 1.1 -0.8 1.1 -0.1 M-3.7 0.35 Q-4.05 -1.35 -2.35 -2.6 -0.7 -3.9 1.7 -3.3 4.1 -2.75 3.85 0.05 L3.75 2.0 Q2.75 3.8 1.9 4.4 0.6 5.35 -0.75 4.95 -2.15 4.6 -2.95 2.95 L-3.7 0.35 M0.3 11.1 Q1.5 11.8 1.55 12.65 1.55 13.55 0.4 14.7 L-0.7 15.65 Q-2.95 17.3 -4.35 14.35 L-4.7 13.5 Q-5.6 11.25 -4.75 10.55 L-4.6 10.45 Q-3.55 9.7 -1.1 10.5 L0.3 11.1 M3.1 0.9 L2.85 0.3 2.3 0.1 1.7 0.3 1.5 0.9 1.7 1.45 2.3 1.7 2.85 1.45 3.1 0.9 M0.0 14.1 L0.25 13.5 0.0 12.9 Q-0.25 12.65 -0.6 12.65 -0.95 12.65 -1.2 12.9 L-1.45 13.5 -1.2 14.1 -0.6 14.35 0.0 14.1 -0.6 14.35 -1.2 14.1 -1.45 13.5 -1.2 12.9 Q-0.95 12.65 -0.6 12.65 -0.25 12.65 0.0 12.9 L0.25 13.5 0.0 14.1 M-3.85 11.25 Q-4.25 11.65 -4.25 12.2 -4.25 12.75 -3.85 13.15 -3.45 13.55 -2.9 13.55 -2.35 13.55 -1.95 13.15 -1.55 12.75 -1.55 12.2 -1.55 11.65 -1.95 11.25 -2.35 10.85 -2.9 10.85 -3.45 10.85 -3.85 11.25 -3.45 10.85 -2.9 10.85 -2.35 10.85 -1.95 11.25 -1.55 11.65 -1.55 12.2 -1.55 12.75 -1.95 13.15 -2.35 13.55 -2.9 13.55 -3.45 13.55 -3.85 13.15 -4.25 12.75 -4.25 12.2 -4.25 11.65 -3.85 11.25" fill="#e1e1e1" fill-rule="evenodd" stroke="none"/>
    <path d="M3.75 2.0 L3.75 1.95 3.5 3.2 1.35 8.25 Q0.8 9.35 0.3 11.1 L-1.1 10.5 Q-3.55 9.7 -4.6 10.45 L-4.45 9.65 -3.65 2.9 Q-3.95 1.0 -3.7 0.35 L-2.95 2.95 Q-2.15 4.6 -0.75 4.95 0.6 5.35 1.9 4.4 2.75 3.8 3.75 2.0 M0.4 14.7 L3.25 21.6 3.5 22.35 Q4.0 23.8 3.35 24.9 L2.85 25.55 2.1 26.35 1.3 26.45 0.6 25.35 -0.3 23.65 -2.8 19.05 Q-4.0 16.7 -4.6 14.35 L-4.7 13.5 -4.35 14.35 Q-2.95 17.3 -0.7 15.65 L0.4 14.7" fill="#4d4d4d" fill-rule="evenodd" stroke="none"/>
    <path d="M4.1 25.9 Q5.15 25.55 5.55 26.65 6.5 28.25 5.9 30.05 5.85 30.65 5.1 30.8 L4.75 30.85 3.1 30.8 2.3 29.95 1.95 29.15 Q1.65 28.5 1.85 27.9 L1.9 27.75 Q2.2 27.0 3.2 26.35 3.7 26.0 4.1 25.9" fill="#cccccc" fill-rule="evenodd" stroke="none"/>
    <path d="M3.1 0.9 L2.85 1.45 2.3 1.7 1.7 1.45 1.5 0.9 1.7 0.3 2.3 0.1 2.85 0.3 3.1 0.9" fill="#0099ff" fill-rule="evenodd" stroke="none"/>
    <path d="M-3.7 0.35 Q-4.05 -1.35 -2.35 -2.6 -0.7 -3.9 1.7 -3.3 4.1 -2.75 3.85 0.05 L3.75 2.0 3.75 1.95 3.5 3.2 1.35 8.25 Q0.8 9.35 0.3 11.1 1.5 11.8 1.55 12.65 1.55 13.55 0.4 14.7 L3.25 21.6 3.5 22.35 Q4.0 23.8 3.35 24.9 L4.1 25.9 Q5.15 25.55 5.55 26.65 6.5 28.25 5.9 30.05 5.85 30.65 5.1 30.8 4.65 32.3 4.1 32.25 3.55 32.2 2.9 31.75 2.25 31.25 2.3 29.95 L1.95 29.15 Q1.65 28.5 1.85 27.9 L1.9 27.75 Q1.85 27.05 2.1 26.35 L1.3 26.45 0.6 25.35 -0.3 23.65 -2.8 19.05 Q-4.0 16.7 -4.6 14.35 L-4.7 13.5 Q-5.6 11.25 -4.75 10.55 L-4.6 10.45 -4.45 9.65 -3.65 2.9 Q-3.95 1.0 -3.7 0.35 L-2.95 2.95 Q-2.15 4.6 -0.75 4.95 0.6 5.35 1.9 4.4 2.75 3.8 3.75 2.0 M1.9 27.75 Q2.2 27.0 3.2 26.35 3.7 26.0 4.1 25.9 M3.35 24.9 L2.85 25.55 2.1 26.35 M5.1 30.8 L4.75 30.85 3.1 30.8 2.3 29.95 M0.3 11.1 L-1.1 10.5 Q-3.55 9.7 -4.6 10.45 M-4.7 13.5 L-4.35 14.35 Q-2.95 17.3 -0.7 15.65 L0.4 14.7" fill="none" stroke="#000000" stroke-linecap="round" stroke-linejoin="round" stroke-width="1.0"/>
    <path d="M1.1 -0.1 Q1.1 0.6 0.6 1.1 0.1 1.6 -0.6 1.6 -1.3 1.6 -1.8 1.1 -2.3 0.6 -2.3 -0.1 -2.3 -0.8 -1.8 -1.3 -1.3 -1.8 -0.6 -1.8 0.1 -1.8 0.6 -1.3 1.1 -0.8 1.1 -0.1 M3.1 0.9 L2.85 1.45 2.3 1.7 1.7 1.45 1.5 0.9 1.7 0.3 2.3 0.1 2.85 0.3 3.1 0.9 M0.0 14.1 L-0.6 14.35 -1.2 14.1 -1.45 13.5 -1.2 12.9 Q-0.95 12.65 -0.6 12.65 -0.25 12.65 0.0 12.9 L0.25 13.5 0.0 14.1 M-3.85 11.25 Q-3.45 10.85 -2.9 10.85 -2.35 10.85 -1.95 11.25 -1.55 11.65 -1.55 12.2 -1.55 12.75 -1.95 13.15 -2.35 13.55 -2.9 13.55 -3.45 13.55 -3.85 13.15 -4.25 12.75 -4.25 12.2 -4.25 11.65 -3.85 11.25" fill="none" stroke="#999999" stroke-linecap="round" stroke-linejoin="round" stroke-width="1.0"/>
    <path d="M-3.8 0.8 Q-2.0 6.85 3.05 5.15 3.1 8.5 1.8 10.9 0.85 9.45 -1.3 9.0 -4.05 8.6 -5.8 9.4 -6.35 6.35 -6.05 3.0 -5.65 -5.25 -3.8 0.8" fill="#ffffff" fill-rule="evenodd" stroke="none"/>
    <path d="M-1.3 9.0 Q-4.05 8.6 -5.8 9.4 -6.35 6.35 -6.05 3.0 -5.65 -5.25 -3.8 0.8" fill="none" stroke="#000000" stroke-linecap="round" stroke-linejoin="round" stroke-width="1.0"/>
    <path d="M-3.8 0.8 Q-2.0 6.85 3.05 5.15 3.1 8.5 1.8 10.9 0.85 9.45 -1.3 9.0 Z" fill="none" stroke="#000000" stroke-linecap="round" stroke-linejoin="round" stroke-width="1.0"/>
    <path d="M1.4 24.6 Q1.4 26.5 0.35 27.1 -3.05 22.65 -4.9 17.45 -3.9 15.8 -1.5 17.45 L1.4 24.6" fill="#ffffff" fill-rule="evenodd" stroke="none"/>
    <path d="M1.4 24.6 L-1.5 17.45 Q-3.9 15.8 -4.9 17.45 -3.05 22.65 0.35 27.1 1.4 26.5 1.4 24.6 Z" fill="none" stroke="#000000" stroke-linecap="round" stroke-linejoin="round" stroke-width="1.0"/>
  </g>
</svg>
