<?xml version="1.0" encoding="UTF-8" standalone="no"?>
<svg xmlns:xlink="http://www.w3.org/1999/xlink" height="36.0px" width="17.75px" xmlns="http://www.w3.org/2000/svg">
  <g transform="matrix(1.0, 0.0, 0.0, 1.0, 11.25, 3.25)">
    <path d="M-5.55 3.55 L-3.55 5.2 Q-2.7 5.75 -3.3 7.9 -3.9 10.05 -4.3 10.0 -4.7 9.95 -5.65 7.35 L-6.8 4.3 -7.4 1.15 Q-7.85 -1.5 -7.25 0.5 -6.75 2.45 -5.55 3.55 M-9.35 13.15 Q-11.95 8.25 -9.75 11.55 -7.55 14.8 -5.8 15.5 -4.05 16.2 -3.6 16.65 -3.1 17.15 -0.65 21.75 1.8 26.35 1.35 26.85 0.85 27.3 -2.3 23.4 L-6.1 18.8 -9.35 13.15" fill="#737373" fill-rule="evenodd" stroke="none"/>
    <path d="M-5.55 3.55 L-3.55 5.2 Q-2.7 5.75 -3.3 7.9 -3.9 10.05 -4.3 10.0 -4.7 9.95 -5.65 7.35 L-6.8 4.3 -7.4 1.15 Q-7.85 -1.5 -7.25 0.5 -6.75 2.45 -5.55 3.55 M-9.35 13.15 Q-11.95 8.25 -9.75 11.55 -7.55 14.8 -5.8 15.5 -4.05 16.2 -3.6 16.65 -3.1 17.15 -0.65 21.75 1.8 26.35 1.35 26.85 0.85 27.3 -2.3 23.4 L-6.1 18.8 -9.35 13.15" fill="none" stroke="#090000" stroke-linecap="round" stroke-linejoin="round" stroke-width="1.0"/>
    <path d="M0.1 9.4 L-0.25 11.1 -1.7 10.5 Q-4.15 9.7 -5.15 10.45 L-5.05 9.65 -5.05 8.2 -2.2 8.95 0.1 9.4 M-0.1 14.7 L2.95 21.6 3.1 21.9 3.25 22.35 Q3.75 23.8 3.15 24.9 L2.65 25.55 1.9 26.35 1.1 26.45 Q0.7 26.1 0.4 25.35 L-0.55 23.65 -1.55 21.9 -3.15 19.05 Q-4.4 16.7 -5.05 14.35 L-5.2 13.5 -4.8 14.35 Q-3.35 17.3 -1.15 15.65 L-0.1 14.7 M-4.25 5.55 L-3.6 2.75 -3.1 3.1 -1.3 3.85 0.05 4.2 -0.85 6.9 Q-2.35 6.95 -3.8 5.85 -4.05 5.65 -4.25 5.55" fill="#273f37" fill-rule="evenodd" stroke="none"/>
    <path d="M-3.6 2.75 Q-4.1 2.7 -3.5 0.3 -2.95 -2.1 -0.75 -2.6 1.4 -3.1 2.5 -1.75 3.6 -0.45 3.5 0.9 L2.9 3.3 1.7 6.05 0.1 9.4 -2.2 8.95 -5.05 8.2 Q-5.05 6.4 -4.25 5.55 -4.05 5.65 -3.8 5.85 -2.35 6.95 -0.85 6.9 L0.05 4.2 -1.3 3.85 -3.1 3.1 -3.6 2.75 M-0.25 11.1 Q0.95 11.8 1.05 12.65 1.05 13.55 -0.1 14.7 L-1.15 15.65 Q-3.35 17.3 -4.8 14.35 L-5.2 13.5 Q-6.15 11.25 -5.3 10.55 L-5.15 10.45 Q-4.15 9.7 -1.7 10.5 L-0.25 11.1 M3.95 25.9 Q5.0 25.55 5.35 26.65 6.35 28.25 5.85 30.05 5.8 30.65 5.05 30.8 L4.7 30.85 3.05 30.8 2.25 29.95 1.85 29.15 Q1.55 28.5 1.75 27.9 L1.8 27.75 Q2.05 27.0 3.0 26.35 3.5 26.0 3.95 25.9" fill="#737373" fill-rule="evenodd" stroke="none"/>
    <path d="M3.15 24.9 L3.95 25.9 Q3.5 26.0 3.0 26.35 2.05 27.0 1.8 27.75 1.7 27.05 1.9 26.35 L2.65 25.55 3.15 24.9" fill="#13112b" fill-rule="evenodd" stroke="none"/>
    <path d="M5.05 30.8 Q4.65 32.3 4.1 32.25 3.55 32.2 2.9 31.75 2.2 31.25 2.25 29.95 L3.05 30.8 4.7 30.85 5.05 30.8" fill="#3c3c3c" fill-rule="evenodd" stroke="none"/>
    <path d="M-3.6 2.75 Q-4.1 2.7 -3.5 0.3 -2.95 -2.1 -0.75 -2.6 1.4 -3.1 2.5 -1.75 3.6 -0.45 3.5 0.9 L2.9 3.3 1.7 6.05 0.1 9.4 -0.25 11.1 Q0.95 11.8 1.05 12.65 1.05 13.55 -0.1 14.7 L2.95 21.6 3.1 21.9 3.25 22.35 Q3.75 23.8 3.15 24.9 L3.95 25.9 Q5.0 25.55 5.35 26.65 6.35 28.25 5.85 30.05 5.8 30.65 5.05 30.8 4.65 32.3 4.1 32.25 3.55 32.2 2.9 31.75 2.2 31.25 2.25 29.95 L1.85 29.15 Q1.55 28.5 1.75 27.9 L1.8 27.75 Q1.7 27.05 1.9 26.35 L1.1 26.45 Q0.7 26.1 0.4 25.35 L-0.55 23.65 -1.55 21.9 -3.15 19.05 Q-4.4 16.7 -5.05 14.35 L-5.2 13.5 Q-6.15 11.25 -5.3 10.55 L-5.15 10.45 -5.05 9.65 -5.05 8.2 Q-5.05 6.4 -4.25 5.55 L-3.6 2.75 -3.1 3.1 -1.3 3.85 0.05 4.2 M-0.85 6.9 Q-2.35 6.95 -3.8 5.85 -4.05 5.65 -4.25 5.55 M1.8 27.75 Q2.05 27.0 3.0 26.35 3.5 26.0 3.95 25.9 M3.15 24.9 L2.65 25.55 1.9 26.35 M5.05 30.8 L4.7 30.85 3.05 30.8 2.25 29.95 M-5.15 10.45 Q-4.15 9.7 -1.7 10.5 L-0.25 11.1 M0.1 9.4 L-2.2 8.95 -5.05 8.2 M-5.2 13.5 L-4.8 14.35 Q-3.35 17.3 -1.15 15.65 L-0.1 14.7" fill="none" stroke="#000000" stroke-linecap="round" stroke-linejoin="round" stroke-width="1.0"/>
    <path d="M0.05 4.2 L-0.85 6.9" fill="none" stroke="#090000" stroke-linecap="round" stroke-linejoin="round" stroke-width="1.0"/>
  </g>
</svg>
