<?xml version="1.0" encoding="UTF-8" standalone="no"?>
<svg xmlns:xlink="http://www.w3.org/1999/xlink" height="16.5px" width="16.05px" xmlns="http://www.w3.org/2000/svg">
  <g transform="matrix(1.0, 0.0, 0.0, 1.0, 5.8, 15.3)">
    <path d="M5.7 -8.4 L3.7 -8.45 5.7 -8.4 M2.7 -1.6 L0.95 -1.55 Q-1.55 -1.5 -2.45 -2.0 -1.55 -1.5 0.95 -1.55 L2.7 -1.6 Q2.65 -0.35 2.75 0.7 L1.6 0.7 -0.1 0.55 -2.25 0.25 -2.35 0.2 -2.5 -2.05 Q-6.2 -4.9 -5.0 -10.75 -3.75 -16.6 5.3 -13.95 8.1 -12.6 7.95 -8.1 7.85 -5.35 7.55 -3.95 L6.9 -2.3 Q6.45 -1.6 5.5 -1.55 L2.7 -1.6 M-2.45 -2.0 L-2.5 -2.05 -2.45 -2.0 M6.35 -3.6 L4.2 -3.7 6.35 -3.6" fill="#cc9933" fill-rule="evenodd" stroke="none"/>
    <path d="M4.2 -3.7 L6.35 -3.6" fill="none" stroke="#6f5211" stroke-linecap="round" stroke-linejoin="round" stroke-width="1.5"/>
    <path d="M3.7 -8.45 L5.7 -8.4" fill="none" stroke="#946d16" stroke-linecap="round" stroke-linejoin="round" stroke-width="1.5"/>
    <path d="M2.7 -1.6 L5.5 -1.55 Q6.45 -1.6 6.9 -2.3 L7.55 -3.95 Q7.85 -5.35 7.95 -8.1 8.1 -12.6 5.3 -13.95 -3.75 -16.6 -5.0 -10.75 -6.2 -4.9 -2.5 -2.05 L-2.45 -2.0" fill="none" stroke="#000000" stroke-linecap="round" stroke-linejoin="round" stroke-width="1.0"/>
    <path d="M-2.45 -2.0 Q-1.55 -1.5 0.95 -1.55 L2.7 -1.6" fill="none" stroke="#996600" stroke-linecap="round" stroke-linejoin="round" stroke-width="1.0"/>
    <path d="M-2.5 -2.05 L-2.35 0.2 -2.25 0.25 -0.1 0.55 1.6 0.7 2.75 0.7 Q2.65 -0.35 2.7 -1.6" fill="none" stroke="#000000" stroke-linecap="round" stroke-linejoin="round" stroke-width="1.0"/>
    <path d="M-1.15 -5.15 L6.35 -1.05 9.75 -2.1" fill="none" stroke="#000000" stroke-linecap="round" stroke-linejoin="round" stroke-opacity="0.5019608" stroke-width="1.0"/>
    <path d="M-2.35 -8.85 Q-2.95 -6.85 -1.15 -5.15 Z" fill="none" stroke="#000000" stroke-linecap="round" stroke-linejoin="round" stroke-opacity="0.3019608" stroke-width="1.0"/>
  </g>
</svg>
