<?xml version="1.0" encoding="UTF-8" standalone="no"?>
<svg xmlns:xlink="http://www.w3.org/1999/xlink" height="23.15px" width="63.0px" xmlns="http://www.w3.org/2000/svg">
  <g transform="matrix(1.0, 0.0, 0.0, 1.0, 9.9, 10.4)">
    <path d="M26.4 1.8 L31.4 2.75 37.65 0.5 46.65 -0.7 48.6 4.3 48.6 6.3 26.4 6.3 26.4 1.8 M45.6 2.0 L42.6 2.0 45.6 2.0 M44.6 3.8 L37.4 3.8 44.6 3.8" fill="#999999" fill-rule="evenodd" stroke="none"/>
    <path d="M22.95 -0.75 L22.95 -2.55 22.95 -5.45 31.3 -5.45 22.95 -5.45 22.95 -2.55 27.75 -2.55 22.95 -2.55 22.95 -0.75 M38.25 -7.9 L36.4 -6.45 36.5 -6.45 37.65 0.5 31.4 2.75 26.4 1.8 15.1 2.05 14.85 2.05 9.35 -3.75 -9.4 -4.5 Q-7.35 -8.1 -4.9 -9.9 0.3 -9.95 6.3 -9.6 10.45 -7.65 38.25 -7.9 M18.9 -5.45 L22.95 -5.45 18.9 -5.45 M3.1 -7.5 L-2.1 -7.5 3.1 -7.5" fill="#666666" fill-rule="evenodd" stroke="none"/>
    <path d="M-9.4 -4.5 L9.35 -3.75 14.85 2.05 5.1 12.25 -3.9 12.25 -3.65 0.25 -9.4 -4.5 M5.6 6.8 L-1.4 5.5 5.6 6.8 M7.9 2.8 L-0.1 1.3 7.9 2.8" fill="#333333" fill-rule="evenodd" stroke="none"/>
    <path d="M37.65 0.5 L36.5 -6.45 Q43.55 -7.6 48.05 -5.35 52.55 -3.15 52.6 -0.4 52.65 2.35 48.6 4.3 L46.65 -0.7 37.65 0.5" fill="#0066cc" fill-opacity="0.49803922" fill-rule="evenodd" stroke="none"/>
    <path d="M31.3 -5.45 L22.95 -5.45 22.95 -2.55 27.75 -2.55 M22.95 -2.55 L22.95 -0.75 M22.95 -5.45 L18.9 -5.45 M-2.1 -7.5 L3.1 -7.5" fill="none" stroke="#000000" stroke-linecap="round" stroke-linejoin="round" stroke-width="1.0"/>
    <path d="M38.25 -7.9 L36.4 -6.45 36.5 -6.45 38.25 -7.9 Q10.45 -7.65 6.3 -9.6 0.3 -9.95 -4.9 -9.9 -7.35 -8.1 -9.4 -4.5 L9.35 -3.75 14.85 2.05 15.1 2.05 26.4 1.8 31.4 2.75 37.65 0.5 36.5 -6.45 M48.6 6.3 L26.4 6.3 26.4 1.8 M42.6 2.0 L45.6 2.0 M15.1 2.05 Q12.8 6.2 14.1 8.55 M14.85 2.05 L5.1 12.25 -3.9 12.25 -3.65 0.25 -9.4 -4.5 M37.4 3.8 L44.6 3.8 M48.6 4.3 L46.65 -0.7 37.65 0.5 M-0.1 1.3 L7.9 2.8 M-1.4 5.5 L5.6 6.8" fill="none" stroke="#000000" stroke-linecap="round" stroke-linejoin="round" stroke-width="1.0"/>
    <path d="M48.6 4.3 L48.6 6.3" fill="none" stroke="#ff0000" stroke-linecap="round" stroke-linejoin="round" stroke-width="1.0"/>
    <path d="M36.5 -6.45 Q43.55 -7.6 48.05 -5.35 52.55 -3.15 52.6 -0.4 52.65 2.35 48.6 4.3" fill="none" stroke="#0066cc" stroke-linecap="round" stroke-linejoin="round" stroke-opacity="0.49803922" stroke-width="1.0"/>
  </g>
</svg>
