<?xml version="1.0" encoding="UTF-8" standalone="no"?>
<svg xmlns:xlink="http://www.w3.org/1999/xlink" height="11.15px" width="15.6px" xmlns="http://www.w3.org/2000/svg">
  <g transform="matrix(1.0, 0.0, 0.0, 1.0, 6.6, 16.35)">
    <path d="M7.35 -11.6 L6.95 -11.7 6.25 -11.5 5.05 -12.1 Q3.9 -12.1 1.2 -10.3 0.9 -7.7 0.15 -8.5 L-0.9 -9.85 -0.95 -9.95 -1.75 -9.9 Q-2.25 -9.9 -3.25 -8.9 L-3.45 -7.8 -3.35 -6.6 Q-3.45 -5.7 -4.5 -5.7 -5.7 -5.7 -5.7 -7.2 L-5.55 -8.2 Q-5.55 -8.65 -6.1 -9.45 L-5.9 -11.15 -4.95 -13.05 Q-4.5 -14.2 -2.85 -14.85 1.65 -16.45 4.75 -15.5 L7.05 -14.15 Q8.5 -13.1 8.5 -12.65 8.5 -11.6 7.35 -11.6" fill="#976a02" fill-rule="evenodd" stroke="none"/>
    <path d="M7.35 -11.6 L6.95 -11.7 6.25 -11.5 5.05 -12.1 Q3.9 -12.1 1.2 -10.3 0.9 -7.7 0.15 -8.5 L-0.9 -9.85 -0.95 -9.95 -1.75 -9.9 Q-2.25 -9.9 -3.25 -8.9 L-3.45 -7.8 -3.35 -6.6 Q-3.45 -5.7 -4.5 -5.7 -5.7 -5.7 -5.7 -7.2 L-5.55 -8.2 Q-5.55 -8.65 -6.1 -9.45 L-5.9 -11.15 -4.95 -13.05 Q-4.5 -14.2 -2.85 -14.85 1.65 -16.45 4.75 -15.5 L7.05 -14.15 Q8.5 -13.1 8.5 -12.65 8.5 -11.6 7.35 -11.6 Z" fill="none" stroke="#000000" stroke-linecap="round" stroke-linejoin="round" stroke-width="1.0"/>
  </g>
</svg>
