<?xml version="1.0" encoding="UTF-8" standalone="no"?>
<svg xmlns:xlink="http://www.w3.org/1999/xlink" height="7.5px" width="12.45px" xmlns="http://www.w3.org/2000/svg">
  <g transform="matrix(1.0, 0.0, 0.0, 1.0, 3.3, 1.2)">
    <path d="M2.7 0.05 Q2.25 1.95 5.95 2.35 9.65 2.75 8.25 5.8 L-2.25 5.8 Q-3.35 3.25 -2.25 0.05 L-1.8 -0.2 -0.55 -0.6 Q0.55 -0.9 2.45 -0.1 L2.7 0.05" fill="#333333" fill-rule="evenodd" stroke="none"/>
    <path d="M-2.25 0.05 Q-3.35 3.25 -2.25 5.8 L8.25 5.8 Q9.65 2.75 5.95 2.35 2.25 1.95 2.7 0.05" fill="none" stroke="#000000" stroke-linecap="round" stroke-linejoin="round" stroke-width="1.0"/>
    <path d="M2.7 0.05 L2.45 -0.1 Q0.55 -0.9 -0.55 -0.6 L-1.8 -0.2 -2.25 0.05 Z" fill="none" stroke="#000000" stroke-linecap="round" stroke-linejoin="round" stroke-width="1.0"/>
  </g>
</svg>
