<?xml version="1.0" encoding="UTF-8" standalone="no"?>
<svg xmlns:xlink="http://www.w3.org/1999/xlink" height="8.05px" width="14.4px" xmlns="http://www.w3.org/2000/svg">
  <g transform="matrix(1.0, 0.0, 0.0, 1.0, 3.6, 1.2)">
    <path d="M-2.25 0.05 L-1.8 -0.2 -0.55 -0.6 Q0.55 -0.9 2.45 -0.1 L2.7 0.05 Q2.25 1.85 5.5 2.3 L3.8 4.75 -2.6 4.75 Q-3.15 2.6 -2.25 0.05" fill="#132331" fill-rule="evenodd" stroke="none"/>
    <path d="M10.3 4.75 L10.3 6.35 -3.1 6.35 -3.1 4.75 -2.6 4.75 3.8 4.75 10.3 4.75" fill="#666666" fill-rule="evenodd" stroke="none"/>
    <path d="M5.5 2.3 L7.45 2.4 Q9.15 2.5 10.3 4.75 L3.8 4.75 5.5 2.3" fill="#2b2b2b" fill-rule="evenodd" stroke="none"/>
    <path d="M-2.25 0.05 L-1.8 -0.2 -0.55 -0.6 Q0.55 -0.9 2.45 -0.1 L2.7 0.05" fill="none" stroke="#000000" stroke-linecap="round" stroke-linejoin="round" stroke-width="1.0"/>
    <path d="M2.7 0.05 Q2.25 1.85 5.5 2.3 L7.45 2.4 Q9.15 2.5 10.3 4.75 M-2.6 4.75 Q-3.15 2.6 -2.25 0.05" fill="none" stroke="#000000" stroke-linecap="round" stroke-linejoin="round" stroke-width="1.0"/>
    <path d="M10.3 4.75 L10.3 6.35 -3.1 6.35 -3.1 4.75 -2.6 4.75 3.8 4.75 10.3 4.75 M5.5 2.3 L3.8 4.75" fill="none" stroke="#090000" stroke-linecap="round" stroke-linejoin="round" stroke-width="1.0"/>
  </g>
</svg>
