<?xml version="1.0" encoding="UTF-8" standalone="no"?>
<svg xmlns:xlink="http://www.w3.org/1999/xlink" height="9.35px" width="17.5px" xmlns="http://www.w3.org/2000/svg">
  <g transform="matrix(1.0, 0.0, 0.0, 1.0, 4.8, 2.65)">
    <path d="M10.25 6.2 L2.3 6.2 1.5 4.45 Q4.1 2.25 5.75 2.2 8.2 1.85 9.1 2.5 10.85 3.7 10.45 4.1 10.8 5.55 10.25 6.2" fill="#f0c468" fill-rule="evenodd" stroke="none"/>
    <path d="M10.45 4.1 Q12.4 4.5 12.15 6.2 L10.25 6.2 Q10.8 5.55 10.45 4.1 M2.3 6.2 L-4.3 6.2 -4.0 3.1 Q-3.05 4.6 1.5 4.45 L2.3 6.2" fill="#a47a4d" fill-rule="evenodd" stroke="none"/>
    <path d="M-4.0 3.1 Q-2.3 -3.05 1.3 -2.0 4.9 -0.95 5.75 2.2 4.1 2.25 1.5 4.45 -3.05 4.6 -4.0 3.1" fill="#222222" fill-rule="evenodd" stroke="none"/>
    <path d="M5.75 2.2 Q8.2 1.85 9.1 2.5 10.85 3.7 10.45 4.1" fill="none" stroke="#000000" stroke-linecap="round" stroke-linejoin="round" stroke-width="1.0"/>
    <path d="M10.45 4.1 Q12.4 4.5 12.15 6.2 L10.25 6.2 2.3 6.2 -4.3 6.2 -4.0 3.1 Q-2.3 -3.05 1.3 -2.0 4.9 -0.95 5.75 2.2 4.1 2.25 1.5 4.45 -3.05 4.6 -4.0 3.1 M10.45 4.1 Q10.8 5.55 10.25 6.2 M2.3 6.2 L1.5 4.45" fill="none" stroke="#000000" stroke-linecap="round" stroke-linejoin="round" stroke-width="1.0"/>
  </g>
</svg>
