<?xml version="1.0" encoding="UTF-8" standalone="no"?>
<svg xmlns:xlink="http://www.w3.org/1999/xlink" height="31.6px" width="70.85px" xmlns="http://www.w3.org/2000/svg">
  <g transform="matrix(1.0, 0.0, 0.0, 1.0, -30.35, 17.35)">
    <path d="M52.6 -0.4 Q52.65 2.35 48.6 4.3 L46.65 -0.7 37.65 0.5 36.5 -6.45 Q43.55 -7.6 48.05 -5.35 52.55 -3.15 52.6 -0.4" fill="#ffffff" fill-opacity="0.0" fill-rule="evenodd" stroke="none"/>
    <path d="M65.75 -17.35 Q80.45 -17.35 90.85 -12.65 101.2 -8.05 101.2 -1.55 101.2 5.0 90.85 9.65 80.45 14.25 65.75 14.25 51.05 14.25 40.7 9.65 30.3 5.0 30.35 -1.55 30.3 -8.05 40.7 -12.65 51.05 -17.35 65.75 -17.35" fill="url(#gradient0)" fill-rule="evenodd" stroke="none"/>
  </g>
  <defs>
    <radialGradient cx="0" cy="0" gradientTransform="matrix(0.0, 0.0172, -0.0433, 0.0, 65.7, -1.5)" gradientUnits="userSpaceOnUse" id="gradient0" r="819.2" spreadMethod="pad">
      <stop offset="0.17647058823529413" stop-color="#ffffff" stop-opacity="0.0"/>
      <stop offset="0.5372549019607843" stop-color="#d5eaff" stop-opacity="0.0"/>
      <stop offset="1.0" stop-color="#929dfe" stop-opacity="0.0"/>
    </radialGradient>
  </defs>
</svg>
