<?xml version="1.0" encoding="UTF-8" standalone="no"?>
<svg xmlns:xlink="http://www.w3.org/1999/xlink" height="18.85px" width="18.85px" xmlns="http://www.w3.org/2000/svg">
  <g transform="matrix(1.0, 0.0, 0.0, 1.0, 7.7, 17.15)">
    <path d="M7.6 -9.75 L7.55 -9.05 7.35 -7.0 Q5.65 -6.75 3.65 -6.95 1.65 -7.15 1.3 -9.0 1.45 -10.5 3.1 -10.5 L7.6 -9.75 M2.7 -1.6 Q2.65 -0.35 2.75 0.7 L1.6 0.7 -0.1 0.55 -2.25 0.25 -2.35 0.2 -2.5 -2.05 -2.45 -2.0 Q-1.55 -1.5 0.95 -1.55 L2.7 -1.6 M5.7 -8.4 L3.7 -8.45 5.7 -8.4" fill="#cc9933" fill-rule="evenodd" stroke="none"/>
    <path d="M7.6 -9.75 L3.1 -10.5 Q1.45 -10.5 1.3 -9.0 1.65 -7.15 3.65 -6.95 5.65 -6.75 7.35 -7.0 L7.3 -4.7 7.15 -3.15 6.85 -1.85 6.65 -1.6 5.5 -1.55 2.7 -1.6 0.95 -1.55 Q-1.55 -1.5 -2.45 -2.0 L-2.5 -2.05 Q-6.2 -4.9 -5.0 -10.75 -3.75 -16.6 5.3 -13.95 7.65 -12.75 7.6 -9.75" fill="#000000" fill-rule="evenodd" stroke="none"/>
    <path d="M3.7 -8.45 L5.7 -8.4" fill="none" stroke="#946d16" stroke-linecap="round" stroke-linejoin="round" stroke-width="1.5"/>
    <path d="M7.35 -7.0 L7.55 -9.05 7.6 -9.75 3.1 -10.5 Q1.45 -10.5 1.3 -9.0 1.65 -7.15 3.65 -6.95 5.65 -6.75 7.35 -7.0 L7.3 -4.7 7.15 -3.15 6.85 -1.85 6.65 -1.6 5.5 -1.55 2.7 -1.6 M-2.5 -2.05 Q-6.2 -4.9 -5.0 -10.75 -3.75 -16.6 5.3 -13.95 7.65 -12.75 7.6 -9.75 M-2.5 -2.05 L-2.45 -2.0" fill="none" stroke="#000000" stroke-linecap="round" stroke-linejoin="round" stroke-width="1.0"/>
    <path d="M2.7 -1.6 Q2.65 -0.35 2.75 0.7 L1.6 0.7 -0.1 0.55 -2.25 0.25 -2.35 0.2 -2.5 -2.05" fill="none" stroke="#000000" stroke-linecap="round" stroke-linejoin="round" stroke-width="1.0"/>
    <path d="M11.15 1.7 L-7.7 1.7 -7.7 -17.15 11.15 -17.15 11.15 1.7" fill="#010101" fill-opacity="0.0" fill-rule="evenodd" stroke="none"/>
  </g>
</svg>
