<?xml version="1.0" encoding="UTF-8" standalone="no"?>
<svg xmlns:xlink="http://www.w3.org/1999/xlink" height="23.15px" width="32.35px" xmlns="http://www.w3.org/2000/svg">
  <g transform="matrix(1.0, 0.0, 0.0, 1.0, 33.15, 12.2)">
    <path d="M-25.45 -9.65 L-26.0 -1.85 -32.65 -2.55 -32.65 -8.15 -25.45 -9.65" fill="#666666" fill-rule="evenodd" stroke="none"/>
    <path d="M-24.7 -1.75 L-15.05 -1.75 -15.05 -1.25 Q-16.8 -0.2 -17.85 1.6 -19.55 4.5 -19.35 9.25 -22.75 11.65 -26.05 9.25 -23.8 6.0 -24.95 1.6 -25.35 0.25 -24.7 -1.75" fill="#333333" fill-rule="evenodd" stroke="none"/>
    <path d="M-24.7 -1.75 L-26.0 -1.85 -25.45 -9.65 -23.7 -11.7 -14.85 -11.7 Q-6.3 -11.8 -3.3 -10.1 L-3.4 -10.0 Q-4.7 -8.0 -4.7 -5.2 -4.7 -2.7 -3.65 -1.4 -7.85 -1.0 -13.45 -1.25 L-15.05 -1.25 -15.05 -1.75 -24.7 -1.75 M-16.65 -5.8 L-16.65 -8.7 -8.3 -8.7 -16.65 -8.7 -16.65 -5.8 -11.85 -5.8 -16.65 -5.8 -16.65 -4.0 -16.65 -5.8 M-16.65 -8.7 L-20.7 -8.7 -16.65 -8.7" fill="#999999" fill-rule="evenodd" stroke="none"/>
    <path d="M-3.65 -1.4 Q-4.7 -2.7 -4.7 -5.2 -4.7 -8.0 -3.4 -10.0 L-3.3 -10.1 Q-1.2 -8.95 -1.3 -5.35 -1.35 -1.75 -3.65 -1.4" fill="#3f008c" fill-rule="evenodd" stroke="none"/>
    <path d="M-3.65 -1.4 Q-4.7 -2.7 -4.7 -5.2 -4.7 -8.0 -3.4 -10.0 L-3.3 -10.1 Q-1.2 -8.95 -1.3 -5.35 -1.35 -1.75 -3.65 -1.4 M-25.45 -9.65 L-26.0 -1.85 -26.0 -1.75 -24.7 -1.75 Q-25.35 0.25 -24.95 1.6 -23.8 6.0 -26.05 9.25 -22.75 11.65 -19.35 9.25 -19.55 4.5 -17.85 1.6 -16.8 -0.2 -15.05 -1.25 M-11.85 -5.8 L-16.65 -5.8 -16.65 -4.0 M-8.3 -8.7 L-16.65 -8.7 -16.65 -5.8 M-20.7 -8.7 L-16.65 -8.7 M-17.45 2.8 Q-10.45 2.7 -9.05 -0.5" fill="none" stroke="#000000" stroke-linecap="round" stroke-linejoin="round" stroke-width="1.0"/>
    <path d="M-26.0 -1.85 L-24.7 -1.75 -15.05 -1.75 -15.05 -1.25 -13.45 -1.25 Q-7.85 -1.0 -3.65 -1.4 M-3.3 -10.1 Q-6.3 -11.8 -14.85 -11.7 L-23.7 -11.7 -25.45 -9.65 -32.65 -8.15 -32.65 -2.55 -26.0 -1.85" fill="none" stroke="#000000" stroke-linecap="round" stroke-linejoin="round" stroke-width="1.0"/>
  </g>
</svg>
