<?xml version="1.0" encoding="UTF-8" standalone="no"?>
<svg xmlns:xlink="http://www.w3.org/1999/xlink" height="21.7px" width="32.3px" xmlns="http://www.w3.org/2000/svg">
  <g transform="matrix(1.0, 0.0, 0.0, 1.0, 13.0, -14.4)">
    <path d="M-1.0 17.45 L0.9 15.2 4.0 14.95 Q6.7 14.8 9.0 15.05 13.2 15.5 16.15 17.2 12.75 18.25 12.15 23.2 L-1.85 23.2 Q-2.6 20.1 -1.0 17.45 M9.0 15.05 Q6.0 15.65 6.0 20.0 6.0 15.65 9.0 15.05 M4.0 14.95 Q2.0 15.95 2.0 20.0 2.0 15.95 4.0 14.95" fill="#6a6a6a" fill-rule="evenodd" stroke="none"/>
    <path d="M-4.4 17.45 Q-5.55 19.25 -5.0 22.0 L-12.0 22.0 Q-13.35 18.55 -11.0 16.0 L-3.0 16.0 Q-3.85 16.65 -4.4 17.45" fill="#515151" fill-rule="evenodd" stroke="none"/>
    <path d="M17.6 29.5 L12.0 30.0 17.6 29.5 M18.1 32.45 Q12.2 36.25 8.1 35.45 6.3 31.45 8.0 28.0 17.85 28.8 18.1 26.45 19.55 28.95 18.1 32.45" fill="#6f6f6f" fill-rule="evenodd" stroke="none"/>
    <path d="M-1.0 17.45 L-4.4 17.45 Q-3.85 16.65 -3.0 16.0 -1.2 15.7 -1.0 17.45" fill="#333333" fill-rule="evenodd" stroke="none"/>
    <path d="M-1.0 17.45 L0.9 15.2 4.0 14.95 Q6.7 14.8 9.0 15.05 13.2 15.5 16.15 17.2 12.75 18.25 12.15 23.2 L-1.85 23.2 Q-2.6 20.1 -1.0 17.45 M18.1 32.45 Q12.2 36.25 8.1 35.45 6.3 31.45 8.0 28.0 17.85 28.8 18.1 26.45 19.55 28.95 18.1 32.45" fill="none" stroke="#000000" stroke-linecap="round" stroke-linejoin="round" stroke-width="1.0"/>
    <path d="M-1.0 17.45 L-4.4 17.45 Q-5.55 19.25 -5.0 22.0 L-12.0 22.0 Q-13.35 18.55 -11.0 16.0 L-3.0 16.0 Q-1.2 15.7 -1.0 17.45 M2.0 20.0 Q2.0 15.95 4.0 14.95 M6.0 20.0 Q6.0 15.65 9.0 15.05 M12.0 30.0 L17.6 29.5 M-3.0 16.0 Q-3.85 16.65 -4.4 17.45" fill="none" stroke="#000000" stroke-linecap="round" stroke-linejoin="round" stroke-width="1.0"/>
  </g>
</svg>
