<?xml version="1.0" encoding="UTF-8" standalone="no"?>
<svg xmlns:xlink="http://www.w3.org/1999/xlink" height="39.5px" width="47.1px" xmlns="http://www.w3.org/2000/svg">
  <g transform="matrix(1.0, 0.0, 0.0, 1.0, -287.0, -160.75)">
    <path d="M330.6 166.85 Q332.35 167.15 333.25 168.05 334.35 169.1 334.0 170.4 334.0 172.65 332.3 173.55 330.0 174.8 328.75 178.25 328.05 180.0 324.95 182.2 L319.25 185.9 Q310.05 192.35 309.25 194.0 308.35 195.7 303.1 198.1 298.35 200.25 297.0 200.25 294.35 200.25 292.1 198.35 290.0 196.55 290.0 194.75 287.7 193.85 287.2 192.6 287.0 192.15 287.0 190.25 287.0 186.1 287.95 184.85 L292.9 177.75 Q293.35 177.0 297.95 175.4 302.7 173.75 303.6 172.65 L307.1 169.1 Q308.0 168.2 308.0 166.45 308.0 165.0 311.75 162.95 315.7 160.75 319.1 160.75 323.35 160.75 324.45 162.5 325.3 161.5 329.75 161.5 331.9 161.5 332.15 163.0 L330.6 166.85 M325.05 166.8 L329.0 166.65 Q328.75 165.65 328.75 164.0 L324.85 163.55 Q325.0 164.75 324.45 166.4 L325.05 166.8 M319.0 170.3 L316.9 171.6 Q316.9 173.75 319.0 173.75 319.8 173.75 320.75 171.35 L320.75 171.3 319.5 170.65 319.0 170.3" fill="#ffffff" fill-rule="evenodd" stroke="none"/>
  </g>
</svg>
