<?xml version="1.0" encoding="UTF-8" standalone="no"?>
<svg xmlns:xlink="http://www.w3.org/1999/xlink" height="20.0px" width="10.6px" xmlns="http://www.w3.org/2000/svg">
  <g transform="matrix(1.0, 0.0, 0.0, 1.0, 5.05, 5.55)">
    <path d="M-0.55 11.15 L-1.3 9.0 Q-1.55 8.25 -2.9 6.1 L-3.65 4.05 -4.05 2.55 Q-5.3 -4.05 -3.4 -4.65 L0.2 -4.9 Q1.9 -4.5 2.45 -3.8 L3.05 -2.6 2.95 0.1 2.65 4.6 Q2.65 7.9 3.45 10.5 3.75 11.5 5.05 13.4 0.35 16.3 -0.55 11.15" fill="#1e1e1e" fill-rule="evenodd" stroke="none"/>
    <path d="M5.05 13.4 Q3.75 11.5 3.45 10.5 2.65 7.9 2.65 4.6 L2.95 0.1 3.05 -2.6 2.45 -3.8 Q1.9 -4.5 0.2 -4.9 L-3.4 -4.65 Q-5.3 -4.05 -4.05 2.55 L-3.65 4.05 -2.9 6.1 Q-1.55 8.25 -1.3 9.0 L-0.55 11.15" fill="none" stroke="#000000" stroke-linecap="round" stroke-linejoin="round" stroke-width="1.0"/>
  </g>
</svg>
