<?xml version="1.0" encoding="UTF-8" standalone="no"?>
<svg xmlns:xlink="http://www.w3.org/1999/xlink" height="20.45px" width="14.55px" xmlns="http://www.w3.org/2000/svg">
  <g transform="matrix(1.0, 0.0, 0.0, 1.0, 6.5, 5.6)">
    <path d="M3.45 -2.1 Q3.65 -0.35 1.85 2.85 0.05 5.95 -1.65 2.2 -3.4 -1.55 -2.6 -3.1 -1.85 -4.65 0.7 -4.3 3.25 -3.9 3.45 -2.1" fill="#e1e1e1" fill-rule="evenodd" stroke="none"/>
    <path d="M-2.65 11.5 Q-2.85 9.6 -3.35 8.05 -4.95 3.3 -4.95 -0.75 L-4.85 -1.75 Q-4.7 -2.8 -4.2 -3.5 -3.2 -4.9 -0.8 -5.1 3.3 -5.4 4.5 -1.6 5.7 2.05 4.85 11.5 4.1 14.7 1.25 14.3 -1.6 13.9 -2.65 11.5 M3.45 -2.1 Q3.25 -3.9 0.7 -4.3 -1.85 -4.65 -2.6 -3.1 -3.4 -1.55 -1.65 2.2 0.05 5.95 1.85 2.85 3.65 -0.35 3.45 -2.1" fill="#595959" fill-rule="evenodd" stroke="none"/>
    <path d="M-2.65 11.5 Q-2.85 9.6 -3.35 8.05 -4.95 3.3 -4.95 -0.75 L-4.85 -1.75 Q-4.7 -2.8 -4.2 -3.5 -3.2 -4.9 -0.8 -5.1 3.3 -5.4 4.5 -1.6 5.7 2.05 4.85 11.5 M3.45 -2.1 Q3.65 -0.35 1.85 2.85 0.05 5.95 -1.65 2.2 -3.4 -1.55 -2.6 -3.1 -1.85 -4.65 0.7 -4.3 3.25 -3.9 3.45 -2.1" fill="none" stroke="#000000" stroke-linecap="round" stroke-linejoin="round" stroke-width="1.0"/>
    <path d="M4.85 11.5 Q4.1 14.7 1.25 14.3 -1.6 13.9 -2.65 11.5 Z" fill="none" stroke="#000000" stroke-linecap="round" stroke-linejoin="round" stroke-width="1.0"/>
    <path d="M6.85 13.5 L1.75 11.95 -3.15 12.9 -6.0 2.75 -0.7 5.4 2.35 5.4 6.05 -2.4 Q8.55 3.3 6.85 13.5" fill="#bbbbbb" fill-rule="evenodd" stroke="none"/>
    <path d="M6.85 13.5 Q8.55 3.3 6.05 -2.4 L2.35 5.4 -0.7 5.4 -6.0 2.75 -3.15 12.9 1.75 11.95 6.85 13.5 Z" fill="none" stroke="#000000" stroke-linecap="round" stroke-linejoin="round" stroke-width="1.0"/>
  </g>
</svg>
