<?xml version="1.0" encoding="UTF-8" standalone="no"?>
<svg xmlns:xlink="http://www.w3.org/1999/xlink" height="39.05px" width="31.55px" xmlns="http://www.w3.org/2000/svg">
  <g transform="matrix(1.0, 0.0, 0.0, 1.0, 9.1, 25.3)">
    <path d="M15.45 -1.15 Q8.45 0.7 -1.45 0.7 L-3.1 0.7 -3.1 -11.85 -1.45 -11.9 Q8.45 -11.9 15.45 -10.05 22.45 -8.2 22.45 -5.6 22.45 -3.0 15.45 -1.15" fill="url(#gradient0)" fill-rule="evenodd" stroke="none"/>
    <path d="M-2.4 -25.2 L-2.0 -25.3 Q0.6 -25.3 2.45 -19.55 4.3 -13.85 4.3 -5.75 4.3 2.25 2.45 8.0 0.6 13.75 -2.0 13.75 L-2.4 13.65 -2.4 -25.2" fill="url(#gradient1)" fill-rule="evenodd" stroke="none"/>
    <path d="M-2.4 13.65 L-2.85 13.75 Q-5.45 13.75 -7.3 8.0 -9.1 2.25 -9.1 -5.75 -9.1 -13.85 -7.3 -19.55 -5.45 -25.3 -2.85 -25.3 L-2.4 -25.2 -2.4 13.65" fill="url(#gradient2)" fill-rule="evenodd" stroke="none"/>
  </g>
  <defs>
    <radialGradient cx="0" cy="0" gradientTransform="matrix(0.0, 0.0068, -0.0292, 0.0, -1.5, -5.6)" gradientUnits="userSpaceOnUse" id="gradient0" r="819.2" spreadMethod="pad">
      <stop offset="0.17647058823529413" stop-color="#ffffff"/>
      <stop offset="1.0" stop-color="#139ffd" stop-opacity="0.0"/>
    </radialGradient>
    <radialGradient cx="0" cy="0" gradientTransform="matrix(0.0, 0.0212, -0.0076, 0.0, -2.0, -5.8)" gradientUnits="userSpaceOnUse" id="gradient1" r="819.2" spreadMethod="pad">
      <stop offset="0.17647058823529413" stop-color="#ffffff"/>
      <stop offset="1.0" stop-color="#139ffd" stop-opacity="0.0"/>
    </radialGradient>
    <radialGradient cx="0" cy="0" gradientTransform="matrix(0.0, 0.0212, 0.0076, 0.0, -2.85, -5.8)" gradientUnits="userSpaceOnUse" id="gradient2" r="819.2" spreadMethod="pad">
      <stop offset="0.17647058823529413" stop-color="#ffffff"/>
      <stop offset="1.0" stop-color="#139ffd" stop-opacity="0.0"/>
    </radialGradient>
  </defs>
</svg>
