<?xml version="1.0" encoding="UTF-8" standalone="no"?>
<svg xmlns:xlink="http://www.w3.org/1999/xlink" height="13.3px" width="14.75px" xmlns="http://www.w3.org/2000/svg">
  <g transform="matrix(1.0, 0.0, 0.0, 1.0, 26.6, 0.25)">
    <path d="M-23.25 0.25 Q-22.7 -0.15 -22.05 0.0 -21.45 0.1 -21.05 0.65 -20.7 1.15 -20.85 1.8 -20.95 2.45 -21.5 2.8 L-21.6 2.9 -22.8 3.1 Q-23.45 3.0 -23.75 2.45 -24.15 1.9 -24.0 1.3 -23.9 0.65 -23.35 0.3 L-23.25 0.25 M-16.1 -0.2 Q-15.5 -0.1 -15.15 0.45 -14.8 0.95 -14.9 1.6 -15.0 2.2 -15.55 2.6 L-16.7 2.8 Q-17.35 2.7 -17.7 2.15 -18.1 1.65 -17.95 1.0 -17.85 0.35 -17.3 0.0 L-16.1 -0.2 M-13.1 4.85 Q-12.45 4.95 -12.1 5.5 -11.75 6.0 -11.85 6.65 -12.0 7.3 -12.5 7.65 L-13.7 7.9 Q-14.35 7.75 -14.65 7.25 -15.05 6.7 -14.9 6.1 -14.8 5.45 -14.25 5.1 -13.75 4.7 -13.1 4.85 M-14.6 11.6 Q-14.75 12.2 -15.25 12.6 L-16.4 12.8 Q-17.05 12.7 -17.4 12.15 -17.8 11.6 -17.65 11.0 -17.55 10.35 -17.0 10.0 -16.5 9.6 -15.85 9.75 -15.2 9.85 -14.85 10.4 -14.5 10.95 -14.6 11.6" fill="#ff0000" fill-rule="evenodd" stroke="none"/>
    <path d="M-25.9 5.35 Q-25.4 5.0 -24.75 5.1 -24.1 5.2 -23.75 5.75 -23.4 6.3 -23.55 6.95 -23.65 7.55 -24.2 7.95 L-25.35 8.15 Q-26.0 8.05 -26.35 7.5 -26.7 6.95 -26.55 6.35 -26.45 5.7 -25.9 5.35 M-21.2 12.8 L-22.35 13.0 Q-23.0 12.9 -23.35 12.35 -23.75 11.85 -23.6 11.2 -23.5 10.55 -22.95 10.2 L-21.8 10.0 Q-21.15 10.1 -20.8 10.65 -20.45 11.15 -20.55 11.8 -20.7 12.4 -21.2 12.8" fill="#000000" fill-rule="evenodd" stroke="none"/>
  </g>
</svg>
