<?xml version="1.0" encoding="UTF-8" standalone="no"?>
<svg xmlns:xlink="http://www.w3.org/1999/xlink" height="21.55px" width="14.4px" xmlns="http://www.w3.org/2000/svg">
  <g transform="matrix(1.0, 0.0, 0.0, 1.0, 6.55, 5.6)">
    <path d="M-2.65 11.5 Q-2.85 9.6 -3.35 8.05 -4.95 3.3 -4.95 -0.75 L-4.85 -1.75 Q-4.7 -2.8 -4.2 -3.5 -3.2 -4.9 -0.8 -5.1 3.3 -5.4 4.5 -1.6 5.7 2.05 4.85 11.5 4.1 14.7 1.25 14.3 -1.6 13.9 -2.65 11.5" fill="#222222" fill-rule="evenodd" stroke="none"/>
    <path d="M-2.65 11.5 Q-2.85 9.6 -3.35 8.05 -4.95 3.3 -4.95 -0.75 L-4.85 -1.75 Q-4.7 -2.8 -4.2 -3.5 -3.2 -4.9 -0.8 -5.1 3.3 -5.4 4.5 -1.6 5.7 2.05 4.85 11.5" fill="none" stroke="#000000" stroke-linecap="round" stroke-linejoin="round" stroke-width="1.0"/>
    <path d="M4.85 11.5 Q4.1 14.7 1.25 14.3 -1.6 13.9 -2.65 11.5 Z" fill="none" stroke="#000000" stroke-linecap="round" stroke-linejoin="round" stroke-width="1.0"/>
    <path d="M1.9 -1.25 Q4.6 -3.7 5.55 -2.4 6.4 -1.1 7.1 3.9 7.75 8.9 6.75 13.2 5.75 17.45 4.35 13.75 2.9 10.1 -3.15 12.9 -5.95 8.7 -6.0 2.75 -6.3 -2.15 -3.55 -0.45 -0.85 1.2 1.9 -1.25" fill="#f0c468" fill-rule="evenodd" stroke="none"/>
    <path d="M1.9 -1.25 Q-0.85 1.2 -3.55 -0.45 -6.3 -2.15 -6.0 2.75 -5.95 8.7 -3.15 12.9 2.9 10.1 4.35 13.75 5.75 17.45 6.75 13.2 7.75 8.9 7.1 3.9 6.4 -1.1 5.55 -2.4 4.6 -3.7 1.9 -1.25 Z" fill="none" stroke="#000000" stroke-linecap="round" stroke-linejoin="round" stroke-width="1.0"/>
  </g>
</svg>
