<?xml version="1.0" encoding="UTF-8" standalone="no"?>
<svg xmlns:xlink="http://www.w3.org/1999/xlink" height="16.9px" width="44.6px" xmlns="http://www.w3.org/2000/svg">
  <g transform="matrix(1.0, 0.0, 0.0, 1.0, 5.6, 14.05)">
    <path d="M27.4 -0.3 Q15.8 1.85 -0.65 1.85 L-2.8 1.85 -2.8 -12.85 -0.65 -12.85 Q15.8 -12.85 27.4 -10.7 39.0 -8.55 39.0 -5.5 39.0 -2.5 27.4 -0.3" fill="url(#gradient0)" fill-rule="evenodd" stroke="none"/>
    <path d="M-2.7 -14.0 L-2.5 -14.05 Q-1.4 -14.05 -0.6 -11.55 0.2 -9.05 0.2 -5.6 0.2 -2.1 -0.6 0.4 -1.4 2.85 -2.5 2.85 L-2.7 2.85 -2.7 -14.0" fill="url(#gradient1)" fill-rule="evenodd" stroke="none"/>
    <path d="M-2.7 2.85 L-2.9 2.85 Q-4.05 2.85 -4.8 0.4 -5.6 -2.1 -5.6 -5.6 -5.6 -9.05 -4.8 -11.55 -4.05 -14.05 -2.9 -14.05 L-2.7 -14.0 -2.7 2.85" fill="url(#gradient2)" fill-rule="evenodd" stroke="none"/>
  </g>
  <defs>
    <radialGradient cx="0" cy="0" gradientTransform="matrix(0.0, 0.008, -0.0484, 0.0, -0.7, -5.5)" gradientUnits="userSpaceOnUse" id="gradient0" r="819.2" spreadMethod="pad">
      <stop offset="0.0" stop-color="#ffffff"/>
      <stop offset="0.5372549019607843" stop-color="#3399ff" stop-opacity="0.0"/>
      <stop offset="1.0" stop-color="#000a5e" stop-opacity="0.0"/>
    </radialGradient>
    <radialGradient cx="0" cy="0" gradientTransform="matrix(0.0, 0.0092, -0.0033, 0.0, -2.55, -5.6)" gradientUnits="userSpaceOnUse" id="gradient1" r="819.2" spreadMethod="pad">
      <stop offset="0.17647058823529413" stop-color="#ffffff"/>
      <stop offset="1.0" stop-color="#139ffd" stop-opacity="0.0"/>
    </radialGradient>
    <radialGradient cx="0" cy="0" gradientTransform="matrix(0.0, 0.0092, 0.0033, 0.0, -2.9, -5.6)" gradientUnits="userSpaceOnUse" id="gradient2" r="819.2" spreadMethod="pad">
      <stop offset="0.17647058823529413" stop-color="#ffffff"/>
      <stop offset="1.0" stop-color="#139ffd" stop-opacity="0.0"/>
    </radialGradient>
  </defs>
</svg>
