<?xml version="1.0" encoding="UTF-8" standalone="no"?>
<svg xmlns:xlink="http://www.w3.org/1999/xlink" height="28.7px" width="20.15px" xmlns="http://www.w3.org/2000/svg">
  <g transform="matrix(1.0, 0.0, 0.0, 1.0, 11.6, 4.65)">
    <path d="M-3.0 -0.25 L-1.6 -1.7 Q2.2 -2.35 4.0 0.55 L0.8 3.5 0.6 3.65 0.55 3.65 -1.0 2.15 -1.7 1.7 -2.9 0.05 -3.0 -0.25 M5.15 20.45 L5.2 20.45 Q6.6 20.1 7.55 21.45 8.55 22.8 7.6 22.9 L5.8 23.1 3.6 23.45 Q2.3 23.65 -0.5 23.5 -3.3 23.25 -8.45 23.4 -9.75 23.4 -10.15 22.95 -10.55 22.6 -10.85 21.2 -11.2 19.45 -10.4 19.1 L-10.3 19.05 -10.05 19.0 -7.65 19.0 Q-3.85 19.1 -1.3 20.45 L2.1 20.85 5.05 20.45 5.15 20.45" fill="#333333" fill-rule="evenodd" stroke="none"/>
    <path d="M-10.3 19.05 Q-10.4 17.95 -10.95 16.35 -11.55 14.65 -9.4 8.05 -7.5 3.45 -7.6 0.2 L-5.0 -4.15 Q-4.0 -2.95 -3.0 -0.25 L-2.9 0.05 -1.7 1.7 -1.0 2.15 0.55 3.65 0.6 3.65 Q1.65 4.85 1.45 5.45 L-1.75 6.3 Q-2.7 7.8 -2.4 9.55 -0.3 14.55 1.45 16.95 3.1 19.3 5.15 20.45 L5.05 20.45 2.1 20.85 -1.3 20.45 Q-3.85 19.1 -7.65 19.0 L-10.05 19.0 -10.3 19.05" fill="url(#gradient0)" fill-rule="evenodd" stroke="none"/>
    <path d="M-10.3 19.05 Q-10.4 17.95 -10.95 16.35 -11.55 14.65 -9.4 8.05 -7.5 3.45 -7.6 0.2 L-5.0 -4.15 Q-4.0 -2.95 -3.0 -0.25 L-1.6 -1.7 M4.0 0.55 L0.8 3.5 0.6 3.65 Q1.65 4.85 1.45 5.45 L-1.75 6.3 Q-2.7 7.8 -2.4 9.55 -0.3 14.55 1.45 16.95 3.1 19.3 5.15 20.45 L5.2 20.45 Q6.6 20.1 7.55 21.45 8.55 22.8 7.6 22.9 L5.8 23.1 3.6 23.45 Q2.3 23.65 -0.5 23.5 -3.3 23.25 -8.45 23.4 -9.75 23.4 -10.15 22.95 -10.55 22.6 -10.85 21.2 -11.2 19.45 -10.4 19.1 L-10.3 19.05 -10.05 19.0 -7.65 19.0 Q-3.85 19.1 -1.3 20.45 L2.1 20.85 5.05 20.45 5.15 20.45 M0.6 3.65 L0.55 3.65 -1.0 2.15 -1.7 1.7 -2.9 0.05 -3.0 -0.25" fill="none" stroke="#000000" stroke-linecap="round" stroke-linejoin="round" stroke-width="1.0"/>
  </g>
  <defs>
    <radialGradient cx="0" cy="0" gradientTransform="matrix(0.0178, 0.0019, -0.004, 0.0369, -3.0, 15.0)" gradientUnits="userSpaceOnUse" id="gradient0" r="819.2" spreadMethod="pad">
      <stop offset="0.0" stop-color="#ff0000"/>
      <stop offset="1.0" stop-color="#000000"/>
    </radialGradient>
  </defs>
</svg>
