<?xml version="1.0" encoding="UTF-8" standalone="no"?>
<svg xmlns:xlink="http://www.w3.org/1999/xlink" height="28.9px" width="12.6px" xmlns="http://www.w3.org/2000/svg">
  <g transform="matrix(1.0, 0.0, 0.0, 1.0, 6.0, 9.65)">
    <path d="M-3.7 2.9 Q-3.0 4.25 -1.85 5.1 -0.25 6.3 2.35 6.6 L2.35 6.65 1.25 16.7 Q0.95 15.4 -0.95 15.3 L-4.4 15.15 Q-4.85 12.9 -4.2 8.85 L-3.75 5.1 -3.7 2.9 M2.35 6.65 L2.35 6.6 2.35 6.65" fill="#273f37" fill-rule="evenodd" stroke="none"/>
    <path d="M0.15 -0.5 Q3.8 -2.3 5.45 -7.5 7.05 -12.75 4.8 -1.1 1.35 0.65 2.0 5.1 L2.35 6.6 Q-0.25 6.3 -1.85 5.1 -3.0 4.25 -3.7 2.9 0.15 0.15 0.15 -0.5" fill="#999999" fill-rule="evenodd" stroke="none"/>
    <path d="M0.15 -0.5 Q0.15 0.15 -3.7 2.9 L-4.2 -2.4 Q-1.0 -0.45 0.15 -0.5 M1.25 16.7 Q1.6 17.2 0.85 17.65 -3.35 19.05 -4.45 18.65 -5.7 18.15 -5.45 16.65 -5.25 15.5 -4.4 15.15 L-0.95 15.3 Q0.95 15.4 1.25 16.7" fill="#595959" fill-rule="evenodd" stroke="none"/>
    <path d="M2.35 6.6 L2.0 5.1 Q1.35 0.65 4.8 -1.1 4.25 3.15 3.5 5.1 3.0 6.45 2.35 6.65 L2.35 6.6" fill="#404040" fill-rule="evenodd" stroke="none"/>
    <path d="M4.8 -1.1 Q7.05 -12.75 5.45 -7.5 3.8 -2.3 0.15 -0.5 0.15 0.15 -3.7 2.9 -3.0 4.25 -1.85 5.1 -0.25 6.3 2.35 6.6 L2.0 5.1 Q1.35 0.65 4.8 -1.1 4.25 3.15 3.5 5.1 3.0 6.45 2.35 6.65 L1.25 16.7 Q1.6 17.2 0.85 17.65 -3.35 19.05 -4.45 18.65 -5.7 18.15 -5.45 16.65 -5.25 15.5 -4.4 15.15 -4.85 12.9 -4.2 8.85 L-3.75 5.1 -3.7 2.9 -4.2 -2.4 Q-1.0 -0.45 0.15 -0.5 M2.35 6.6 L2.35 6.65 2.35 6.6 M-4.4 15.15 L-0.95 15.3 Q0.95 15.4 1.25 16.7" fill="none" stroke="#000000" stroke-linecap="round" stroke-linejoin="round" stroke-width="1.0"/>
  </g>
</svg>
