<?xml version="1.0" encoding="UTF-8" standalone="no"?>
<svg xmlns:xlink="http://www.w3.org/1999/xlink" height="21.85px" width="10.3px" xmlns="http://www.w3.org/2000/svg">
  <g transform="matrix(1.0, 0.0, 0.0, 1.0, 5.0, 4.6)">
    <path d="M1.85 1.2 Q1.85 0.95 2.0 0.8 2.15 0.65 2.4 0.65 L2.8 0.8 2.95 1.2 2.8 1.6 2.4 1.75 2.0 1.6 1.85 1.2" fill="#aeaeae" fill-rule="evenodd" stroke="none"/>
    <path d="M2.35 -2.35 L2.45 -2.35 3.2 -2.05 3.5 -1.3 3.2 -0.55 Q2.9 -0.25 2.45 -0.25 L2.35 -0.25 Q1.95 -0.3 1.7 -0.55 1.4 -0.85 1.4 -1.3 1.4 -1.75 1.7 -2.05 1.95 -2.3 2.35 -2.35" fill="#0099ff" fill-rule="evenodd" stroke="none"/>
    <path d="M2.35 -0.25 L2.45 -0.25 Q2.9 -0.25 3.2 -0.55 L3.5 -1.3 3.2 -2.05 2.45 -2.35 2.35 -2.35 2.2 -2.35 Q1.75 -2.35 1.45 -2.05 1.15 -1.75 1.15 -1.3 1.15 -0.85 1.45 -0.55 1.75 -0.25 2.2 -0.25 L2.35 -0.25 M0.05 -2.4 L1.4 -3.85 2.85 -4.05 Q4.7 -3.6 4.8 -1.1 4.9 1.35 3.45 5.8 L3.0 7.35 Q1.7 9.0 0.9 5.1 0.4 2.85 -0.9 1.05 -0.9 -0.1 0.05 -2.4 M1.85 1.2 L2.0 1.6 2.4 1.75 2.8 1.6 2.95 1.2 2.8 0.8 2.4 0.65 Q2.15 0.65 2.0 0.8 1.85 0.95 1.85 1.2" fill="#f0c468" fill-rule="evenodd" stroke="none"/>
    <path d="M1.0 15.0 Q-1.9 17.7 -4.15 16.25 -4.85 12.9 -4.2 8.85 -3.5 4.15 -3.85 0.55 L-3.0 0.75 -0.9 1.05 Q-1.25 5.65 -0.85 6.85 -0.45 8.05 -0.9 10.1 -1.4 12.1 1.0 15.0" fill="#222222" fill-rule="evenodd" stroke="none"/>
    <path d="M0.05 -2.4 Q-0.9 -0.1 -0.9 1.05 0.4 2.85 0.9 5.1 1.7 9.0 3.0 7.35 2.5 10.1 1.0 15.0 -1.4 12.1 -0.9 10.1 -0.45 8.05 -0.85 6.85 -1.25 5.65 -0.9 1.05 L-3.0 0.75 -3.85 0.55 Q-4.9 0.25 -3.8 0.0 L-2.5 -0.25 Q-1.0 -0.45 0.05 -2.4" fill="#a47a4d" fill-rule="evenodd" stroke="none"/>
    <path d="M3.0 7.35 L3.45 5.8 Q4.9 1.35 4.8 -1.1 4.7 -3.6 2.85 -4.05 L1.4 -3.85 0.05 -2.4 Q-0.9 -0.1 -0.9 1.05 L-3.0 0.75 -3.85 0.55 Q-4.9 0.25 -3.8 0.0 L-2.5 -0.25 Q-1.0 -0.45 0.05 -2.4 M3.0 7.35 Q2.5 10.1 1.0 15.0 -1.4 12.1 -0.9 10.1 -0.45 8.05 -0.85 6.85 M-4.15 16.25 Q-4.85 12.9 -4.2 8.85 -3.5 4.15 -3.85 0.55" fill="none" stroke="#000000" stroke-linecap="round" stroke-linejoin="round" stroke-width="1.0"/>
    <path d="M2.35 -0.25 L2.45 -0.25 Q2.9 -0.25 3.2 -0.55 L3.5 -1.3 3.2 -2.05 2.45 -2.35 2.35 -2.35 Q1.95 -2.3 1.7 -2.05 1.4 -1.75 1.4 -1.3 1.4 -0.85 1.7 -0.55 1.95 -0.3 2.35 -0.25 M1.0 15.0 Q-1.9 17.7 -4.15 16.25 M1.85 1.2 Q1.85 0.95 2.0 0.8 2.15 0.65 2.4 0.65 L2.8 0.8 2.95 1.2 2.8 1.6 2.4 1.75 2.0 1.6 1.85 1.2 M-0.85 6.85 Q-1.25 5.65 -0.9 1.05" fill="none" stroke="#000000" stroke-linecap="round" stroke-linejoin="round" stroke-width="1.0"/>
  </g>
</svg>
