<?xml version="1.0" encoding="UTF-8" standalone="no"?>
<svg xmlns:xlink="http://www.w3.org/1999/xlink" height="34.4px" width="116.4px" xmlns="http://www.w3.org/2000/svg">
  <g transform="matrix(1.0, 0.0, 0.0, 1.0, 44.7, 15.9)">
    <path d="M-38.7 -11.85 Q-27.75 -14.95 -12.6 -14.9 L-12.6 -15.9 -10.6 -15.9 -8.6 -15.9 Q-6.4 -10.05 3.5 -11.7 L5.45 -11.85 5.35 -10.85 -12.6 -9.85 -14.6 -9.85 Q-14.6 -10.85 -14.85 -10.9 -20.05 -12.3 -22.6 -9.85 -22.05 -2.5 -18.0 -7.3 -17.6 -7.8 -16.6 -7.8 L-16.6 -5.8 -16.6 -3.75 -18.6 -3.75 -26.65 -3.75 -28.65 -3.75 Q-29.65 -3.75 -30.45 -4.15 -31.65 -4.75 -32.65 -5.8 L-30.65 -5.8 Q-28.65 -5.8 -28.15 -6.65 -23.55 -14.4 -34.65 -9.85 L-36.65 -9.85 -38.7 -9.85 -38.7 -11.85" fill="#acadb4" fill-rule="evenodd" stroke="none"/>
    <path d="M-12.6 -9.85 L-12.6 -7.8 Q-12.6 -6.8 -12.1 -6.3 -11.6 -5.8 -10.6 -5.8 -10.6 -4.75 -11.0 -4.55 -12.6 -3.75 -14.6 -3.75 L-14.6 -5.8 -14.6 -9.85 -12.6 -9.85" fill="#6885a0" fill-rule="evenodd" stroke="none"/>
    <path d="M-12.6 -7.8 Q-4.3 -8.25 -8.75 -6.15 -9.6 -5.8 -10.6 -5.8 -11.6 -5.8 -12.1 -6.3 -12.6 -6.8 -12.6 -7.8" fill="#02a6f3" fill-rule="evenodd" stroke="none"/>
    <path d="M-14.6 -3.75 L-16.6 -3.75 -16.6 -5.8 -16.6 -7.8 -16.6 -9.85 -14.6 -9.85 -14.6 -5.8 -14.6 -3.75" fill="#8f91a6" fill-rule="evenodd" stroke="none"/>
    <path d="M15.9 -9.7 L21.55 -9.7 23.55 -9.7 23.55 -7.65 23.55 -5.65 21.55 -5.8 15.9 -6.0 15.9 -8.4 15.9 -9.7 M1.45 12.45 Q1.45 11.4 1.25 11.35 -1.8 10.65 -0.55 6.35 -0.55 5.35 -0.95 5.15 -2.55 4.35 -4.55 4.35 L-6.55 4.35 -6.55 6.35 -8.6 6.35 -10.6 6.35 -10.6 8.4 -10.6 10.4 -12.4 10.8 Q-13.6 11.4 -14.6 12.45 L-14.6 10.4 Q-14.6 9.4 -15.1 8.9 -15.6 8.4 -16.6 8.4 -16.6 7.35 -17.1 6.85 -17.6 6.35 -18.6 6.35 -18.6 5.35 -18.9 5.25 -21.6 4.35 -24.65 4.35 L-26.65 4.35 -28.65 4.35 -32.65 4.35 -32.65 2.3 -32.65 0.3 -30.65 0.3 Q-26.35 1.55 -26.6 -1.75 L-26.65 -3.75 -18.6 -3.75 -16.6 -3.75 -14.6 -3.75 Q-12.6 -3.75 -11.0 -4.55 -10.6 -4.75 -10.6 -5.8 -9.6 -5.8 -8.75 -6.15 -4.3 -8.25 -12.6 -7.8 L-12.6 -9.85 5.35 -10.85 5.45 -11.85 Q7.5 -11.85 9.1 -12.65 9.5 -12.85 9.5 -13.9 L9.5 -15.9 11.5 -15.9 11.5 -13.9 11.5 -11.85 Q11.5 -10.85 11.0 -10.35 10.5 -9.85 9.5 -9.85 9.5 -7.8 10.3 -6.2 10.5 -5.8 11.5 -5.8 12.95 -3.85 15.9 -3.35 L15.9 -1.0 15.9 0.3 15.5 0.3 14.5 0.3 Q14.75 4.6 11.5 4.35 L9.5 4.35 7.5 4.35 5.7 4.75 Q4.45 5.35 3.45 6.35 6.75 9.8 3.85 11.2 3.45 11.4 3.45 12.45 L1.45 12.45 M5.45 -1.75 Q5.45 -2.75 5.8 -2.9 13.3 -5.85 1.45 -5.8 1.45 -6.8 1.15 -6.9 -1.55 -7.8 -4.55 -7.8 -3.55 -6.8 -2.35 -6.2 -1.55 -5.8 -0.55 -5.8 -0.55 -4.75 -1.0 -4.1 -2.6 -1.8 -6.55 -1.75 -5.0 1.7 1.5 0.45 L3.45 0.3 Q7.5 4.25 9.5 -1.75 L7.5 -1.75 5.45 -1.75 M-14.6 0.3 L-14.6 1.3 Q-6.85 1.3 -14.6 0.3" fill="#65708b" fill-rule="evenodd" stroke="none"/>
    <path d="M1.45 -5.8 Q13.3 -5.85 5.8 -2.9 5.45 -2.75 5.45 -1.75 5.45 -0.7 4.95 -0.2 4.45 0.3 3.45 0.3 L1.5 0.45 Q-5.0 1.7 -6.55 -1.75 -2.6 -1.8 -1.0 -4.1 -0.55 -4.75 -0.55 -5.8 L1.45 -5.8 M-0.55 -3.75 L-0.55 -2.75 Q7.2 -2.75 -0.55 -3.75" fill="#798098" fill-rule="evenodd" stroke="none"/>
    <path d="M-0.55 -5.8 Q-1.55 -5.8 -2.35 -6.2 -3.55 -6.8 -4.55 -7.8 -1.55 -7.8 1.15 -6.9 1.45 -6.8 1.45 -5.8 L-0.55 -5.8" fill="#04a8f5" fill-rule="evenodd" stroke="none"/>
    <path d="M-0.55 -3.75 Q7.2 -2.75 -0.55 -2.75 L-0.55 -3.75" fill="#9395a9" fill-rule="evenodd" stroke="none"/>
    <path d="M11.5 -15.9 L13.5 -15.9 13.5 -13.9 Q13.5 -12.85 13.0 -12.35 12.5 -11.85 11.5 -11.85 L11.5 -13.9 11.5 -15.9" fill="#6a6d86" fill-rule="evenodd" stroke="none"/>
    <path d="M13.5 -13.9 Q14.5 -13.9 15.0 -13.35 15.5 -12.85 15.5 -11.85 L15.5 -9.85 13.5 -9.85 13.5 -7.8 13.5 -5.8 11.5 -5.8 Q10.5 -5.8 10.3 -6.2 9.5 -7.8 9.5 -9.85 10.5 -9.85 11.0 -10.35 11.5 -10.85 11.5 -11.85 12.5 -11.85 13.0 -12.35 13.5 -12.85 13.5 -13.9" fill="#838ca1" fill-rule="evenodd" stroke="none"/>
    <path d="M13.5 -5.8 L13.5 -7.8 13.5 -9.85 15.5 -9.85 Q15.5 -8.9 15.9 -8.4 L15.9 -6.0 15.9 -5.8 15.5 -5.8 13.5 -5.8 M15.9 -3.35 L15.9 -3.6 17.5 -3.6 17.5 -1.6 Q16.5 -1.6 16.0 -1.1 L15.9 -1.0 15.9 -3.35" fill="#59718d" fill-rule="evenodd" stroke="none"/>
    <path d="M15.5 -11.85 L15.9 -11.85 15.9 -9.85 15.5 -9.85 15.5 -11.85 M19.5 0.45 Q19.5 1.45 19.1 1.65 17.65 2.35 15.9 2.45 L15.9 2.3 15.9 0.45 17.5 0.45 19.5 0.45" fill="#9699ab" fill-rule="evenodd" stroke="none"/>
    <path d="M5.45 -11.85 L5.45 -13.9 7.5 -13.9 9.5 -13.9 Q9.5 -12.85 9.1 -12.65 7.5 -11.85 5.45 -11.85" fill="#a2a4b5" fill-rule="evenodd" stroke="none"/>
    <path d="M11.5 -5.8 L13.5 -5.8 15.5 -5.8 15.9 -5.8 15.9 -6.0 21.55 -5.8 23.55 -5.65 25.45 -5.35 Q32.35 -3.05 17.5 -3.6 L15.9 -3.6 15.9 -3.35 Q12.95 -3.85 11.5 -5.8" fill="#01a7f4" fill-rule="evenodd" stroke="none"/>
    <path d="M15.9 -9.85 L15.9 -9.7 15.9 -8.4 Q15.5 -8.9 15.5 -9.85 L15.9 -9.85 M15.9 -1.0 L16.0 -1.1 Q16.5 -1.6 17.5 -1.6 18.5 -1.6 19.0 -1.1 19.5 -0.6 19.5 0.45 L17.5 0.45 15.9 0.45 15.9 0.3 15.9 -1.0" fill="#5b5e76" fill-rule="evenodd" stroke="none"/>
    <path d="M23.55 -9.7 L25.55 -9.7 25.55 -7.65 27.25 -7.65 Q29.65 -7.1 31.0 -5.25 L31.45 -4.5 31.55 -4.3 31.55 -3.6 31.55 -1.6 29.6 -1.8 Q23.1 -3.0 21.55 0.45 L19.5 0.45 Q19.5 -0.6 19.0 -1.1 18.5 -1.6 17.5 -1.6 L17.5 -3.6 Q32.35 -3.05 25.45 -5.35 L23.55 -5.65 23.55 -7.65 23.55 -9.7" fill="#63809c" fill-rule="evenodd" stroke="none"/>
    <path d="M31.45 -5.3 L33.05 -5.15 33.55 -3.9 33.55 -3.6 33.55 -1.6 31.55 -1.6 31.55 -3.6 31.55 -4.3 31.55 -4.35 31.45 -4.5 31.0 -5.25 31.45 -5.3" fill="#696c87" fill-rule="evenodd" stroke="none"/>
    <path d="M49.6 0.45 L47.6 0.45 21.55 0.45 Q23.1 -3.0 29.6 -1.8 L31.55 -1.6 33.55 -1.6 37.6 -1.6 39.6 -1.6 45.6 -1.6 47.6 -1.6 49.6 -1.6 49.6 0.45" fill="#aeb0be" fill-rule="evenodd" stroke="none"/>
    <path d="M27.8 -7.65 Q30.85 -7.6 31.45 -5.3 L31.0 -5.25 Q29.65 -7.1 27.25 -7.65 L27.8 -7.65 M33.55 -3.9 L35.6 -3.6 33.55 -3.6 33.55 -3.9 M31.45 -4.5 L31.55 -4.35 31.55 -4.3 31.45 -4.5" fill="#393b49" fill-rule="evenodd" stroke="none"/>
    <path d="M61.65 0.45 L59.65 0.45 49.6 0.45 49.6 -1.6 59.65 -1.6 61.65 -1.6 61.65 0.45" fill="#9496aa" fill-rule="evenodd" stroke="none"/>
    <path d="M71.7 -1.6 L71.7 0.45 Q70.7 0.45 70.2 0.95 67.5 3.55 61.65 0.45 L61.65 -1.6 69.7 -1.6 71.7 -1.6" fill="#a4a6b2" fill-rule="evenodd" stroke="none"/>
    <path d="M15.9 2.3 L15.5 2.3 15.5 0.3 15.9 0.3 15.9 0.45 15.9 2.3" fill="#2a2b36" fill-rule="evenodd" stroke="none"/>
    <path d="M25.55 -9.7 Q27.55 -9.7 29.15 -8.9 29.55 -8.7 29.55 -7.65 L27.8 -7.65 27.25 -7.65 25.55 -7.65 25.55 -9.7" fill="#5e6178" fill-rule="evenodd" stroke="none"/>
    <path d="M15.5 4.35 L15.9 4.35 15.9 6.4 15.5 6.35 15.5 4.35 M-38.7 8.4 Q-38.7 9.4 -39.0 10.3 -40.65 15.1 -40.7 8.4 L-38.7 8.4" fill="#b2b2b2" fill-rule="evenodd" stroke="none"/>
    <path d="M15.5 2.3 L15.5 4.35 15.5 6.35 13.5 6.35 11.5 6.35 11.5 4.35 Q14.75 4.6 14.5 0.3 L15.5 0.3 15.5 2.3" fill="#494b5e" fill-rule="evenodd" stroke="none"/>
    <path d="M5.45 -1.75 L7.5 -1.75 9.5 -1.75 Q7.5 4.25 3.45 0.3 4.45 0.3 4.95 -0.2 5.45 -0.7 5.45 -1.75" fill="#5c5e76" fill-rule="evenodd" stroke="none"/>
    <path d="M11.5 4.35 L11.5 6.35 Q11.5 7.35 11.0 7.9 10.5 8.4 9.5 8.4 9.5 7.35 9.1 6.55 8.5 5.35 7.5 4.35 L9.5 4.35 11.5 4.35" fill="#6786a2" fill-rule="evenodd" stroke="none"/>
    <path d="M3.45 12.45 Q3.45 11.4 3.85 11.2 6.75 9.8 3.45 6.35 4.45 5.35 5.7 4.75 L7.5 4.35 Q8.5 5.35 9.1 6.55 9.5 7.35 9.5 8.4 L9.5 12.45 9.5 14.45 Q9.5 15.45 9.2 15.55 6.5 16.5 3.45 16.5 L3.45 14.45 3.45 12.45" fill="#388dbc" fill-rule="evenodd" stroke="none"/>
    <path d="M13.5 6.35 Q13.5 7.35 13.1 8.2 12.5 9.4 11.5 10.4 L11.5 12.45 11.5 14.45 9.5 14.45 9.5 12.45 9.5 8.4 Q10.5 8.4 11.0 7.9 11.5 7.35 11.5 6.35 L13.5 6.35" fill="#2c3b4a" fill-rule="evenodd" stroke="none"/>
    <path d="M11.5 14.45 L11.5 16.5 11.5 18.5 9.5 18.5 1.45 18.5 1.45 16.5 3.45 16.5 Q6.5 16.5 9.2 15.55 9.5 15.45 9.5 14.45 L11.5 14.45" fill="#375367" fill-rule="evenodd" stroke="none"/>
    <path d="M-0.55 6.35 L-2.55 6.35 -4.55 6.35 -4.55 4.35 Q-2.55 4.35 -0.95 5.15 -0.55 5.35 -0.55 6.35" fill="#3d3f4f" fill-rule="evenodd" stroke="none"/>
    <path d="M-4.55 6.35 Q-4.55 7.35 -5.05 7.9 -5.55 8.4 -6.55 8.4 L-6.55 6.35 -6.55 4.35 -4.55 4.35 -4.55 6.35" fill="#2b4758" fill-rule="evenodd" stroke="none"/>
    <path d="M-14.6 0.3 Q-6.85 1.3 -14.6 1.3 L-14.6 0.3" fill="#5d6078" fill-rule="evenodd" stroke="none"/>
    <path d="M-6.55 8.4 L-8.6 8.4 -10.6 8.4 -10.6 6.35 -8.6 6.35 -6.55 6.35 -6.55 8.4" fill="#0089c9" fill-rule="evenodd" stroke="none"/>
    <path d="M-6.55 8.4 Q-6.55 9.4 -7.0 9.6 -8.6 10.4 -10.6 10.4 L-10.6 8.4 -8.6 8.4 -6.55 8.4" fill="#17b5ff" fill-rule="evenodd" stroke="none"/>
    <path d="M-10.6 10.4 Q-10.6 11.4 -11.0 12.25 -11.6 13.45 -12.6 14.45 L-12.6 16.5 -12.6 18.5 -14.6 18.5 -16.6 18.5 -16.6 16.5 -15.0 14.25 Q-14.6 13.45 -14.6 12.45 -13.6 11.4 -12.4 10.8 L-10.6 10.4" fill="#353a48" fill-rule="evenodd" stroke="none"/>
    <path d="M-20.6 16.5 L-20.6 14.45 -20.6 12.45 -18.6 12.45 Q-17.6 11.4 -16.4 10.8 L-14.6 10.4 -14.6 12.45 Q-14.6 13.45 -15.0 14.25 L-16.6 16.5 -18.6 16.5 -20.6 16.5" fill="#70738c" fill-rule="evenodd" stroke="none"/>
    <path d="M1.45 16.5 L1.45 14.45 1.45 12.45 3.45 12.45 3.45 14.45 3.45 16.5 1.45 16.5" fill="#7a96af" fill-rule="evenodd" stroke="none"/>
    <path d="M-38.7 -7.8 L-38.7 -9.85 -36.65 -9.85 -34.65 -9.85 -34.65 -7.8 -36.65 -7.8 -38.7 -7.8" fill="#6d89a4" fill-rule="evenodd" stroke="none"/>
    <path d="M-44.7 -5.8 L-44.7 -7.8 -44.7 -9.85 Q-40.4 -8.55 -39.75 -11.65 L-38.7 -11.85 -38.7 -9.85 -38.7 -7.8 -40.7 -7.8 -42.7 -7.8 -42.7 -5.8 -44.7 -5.8" fill="#afb4c3" fill-rule="evenodd" stroke="none"/>
    <path d="M-42.7 -5.8 L-42.7 -7.8 -40.7 -7.8 -38.7 -7.8 Q-38.7 -6.8 -39.2 -6.3 -39.7 -5.8 -40.7 -5.8 L-42.7 -5.8" fill="#536f8b" fill-rule="evenodd" stroke="none"/>
    <path d="M-42.7 -5.8 L-40.7 -5.8 -40.7 -3.75 -40.7 -1.75 Q-41.7 -1.75 -41.9 -2.15 -42.7 -3.75 -42.7 -5.8" fill="#3c576d" fill-rule="evenodd" stroke="none"/>
    <path d="M-44.7 0.3 L-44.7 -1.75 -44.7 -5.8 -42.7 -5.8 Q-42.7 -3.75 -41.9 -2.15 -41.7 -1.75 -40.7 -1.75 L-40.7 0.3 Q-40.7 1.3 -41.2 1.8 -41.7 2.3 -42.7 2.3 -42.7 1.3 -43.2 0.8 -43.7 0.3 -44.7 0.3" fill="#606d86" fill-rule="evenodd" stroke="none"/>
    <path d="M-40.7 -5.8 Q-39.7 -5.8 -39.2 -6.3 -38.7 -6.8 -38.7 -7.8 L-36.65 -7.8 -36.65 -5.8 -36.65 -3.75 -38.7 -3.75 -40.7 -3.75 -40.7 -5.8" fill="#019de5" fill-rule="evenodd" stroke="none"/>
    <path d="M-40.7 -1.75 L-40.7 -3.75 -38.7 -3.75 -36.65 -3.75 -36.65 -1.75 -38.7 -1.75 -40.7 -1.75" fill="#537693" fill-rule="evenodd" stroke="none"/>
    <path d="M-36.65 -3.75 L-36.65 -5.8 -36.65 -7.8 -34.65 -7.8 Q-33.65 -7.8 -33.15 -7.3 -32.65 -6.8 -32.65 -5.8 L-34.65 -5.8 -34.65 -3.75 -34.65 -1.75 -36.65 -1.75 -36.65 -3.75" fill="#617994" fill-rule="evenodd" stroke="none"/>
    <path d="M-32.65 -5.8 Q-31.65 -4.75 -30.45 -4.15 -29.65 -3.75 -28.65 -3.75 -28.65 -2.75 -29.15 -2.25 -29.65 -1.75 -30.65 -1.75 L-32.65 -1.75 -34.65 -1.75 -34.65 -3.75 -34.65 -5.8 -32.65 -5.8" fill="#6b839e" fill-rule="evenodd" stroke="none"/>
    <path d="M-26.65 -3.75 L-26.6 -1.75 Q-26.35 1.55 -30.65 0.3 L-30.65 -1.75 Q-29.65 -1.75 -29.15 -2.25 -28.65 -2.75 -28.65 -3.75 L-26.65 -3.75" fill="#4b586e" fill-rule="evenodd" stroke="none"/>
    <path d="M-18.6 6.35 L-20.55 6.6 Q-24.9 7.6 -24.65 4.35 -21.6 4.35 -18.9 5.25 -18.6 5.35 -18.6 6.35" fill="#333542" fill-rule="evenodd" stroke="none"/>
    <path d="M-18.6 12.45 L-18.6 10.4 -18.6 8.4 -16.6 8.4 Q-15.6 8.4 -15.1 8.9 -14.6 9.4 -14.6 10.4 L-16.4 10.8 Q-17.6 11.4 -18.6 12.45" fill="#9d9fb1" fill-rule="evenodd" stroke="none"/>
    <path d="M-30.65 0.3 L-32.65 0.3 -32.65 2.3 -34.65 2.3 -34.65 0.3 -34.65 -1.75 -32.65 -1.75 -30.65 -1.75 -30.65 0.3" fill="#0ca8f1" fill-rule="evenodd" stroke="none"/>
    <path d="M-32.65 2.3 L-32.65 4.35 -34.65 4.35 -36.65 4.35 -42.7 4.35 -42.7 2.3 Q-41.7 2.3 -41.2 1.8 -40.7 1.3 -40.7 0.3 L-38.5 1.9 Q-37.7 2.3 -36.65 2.3 L-34.65 2.3 -32.65 2.3" fill="#637d99" fill-rule="evenodd" stroke="none"/>
    <path d="M-34.65 -1.75 L-34.65 0.3 -34.65 2.3 -36.65 2.3 -36.65 0.3 -36.65 -1.75 -34.65 -1.75" fill="#6b8ea9" fill-rule="evenodd" stroke="none"/>
    <path d="M-26.65 4.35 Q-26.65 5.35 -26.9 5.4 -30.65 6.35 -34.65 6.35 L-34.65 4.35 -32.65 4.35 -28.65 4.35 -26.65 4.35" fill="#2a2b35" fill-rule="evenodd" stroke="none"/>
    <path d="M-34.65 6.35 L-36.65 6.35 -38.7 6.35 -42.7 6.35 -42.7 4.35 -36.65 4.35 -34.65 4.35 -34.65 6.35" fill="#333441" fill-rule="evenodd" stroke="none"/>
    <path d="M-16.6 18.5 L-18.6 18.5 -20.6 18.5 -20.6 16.5 -18.6 16.5 -16.6 16.5 -16.6 18.5" fill="#4d4f63" fill-rule="evenodd" stroke="none"/>
    <path d="M-40.7 -1.75 L-38.7 -1.75 -36.65 -1.75 -36.65 0.3 -36.65 2.3 Q-37.7 2.3 -38.5 1.9 L-40.7 0.3 -40.7 -1.75" fill="#0ba7ef" fill-rule="evenodd" stroke="none"/>
    <path d="M-42.7 6.35 L-44.7 6.35 -44.7 4.35 -44.7 0.3 Q-43.7 0.3 -43.2 0.8 -42.7 1.3 -42.7 2.3 L-42.7 4.35 -42.7 6.35" fill="#7e8097" fill-rule="evenodd" stroke="none"/>
    <path d="M-36.65 6.35 Q-36.65 7.35 -37.2 7.9 -37.7 8.4 -38.7 8.4 L-40.7 8.4 Q-41.7 8.4 -42.2 7.9 -42.7 7.35 -42.7 6.35 L-38.7 6.35 -36.65 6.35" fill="#cbcbcb" fill-rule="evenodd" stroke="none"/>
    <path d="M39.6 -3.6 L45.6 -3.6 47.6 -3.6 47.6 -1.6 45.6 -1.6 39.6 -1.6 39.6 -3.6 M61.65 -3.6 L69.7 -3.6 71.7 -3.6 71.7 -1.6 69.7 -1.6 61.65 -1.6 61.65 -3.6" fill="#6c708a" fill-rule="evenodd" stroke="none"/>
    <path d="M47.6 -3.6 L59.65 -3.6 61.65 -3.6 61.65 -1.6 59.65 -1.6 49.6 -1.6 47.6 -1.6 47.6 -3.6" fill="#73768c" fill-rule="evenodd" stroke="none"/>
    <path d="M35.6 -3.6 L37.6 -3.6 39.6 -3.6 39.6 -1.6 37.6 -1.6 33.55 -1.6 33.55 -3.6 35.6 -3.6" fill="#5e6177" fill-rule="evenodd" stroke="none"/>
  </g>
</svg>
