<?xml version="1.0" encoding="UTF-8" standalone="no"?>
<svg xmlns:xlink="http://www.w3.org/1999/xlink" height="12.0px" width="14.7px" xmlns="http://www.w3.org/2000/svg">
  <g transform="matrix(1.0, 0.0, 0.0, 1.0, 7.15, 6.8)">
    <path d="M-6.55 -3.05 L-4.25 -1.95 -2.5 -1.65 0.35 -1.35 2.5 -1.35 6.05 -1.75 Q6.4 -1.7 6.1 -0.1 5.8 1.5 3.8 3.35 1.8 5.15 -0.5 4.55 -2.85 3.95 -4.45 2.35 -6.1 0.7 -6.15 -0.7 L-6.55 -3.05" fill="#1a1a1a" fill-rule="evenodd" stroke="none"/>
    <path d="M6.05 -1.75 L2.5 -1.35 0.35 -1.35 -2.5 -1.65 -4.25 -1.95 -6.55 -3.05 Q-7.05 -5.6 -5.35 -6.3 0.3 -3.85 5.75 -6.3 8.2 -4.05 6.05 -1.75 M3.45 -3.65 Q3.45 -3.3 3.75 -2.9 L4.45 -2.6 5.15 -2.9 5.45 -3.65 5.15 -4.3 4.45 -4.6 3.75 -4.3 Q3.45 -4.05 3.45 -3.65" fill="url(#gradient0)" fill-rule="evenodd" stroke="none"/>
    <path d="M3.45 -3.65 Q3.45 -4.05 3.75 -4.3 L4.45 -4.6 5.15 -4.3 5.45 -3.65 5.15 -2.9 4.45 -2.6 3.75 -2.9 Q3.45 -3.3 3.45 -3.65" fill="url(#gradient1)" fill-rule="evenodd" stroke="none"/>
    <path d="M6.05 -1.75 L2.5 -1.35 0.35 -1.35 -2.5 -1.65 -4.25 -1.95 -6.55 -3.05 -6.15 -0.7 Q-6.1 0.7 -4.45 2.35 -2.85 3.95 -0.5 4.55 1.8 5.15 3.8 3.35 5.8 1.5 6.1 -0.1 6.4 -1.7 6.05 -1.75 8.2 -4.05 5.75 -6.3 0.3 -3.85 -5.35 -6.3 -7.05 -5.6 -6.55 -3.05 M3.45 -3.65 Q3.45 -4.05 3.75 -4.3 L4.45 -4.6 5.15 -4.3 5.45 -3.65 5.15 -2.9 4.45 -2.6 3.75 -2.9 Q3.45 -3.3 3.45 -3.65" fill="none" stroke="#000000" stroke-linecap="round" stroke-linejoin="round" stroke-width="1.0"/>
  </g>
  <defs>
    <radialGradient cx="0" cy="0" gradientTransform="matrix(0.0164, 0.0, 0.0, 0.0098, -0.9, -4.55)" gradientUnits="userSpaceOnUse" id="gradient0" r="819.2" spreadMethod="pad">
      <stop offset="0.0" stop-color="#7e0101"/>
      <stop offset="1.0" stop-color="#000000"/>
    </radialGradient>
    <radialGradient cx="0" cy="0" gradientTransform="matrix(0.0016, 0.0, 0.0, 0.0016, 3.5, -3.8)" gradientUnits="userSpaceOnUse" id="gradient1" r="819.2" spreadMethod="pad">
      <stop offset="0.0" stop-color="#444444"/>
      <stop offset="1.0" stop-color="#1aa4ff"/>
    </radialGradient>
  </defs>
</svg>
