<?xml version="1.0" encoding="UTF-8" standalone="no"?>
<svg xmlns:xlink="http://www.w3.org/1999/xlink" height="31.45px" width="129.3px" xmlns="http://www.w3.org/2000/svg">
  <g transform="matrix(1.0, 0.0, 0.0, 1.0, 48.8, 20.75)">
    <path d="M-30.35 -14.85 L-30.35 -16.8 -22.0 -18.4 Q-9.8 -20.1 3.5 -18.0 4.7 -17.8 5.9 -19.0 6.6 -19.75 6.65 -20.75 L10.3 -20.75 14.0 -20.75 Q15.8 -15.75 28.8 -16.7 L32.45 -16.8 32.45 -14.85 28.8 -14.85 -8.2 -14.85 -11.85 -14.85 Q-11.85 -15.85 -12.3 -15.9 -18.0 -16.7 -22.0 -16.15 -24.75 -15.8 -26.65 -14.85 L-26.65 -12.9 -30.35 -12.9 -30.35 -14.85" fill="#aeaeb6" fill-rule="evenodd" stroke="none"/>
    <path d="M32.45 -1.1 L28.8 -1.1 21.35 -1.1 Q21.35 -2.1 20.7 -2.25 17.65 -3.05 14.0 -3.05 L14.0 -1.1 10.3 -1.1 Q10.3 -2.1 9.4 -2.45 -0.2 -6.6 -11.85 -1.1 L-15.55 -1.1 -22.0 -1.1 -26.65 -1.1 Q-26.65 -2.1 -27.4 -2.25 L-34.0 -3.05 Q-35.85 -3.05 -36.3 -3.45 -37.7 -5.05 -37.7 -7.0 L-37.7 -8.95 -37.7 -10.9 Q-35.85 -10.9 -34.95 -11.45 -34.05 -11.9 -34.0 -12.9 L-34.0 -14.85 -30.35 -14.85 -30.35 -12.9 Q-30.8 -9.7 -22.9 -10.7 L-22.0 -10.8 -19.3 -10.9 Q-19.7 -7.7 -12.6 -9.75 -11.85 -9.95 -11.85 -10.9 L-11.85 -12.9 Q-10.05 -12.9 -9.1 -13.4 -8.2 -13.85 -8.2 -14.85 L28.8 -14.85 32.45 -14.85 36.15 -14.85 38.05 -14.85 38.1 -12.75 38.55 -12.7 38.7 -11.9 38.05 -11.9 Q37.65 -2.85 32.45 -3.05 L32.45 -1.1 M17.65 -12.9 L14.0 -12.9 10.3 -12.9 10.3 -10.9 14.0 -10.9 14.0 -8.95 14.0 -7.0 Q15.8 -8.0 18.05 -8.55 L21.35 -8.95 21.35 -10.9 25.0 -10.9 28.8 -10.9 Q30.6 -10.9 30.8 -11.25 32.8 -14.15 25.0 -12.9 L21.35 -12.9 17.65 -12.9 M-26.65 -7.0 Q-26.65 -8.0 -27.4 -8.15 L-34.0 -8.95 Q-34.0 -8.0 -33.1 -7.5 -32.2 -7.0 -30.35 -7.0 -30.35 -6.0 -29.4 -5.55 -28.5 -5.05 -26.65 -5.05 -23.75 -1.35 -22.0 -3.5 L-21.15 -5.05 -23.0 -5.05 Q-23.0 -6.0 -23.9 -6.5 L-26.65 -7.0 M-15.55 -7.0 Q-15.55 -6.0 -14.7 -5.7 -3.6 -1.7 -15.55 -7.0 M-4.5 -10.9 L-0.8 -10.9 Q1.0 -10.9 1.3 -11.25 3.3 -14.15 -4.5 -12.9 L-4.5 -10.9" fill="#5c7795" fill-rule="evenodd" stroke="none"/>
    <path d="M14.0 -10.9 L10.3 -10.9 10.3 -12.9 14.0 -12.9 17.65 -12.9 Q17.65 -11.9 16.75 -11.45 15.8 -10.9 14.0 -10.9 M25.0 -12.9 Q32.8 -14.15 30.8 -11.25 30.6 -10.9 28.8 -10.9 L25.0 -10.9 25.0 -12.9 M-30.35 -7.0 Q-32.2 -7.0 -33.1 -7.5 -34.0 -8.0 -34.0 -8.95 L-27.4 -8.15 Q-26.65 -8.0 -26.65 -7.0 L-30.35 -7.0 M-4.5 -10.9 L-4.5 -12.9 Q3.3 -14.15 1.3 -11.25 1.0 -10.9 -0.8 -10.9 L-4.5 -10.9" fill="#ccb700" fill-rule="evenodd" stroke="none"/>
    <path d="M21.35 -1.1 L17.65 -1.1 17.65 0.85 14.0 0.85 14.0 -1.1 14.0 -3.05 Q17.65 -3.05 20.7 -2.25 21.35 -2.1 21.35 -1.1" fill="#3b485a" fill-rule="evenodd" stroke="none"/>
    <path d="M17.65 -12.9 L21.35 -12.9 25.0 -12.9 25.0 -10.9 21.35 -10.9 21.35 -8.95 18.05 -8.55 Q15.8 -8.0 14.0 -7.0 L14.0 -8.95 14.0 -10.9 Q15.8 -10.9 16.75 -11.45 17.65 -11.9 17.65 -12.9" fill="#7194af" fill-rule="evenodd" stroke="none"/>
    <path d="M-8.2 2.85 Q-8.2 1.85 -9.1 1.35 -10.05 0.85 -11.85 0.85 L-11.85 -1.1 Q-0.2 -6.6 9.4 -2.45 10.3 -2.1 10.3 -1.1 L6.65 -1.1 6.65 0.85 6.65 2.85 2.85 2.85 2.85 4.8 -0.65 4.5 -8.2 2.85" fill="#606982" fill-rule="evenodd" stroke="none"/>
    <path d="M10.3 -1.1 Q10.3 -0.1 9.55 0.65 8.45 1.85 6.65 2.85 L6.65 0.85 6.65 -1.1 10.3 -1.1" fill="#f7f700" fill-rule="evenodd" stroke="none"/>
    <path d="M32.45 -16.8 L36.15 -16.8 39.85 -16.8 39.85 -14.85 38.05 -14.85 36.15 -14.85 32.45 -14.85 32.45 -16.8" fill="#ffea33" fill-rule="evenodd" stroke="none"/>
    <path d="M65.65 -1.1 L62.0 -1.1 50.95 -1.1 Q50.95 -2.1 50.05 -2.55 L47.2 -3.05 47.2 -5.05 47.2 -7.0 43.5 -7.0 39.85 -7.0 38.7 -11.9 38.55 -12.7 38.05 -14.85 39.85 -14.85 43.5 -14.85 47.2 -14.85 50.95 -14.85 54.65 -14.85 54.65 -12.9 54.65 -10.9 54.65 -8.95 54.65 -7.0 54.65 -5.05 Q54.15 -1.8 62.1 -2.85 L65.65 -3.05 65.65 -1.1" fill="#373b4a" fill-rule="evenodd" stroke="none"/>
    <path d="M50.95 -1.1 L47.2 -1.1 39.85 -1.1 36.15 -1.1 32.45 -1.1 32.45 -3.05 Q37.65 -2.85 38.05 -11.9 L38.7 -11.9 39.85 -7.0 39.85 -5.05 43.5 -5.05 47.2 -5.05 47.2 -3.05 50.05 -2.55 Q50.95 -2.1 50.95 -1.1 M38.05 -14.85 L38.55 -12.7 38.1 -12.75 38.05 -14.85 M65.65 -3.05 L62.1 -2.85 Q54.15 -1.8 54.65 -5.05 L54.65 -7.0 54.65 -8.95 54.65 -10.9 54.65 -12.9 54.65 -14.85 69.35 -14.85 70.8 -14.85 73.1 -14.85 Q73.1 -13.85 73.4 -12.9 75.65 -6.55 69.35 -5.05 L69.35 -3.05 65.65 -3.05" fill="#3f495a" fill-rule="evenodd" stroke="none"/>
    <path d="M39.85 -16.8 L43.5 -16.8 47.2 -16.8 47.2 -14.85 43.5 -14.85 39.85 -14.85 39.85 -16.8" fill="#8b9db3" fill-rule="evenodd" stroke="none"/>
    <path d="M39.85 -7.0 L43.5 -7.0 47.2 -7.0 47.2 -5.05 43.5 -5.05 39.85 -5.05 39.85 -7.0" fill="#373947" fill-rule="evenodd" stroke="none"/>
    <path d="M47.2 -16.8 L50.95 -16.8 54.65 -16.8 69.35 -16.8 69.35 -14.85 54.65 -14.85 50.95 -14.85 47.2 -14.85 47.2 -16.8 M70.1 -16.8 L70.8 -16.8 70.8 -16.75 70.1 -16.8" fill="#96a9bc" fill-rule="evenodd" stroke="none"/>
    <path d="M76.8 -5.05 Q76.8 -4.05 75.9 -3.55 74.95 -3.05 73.1 -3.05 L69.35 -3.05 69.35 -5.05 Q75.65 -6.55 73.4 -12.9 73.1 -13.85 73.1 -14.85 L76.8 -14.85 76.8 -10.9 76.8 -8.95 76.8 -7.0 76.8 -5.05" fill="#3e4354" fill-rule="evenodd" stroke="none"/>
    <path d="M69.35 -16.8 L70.1 -16.8 70.8 -16.75 76.05 -16.05 Q76.8 -15.85 76.8 -14.85 L73.1 -14.85 70.8 -14.85 69.35 -14.85 69.35 -16.8" fill="#7c89a1" fill-rule="evenodd" stroke="none"/>
    <path d="M76.8 -14.85 L80.5 -14.85 80.5 -10.9 80.5 -8.95 76.8 -8.95 76.8 -10.9 76.8 -14.85" fill="#cbcbcb" fill-rule="evenodd" stroke="none"/>
    <path d="M73.1 -3.05 Q73.1 -2.1 72.4 -1.9 L65.65 -1.1 65.65 -3.05 69.35 -3.05 73.1 -3.05" fill="#202129" fill-rule="evenodd" stroke="none"/>
    <path d="M80.5 -8.95 L80.5 -7.0 80.5 -5.05 76.8 -5.05 76.8 -7.0 76.8 -8.95 80.5 -8.95 M-15.55 0.85 Q-15.55 1.85 -16.25 2.65 -20.4 7.7 -22.0 5.65 -22.95 4.45 -23.0 0.85 L-22.0 0.85 -19.3 0.85 -15.55 0.85" fill="#b2b2b2" fill-rule="evenodd" stroke="none"/>
    <path d="M-30.35 -12.9 L-26.65 -12.9 -22.0 -12.5 -19.95 -12.1 Q-19.3 -11.9 -19.3 -10.9 L-22.0 -10.8 -22.9 -10.7 Q-30.8 -9.7 -30.35 -12.9" fill="#9396a9" fill-rule="evenodd" stroke="none"/>
    <path d="M-23.0 -5.05 L-21.15 -5.05 -22.0 -3.5 Q-23.75 -1.35 -26.65 -5.05 L-23.0 -5.05" fill="#ffe600" fill-rule="evenodd" stroke="none"/>
    <path d="M-11.85 -14.85 L-8.2 -14.85 Q-8.2 -13.85 -9.1 -13.4 -10.05 -12.9 -11.85 -12.9 L-11.85 -10.9 -15.55 -10.9 -15.55 -12.9 -15.55 -14.85 -11.85 -14.85" fill="#a0a2b3" fill-rule="evenodd" stroke="none"/>
    <path d="M-11.85 0.85 L-15.55 0.85 -19.3 0.85 -22.0 0.85 -23.0 0.85 -25.75 0.35 Q-26.65 -0.1 -26.65 -1.1 L-22.0 -1.1 -15.55 -1.1 -11.85 -1.1 -11.85 0.85" fill="#333541" fill-rule="evenodd" stroke="none"/>
    <path d="M-15.55 -7.0 Q-3.6 -1.7 -14.7 -5.7 -15.55 -6.0 -15.55 -7.0" fill="#60637c" fill-rule="evenodd" stroke="none"/>
    <path d="M-19.3 -10.9 L-15.55 -10.9 -11.85 -10.9 Q-11.85 -9.95 -12.6 -9.75 -19.7 -7.7 -19.3 -10.9" fill="#9597ab" fill-rule="evenodd" stroke="none"/>
    <path d="M6.65 8.75 L6.65 10.7 2.85 10.7 -4.5 10.7 -4.5 8.75 -0.8 8.75 2.85 8.75 6.65 8.75" fill="#2c2d38" fill-rule="evenodd" stroke="none"/>
    <path d="M-4.5 10.7 L-8.2 10.7 -8.2 8.75 -8.2 2.85 -0.65 4.5 2.85 4.8 2.85 6.75 2.85 8.75 -0.8 8.75 -4.5 8.75 -4.5 10.7" fill="#85879c" fill-rule="evenodd" stroke="none"/>
    <path d="M17.65 0.85 Q17.65 1.85 17.1 2.75 14.05 7.4 14.0 0.85 L17.65 0.85" fill="#5b5d74" fill-rule="evenodd" stroke="none"/>
    <path d="M6.65 2.85 L6.65 6.75 6.65 8.75 2.85 8.75 2.85 6.75 2.85 4.8 2.85 2.85 6.65 2.85" fill="#444c5f" fill-rule="evenodd" stroke="none"/>
    <path d="M-48.8 -12.9 L-48.8 -14.85 -37.7 -14.85 -34.0 -14.85 -34.0 -12.9 -37.7 -12.9 -41.45 -12.9 -45.15 -12.9 -48.8 -12.9" fill="#9eb5c6" fill-rule="evenodd" stroke="none"/>
    <path d="M-45.15 -10.9 L-48.8 -10.9 -48.8 -12.9 -45.15 -12.9 -41.45 -12.9 -41.45 -10.9 -45.15 -10.9" fill="#7789a2" fill-rule="evenodd" stroke="none"/>
    <path d="M-41.45 -12.9 L-37.7 -12.9 -34.0 -12.9 Q-34.05 -11.9 -34.95 -11.45 -35.85 -10.9 -37.7 -10.9 L-41.45 -10.9 -41.45 -12.9 M-30.35 -7.0 L-26.65 -7.0 -23.9 -6.5 Q-23.0 -6.0 -23.0 -5.05 L-26.65 -5.05 Q-28.5 -5.05 -29.4 -5.55 -30.35 -6.0 -30.35 -7.0" fill="#eeee00" fill-rule="evenodd" stroke="none"/>
    <path d="M-37.7 -7.0 Q-39.65 -7.0 -40.55 -7.5 -43.3 -8.95 -45.15 -10.9 L-41.45 -10.9 -37.7 -10.9 -37.7 -8.95 -37.7 -7.0" fill="#42556a" fill-rule="evenodd" stroke="none"/>
    <path d="M-26.65 -1.1 L-29.95 -1.5 Q-32.2 -2.1 -34.0 -3.05 L-27.4 -2.25 Q-26.65 -2.1 -26.65 -1.1" fill="#3d495a" fill-rule="evenodd" stroke="none"/>
  </g>
</svg>
