<?xml version="1.0" encoding="UTF-8" standalone="no"?>
<svg xmlns:xlink="http://www.w3.org/1999/xlink" height="26.35px" width="20.05px" xmlns="http://www.w3.org/2000/svg">
  <g transform="matrix(1.0, 0.0, 0.0, 1.0, 9.95, 29.75)">
    <path d="M2.55 -4.7 L1.05 -4.2 Q-1.0 -3.8 -2.6 -5.05 L-3.35 -5.7 -3.15 -6.05 -0.7 -5.5 2.25 -5.2 2.3 -5.1 2.55 -4.7" fill="#e1e1e1" fill-rule="evenodd" stroke="none"/>
    <path d="M-5.8 -10.55 L-5.3 -10.45 Q-5.9 -10.25 -6.1 -9.65 -6.5 -8.8 -5.55 -6.85 -6.5 -7.3 -6.8 -7.8 -7.7 -9.1 -7.25 -10.1 -7.0 -10.7 -5.8 -10.55 M-2.3 -9.45 L1.65 -8.65 1.5 -8.35 Q1.05 -7.4 2.25 -5.2 L-0.7 -5.5 -3.15 -6.05 -3.1 -6.15 Q-2.1 -8.2 -2.25 -9.3 L-2.3 -9.45" fill="#aeaeae" fill-rule="evenodd" stroke="none"/>
    <path d="M-5.3 -10.45 L-4.1 -10.55 Q-2.6 -10.4 -2.3 -9.45 L-2.25 -9.3 Q-2.1 -8.2 -3.1 -6.15 L-3.15 -6.05 -3.35 -5.7 Q-4.25 -4.45 -5.3 -6.4 L-5.55 -6.85 Q-6.5 -8.8 -6.1 -9.65 -5.9 -10.25 -5.3 -10.45 M1.65 -8.65 Q2.15 -9.35 3.5 -9.25 L3.55 -9.25 Q4.05 -9.65 5.1 -9.55 5.95 -9.45 6.4 -9.15 L6.95 -8.3 Q7.1 -7.2 6.1 -5.15 5.3 -3.6 4.4 -4.65 L2.55 -4.7 2.3 -5.1 2.25 -5.2 Q1.05 -7.4 1.5 -8.35 L1.65 -8.65 M3.55 -9.25 Q5.1 -9.1 5.35 -8.0 5.5 -6.9 4.5 -4.85 L4.4 -4.65 4.5 -4.85 Q5.5 -6.9 5.35 -8.0 5.1 -9.1 3.55 -9.25" fill="#999999" fill-rule="evenodd" stroke="none"/>
    <path d="M1.3 -29.25 Q5.5 -29.0 6.95 -27.0 L7.85 -25.25 Q8.6 -20.2 7.8 -17.5 L6.95 -10.35 6.4 -9.15 Q5.95 -9.45 5.1 -9.55 4.05 -9.65 3.55 -9.25 L3.5 -9.25 Q2.15 -9.35 1.65 -8.65 L-2.3 -9.45 Q-2.6 -10.4 -4.1 -10.55 L-5.3 -10.45 -5.8 -10.55 Q-6.55 -12.95 -6.9 -16.2 -7.65 -22.85 -6.85 -26.0 -6.2 -28.5 -3.8 -29.0 L1.3 -29.25" fill="#959595" fill-rule="evenodd" stroke="none"/>
    <path d="M6.4 -9.15 L6.95 -10.35 7.8 -17.5 Q8.6 -20.2 7.85 -25.25 L6.95 -27.0 Q5.5 -29.0 1.3 -29.25 M-3.8 -29.0 Q-6.2 -28.5 -6.85 -26.0 -7.65 -22.85 -6.9 -16.2 -6.55 -12.95 -5.8 -10.55 L-5.3 -10.45 -4.1 -10.55 Q-2.6 -10.4 -2.3 -9.45 L1.65 -8.65 Q2.15 -9.35 3.5 -9.25 L3.55 -9.25 Q4.05 -9.65 5.1 -9.55 5.95 -9.45 6.4 -9.15 L6.95 -8.3 Q7.1 -7.2 6.1 -5.15 5.3 -3.6 4.4 -4.65 L2.55 -4.7 2.3 -5.1 2.25 -5.2 -0.7 -5.5 -3.15 -6.05 -3.35 -5.7 Q-4.25 -4.45 -5.3 -6.4 L-5.55 -6.85 Q-6.5 -7.3 -6.8 -7.8 -7.7 -9.1 -7.25 -10.1 -7.0 -10.7 -5.8 -10.55 M-2.6 -5.05 L-3.35 -5.7 M2.25 -5.2 Q1.05 -7.4 1.5 -8.35 L1.65 -8.65 M4.4 -4.65 L4.5 -4.85 Q5.5 -6.9 5.35 -8.0 5.1 -9.1 3.55 -9.25 M-2.3 -9.45 L-2.25 -9.3 Q-2.1 -8.2 -3.1 -6.15 L-3.15 -6.05 M-5.55 -6.85 Q-6.5 -8.8 -6.1 -9.65 -5.9 -10.25 -5.3 -10.45" fill="none" stroke="#000000" stroke-linecap="round" stroke-linejoin="round" stroke-width="1.0"/>
    <path d="M1.3 -29.25 L-3.8 -29.0 M2.55 -4.7 L1.05 -4.2 Q-1.0 -3.8 -2.6 -5.05" fill="none" stroke="#000000" stroke-linecap="round" stroke-linejoin="round" stroke-width="1.0"/>
    <path d="M7.85 -28.4 Q10.15 -24.7 9.4 -15.95 L3.85 -17.3 3.35 -25.2 Q4.8 -28.2 7.85 -28.4 M1.9 -15.25 L7.55 -14.3 Q7.5 -11.45 6.4 -10.05 L0.7 -9.25 1.9 -15.25 M-6.9 -26.45 Q-7.45 -26.45 -7.85 -26.05 -8.25 -25.65 -8.25 -25.1 -8.25 -24.55 -7.85 -24.15 -7.45 -23.75 -6.9 -23.75 -6.35 -23.75 -5.95 -24.15 -5.55 -24.55 -5.55 -25.1 -5.55 -25.65 -5.95 -26.05 -6.35 -26.45 -6.9 -26.45 M-3.2 -26.95 Q-4.55 -21.5 -4.05 -16.1 L-8.6 -14.0 Q-10.7 -23.55 -7.75 -29.05 L-3.2 -26.95 M-6.3 -22.15 Q-6.7 -22.55 -7.25 -22.55 -7.8 -22.55 -8.2 -22.15 -8.6 -21.75 -8.6 -21.2 -8.6 -20.65 -8.2 -20.25 -7.8 -19.85 -7.25 -19.85 -6.7 -19.85 -6.3 -20.25 -5.9 -20.65 -5.9 -21.2 -5.9 -21.75 -6.3 -22.15 M-0.35 -15.0 L-1.5 -9.55 -5.7 -10.5 -6.5 -13.8 -0.35 -15.0" fill="#e1e1e1" fill-rule="evenodd" stroke="none"/>
    <path d="M-6.9 -26.45 Q-6.35 -26.45 -5.95 -26.05 -5.55 -25.65 -5.55 -25.1 -5.55 -24.55 -5.95 -24.15 -6.35 -23.75 -6.9 -23.75 -7.45 -23.75 -7.85 -24.15 -8.25 -24.55 -8.25 -25.1 -8.25 -25.65 -7.85 -26.05 -7.45 -26.45 -6.9 -26.45 M-6.3 -22.15 Q-5.9 -21.75 -5.9 -21.2 -5.9 -20.65 -6.3 -20.25 -6.7 -19.85 -7.25 -19.85 -7.8 -19.85 -8.2 -20.25 -8.6 -20.65 -8.6 -21.2 -8.6 -21.75 -8.2 -22.15 -7.8 -22.55 -7.25 -22.55 -6.7 -22.55 -6.3 -22.15" fill="#0099ff" fill-rule="evenodd" stroke="none"/>
    <path d="M1.9 -15.25 L7.55 -14.3 Q7.5 -11.45 6.4 -10.05 L0.7 -9.25 1.9 -15.25 M-3.2 -26.95 Q-4.55 -21.5 -4.05 -16.1 L-8.6 -14.0 Q-10.7 -23.55 -7.75 -29.05 L-3.2 -26.95 M-0.35 -15.0 L-1.5 -9.55 -5.7 -10.5 -6.5 -13.8 -0.35 -15.0" fill="none" stroke="#000000" stroke-linecap="round" stroke-linejoin="round" stroke-width="1.0"/>
    <path d="M7.85 -28.4 Q10.15 -24.7 9.4 -15.95 L3.85 -17.3 3.35 -25.2 Q4.8 -28.2 7.85 -28.4" fill="none" stroke="#000000" stroke-linecap="round" stroke-linejoin="round" stroke-width="1.0"/>
    <path d="M-6.9 -26.45 Q-6.35 -26.45 -5.95 -26.05 -5.55 -25.65 -5.55 -25.1 -5.55 -24.55 -5.95 -24.15 -6.35 -23.75 -6.9 -23.75 -7.45 -23.75 -7.85 -24.15 -8.25 -24.55 -8.25 -25.1 -8.25 -25.65 -7.85 -26.05 -7.45 -26.45 -6.9 -26.45 M-6.3 -22.15 Q-5.9 -21.75 -5.9 -21.2 -5.9 -20.65 -6.3 -20.25 -6.7 -19.85 -7.25 -19.85 -7.8 -19.85 -8.2 -20.25 -8.6 -20.65 -8.6 -21.2 -8.6 -21.75 -8.2 -22.15 -7.8 -22.55 -7.25 -22.55 -6.7 -22.55 -6.3 -22.15" fill="none" stroke="#999999" stroke-linecap="round" stroke-linejoin="round" stroke-width="1.0"/>
  </g>
</svg>
