<?xml version="1.0" encoding="UTF-8" standalone="no"?>
<svg xmlns:xlink="http://www.w3.org/1999/xlink" height="25.45px" width="56.0px" xmlns="http://www.w3.org/2000/svg">
  <g transform="matrix(1.0, 0.0, 0.0, 1.0, 9.9, 12.7)">
    <path d="M5.6 -9.65 L7.0 -12.2 23.7 -12.2 23.7 -7.9 23.7 -7.4 5.6 -7.4 5.6 -9.65 M41.6 4.3 L41.6 6.3 19.4 6.3 19.4 1.8 24.4 2.75 30.65 0.5 39.65 -0.7 41.6 4.3 M37.6 3.8 L30.4 3.8 37.6 3.8 M38.6 2.0 L35.6 2.0 38.6 2.0" fill="#999999" fill-rule="evenodd" stroke="none"/>
    <path d="M23.7 -7.9 L31.25 -7.9 29.4 -6.45 29.5 -6.45 30.65 0.5 24.4 2.75 19.4 1.8 15.1 2.05 14.85 2.05 9.35 -3.75 -9.4 -4.5 Q-7.35 -8.1 -4.9 -9.9 L5.6 -9.65 5.6 -7.4 23.7 -7.4 23.7 -7.9 M12.4 -5.45 L16.45 -5.45 16.45 -2.55 16.45 -0.75 16.45 -2.55 16.45 -5.45 12.4 -5.45 M16.45 -2.55 L21.25 -2.55 16.45 -2.55 M16.45 -5.45 L24.8 -5.45 16.45 -5.45 M3.1 -7.5 L-2.1 -7.5 3.1 -7.5" fill="#666666" fill-rule="evenodd" stroke="none"/>
    <path d="M-9.4 -4.5 L9.35 -3.75 14.85 2.05 5.1 12.25 -3.9 12.25 -3.65 0.25 -9.4 -4.5 M5.6 6.8 L-1.4 5.5 5.6 6.8 M7.9 2.8 L-0.1 1.3 7.9 2.8" fill="#333333" fill-rule="evenodd" stroke="none"/>
    <path d="M29.5 -6.45 Q36.6 -7.6 41.05 -5.35 45.55 -3.2 45.6 -0.4 45.7 2.35 41.6 4.3 L39.65 -0.7 30.65 0.5 29.5 -6.45" fill="#0066cc" fill-opacity="0.49803922" fill-rule="evenodd" stroke="none"/>
    <path d="M16.45 -0.75 L16.45 -2.55 16.45 -5.45 12.4 -5.45 M24.8 -5.45 L16.45 -5.45 M21.25 -2.55 L16.45 -2.55 M-2.1 -7.5 L3.1 -7.5" fill="none" stroke="#000000" stroke-linecap="round" stroke-linejoin="round" stroke-width="1.0"/>
    <path d="M5.6 -9.65 L7.0 -12.2 23.7 -12.2 23.7 -7.9 31.25 -7.9 29.5 -6.45 29.4 -6.45 31.25 -7.9 M41.6 6.3 L19.4 6.3 19.4 1.8 15.1 2.05 Q12.8 6.2 14.1 8.55 M23.7 -7.9 L23.7 -7.4 5.6 -7.4 5.6 -9.65 -4.9 -9.9 Q-7.35 -8.1 -9.4 -4.5 L9.35 -3.75 14.85 2.05 15.1 2.05 M19.4 1.8 L24.4 2.75 30.65 0.5 29.5 -6.45 M35.6 2.0 L38.6 2.0 M30.4 3.8 L37.6 3.8 M14.85 2.05 L5.1 12.25 -3.9 12.25 -3.65 0.25 -9.4 -4.5 M41.6 4.3 L39.65 -0.7 30.65 0.5 M-0.1 1.3 L7.9 2.8 M-1.4 5.5 L5.6 6.8" fill="none" stroke="#000000" stroke-linecap="round" stroke-linejoin="round" stroke-width="1.0"/>
    <path d="M41.6 4.3 L41.6 6.3" fill="none" stroke="#ff0000" stroke-linecap="round" stroke-linejoin="round" stroke-width="1.0"/>
    <path d="M29.5 -6.45 Q36.6 -7.6 41.05 -5.35 45.55 -3.2 45.6 -0.4 45.7 2.35 41.6 4.3" fill="none" stroke="#0066cc" stroke-linecap="round" stroke-linejoin="round" stroke-opacity="0.49803922" stroke-width="1.0"/>
  </g>
</svg>
