<?xml version="1.0" encoding="UTF-8" standalone="no"?>
<svg xmlns:xlink="http://www.w3.org/1999/xlink" height="26.35px" width="16.65px" xmlns="http://www.w3.org/2000/svg">
  <g transform="matrix(1.0, 0.0, 0.0, 1.0, 7.9, 29.75)">
    <path d="M5.35 -28.2 Q5.45 -26.85 2.35 -24.8 4.6 -22.5 7.8 -14.65 L6.4 -9.15 5.1 -9.55 Q4.05 -9.6 3.55 -9.25 L3.5 -9.25 Q2.2 -9.3 1.65 -8.65 L-1.95 -9.35 -2.3 -9.45 Q-2.6 -10.4 -4.1 -10.55 L-5.3 -10.45 -5.8 -10.55 -6.5 -13.6 -6.9 -16.2 Q-7.65 -22.9 -6.85 -26.0 -6.15 -28.5 -3.8 -29.0 L1.3 -29.25 Q3.2 -29.15 5.35 -28.2 M2.75 -15.5 L1.5 -18.75 Q-2.65 -17.9 -5.35 -19.75 L-4.35 -12.25 Q-1.8 -11.45 2.75 -15.5 M2.55 -4.7 L1.05 -4.2 Q-1.05 -3.8 -2.6 -5.05 L-3.35 -5.7 -3.15 -6.05 -0.7 -5.5 2.25 -5.2 2.3 -5.1 2.55 -4.7" fill="#132331" fill-rule="evenodd" stroke="none"/>
    <path d="M7.8 -14.65 Q4.6 -22.5 2.35 -24.8 5.45 -26.85 5.35 -28.2 9.4 -22.25 7.8 -14.65 M-5.3 -10.45 L-4.1 -10.55 Q-2.6 -10.4 -2.3 -9.45 L-2.25 -9.3 Q-2.15 -8.4 -2.75 -6.9 L-3.1 -6.15 -3.15 -6.05 -3.35 -5.7 Q-4.25 -4.45 -5.3 -6.4 L-5.55 -6.85 -5.55 -6.9 Q-6.5 -8.75 -6.1 -9.65 -5.9 -10.25 -5.3 -10.45 M1.65 -8.65 Q2.2 -9.3 3.5 -9.25 L3.55 -9.25 Q4.05 -9.6 5.1 -9.55 L6.4 -9.15 6.95 -8.3 Q7.1 -7.2 6.1 -5.15 5.3 -3.6 4.4 -4.65 L2.55 -4.7 2.3 -5.1 2.25 -5.2 Q1.05 -7.35 1.5 -8.35 L1.65 -8.65 M3.55 -9.25 Q5.15 -9.1 5.35 -8.0 5.5 -6.9 4.5 -4.85 L4.4 -4.65 4.5 -4.85 Q5.5 -6.9 5.35 -8.0 5.15 -9.1 3.55 -9.25" fill="#273f37" fill-rule="evenodd" stroke="none"/>
    <path d="M-5.8 -10.55 L-5.3 -10.45 Q-5.9 -10.25 -6.1 -9.65 -6.5 -8.75 -5.55 -6.9 L-5.55 -6.85 -5.65 -6.9 -6.8 -7.8 Q-7.7 -9.1 -7.25 -10.1 -7.0 -10.7 -5.8 -10.55 M-2.3 -9.45 L-1.95 -9.35 1.65 -8.65 1.5 -8.35 Q1.05 -7.35 2.25 -5.2 L-0.7 -5.5 -3.15 -6.05 -3.1 -6.15 -2.75 -6.9 Q-2.15 -8.4 -2.25 -9.3 L-2.3 -9.45" fill="#7b7b7b" fill-rule="evenodd" stroke="none"/>
    <path d="M2.75 -15.5 Q-1.8 -11.45 -4.35 -12.25 L-5.35 -19.75 Q-2.65 -17.9 1.5 -18.75 L2.75 -15.5" fill="#333333" fill-rule="evenodd" stroke="none"/>
    <path d="M7.8 -14.65 Q4.6 -22.5 2.35 -24.8 5.45 -26.85 5.35 -28.2 3.2 -29.15 1.3 -29.25 M-3.8 -29.0 Q-6.15 -28.5 -6.85 -26.0 -7.65 -22.9 -6.9 -16.2 L-6.5 -13.6 -5.8 -10.55 -5.3 -10.45 -4.1 -10.55 Q-2.6 -10.4 -2.3 -9.45 L-1.95 -9.35 1.65 -8.65 Q2.2 -9.3 3.5 -9.25 L3.55 -9.25 Q4.05 -9.6 5.1 -9.55 L6.4 -9.15 7.8 -14.65 Q9.4 -22.25 5.35 -28.2 M6.4 -9.15 L6.95 -8.3 Q7.1 -7.2 6.1 -5.15 5.3 -3.6 4.4 -4.65 L2.55 -4.7 2.3 -5.1 2.25 -5.2 -0.7 -5.5 -3.15 -6.05 -3.35 -5.7 Q-4.25 -4.45 -5.3 -6.4 L-5.55 -6.85 -5.65 -6.9 -6.8 -7.8 Q-7.7 -9.1 -7.25 -10.1 -7.0 -10.7 -5.8 -10.55 M-2.6 -5.05 L-3.35 -5.7 M2.25 -5.2 Q1.05 -7.35 1.5 -8.35 L1.65 -8.65 M4.4 -4.65 L4.5 -4.85 Q5.5 -6.9 5.35 -8.0 5.15 -9.1 3.55 -9.25 M-2.3 -9.45 L-2.25 -9.3 Q-2.15 -8.4 -2.75 -6.9 L-3.1 -6.15 -3.15 -6.05 M-5.55 -6.85 L-5.55 -6.9 Q-6.5 -8.75 -6.1 -9.65 -5.9 -10.25 -5.3 -10.45" fill="none" stroke="#000000" stroke-linecap="round" stroke-linejoin="round" stroke-width="1.0"/>
    <path d="M1.3 -29.25 L-3.8 -29.0 M2.75 -15.5 Q-1.8 -11.45 -4.35 -12.25 L-5.35 -19.75 Q-2.65 -17.9 1.5 -18.75 L2.75 -15.5 M2.55 -4.7 L1.05 -4.2 Q-1.05 -3.8 -2.6 -5.05" fill="none" stroke="#000000" stroke-linecap="round" stroke-linejoin="round" stroke-width="1.0"/>
  </g>
</svg>
