<?xml version="1.0" encoding="UTF-8" standalone="no"?>
<svg xmlns:xlink="http://www.w3.org/1999/xlink" height="19.35px" width="26.85px" xmlns="http://www.w3.org/2000/svg">
  <g transform="matrix(1.0, 0.0, 0.0, 1.0, 7.25, 3.8)">
    <path d="M-6.3 1.1 L-5.15 -0.25 Q-2.65 -2.25 -0.9 -2.6 L2.9 -3.15 4.6 -3.3 15.1 -3.15 15.1 -1.15 16.4 -1.15 16.4 10.7 16.4 11.3 14.6 12.95 14.6 0.6 Q5.7 -0.65 3.9 1.8 3.4 1.4 1.15 0.85 -1.15 0.35 -3.6 1.65 L-3.6 1.45 Q-5.55 0.7 -6.3 1.1 M12.6 -1.15 L7.4 -1.15 12.6 -1.15 M5.6 13.35 L7.35 14.5 Q-0.8 15.85 -6.75 14.0 L-6.3 14.0 -3.6 13.35 5.6 13.35" fill="#666666" fill-rule="evenodd" stroke="none"/>
    <path d="M-6.3 1.1 Q-5.55 0.7 -3.6 1.45 L-3.6 1.65 -3.6 3.8 -3.6 3.85 -3.6 10.7 -3.6 13.35 -6.3 14.0 -6.75 14.0 -6.75 2.1 Q-6.75 1.35 -6.3 1.1 M3.9 1.8 Q5.7 -0.65 14.6 0.6 L14.6 12.95 14.6 14.5 7.35 14.5 5.6 13.35 5.6 8.75 4.35 3.85 4.35 3.8 3.9 1.8 M12.6 3.5 L8.1 3.5 12.6 3.5 M12.6 8.0 L8.1 8.0 12.6 8.0 M12.6 11.8 L8.1 11.8 12.6 11.8" fill="#333333" fill-rule="evenodd" stroke="none"/>
    <path d="M16.4 10.7 L16.4 -1.15 15.1 -1.15 15.1 -3.15 4.6 -3.3 2.9 -3.15 -0.9 -2.6 Q-2.65 -2.25 -5.15 -0.25 L-6.3 1.1 Q-5.55 0.7 -3.6 1.45 L-3.6 1.65 Q-1.15 0.35 1.15 0.85 3.4 1.4 3.9 1.8 5.7 -0.65 14.6 0.6 L14.6 12.95 16.4 11.3 16.4 10.7 M7.4 -1.15 L12.6 -1.15 M3.9 1.8 L4.35 3.8 4.35 3.85 5.6 8.75 5.6 13.35 7.35 14.5 14.6 14.5 14.6 12.95 M8.1 11.8 L12.6 11.8 M8.1 8.0 L12.6 8.0 M8.1 3.5 L12.6 3.5 M-3.6 3.8 L-3.6 1.65 M-3.6 10.7 L-3.6 3.85 M-6.3 1.1 Q-6.75 1.35 -6.75 2.1 L-6.75 14.0 -6.3 14.0 -3.6 13.35 -3.6 10.7" fill="none" stroke="#000000" stroke-linecap="round" stroke-linejoin="round" stroke-width="1.0"/>
    <path d="M5.6 13.35 L-3.6 13.35 M-6.75 14.0 Q-0.8 15.85 7.35 14.5" fill="none" stroke="#000000" stroke-linecap="round" stroke-linejoin="round" stroke-width="1.0"/>
    <path d="M18.6 -1.7 L18.6 -0.2 M18.6 8.55 L18.6 10.05" fill="none" stroke="#000000" stroke-linecap="round" stroke-linejoin="round" stroke-width="2.0"/>
  </g>
</svg>
