<?xml version="1.0" encoding="UTF-8" standalone="no"?>
<svg xmlns:xlink="http://www.w3.org/1999/xlink" height="16.5px" width="14.25px" xmlns="http://www.w3.org/2000/svg">
  <g transform="matrix(1.0, 0.0, 0.0, 1.0, 5.8, 15.3)">
    <path d="M-2.5 -2.05 Q-6.2 -4.9 -5.0 -10.75 -3.75 -16.6 5.3 -13.95 7.6 -12.8 7.95 -9.55 L7.95 -8.1 7.9 -7.0 7.55 -3.95 6.9 -2.3 Q6.45 -1.6 5.5 -1.55 L2.7 -1.6 0.95 -1.55 Q-1.55 -1.5 -2.45 -2.0 -1.55 -1.5 0.95 -1.55 L2.7 -1.6 Q2.65 -0.35 2.75 0.7 L1.6 0.7 -0.1 0.55 -2.25 0.25 -2.35 0.2 -2.5 -2.05 -2.45 -2.0 -2.5 -2.05 M4.4 -8.4 L3.7 -8.45 4.4 -8.4 5.7 -8.4 4.4 -8.4" fill="#bf7c51" fill-rule="evenodd" stroke="none"/>
    <path d="M2.7 -1.6 L5.5 -1.55 Q6.45 -1.6 6.9 -2.3 L7.55 -3.95 7.9 -7.0 7.95 -8.1 7.95 -9.55 Q7.6 -12.8 5.3 -13.95 -3.75 -16.6 -5.0 -10.75 -6.2 -4.9 -2.5 -2.05 L-2.45 -2.0" fill="none" stroke="#000000" stroke-linecap="round" stroke-linejoin="round" stroke-width="1.0"/>
    <path d="M2.7 -1.6 Q2.65 -0.35 2.75 0.7 L1.6 0.7 -0.1 0.55 -2.25 0.25 -2.35 0.2 -2.5 -2.05" fill="none" stroke="#000000" stroke-linecap="round" stroke-linejoin="round" stroke-width="1.0"/>
    <path d="M-2.45 -2.0 Q-1.55 -1.5 0.95 -1.55 L2.7 -1.6" fill="none" stroke="#865a3e" stroke-linecap="round" stroke-linejoin="round" stroke-width="1.0"/>
    <path d="M3.7 -8.45 L4.4 -8.4" fill="none" stroke="#755846" stroke-linecap="round" stroke-linejoin="round" stroke-width="1.5"/>
    <path d="M4.4 -8.4 L5.7 -8.4" fill="none" stroke="#5a4136" stroke-linecap="round" stroke-linejoin="round" stroke-width="1.5"/>
  </g>
</svg>
