<?xml version="1.0" encoding="UTF-8" standalone="no"?>
<svg xmlns:xlink="http://www.w3.org/1999/xlink" height="8.9px" width="5.4px" xmlns="http://www.w3.org/2000/svg">
  <g transform="matrix(1.0, 0.0, 0.0, 1.0, 2.6, 4.35)">
    <path d="M-1.15 -2.25 L1.45 -2.25 1.45 2.55 -1.15 2.55 -1.15 -2.25" fill="#999999" fill-rule="evenodd" stroke="none"/>
    <path d="M2.3 -2.25 L1.45 -2.25 -1.15 -2.25 -2.1 -2.25 -2.1 -3.85 2.3 -3.85 2.3 -2.25 M1.45 2.55 L2.3 2.55 2.3 4.05 -2.1 4.05 -2.1 2.55 -1.15 2.55 1.45 2.55" fill="#000066" fill-opacity="0.3019608" fill-rule="evenodd" stroke="none"/>
    <path d="M2.3 -2.25 L2.3 -3.85 M-2.1 -3.85 L-2.1 -2.25 M-1.15 -2.25 L1.45 -2.25 1.45 2.55 -1.15 2.55 -1.15 -2.25 M2.3 2.55 L2.3 4.05 M-2.1 4.05 L-2.1 2.55" fill="none" stroke="#000000" stroke-linecap="round" stroke-linejoin="round" stroke-width="1.0"/>
    <path d="M1.45 -2.25 L2.3 -2.25 M2.3 -3.85 L-2.1 -3.85 M-2.1 -2.25 L-1.15 -2.25 M1.45 2.55 L2.3 2.55 M2.3 4.05 L-2.1 4.05 M-2.1 2.55 L-1.15 2.55" fill="none" stroke="#000000" stroke-linecap="round" stroke-linejoin="round" stroke-width="1.0"/>
  </g>
</svg>
