<?xml version="1.0" encoding="UTF-8" standalone="no"?>
<svg xmlns:xlink="http://www.w3.org/1999/xlink" height="4.1px" width="6.6px" xmlns="http://www.w3.org/2000/svg">
  <g transform="matrix(1.0, 0.0, 0.0, 1.0, 3.25, 2.9)">
    <path d="M1.55 -2.3 L1.5 -2.25 Q1.5 -1.65 0.2 -1.65 -1.3 -1.65 -1.15 -2.25 L-1.15 -2.3 Q-1.1 -2.9 0.2 -2.9 1.7 -2.9 1.55 -2.3" fill="#7a4141" fill-rule="evenodd" stroke="none"/>
    <path d="M-1.15 -2.3 L-1.15 -2.25 Q-1.3 -1.65 0.2 -1.65 1.5 -1.65 1.5 -2.25 L1.55 -2.3 1.8 -2.4 Q3.45 -2.4 3.35 -0.75 3.35 0.3 2.75 0.35 L2.65 0.35 Q1.85 0.35 1.85 -0.7 L-2.4 -1.35 Q-3.25 -1.65 -3.25 -2.0 -3.25 -2.65 -2.35 -2.65 -1.7 -2.65 -1.5 -2.3 L-1.15 -2.3" fill="#620000" fill-rule="evenodd" stroke="none"/>
    <path d="M-2.4 -1.35 L1.85 -0.7 Q1.85 0.35 2.65 0.35 L2.75 0.35 2.75 0.7 1.6 0.7 -0.1 0.55 -2.25 0.25 -2.35 0.2 -2.4 -1.35" fill="#bf7c51" fill-rule="evenodd" stroke="none"/>
    <path d="M-1.15 -2.3 L-1.5 -2.3 Q-1.7 -2.65 -2.35 -2.65 -3.25 -2.65 -3.25 -2.0 -3.25 -1.65 -2.4 -1.35 L1.85 -0.7 Q1.85 0.35 2.65 0.35 L2.75 0.35 Q3.35 0.3 3.35 -0.75 3.45 -2.4 1.8 -2.4 L1.55 -2.3" fill="none" stroke="#620000" stroke-linecap="round" stroke-linejoin="round" stroke-width="0.05"/>
    <path d="M2.75 0.35 L2.75 0.7 1.6 0.7 -0.1 0.55 -2.25 0.25 -2.35 0.2 -2.4 -1.35" fill="none" stroke="#000000" stroke-linecap="round" stroke-linejoin="round" stroke-width="1.0"/>
  </g>
</svg>
