<?xml version="1.0" encoding="UTF-8" standalone="no"?>
<svg xmlns:xlink="http://www.w3.org/1999/xlink" height="36.35px" width="23.95px" xmlns="http://www.w3.org/2000/svg">
  <g transform="matrix(1.0, 0.0, 0.0, 1.0, 10.3, 2.35)">
    <path d="M-2.9 16.75 L1.45 12.75 3.9 16.65 -2.9 16.75" fill="#e38902" fill-rule="evenodd" stroke="none"/>
    <path d="M-2.9 16.75 L-5.45 17.55 Q-6.0 11.8 -1.35 -0.75 0.55 -3.15 1.9 -0.3 L1.45 12.75 -2.9 16.75" fill="#d27e02" fill-rule="evenodd" stroke="none"/>
    <path d="M-5.45 17.55 L-2.9 16.75 3.9 16.65 1.45 12.75 5.15 14.0 3.9 16.65 2.6 22.85 -1.05 23.55 -5.45 17.55" fill="#996600" fill-rule="evenodd" stroke="none"/>
    <path d="M1.45 12.75 L1.9 -0.3 Q0.55 -3.15 -1.35 -0.75 -6.0 11.8 -5.45 17.55 L-1.05 23.55 2.6 22.85 3.9 16.65 5.15 14.0 1.45 12.75 3.9 16.65" fill="none" stroke="#000000" stroke-linecap="round" stroke-linejoin="round" stroke-width="1.0"/>
    <path d="M4.85 21.35 L1.55 27.65 -0.1 25.7 -2.5 22.85 3.6 18.7 4.85 21.35 M-5.65 20.05 L-7.6 20.25 -9.8 13.95 -7.45 13.7 -5.25 13.45 -3.75 19.85 -5.65 20.05" fill="#999999" fill-rule="evenodd" stroke="none"/>
    <path d="M4.85 21.35 L13.15 27.65 6.5 33.5 1.55 27.65 4.85 21.35" fill="#666666" fill-rule="evenodd" stroke="none"/>
    <path d="M-0.1 25.7 Q-3.3 25.7 -5.65 20.05 L-4.2 20.15 -2.5 22.85 -0.1 25.7 M-7.45 13.7 L-4.6 3.1 -2.1 1.4 -5.25 13.45 -7.45 13.7" fill="#333333" fill-rule="evenodd" stroke="none"/>
    <path d="M1.55 27.65 L6.5 33.5 13.15 27.65 4.85 21.35 3.6 18.7 M1.55 27.65 L-0.1 25.7 Q-3.3 25.7 -5.65 20.05 L-4.2 20.15 -2.5 22.85 -0.1 25.7" fill="none" stroke="#000000" stroke-linecap="round" stroke-linejoin="round" stroke-width="1.0"/>
    <path d="M-5.65 20.05 L-7.6 20.25 -9.8 13.95 -7.45 13.7 -4.6 3.1 -2.1 1.4 -5.25 13.45 -3.75 19.85 -5.65 20.05 M-2.5 22.85 L3.6 18.7 M-7.45 13.7 L-5.25 13.45" fill="none" stroke="#000000" stroke-linecap="round" stroke-linejoin="round" stroke-width="1.0"/>
  </g>
</svg>
