<?xml version="1.0" encoding="UTF-8" standalone="no"?>
<svg xmlns:xlink="http://www.w3.org/1999/xlink" height="19.35px" width="21.35px" xmlns="http://www.w3.org/2000/svg">
  <g transform="matrix(1.0, 0.0, 0.0, 1.0, 9.95, 18.15)">
    <path d="M7.5 -10.45 Q8.15 -9.2 8.15 -7.6 L7.95 -4.75 -1.05 -5.15 Q0.55 -9.05 -2.9 -12.85 -0.1 -11.0 7.5 -10.45 M5.4 -8.4 L3.7 -8.4 5.4 -8.4" fill="#cc9933" fill-rule="evenodd" stroke="none"/>
    <path d="M-2.4 -1.6 L-2.1 -1.6 -2.4 -1.6" fill="#000033" fill-rule="evenodd" stroke="none"/>
    <path d="M-2.4 -1.6 L-3.5 -2.1 Q-8.25 -3.45 -9.45 -12.25 -9.6 -13.35 -7.45 -17.65 L0.75 -16.95 Q6.0 -16.8 7.6 -14.5 9.2 -12.2 9.3 -10.45 L7.5 -10.45 Q-0.1 -11.0 -2.9 -12.85 0.55 -9.05 -1.05 -5.15 L7.95 -4.75 Q10.95 -5.1 7.55 -1.75 L2.8 -1.35 -2.1 -1.6 -2.4 -1.6" fill="#132331" fill-rule="evenodd" stroke="none"/>
    <path d="M2.8 -1.35 L2.8 0.7 1.6 0.7 -0.2 0.6 -2.3 0.3 -2.4 0.25 -2.4 -1.6 -2.1 -1.6 2.8 -1.35" fill="#4d4d4d" fill-rule="evenodd" stroke="none"/>
    <path d="M3.7 -8.4 L5.4 -8.4" fill="none" stroke="#997426" stroke-linecap="round" stroke-linejoin="round" stroke-width="2.0"/>
    <path d="M-2.4 -1.6 L-3.5 -2.1 Q-8.25 -3.45 -9.45 -12.25 -9.6 -13.35 -7.45 -17.65 L0.75 -16.95 Q6.0 -16.8 7.6 -14.5 9.2 -12.2 9.3 -10.45 L7.5 -10.45 Q-0.1 -11.0 -2.9 -12.85 0.55 -9.05 -1.05 -5.15 L7.95 -4.75 Q10.95 -5.1 7.55 -1.75 L2.8 -1.35 -2.1 -1.6 -2.4 -1.6" fill="none" stroke="#000000" stroke-linecap="round" stroke-linejoin="round" stroke-width="1.0"/>
    <path d="M7.5 -10.45 Q8.15 -9.2 8.15 -7.6 L7.95 -4.75 M2.8 -1.35 L2.8 0.7 1.6 0.7 -0.2 0.6 -2.3 0.3 -2.4 0.25 -2.4 -1.6 -2.1 -1.6" fill="none" stroke="#000000" stroke-linecap="round" stroke-linejoin="round" stroke-width="1.0"/>
    <path d="M4.65 -5.45 L-1.1 -5.5 Q0.6 -8.15 -2.95 -12.6 -0.05 -11.25 3.95 -10.55 L8.95 -10.25 Q9.9 -10.6 10.7 -8.5 11.45 -6.45 9.4 -3.8 7.85 -5.35 4.65 -5.45" fill="#ff9900" fill-opacity="0.5019608" fill-rule="evenodd" stroke="none"/>
    <path d="M4.65 -5.45 L-1.1 -5.5 Q0.6 -8.15 -2.95 -12.6 -0.05 -11.25 3.95 -10.55 L8.95 -10.25 Q9.9 -10.6 10.7 -8.5 11.45 -6.45 9.4 -3.8 7.85 -5.35 4.65 -5.45 Z" fill="none" stroke="#000000" stroke-linecap="round" stroke-linejoin="round" stroke-opacity="0.3019608" stroke-width="1.0"/>
    <path d="M-8.45 -6.45 Q-9.05 -7.5 -9.35 -10.4 -6.75 -9.4 -5.65 -9.55 -4.6 -9.75 -4.1 -7.6 L-3.15 -3.2 Q-2.7 -0.9 -5.3 -3.15 -7.9 -5.45 -8.45 -6.45" fill="#515151" fill-rule="evenodd" stroke="none"/>
    <path d="M-8.45 -6.45 Q-9.05 -7.5 -9.35 -10.4 -6.75 -9.4 -5.65 -9.55 -4.6 -9.75 -4.1 -7.6 L-3.15 -3.2 Q-2.7 -0.9 -5.3 -3.15 -7.9 -5.45 -8.45 -6.45 Z" fill="none" stroke="#090000" stroke-linecap="round" stroke-linejoin="round" stroke-width="1.0"/>
    <path d="M4.2 -12.6 Q0.55 -14.15 -0.3 -14.85 -1.1 -15.55 -1.5 -17.5 L3.65 -16.95 Q5.15 -17.05 5.9 -15.65 L7.2 -12.65 4.2 -12.6" fill="#999999" fill-rule="evenodd" stroke="none"/>
    <path d="M4.2 -12.6 Q0.55 -14.15 -0.3 -14.85 -1.1 -15.55 -1.5 -17.5 L3.65 -16.95 Q5.15 -17.05 5.9 -15.65 L7.2 -12.65 4.2 -12.6 Z" fill="none" stroke="#090000" stroke-linecap="round" stroke-linejoin="round" stroke-width="1.0"/>
  </g>
</svg>
