<?xml version="1.0" encoding="UTF-8" standalone="no"?>
<svg xmlns:xlink="http://www.w3.org/1999/xlink" height="24.45px" width="32.35px" xmlns="http://www.w3.org/2000/svg">
  <g transform="matrix(1.0, 0.0, 0.0, 1.0, 33.15, 10.5)">
    <path d="M-25.45 -6.65 L-26.0 1.15 -32.65 0.45 -32.65 -5.15 -25.45 -6.65" fill="#666666" fill-rule="evenodd" stroke="none"/>
    <path d="M-24.7 1.25 L-15.05 1.25 -15.05 1.75 Q-16.8 2.8 -17.85 4.6 -19.55 7.5 -19.35 12.25 -22.75 14.65 -26.05 12.25 -23.8 9.0 -24.95 4.6 -25.35 3.25 -24.7 1.25" fill="#333333" fill-rule="evenodd" stroke="none"/>
    <path d="M-25.45 -6.65 L-23.7 -8.7 -14.85 -8.7 -14.3 -8.7 -15.7 -7.3 -14.3 -8.7 -6.5 -8.15 Q-4.5 -7.8 -3.3 -7.1 L-3.4 -7.0 Q-4.7 -5.0 -4.7 -2.2 -4.7 0.3 -3.65 1.6 -7.85 2.0 -13.45 1.75 L-15.05 1.75 -15.05 1.25 -24.7 1.25 -26.0 1.15 -25.45 -6.65 M-6.5 -7.2 L-6.5 -8.15 -6.5 -7.2 M-16.65 -1.0 L-16.65 -2.8 -16.65 -5.7 -8.3 -5.7 -16.65 -5.7 -16.65 -2.8 -11.85 -2.8 -16.65 -2.8 -16.65 -1.0 M-16.65 -5.7 L-20.7 -5.7 -16.65 -5.7" fill="#999999" fill-rule="evenodd" stroke="none"/>
    <path d="M-3.65 1.6 Q-4.7 0.3 -4.7 -2.2 -4.7 -5.0 -3.4 -7.0 L-3.3 -7.1 Q-1.2 -5.95 -1.3 -2.35 -1.35 1.25 -3.65 1.6" fill="#3f008c" fill-rule="evenodd" stroke="none"/>
    <path d="M-25.45 -6.65 L-26.0 1.15 -26.0 1.25 -24.7 1.25 Q-25.35 3.25 -24.95 4.6 -23.8 9.0 -26.05 12.25 -22.75 14.65 -19.35 12.25 -19.55 7.5 -17.85 4.6 -16.8 2.8 -15.05 1.75 M-3.65 1.6 Q-4.7 0.3 -4.7 -2.2 -4.7 -5.0 -3.4 -7.0 L-3.3 -7.1 Q-1.2 -5.95 -1.3 -2.35 -1.35 1.25 -3.65 1.6 M-8.3 -5.7 L-16.65 -5.7 -16.65 -2.8 -11.85 -2.8 M-16.65 -2.8 L-16.65 -1.0 M-20.7 -5.7 L-16.65 -5.7 M-17.45 5.8 L-14.0 5.5 Q-10.05 4.8 -9.05 2.5" fill="none" stroke="#000000" stroke-linecap="round" stroke-linejoin="round" stroke-width="1.0"/>
    <path d="M-14.3 -8.7 L-14.85 -8.7 -23.7 -8.7 -25.45 -6.65 -32.65 -5.15 -32.65 0.45 -26.0 1.15 -24.7 1.25 -15.05 1.25 -15.05 1.75 -13.45 1.75 Q-7.85 2.0 -3.65 1.6 M-3.3 -7.1 Q-4.5 -7.8 -6.5 -8.15 L-6.5 -7.2 M-14.3 -8.7 L-15.7 -7.3 M-6.5 -8.15 L-5.6 -10.0 -13.1 -10.0 -14.3 -8.7 -6.5 -8.15" fill="none" stroke="#000000" stroke-linecap="round" stroke-linejoin="round" stroke-width="1.0"/>
  </g>
</svg>
