<?xml version="1.0" encoding="UTF-8" standalone="no"?>
<svg xmlns:xlink="http://www.w3.org/1999/xlink" height="26.4px" width="11.65px" xmlns="http://www.w3.org/2000/svg">
  <g transform="matrix(1.0, 0.0, 0.0, 1.0, 6.0, 2.35)">
    <path d="M3.9 16.65 L2.6 22.85 -1.05 23.55 -5.45 17.55 -2.9 16.75 3.9 16.65" fill="#333333" fill-rule="evenodd" stroke="none"/>
    <path d="M1.45 12.75 L5.15 14.0 3.9 16.65 1.45 12.75" fill="#996600" fill-rule="evenodd" stroke="none"/>
    <path d="M-2.9 16.75 L1.45 12.75 3.9 16.65 -2.9 16.75" fill="#999999" fill-rule="evenodd" stroke="none"/>
    <path d="M-5.45 17.55 Q-5.65 15.6 -5.2 12.9 -4.4 7.55 -1.35 -0.75 0.55 -3.15 1.9 -0.3 L1.45 12.75 -2.9 16.75 -5.45 17.55" fill="#666666" fill-rule="evenodd" stroke="none"/>
    <path d="M-5.45 17.55 Q-5.65 15.6 -5.2 12.9 -4.4 7.55 -1.35 -0.75 0.55 -3.15 1.9 -0.3 L1.45 12.75 5.15 14.0 3.9 16.65 2.6 22.85 -1.05 23.55 -5.45 17.55 M1.45 12.75 L3.9 16.65" fill="none" stroke="#000000" stroke-linecap="round" stroke-linejoin="round" stroke-width="1.0"/>
  </g>
</svg>
