<?xml version="1.0" encoding="UTF-8" standalone="no"?>
<svg xmlns:xlink="http://www.w3.org/1999/xlink" height="39.05px" width="31.55px" xmlns="http://www.w3.org/2000/svg">
  <g transform="matrix(1.0, 0.0, 0.0, 1.0, 9.1, 22.3)">
    <path d="M15.45 1.85 Q8.45 3.7 -1.45 3.7 L-3.1 3.7 -3.1 -8.85 -1.45 -8.9 Q8.45 -8.9 15.45 -7.05 22.45 -5.2 22.45 -2.6 22.45 0.0 15.45 1.85" fill="url(#gradient0)" fill-rule="evenodd" stroke="none"/>
    <path d="M-2.4 -22.2 L-2.0 -22.3 Q0.6 -22.3 2.45 -16.55 4.3 -10.85 4.3 -2.75 4.3 5.25 2.45 11.0 0.6 16.75 -2.0 16.75 L-2.4 16.65 -2.4 -22.2" fill="url(#gradient1)" fill-rule="evenodd" stroke="none"/>
    <path d="M-2.4 16.65 L-2.85 16.75 Q-5.45 16.75 -7.3 11.0 -9.1 5.25 -9.1 -2.75 -9.1 -10.85 -7.3 -16.55 -5.45 -22.3 -2.85 -22.3 L-2.4 -22.2 -2.4 16.65" fill="url(#gradient2)" fill-rule="evenodd" stroke="none"/>
  </g>
  <defs>
    <radialGradient cx="0" cy="0" gradientTransform="matrix(0.0, 0.0068, -0.0292, 0.0, -1.5, -2.6)" gradientUnits="userSpaceOnUse" id="gradient0" r="819.2" spreadMethod="pad">
      <stop offset="0.17647058823529413" stop-color="#ffffff"/>
      <stop offset="1.0" stop-color="#139ffd" stop-opacity="0.0"/>
    </radialGradient>
    <radialGradient cx="0" cy="0" gradientTransform="matrix(0.0, 0.0212, -0.0076, 0.0, -2.0, -2.8)" gradientUnits="userSpaceOnUse" id="gradient1" r="819.2" spreadMethod="pad">
      <stop offset="0.17647058823529413" stop-color="#ffffff"/>
      <stop offset="1.0" stop-color="#139ffd" stop-opacity="0.0"/>
    </radialGradient>
    <radialGradient cx="0" cy="0" gradientTransform="matrix(0.0, 0.0212, 0.0076, 0.0, -2.85, -2.8)" gradientUnits="userSpaceOnUse" id="gradient2" r="819.2" spreadMethod="pad">
      <stop offset="0.17647058823529413" stop-color="#ffffff"/>
      <stop offset="1.0" stop-color="#139ffd" stop-opacity="0.0"/>
    </radialGradient>
  </defs>
</svg>
