<?xml version="1.0" encoding="UTF-8" standalone="no"?>
<svg xmlns:xlink="http://www.w3.org/1999/xlink" height="37.8px" width="30.95px" xmlns="http://www.w3.org/2000/svg">
  <g transform="matrix(1.0, 0.0, 0.0, 1.0, 10.3, -0.9)">
    <path d="M1.7 20.0 L3.5 21.55 3.7 23.55 1.55 27.65 -0.1 25.7 -2.5 22.85 1.7 20.0 M8.6 29.25 L10.3 31.25 13.5 32.35 17.5 34.75 16.7 37.4 16.05 38.2 7.15 31.05 7.35 30.8 8.6 29.25 M16.2 35.5 L15.0 34.55 16.2 35.5 M15.25 35.9 L12.35 33.6 15.25 35.9 M-5.25 13.45 L-3.75 19.85 -5.65 20.05 -7.6 20.25 -9.8 13.95 -7.45 13.7 -5.25 13.45" fill="#999999" fill-rule="evenodd" stroke="none"/>
    <path d="M2.2 18.05 L0.15 16.4 2.2 18.05 M3.7 23.55 L3.5 21.55 1.7 20.0 -3.75 15.25 Q-1.8 14.45 -0.2 14.5 L4.2 18.25 Q5.2 20.35 16.45 29.2 L15.25 29.15 15.3 29.2 13.5 32.35 10.3 31.25 8.6 29.25 3.85 25.65 3.7 23.55 3.85 25.65 8.6 29.25 7.35 30.8 1.55 27.65 3.7 23.55 M9.55 25.25 L7.9 23.95 9.55 25.25 12.9 27.9 9.55 25.25 8.6 26.4 9.55 25.25 M8.0 27.15 L8.6 26.4 10.5 27.95 8.6 26.4 8.0 27.15" fill="#666666" fill-rule="evenodd" stroke="none"/>
    <path d="M-2.5 22.85 L-0.1 25.7 Q-3.3 25.7 -5.65 20.05 L-4.2 20.15 -2.5 22.85 M-7.45 13.7 L-4.6 3.1 -2.1 1.4 -5.25 13.45 -7.45 13.7" fill="#333333" fill-rule="evenodd" stroke="none"/>
    <path d="M13.5 32.35 L15.3 29.2 Q18.45 31.0 19.55 33.35 20.65 35.7 19.8 36.8 18.9 37.9 16.7 37.4 L17.5 34.75 13.5 32.35" fill="#0066cc" fill-opacity="0.49803922" fill-rule="evenodd" stroke="none"/>
    <path d="M0.15 16.4 L2.2 18.05 M1.7 20.0 L3.5 21.55 3.7 23.55 3.85 25.65 8.6 29.25 10.3 31.25 13.5 32.35 15.3 29.2 15.25 29.15 16.45 29.2 Q5.2 20.35 4.2 18.25 L-0.2 14.5 Q-1.8 14.45 -3.75 15.25 L1.7 20.0 -2.5 22.85 -0.1 25.7 1.55 27.65 7.35 30.8 8.6 29.25 M15.3 29.2 L16.45 29.2 M16.05 38.2 L7.15 31.05 7.35 30.8 M15.0 34.55 L16.2 35.5 M16.7 37.4 L17.5 34.75 13.5 32.35 M12.35 33.6 L15.25 35.9 M10.5 27.95 L8.6 26.4 8.0 27.15 M12.9 27.9 L9.55 25.25 8.6 26.4 M7.9 23.95 L9.55 25.25 M-7.45 13.7 L-4.6 3.1 -2.1 1.4 -5.25 13.45 -3.75 19.85 -5.65 20.05 -4.2 20.15 -2.5 22.85 M-5.25 13.45 L-7.45 13.7 -9.8 13.95 -7.6 20.25 -5.65 20.05 Q-3.3 25.7 -0.1 25.7" fill="none" stroke="#000000" stroke-linecap="round" stroke-linejoin="round" stroke-width="1.0"/>
    <path d="M15.3 29.2 Q18.45 31.0 19.55 33.35 20.65 35.7 19.8 36.8 18.9 37.9 16.7 37.4" fill="none" stroke="#0066cc" stroke-linecap="round" stroke-linejoin="round" stroke-opacity="0.49803922" stroke-width="1.0"/>
    <path d="M16.7 37.4 L16.05 38.2" fill="none" stroke="#ff0000" stroke-linecap="round" stroke-linejoin="round" stroke-width="1.0"/>
  </g>
</svg>
