<?xml version="1.0" encoding="UTF-8" standalone="no"?>
<svg xmlns:xlink="http://www.w3.org/1999/xlink" height="23.1px" width="19.55px" xmlns="http://www.w3.org/2000/svg">
  <g transform="matrix(1.0, 0.0, 0.0, 1.0, 3.65, -19.45)">
    <path d="M4.25 24.85 L8.4 28.9 5.1 29.65 1.85 28.05 1.65 27.95 0.9 27.55 4.25 24.85" fill="#996600" fill-rule="evenodd" stroke="none"/>
    <path d="M4.25 24.85 L0.9 27.55 -3.15 21.6 4.05 19.95 4.25 24.85" fill="#c17402" fill-rule="evenodd" stroke="none"/>
    <path d="M0.9 27.55 L1.65 27.95 1.85 28.05 2.45 28.35 Q1.25 32.1 4.15 37.15 -0.15 33.6 0.9 27.55 M5.1 29.65 L8.4 28.9 Q14.3 29.5 15.4 42.05 11.5 30.2 5.1 29.65" fill="#cccccc" fill-rule="evenodd" stroke="none"/>
    <path d="M8.4 28.9 L4.25 24.85 4.05 19.95 M0.9 27.55 L1.65 27.95 1.85 28.05 5.1 29.65 8.4 28.9 M1.85 28.05 L2.45 28.35 M0.9 27.55 L-3.15 21.6" fill="none" stroke="#000000" stroke-linecap="round" stroke-linejoin="round" stroke-width="1.0"/>
    <path d="M8.4 28.9 Q14.3 29.5 15.4 42.05 11.5 30.2 5.1 29.65" fill="none" stroke="#999999" stroke-linecap="round" stroke-linejoin="round" stroke-width="1.0"/>
    <path d="M2.45 28.35 Q1.25 32.1 4.15 37.15 -0.15 33.6 0.9 27.55" fill="none" stroke="#999999" stroke-linecap="round" stroke-linejoin="round" stroke-width="1.0"/>
  </g>
</svg>
