<?xml version="1.0" encoding="UTF-8" standalone="no"?>
<svg xmlns:xlink="http://www.w3.org/1999/xlink" height="5.6px" width="5.6px" xmlns="http://www.w3.org/2000/svg">
  <g transform="matrix(1.0, 0.0, 0.0, 1.0, 2.8, 2.8)">
    <path d="M1.65 -1.65 Q2.3 -1.0 2.3 0.0 2.3 1.0 1.65 1.65 1.0 2.3 0.0 2.3 -1.0 2.3 -1.65 1.65 -2.3 1.0 -2.3 0.0 -2.3 -1.0 -1.65 -1.65 -1.0 -2.3 0.0 -2.3 1.0 -2.3 1.65 -1.65" fill="#ffffff" fill-rule="evenodd" stroke="none"/>
    <path d="M1.65 -1.65 Q2.3 -1.0 2.3 0.0 2.3 1.0 1.65 1.65 1.0 2.3 0.0 2.3 -1.0 2.3 -1.65 1.65 -2.3 1.0 -2.3 0.0 -2.3 -1.0 -1.65 -1.65 -1.0 -2.3 0.0 -2.3 1.0 -2.3 1.65 -1.65 Z" fill="none" stroke="#000000" stroke-linecap="round" stroke-linejoin="round" stroke-width="1.0"/>
  </g>
</svg>
