<?xml version="1.0" encoding="UTF-8" standalone="no"?>
<svg xmlns:xlink="http://www.w3.org/1999/xlink" height="17.85px" width="15.2px" xmlns="http://www.w3.org/2000/svg">
  <g transform="matrix(1.0, 0.0, 0.0, 1.0, 5.3, 25.9)">
    <path d="M9.4 -17.35 L7.8 -8.55 5.5 -9.55 5.5 -10.7 2.8 -10.7 2.65 -11.65 -4.8 -11.65 -4.8 -13.45 2.3 -13.45 2.4 -12.95 2.1 -14.6 6.1 -14.6 6.5 -17.35 9.4 -17.35 M1.5 -19.05 L-4.55 -19.05 -4.55 -20.85 1.75 -20.85 1.75 -20.8 1.5 -19.05 M5.5 -10.7 L6.7 -10.7 6.7 -14.6 6.1 -14.6 6.7 -14.6 6.7 -10.7 5.5 -10.7 M2.4 -12.95 L2.5 -12.55 2.65 -11.65 2.5 -12.55 2.4 -12.95 M1.75 -20.8 L1.75 -20.85 1.75 -20.8" fill="#333333" fill-rule="evenodd" stroke="none"/>
    <path d="M1.75 -20.85 L2.35 -25.4 9.4 -25.4 9.4 -17.35 6.5 -17.35 1.25 -17.35 1.5 -19.05 1.75 -20.8 1.75 -20.85" fill="#666666" fill-rule="evenodd" stroke="none"/>
    <path d="M1.75 -20.85 L2.35 -25.4 9.4 -25.4 9.4 -17.35 6.5 -17.35 1.25 -17.35 1.5 -19.05 -4.55 -19.05 -4.55 -20.85 1.75 -20.85 1.75 -20.8 1.5 -19.05 M5.5 -10.7 L2.8 -10.7 2.65 -11.65 -4.8 -11.65 -4.8 -13.45 2.3 -13.45 2.4 -12.95 2.1 -14.6 6.1 -14.6 6.7 -14.6 6.7 -10.7 5.5 -10.7 M1.75 -20.85 L1.75 -20.8 M2.65 -11.65 L2.5 -12.55 2.4 -12.95" fill="none" stroke="#000000" stroke-linecap="round" stroke-linejoin="round" stroke-width="1.0"/>
    <path d="M9.4 -17.35 L7.8 -8.55 5.5 -9.55 5.5 -10.7 M6.1 -14.6 L6.5 -17.35" fill="none" stroke="#000000" stroke-linecap="round" stroke-linejoin="round" stroke-width="1.0"/>
  </g>
</svg>
