<?xml version="1.0" encoding="UTF-8" standalone="no"?>
<svg xmlns:xlink="http://www.w3.org/1999/xlink" height="27.55px" width="74.5px" xmlns="http://www.w3.org/2000/svg">
  <g transform="matrix(1.0, 0.0, 0.0, 1.0, 26.2, 12.8)">
    <path d="M40.0 0.2 L40.0 3.0 37.45 3.0 18.45 3.0 13.9 3.0 12.15 6.55 Q9.65 2.8 4.0 2.55 L2.4 2.55 2.4 2.05 -8.6 2.05 -8.6 2.55 -10.7 2.55 -12.15 1.25 -18.25 1.25 -20.25 -3.3 -20.25 -4.85 -7.1 -4.85 -7.1 -3.3 -3.3 -3.3 -3.3 -7.9 2.6 -7.9 21.75 -8.0 Q25.75 -2.2 18.45 0.2 L35.3 0.2 39.95 -0.05 40.0 0.2 M14.15 -4.9 L5.8 -4.9 5.8 -2.0 10.6 -2.0 5.8 -2.0 5.8 -0.2 5.8 -2.0 5.8 -4.9 1.75 -4.9 5.8 -4.9 14.15 -4.9 M18.45 3.0 L18.45 0.2 18.45 3.0" fill="#666666" fill-rule="evenodd" stroke="none"/>
    <path d="M2.6 -7.9 Q3.15 -10.4 5.05 -11.45 6.9 -12.5 8.85 -12.25 31.95 -12.5 47.2 -7.15 45.65 -6.55 43.0 -4.2 41.05 -2.55 35.3 0.2 L18.45 0.2 Q25.75 -2.2 21.75 -8.0 L2.6 -7.9 M37.45 3.0 Q39.55 5.75 37.45 9.35 L13.9 9.35 12.15 6.55 13.9 3.0 18.45 3.0 37.45 3.0 M-20.25 -3.3 L-25.55 -3.3 Q-26.4 -8.55 -22.5 -11.2 -19.05 -8.45 -3.3 -9.15 L-3.3 -7.9 -3.3 -3.3 -7.1 -3.3 -7.1 -4.85 -20.25 -4.85 -20.25 -3.3 M38.3 -6.1 L28.6 -6.9 38.3 -6.1 M36.6 -3.5 L33.4 -3.8 36.6 -3.5" fill="#cccccc" fill-rule="evenodd" stroke="none"/>
    <path d="M47.2 -7.15 L43.65 -4.35 47.8 -4.35 47.8 -1.7 41.4 -1.7 39.95 -0.7 39.95 -0.05 40.0 -0.05 40.0 0.2 39.95 -0.05 35.3 0.2 Q41.05 -2.55 43.0 -4.2 45.65 -6.55 47.2 -7.15 M2.4 2.55 Q0.65 3.6 -0.4 5.4 -2.1 8.3 -1.9 13.05 -5.3 15.45 -8.6 13.05 -6.35 9.8 -7.5 5.4 -7.9 4.05 -8.6 2.55 L-8.6 2.05 2.4 2.05 2.4 2.55" fill="#333333" fill-rule="evenodd" stroke="none"/>
    <path d="M2.6 -7.9 Q3.15 -10.4 5.05 -11.45 6.9 -12.5 8.85 -12.25 31.95 -12.5 47.2 -7.15 L43.65 -4.35 47.8 -4.35 47.8 -1.7 41.4 -1.7 39.95 -0.7 39.95 -0.05 40.0 0.2 40.0 -0.05 M40.0 3.0 L37.45 3.0 Q39.55 5.75 37.45 9.35 L13.9 9.35 12.15 6.55 Q9.65 2.8 4.0 2.55 L2.4 2.55 Q0.65 3.6 -0.4 5.4 -2.1 8.3 -1.9 13.05 -5.3 15.45 -8.6 13.05 -6.35 9.8 -7.5 5.4 -7.9 4.05 -8.6 2.55 L-10.7 2.55 -12.15 1.25 -18.25 1.25 -20.25 -3.3 -25.55 -3.3 Q-26.4 -8.55 -22.5 -11.2 -19.05 -8.45 -3.3 -9.15 L-3.3 -7.9 2.6 -7.9 M35.3 0.2 Q41.05 -2.55 43.0 -4.2 45.65 -6.55 47.2 -7.15 M10.6 -2.0 L5.8 -2.0 5.8 -0.2 M5.8 -2.0 L5.8 -4.9 1.75 -4.9 M5.8 -4.9 L14.15 -4.9 M0.0 6.6 Q7.0 6.5 8.2 3.9" fill="none" stroke="#000000" stroke-linecap="round" stroke-linejoin="round" stroke-width="1.0"/>
    <path d="M39.95 -0.05 L40.0 -0.05 M2.6 -7.9 L21.75 -8.0 Q25.75 -2.2 18.45 0.2 L35.3 0.2 39.95 -0.05 M18.45 0.2 L18.45 3.0 37.45 3.0 M18.45 3.0 L13.9 3.0 12.15 6.55 M-20.25 -3.3 L-20.25 -4.85 -7.1 -4.85 -7.1 -3.3 -3.3 -3.3 -3.3 -7.9" fill="none" stroke="#333333" stroke-linecap="round" stroke-linejoin="round" stroke-width="1.0"/>
    <path d="M33.4 -3.8 L36.6 -3.5 M28.6 -6.9 L38.3 -6.1" fill="none" stroke="#333333" stroke-linecap="round" stroke-linejoin="round" stroke-width="1.0"/>
    <path d="M40.0 0.2 L40.0 3.0" fill="none" stroke="#ff0000" stroke-linecap="round" stroke-linejoin="round" stroke-width="1.0"/>
  </g>
</svg>
