<?xml version="1.0" encoding="UTF-8" standalone="no"?>
<svg xmlns:xlink="http://www.w3.org/1999/xlink" height="16.5px" width="18.6px" xmlns="http://www.w3.org/2000/svg">
  <g transform="matrix(1.0, 0.0, 0.0, 1.0, 5.2, 15.35)">
    <path d="M-0.2 -13.0 L-0.2 -13.05 -0.1 -13.05 -0.2 -13.0" fill="#cccccc" fill-rule="evenodd" stroke="none"/>
    <path d="M-0.1 -13.05 L1.8 -14.85 6.65 -13.05 -0.1 -13.05" fill="#996600" fill-rule="evenodd" stroke="none"/>
    <path d="M2.7 -1.05 L2.2 0.65 -2.3 0.15 -2.3 -4.65 -3.45 -5.25 Q-5.9 -12.1 -3.45 -12.55 L-0.2 -13.0 1.85 -8.5 Q-0.05 -6.05 0.45 -3.6 L0.65 -1.35 2.7 -1.05 M0.45 -3.6 L-2.3 -4.65 0.45 -3.6" fill="#d27e02" fill-rule="evenodd" stroke="none"/>
    <path d="M6.65 -13.05 L8.3 -13.05 10.8 -8.5 10.7 -8.5 1.85 -8.5 -0.2 -13.0 -0.1 -13.05 6.65 -13.05 M5.8 -10.15 L4.45 -10.15 5.8 -10.15" fill="#e38902" fill-rule="evenodd" stroke="none"/>
    <path d="M10.8 -8.5 L12.45 -4.8 Q14.0 -1.55 10.05 -0.1 L2.7 -1.05 0.65 -1.35 0.45 -3.6 Q-0.05 -6.05 1.85 -8.5 L10.7 -8.5 10.8 -8.5 M6.65 -2.85 L8.55 -5.85 6.65 -2.85 M8.25 -1.9 L10.15 -4.9 8.25 -1.9" fill="#999999" fill-rule="evenodd" stroke="none"/>
    <path d="M-0.1 -13.05 L1.8 -14.85 6.65 -13.05 8.3 -13.05 10.8 -8.5 12.45 -4.8 Q14.0 -1.55 10.05 -0.1 L2.7 -1.05 2.2 0.65 -2.3 0.15 -2.3 -4.65 -3.45 -5.25 Q-5.9 -12.1 -3.45 -12.55 L-0.2 -13.0 -0.2 -13.05 -0.1 -13.05 6.65 -13.05 M0.45 -3.6 L0.65 -1.35 2.7 -1.05 M10.8 -8.5 L10.7 -8.5 M-0.2 -13.0 L-0.1 -13.05 M-2.3 -4.65 L0.45 -3.6" fill="none" stroke="#000000" stroke-linecap="round" stroke-linejoin="round" stroke-width="1.0"/>
    <path d="M8.55 -5.85 L6.65 -2.85 M10.15 -4.9 L8.25 -1.9" fill="none" stroke="#333333" stroke-linecap="round" stroke-linejoin="round" stroke-width="1.0"/>
    <path d="M1.85 -8.5 Q-0.05 -6.05 0.45 -3.6 M10.7 -8.5 L1.85 -8.5" fill="none" stroke="#000000" stroke-linecap="round" stroke-linejoin="round" stroke-width="1.0"/>
    <path d="M4.45 -10.15 L5.8 -10.15" fill="none" stroke="#910000" stroke-linecap="round" stroke-linejoin="round" stroke-width="2.0"/>
  </g>
</svg>
