<?xml version="1.0" encoding="UTF-8" standalone="no"?>
<svg xmlns:xlink="http://www.w3.org/1999/xlink" height="19.15px" width="59.75px" xmlns="http://www.w3.org/2000/svg">
  <g transform="matrix(1.0, 0.0, 0.0, 1.0, 34.15, -13.75)">
    <path d="M16.8 15.4 Q11.4 14.8 8.25 20.85 L10.0 21.0 Q13.6 15.25 19.0 15.85 21.7 16.55 25.1 18.35 19.45 19.3 18.1 25.45 L-4.9 24.0 Q-5.9 20.05 -3.05 16.9 -1.8 15.5 0.25 14.3 L8.0 14.3 Q3.0 14.6 1.7 20.4 L4.0 20.4 Q5.2 15.05 10.25 14.5 L16.8 15.4" fill="#6a6a6a" fill-rule="evenodd" stroke="none"/>
    <path d="M-17.0 16.0 L-17.0 18.0 -11.0 18.0 -11.0 20.0 -29.0 20.0 -27.0 18.0 -20.4 18.0 -18.4 16.0 -17.0 16.0 M-28.9 26.4 L-28.0 29.0 -23.65 30.0 -23.65 32.4 -30.65 32.4 -33.65 26.4 -28.9 26.4" fill="#333333" fill-rule="evenodd" stroke="none"/>
    <path d="M19.0 15.85 Q13.6 15.25 10.0 21.0 L8.25 20.85 Q11.4 14.8 16.8 15.4 L17.0 15.4 19.0 15.85 M10.25 14.5 Q5.2 15.05 4.0 20.4 L1.7 20.4 Q3.0 14.6 8.0 14.3 L10.25 14.5" fill="#484848" fill-rule="evenodd" stroke="none"/>
    <path d="M19.0 15.85 Q13.6 15.25 10.0 21.0 L8.25 20.85 Q11.4 14.8 16.8 15.4 L10.25 14.5 Q5.2 15.05 4.0 20.4 L1.7 20.4 Q3.0 14.6 8.0 14.3 L0.25 14.3 Q-1.8 15.5 -3.05 16.9 -5.9 20.05 -4.9 24.0 L18.1 25.45 Q19.45 19.3 25.1 18.35 21.7 16.55 19.0 15.85 L17.0 15.4 16.8 15.4 M8.0 14.3 L10.25 14.5 M-20.4 18.0 L-18.4 16.0 -17.0 16.0" fill="none" stroke="#000000" stroke-linecap="round" stroke-linejoin="round" stroke-width="1.0"/>
    <path d="M-17.0 16.0 L-17.0 18.0 -11.0 18.0 -11.0 20.0 -29.0 20.0 -27.0 18.0 -20.4 18.0 M-28.9 26.4 L-33.65 26.4 -30.65 32.4 -23.65 32.4 -23.65 30.0 -28.0 29.0 -28.9 26.4" fill="none" stroke="#000000" stroke-linecap="round" stroke-linejoin="round" stroke-width="1.0"/>
  </g>
</svg>
