<?xml version="1.0" encoding="UTF-8" standalone="no"?>
<svg xmlns:xlink="http://www.w3.org/1999/xlink" height="25.95px" width="42.2px" xmlns="http://www.w3.org/2000/svg">
  <g transform="matrix(1.0, 0.0, 0.0, 1.0, 21.55, -13.8)">
    <path d="M17.45 15.85 Q12.05 15.25 8.45 21.0 L6.7 20.85 Q9.85 14.8 15.25 15.4 L15.45 15.4 17.45 15.85 M8.7 14.5 Q3.65 15.05 2.45 20.4 L0.15 20.4 Q1.45 14.6 6.45 14.3 L8.7 14.5 M17.1 34.1 Q17.95 38.85 20.15 38.45 18.7 39.65 17.1 39.0 15.5 38.4 14.1 34.1 15.6 33.65 17.1 34.1 M3.55 33.95 Q4.4 38.7 6.6 38.3 5.15 39.5 3.55 38.85 1.95 38.25 0.55 33.95 2.05 33.5 3.55 33.95 M10.55 38.85 Q8.95 38.25 7.55 33.95 9.05 33.5 10.55 33.95 11.4 38.7 13.6 38.3 12.15 39.5 10.55 38.85" fill="#007bcc" fill-rule="evenodd" stroke="none"/>
    <path d="M-15.6 23.0 L-19.6 23.0 -15.6 23.0 M-14.8 21.0 L-18.8 21.0 -14.8 21.0 M-11.55 19.55 L-12.95 21.0 Q-14.1 22.8 -13.55 25.55 L-20.55 25.55 Q-21.9 22.1 -19.55 19.55 L-11.55 19.55" fill="#373737" fill-rule="evenodd" stroke="none"/>
    <path d="M15.45 15.4 L15.25 15.4 Q9.85 14.8 6.7 20.85 L8.45 21.0 Q12.05 15.25 17.45 15.85 M8.7 14.5 Q3.65 15.05 2.45 20.4 L0.15 20.4 Q1.45 14.6 6.45 14.3 M17.1 34.1 Q17.95 38.85 20.15 38.45 18.7 39.65 17.1 39.0 15.5 38.4 14.1 34.1 15.6 33.65 17.1 34.1 M10.55 38.85 Q8.95 38.25 7.55 33.95 9.05 33.5 10.55 33.95 11.4 38.7 13.6 38.3 12.15 39.5 10.55 38.85 M-11.55 19.55 L-12.95 21.0 Q-14.1 22.8 -13.55 25.55 L-20.55 25.55 Q-21.9 22.1 -19.55 19.55 L-11.55 19.55" fill="none" stroke="#000000" stroke-linecap="round" stroke-linejoin="round" stroke-width="1.0"/>
    <path d="M17.45 15.85 L15.45 15.4 M6.45 14.3 L8.7 14.5 M3.55 33.95 Q4.4 38.7 6.6 38.3 5.15 39.5 3.55 38.85 1.95 38.25 0.55 33.95 2.05 33.5 3.55 33.95" fill="none" stroke="#000000" stroke-linecap="round" stroke-linejoin="round" stroke-width="1.0"/>
    <path d="M-18.8 21.0 L-14.8 21.0 M-19.6 23.0 L-15.6 23.0" fill="none" stroke="#007bcc" stroke-linecap="round" stroke-linejoin="round" stroke-width="1.0"/>
  </g>
</svg>
