<?xml version="1.0" encoding="UTF-8" standalone="no"?>
<svg xmlns:xlink="http://www.w3.org/1999/xlink" height="26.15px" width="46.75px" xmlns="http://www.w3.org/2000/svg">
  <g transform="matrix(1.0, 0.0, 0.0, 1.0, -40.25, 16.0)">
    <path d="M76.1 1.7 Q65.15 3.55 49.7 3.55 L47.1 3.55 47.1 -9.0 49.7 -9.05 Q65.15 -9.05 76.1 -7.2 87.0 -5.35 87.0 -2.75 87.0 -0.15 76.1 1.7" fill="url(#gradient0)" fill-rule="evenodd" stroke="none"/>
    <path d="M49.0 -15.95 L49.55 -15.95 Q52.95 -16.0 55.4 -12.15 57.75 -8.3 57.75 -2.9 57.75 2.45 55.4 6.3 52.95 10.15 49.55 10.15 L49.0 10.05 49.0 -15.95" fill="url(#gradient1)" fill-rule="evenodd" stroke="none"/>
    <path d="M49.0 10.05 L48.45 10.15 Q45.0 10.15 42.6 6.3 40.2 2.45 40.25 -2.9 40.2 -8.3 42.6 -12.15 45.0 -16.0 48.45 -15.95 L49.0 -15.95 49.0 10.05" fill="url(#gradient2)" fill-rule="evenodd" stroke="none"/>
  </g>
  <defs>
    <radialGradient cx="0" cy="0" gradientTransform="matrix(0.0, 0.0068, -0.0456, 0.0, 49.6, -2.75)" gradientUnits="userSpaceOnUse" id="gradient0" r="819.2" spreadMethod="pad">
      <stop offset="0.17647058823529413" stop-color="#ffffff"/>
      <stop offset="1.0" stop-color="#139ffd" stop-opacity="0.0"/>
    </radialGradient>
    <radialGradient cx="0" cy="0" gradientTransform="matrix(0.0, 0.0142, -0.01, 0.0, 49.55, -2.95)" gradientUnits="userSpaceOnUse" id="gradient1" r="819.2" spreadMethod="pad">
      <stop offset="0.17647058823529413" stop-color="#ffffff"/>
      <stop offset="1.0" stop-color="#139ffd" stop-opacity="0.0"/>
    </radialGradient>
    <radialGradient cx="0" cy="0" gradientTransform="matrix(0.0, 0.0142, 0.01, 0.0, 48.45, -2.95)" gradientUnits="userSpaceOnUse" id="gradient2" r="819.2" spreadMethod="pad">
      <stop offset="0.17647058823529413" stop-color="#ffffff"/>
      <stop offset="1.0" stop-color="#139ffd" stop-opacity="0.0"/>
    </radialGradient>
  </defs>
</svg>
