<?xml version="1.0" encoding="UTF-8" standalone="no"?>
<svg xmlns:xlink="http://www.w3.org/1999/xlink" height="27.0px" width="29.0px" xmlns="http://www.w3.org/2000/svg">
  <g transform="matrix(1.0, 0.0, 0.0, 1.0, 30.5, -10.1)">
    <path d="M-30.0 21.0 L-26.4 21.0 -25.5 23.6 -20.0 25.0 -21.15 27.0 -28.15 27.0 -30.0 21.0" fill="#333333" fill-rule="evenodd" stroke="none"/>
    <path d="M-10.0 11.55 L-2.0 11.0 -2.0 15.0 Q-18.8 12.2 -27.0 19.0 L-28.0 18.0 Q-23.1 14.35 -15.85 12.6 L-16.0 12.6 -16.0 10.6 -10.0 10.6 -10.0 11.55" fill="#484848" fill-rule="evenodd" stroke="none"/>
    <path d="M-13.0 36.6 L-16.0 36.6 Q-14.5 31.6 -16.0 26.6 L-12.0 26.6 Q-10.5 31.6 -13.0 36.6" fill="#1a1a1a" fill-rule="evenodd" stroke="none"/>
    <path d="M-30.0 21.0 L-28.15 27.0 -21.15 27.0 -20.0 25.0 -25.5 23.6 -26.4 21.0 -30.0 21.0" fill="none" stroke="#000000" stroke-linecap="round" stroke-linejoin="round" stroke-width="1.0"/>
    <path d="M-10.0 11.55 L-2.0 11.0 -2.0 15.0 Q-18.8 12.2 -27.0 19.0 L-28.0 18.0 Q-23.1 14.35 -15.85 12.6 L-16.0 12.6 -16.0 10.6 -10.0 10.6 -10.0 11.55 M-13.0 36.6 L-16.0 36.6 Q-14.5 31.6 -16.0 26.6 L-12.0 26.6 Q-10.5 31.6 -13.0 36.6" fill="none" stroke="#000000" stroke-linecap="round" stroke-linejoin="round" stroke-width="1.0"/>
  </g>
</svg>
