<?xml version="1.0" encoding="UTF-8" standalone="no"?>
<svg xmlns:xlink="http://www.w3.org/1999/xlink" height="17.75px" width="45.45px" xmlns="http://www.w3.org/2000/svg">
  <g transform="matrix(1.0, 0.0, 0.0, 1.0, 28.9, -12.45)">
    <path d="M13.15 15.65 L-2.65 15.65 -1.35 12.95 10.95 12.95 13.15 15.65 M13.2 26.6 L11.35 29.7 1.65 29.7 1.65 26.8 4.9 27.35 Q5.9 26.85 6.65 26.5 L13.2 26.6" fill="#333333" fill-rule="evenodd" stroke="none"/>
    <path d="M12.75 19.55 L16.05 19.55 16.05 22.45 12.75 22.45 12.75 19.55 M-12.8 21.8 L-7.8 18.8 -7.8 21.8 -9.8 22.8 -12.8 21.8 M-19.0 22.6 L-27.0 22.6 -28.4 20.6 -19.0 20.6 -19.0 22.6" fill="#cc0000" fill-rule="evenodd" stroke="none"/>
    <path d="M12.75 22.45 L8.0 22.45 9.0 19.55 12.75 19.55 12.75 22.45" fill="#cccccc" fill-rule="evenodd" stroke="none"/>
    <path d="M12.75 19.55 L16.05 19.55 16.05 22.45 12.75 22.45 8.0 22.45 9.0 19.55 12.75 19.55 12.75 22.45 M13.15 15.65 L-2.65 15.65 -1.35 12.95 10.95 12.95 13.15 15.65" fill="none" stroke="#000000" stroke-linecap="round" stroke-linejoin="round" stroke-width="1.0"/>
    <path d="M13.2 26.6 L6.65 26.5 Q5.9 26.85 4.9 27.35 L1.65 26.8 1.65 29.7 11.35 29.7 13.2 26.6" fill="none" stroke="#000000" stroke-linecap="round" stroke-linejoin="round" stroke-width="1.0"/>
    <path d="M-12.8 21.8 L-7.8 18.8 -7.8 21.8 -9.8 22.8 -12.8 21.8 M-19.0 22.6 L-27.0 22.6 -28.4 20.6 -19.0 20.6 -19.0 22.6" fill="none" stroke="#880000" stroke-linecap="round" stroke-linejoin="round" stroke-width="1.0"/>
  </g>
</svg>
