<?xml version="1.0" encoding="UTF-8" standalone="no"?>
<svg xmlns:xlink="http://www.w3.org/1999/xlink" height="17.8px" width="47.85px" xmlns="http://www.w3.org/2000/svg">
  <g transform="matrix(1.0, 0.0, 0.0, 1.0, -13.65, 11.55)">
    <path d="M20.65 -4.5 Q27.65 -6.35 37.6 -6.35 47.5 -6.35 54.5 -4.5 61.5 -2.65 61.5 -0.05 61.5 2.55 54.5 4.4 47.5 6.25 37.6 6.25 27.65 6.25 20.65 4.4 13.65 2.55 13.65 -0.05 13.65 -2.65 20.65 -4.5" fill="url(#gradient0)" fill-rule="evenodd" stroke="none"/>
    <path d="M13.65 -5.25 Q13.65 -7.85 20.65 -9.7 27.65 -11.55 37.6 -11.55 47.5 -11.55 54.5 -9.7 61.5 -7.85 61.5 -5.25 61.5 -2.65 54.5 -0.8 47.5 1.05 37.6 1.05 27.65 1.05 20.65 -0.8 13.65 -2.65 13.65 -5.25" fill="url(#gradient1)" fill-rule="evenodd" stroke="none"/>
  </g>
  <defs>
    <radialGradient cx="0" cy="0" gradientTransform="matrix(0.0, 0.0068, -0.0292, 0.0, 37.55, -0.05)" gradientUnits="userSpaceOnUse" id="gradient0" r="819.2" spreadMethod="pad">
      <stop offset="0.17647058823529413" stop-color="#ffffff" stop-opacity="0.5019608"/>
      <stop offset="0.5372549019607843" stop-color="#ff3333" stop-opacity="0.5019608"/>
      <stop offset="1.0" stop-color="#5e0000" stop-opacity="0.0"/>
    </radialGradient>
    <radialGradient cx="0" cy="0" gradientTransform="matrix(0.0, 0.0068, -0.0292, 0.0, 37.55, -5.25)" gradientUnits="userSpaceOnUse" id="gradient1" r="819.2" spreadMethod="pad">
      <stop offset="0.17647058823529413" stop-color="#ffffff" stop-opacity="0.5019608"/>
      <stop offset="0.5372549019607843" stop-color="#ff3333" stop-opacity="0.5019608"/>
      <stop offset="1.0" stop-color="#5e0000" stop-opacity="0.0"/>
    </radialGradient>
  </defs>
</svg>
