<?xml version="1.0" encoding="UTF-8" standalone="no"?>
<svg xmlns:xlink="http://www.w3.org/1999/xlink" height="20.5px" width="7.0px" xmlns="http://www.w3.org/2000/svg">
  <g transform="matrix(1.0, 0.0, 0.0, 1.0, 3.5, 10.25)">
    <path d="M1.85 6.25 L-1.65 6.25 -1.65 -2.85 1.85 -2.85 1.85 6.25" fill="#999999" fill-rule="evenodd" stroke="none"/>
    <path d="M-1.65 -2.85 Q-1.45 -6.4 -0.8 -8.2 -0.4 -9.35 0.2 -9.75 L1.2 -8.2 Q1.75 -6.4 1.85 -2.85 L-1.65 -2.85" fill="#6e6e6e" fill-rule="evenodd" stroke="none"/>
    <path d="M1.85 6.25 L2.3 6.25 3.0 9.75 -3.0 9.75 -2.25 6.25 -1.65 6.25 1.85 6.25" fill="#333333" fill-rule="evenodd" stroke="none"/>
    <path d="M-1.65 6.25 L-1.65 -2.85 M1.85 -2.85 L1.85 6.25" fill="none" stroke="#6c6c6c" stroke-linecap="round" stroke-linejoin="round" stroke-width="1.0"/>
    <path d="M-1.65 -2.85 Q-1.45 -6.4 -0.8 -8.2 -0.4 -9.35 0.2 -9.75 L1.2 -8.2 Q1.75 -6.4 1.85 -2.85" fill="none" stroke="#414141" stroke-linecap="round" stroke-linejoin="round" stroke-width="1.0"/>
    <path d="M-1.65 6.25 L-2.25 6.25 -3.0 9.75 3.0 9.75 2.3 6.25 1.85 6.25" fill="none" stroke="#242424" stroke-linecap="round" stroke-linejoin="round" stroke-width="1.0"/>
  </g>
</svg>
