<?xml version="1.0" encoding="UTF-8" standalone="no"?>
<svg xmlns:xlink="http://www.w3.org/1999/xlink" height="25.4px" width="64.9px" xmlns="http://www.w3.org/2000/svg">
  <g transform="matrix(1.0, 0.0, 0.0, 1.0, 32.8, 10.05)">
    <path d="M20.05 8.7 L18.15 12.35 10.4 5.85 8.6 3.15 5.45 2.95 2.25 2.8 2.25 2.35 -8.75 2.35 -8.75 2.8 -9.7 2.95 -12.25 2.95 -14.0 1.35 -18.3 1.35 -23.7 -4.15 -23.7 -4.2 -23.7 -4.15 -23.7 -4.1 -23.7 -4.2 -20.3 -9.55 -7.9 -5.95 -7.9 -4.1 10.05 -4.1 15.45 -8.65 22.65 -8.65 22.15 -7.25 25.45 -7.25 23.15 -0.65 19.5 0.0 Q19.05 2.05 20.05 8.7 M20.65 -2.2 L10.6 -2.2 5.7 -2.2 10.6 -2.2 20.65 -2.2 M10.6 -2.2 L10.6 1.3 16.35 1.3 10.6 1.3 10.6 3.45 10.6 1.3 10.6 -2.2" fill="#666666" fill-rule="evenodd" stroke="none"/>
    <path d="M25.45 -7.25 L31.6 -4.95 25.0 5.65 20.05 8.7 Q19.05 2.05 19.5 0.0 L23.15 -0.65 25.45 -7.25 M18.15 12.35 L14.25 14.85 8.3 12.85 10.4 5.85 18.15 12.35 M-20.3 -9.55 L-23.7 -4.2 -23.8 -4.15 -23.7 -4.1 -23.7 -4.15 -18.3 1.35 -28.65 -0.1 -32.3 -6.65 -20.3 -9.55 M-8.75 2.8 L-8.75 2.35 2.25 2.35 2.25 2.8 Q0.5 3.85 -0.55 5.65 -2.25 8.55 -2.05 13.3 -5.45 15.7 -8.75 13.3 -6.5 10.05 -7.65 5.65 -8.05 4.3 -8.75 2.8" fill="#333333" fill-rule="evenodd" stroke="none"/>
    <path d="M25.45 -7.25 L31.6 -4.95 25.0 5.65 20.05 8.7 18.15 12.35 14.25 14.85 M8.3 12.85 L10.4 5.85 8.6 3.15 Q6.85 6.75 -0.15 6.85 M20.05 8.7 Q19.05 2.05 19.5 0.0 L23.15 -0.65 25.45 -7.25 22.15 -7.25 22.65 -8.65 15.45 -8.65 10.05 -4.1 -7.9 -4.1 -7.9 -5.95 -20.3 -9.55 -23.7 -4.2 -23.7 -4.15 -18.3 1.35 -14.0 1.35 -12.25 2.95 -9.7 2.95 -8.75 2.8 Q-8.05 4.3 -7.65 5.65 -6.5 10.05 -8.75 13.3 -5.45 15.7 -2.05 13.3 -2.25 8.55 -0.55 5.65 0.5 3.85 2.25 2.8 L5.45 2.95 8.6 3.15 M5.7 -2.2 L10.6 -2.2 20.65 -2.2 M16.35 1.3 L10.6 1.3 10.6 3.45 M10.6 1.3 L10.6 -2.2 M-23.7 -4.2 L-23.7 -4.1 M-20.3 -9.55 L-32.3 -6.65 -28.65 -0.1 -18.3 1.35" fill="none" stroke="#000000" stroke-linecap="round" stroke-linejoin="round" stroke-width="1.0"/>
    <path d="M14.25 14.85 L8.3 12.85" fill="none" stroke="#000000" stroke-linecap="round" stroke-linejoin="round" stroke-width="1.0"/>
  </g>
</svg>
