<?xml version="1.0" encoding="UTF-8" standalone="no"?>
<svg xmlns:xlink="http://www.w3.org/1999/xlink" height="25.55px" width="56.0px" xmlns="http://www.w3.org/2000/svg">
  <g transform="matrix(1.0, 0.0, 0.0, 1.0, 9.9, 12.8)">
    <path d="M14.0 -7.5 L31.25 -7.9 29.4 -6.45 29.5 -6.45 30.65 0.5 24.4 2.75 19.3 2.05 16.1 2.05 14.85 2.05 9.35 -3.75 -9.4 -4.5 -9.1 -5.0 Q-7.2 -8.25 -4.9 -9.9 L-4.0 -9.9 -4.1 -9.75 -4.1 -7.5 5.6 -7.5 5.6 -7.4 10.35 -7.45 14.0 -7.5 M12.4 -5.45 L16.45 -5.45 16.45 -2.55 16.45 -0.75 16.45 -2.55 16.45 -5.45 12.4 -5.45 M21.25 -2.55 L16.45 -2.55 21.25 -2.55 M24.8 -5.45 L16.45 -5.45 24.8 -5.45" fill="#666666" fill-rule="evenodd" stroke="none"/>
    <path d="M-4.0 -9.9 L-2.7 -12.3 14.0 -12.3 14.0 -7.5 10.35 -7.45 5.6 -7.5 -4.1 -7.5 -4.1 -9.75 -4.0 -9.9 M41.6 4.3 L41.6 6.3 27.2 6.3 20.3 6.3 Q21.65 4.9 19.3 2.05 L24.4 2.75 30.65 0.5 39.65 -0.7 41.6 4.3 M38.6 2.0 L35.6 2.0 38.6 2.0 M37.6 3.8 L30.4 3.8 37.6 3.8" fill="#999999" fill-rule="evenodd" stroke="none"/>
    <path d="M29.5 -6.45 Q36.6 -7.6 41.05 -5.35 45.55 -3.2 45.6 -0.4 45.7 2.35 41.6 4.3 L39.65 -0.7 30.65 0.5 29.5 -6.45" fill="#0066cc" fill-opacity="0.49803922" fill-rule="evenodd" stroke="none"/>
    <path d="M27.2 6.3 Q25.8 10.95 14.55 9.8 L6.3 11.0 10.55 6.5 Q17.55 7.55 20.3 6.3 L27.2 6.3 M16.3 8.8 L21.5 8.8 16.3 8.8" fill="#4d4d4d" fill-rule="evenodd" stroke="none"/>
    <path d="M6.3 11.0 L5.1 12.25 -3.9 12.25 -3.65 0.25 -9.4 -4.5 9.35 -3.75 14.85 2.05 10.55 6.5 6.3 11.0 M7.9 2.8 L-0.1 1.3 7.9 2.8 M5.6 6.8 L-1.4 5.5 5.6 6.8" fill="#333333" fill-rule="evenodd" stroke="none"/>
    <path d="M-4.0 -9.9 L-2.7 -12.3 14.0 -12.3 14.0 -7.5 31.25 -7.9 29.5 -6.45 29.4 -6.45 31.25 -7.9 M41.6 6.3 L27.2 6.3 Q25.8 10.95 14.55 9.8 L6.3 11.0 5.1 12.25 -3.9 12.25 -3.65 0.25 -9.4 -4.5 -9.1 -5.0 Q-7.2 -8.25 -4.9 -9.9 L-4.0 -9.9 -4.1 -9.75 -4.1 -7.5 5.6 -7.5 10.35 -7.45 14.0 -7.5 M16.45 -0.75 L16.45 -2.55 16.45 -5.45 12.4 -5.45 M16.45 -5.45 L24.8 -5.45 M16.45 -2.55 L21.25 -2.55 M19.3 2.05 L24.4 2.75 30.65 0.5 29.5 -6.45 M30.4 3.8 L37.6 3.8 M35.6 2.0 L38.6 2.0 M20.3 6.3 L27.2 6.3 M10.55 6.5 L6.3 11.0 M14.85 2.05 L10.55 6.5 Q17.55 7.55 20.3 6.3 21.65 4.9 19.3 2.05 L16.1 2.05 Q14.25 3.75 14.8 5.1 M14.85 2.05 L16.1 2.05 M21.5 8.8 L16.3 8.8 M41.6 4.3 L39.65 -0.7 30.65 0.5 M-9.4 -4.5 L9.35 -3.75 14.85 2.05 M-1.4 5.5 L5.6 6.8 M-0.1 1.3 L7.9 2.8" fill="none" stroke="#000000" stroke-linecap="round" stroke-linejoin="round" stroke-width="1.0"/>
    <path d="M29.5 -6.45 Q36.6 -7.6 41.05 -5.35 45.55 -3.2 45.6 -0.4 45.7 2.35 41.6 4.3" fill="none" stroke="#0066cc" stroke-linecap="round" stroke-linejoin="round" stroke-opacity="0.49803922" stroke-width="1.0"/>
    <path d="M41.6 4.3 L41.6 6.3" fill="none" stroke="#ff0000" stroke-linecap="round" stroke-linejoin="round" stroke-width="1.0"/>
  </g>
</svg>
