<?xml version="1.0" encoding="UTF-8" standalone="no"?>
<svg xmlns:xlink="http://www.w3.org/1999/xlink" height="4.85px" width="35.45px" xmlns="http://www.w3.org/2000/svg">
  <g transform="matrix(1.0, 0.0, 0.0, 1.0, 27.5, 2.3)">
    <path d="M2.0 -0.95 Q4.0 -0.05 2.0 1.25 L0.35 1.25 -0.1 1.25 -9.15 0.9 -20.85 0.2 -7.2 -0.75 -7.1 -0.75 0.35 -1.0 0.65 -1.0 2.0 -0.95" fill="#ffffff" fill-rule="evenodd" stroke="none"/>
    <path d="M2.0 -0.95 L0.65 -1.0 0.35 -1.0 -7.1 -0.75 -7.2 -0.75 -20.85 0.2 -9.15 0.9 -0.1 1.25 0.35 1.25 2.0 1.25 Q4.0 -0.05 2.0 -0.95 M0.35 -2.25 L1.3 -2.25 5.55 -1.95 Q7.3 -1.75 7.7 -0.85 L7.95 0.1 7.5 1.1 Q7.15 2.0 5.15 2.3 L1.3 2.55 0.25 2.55 0.0 2.55 -0.05 2.55 -6.0 2.3 -26.7 1.1 -26.85 1.1 -27.3 0.85 -27.5 0.35 -27.3 -0.25 -26.9 -0.55 -25.65 -0.6 -25.6 -0.6 -15.2 -1.35 -4.7 -2.1 0.25 -2.25 0.35 -2.25" fill="#ffff00" fill-opacity="0.49803922" fill-rule="evenodd" stroke="none"/>
  </g>
</svg>
