<?xml version="1.0" encoding="UTF-8" standalone="no"?>
<svg xmlns:xlink="http://www.w3.org/1999/xlink" height="9.6px" width="4.9px" xmlns="http://www.w3.org/2000/svg">
  <g transform="matrix(1.0, 0.0, 0.0, 1.0, 2.3, 5.3)">
    <path d="M-1.8 -3.4 L2.1 -3.4 2.1 3.8 -1.8 3.8 -1.8 -3.4 M0.85 -1.75 L-0.5 -1.75 0.85 -1.75 M0.75 2.1 L-0.6 2.1 0.75 2.1" fill="#999999" fill-rule="evenodd" stroke="none"/>
    <path d="M-1.8 -3.4 L-1.0 -4.8 1.5 -4.8 2.1 -3.4 -1.8 -3.4" fill="#f70000" fill-opacity="0.8" fill-rule="evenodd" stroke="none"/>
    <path d="M2.1 -3.4 L1.5 -4.8 -1.0 -4.8 -1.8 -3.4 2.1 -3.4 2.1 3.8 -1.8 3.8 -1.8 -3.4 M-0.6 2.1 L0.75 2.1 M-0.5 -1.75 L0.85 -1.75" fill="none" stroke="#000000" stroke-linecap="round" stroke-linejoin="round" stroke-width="1.0"/>
  </g>
</svg>
