<?xml version="1.0" encoding="UTF-8" standalone="no"?>
<svg xmlns:xlink="http://www.w3.org/1999/xlink" height="26.6px" width="75.45px" xmlns="http://www.w3.org/2000/svg">
  <g transform="matrix(1.0, 0.0, 0.0, 1.0, 37.7, 13.3)">
    <path d="M13.55 -9.55 L13.55 -9.5 13.6 -7.6 13.45 -6.65 13.15 -6.35 12.45 -6.15 Q12.1 -6.05 11.95 -5.4 L11.65 -4.15 Q11.4 -3.75 10.65 -3.7 L8.9 -3.85 7.75 -4.05 6.9 -4.6 Q6.25 -5.1 6.1 -6.2 L5.8 -6.2 4.85 -6.2 4.45 -6.2 1.25 -6.2 1.05 -6.2 0.35 -6.2 -0.35 -6.2 -0.55 -6.2 -1.9 -6.2 -2.7 -6.25 -2.85 -6.25 -3.7 -6.25 -3.95 -6.25 -4.1 -6.25 -5.1 -6.25 -16.5 -6.35 -17.85 -6.3 -20.05 -6.3 -24.1 -6.3 -24.95 -6.25 -30.55 -6.3 -34.35 -6.45 -36.15 -6.45 -35.95 -9.85 Q-35.9 -11.75 -35.45 -11.8 L-20.0 -11.65 -19.5 -11.65 5.0 -11.75 5.3 -12.4 Q5.35 -12.8 6.1 -12.8 L10.7 -12.4 Q11.2 -12.35 11.55 -11.6 11.9 -10.8 12.7 -10.5 13.45 -10.25 13.55 -9.55" fill="url(#gradient0)" fill-rule="evenodd" stroke="none"/>
    <path d="M1.05 -6.2 L1.25 -6.2 4.45 -6.2 4.85 -6.2 5.8 -6.2 Q6.85 -1.05 7.05 3.85 L1.45 4.3 Q0.9 -0.95 1.05 -6.2 M-24.15 -5.25 L-24.2 -4.4 Q-24.3 -4.1 -25.15 -4.05 -25.95 -4.0 -26.15 -2.85 L-26.65 0.5 -27.15 4.25 -27.25 4.8 -27.4 5.9 -28.05 8.95 Q-28.85 12.1 -29.35 12.5 L-31.65 12.8 -34.0 12.45 -35.0 12.2 -36.2 11.8 Q-37.6 11.1 -37.05 9.55 L-35.35 5.05 -34.0 1.25 Q-33.7 0.1 -33.9 -0.7 -34.05 -1.45 -34.55 -1.8 L-35.6 -2.8 Q-36.25 -3.5 -36.2 -4.05 L-36.15 -4.9 -36.15 -5.15 -24.15 -5.25 M-31.15 -1.55 Q-33.95 4.1 -34.8 10.1 -32.8 11.25 -30.5 10.85 -28.35 4.5 -27.95 -1.5 L-31.15 -1.55" fill="#333333" fill-rule="evenodd" stroke="none"/>
    <path d="M0.35 -6.2 L1.05 -6.2 Q0.9 -0.95 1.45 4.3 L7.05 3.85 7.1 5.0 0.65 5.3 0.4 1.5 0.4 1.4 0.4 1.35 0.35 -4.7 0.35 -6.2" fill="url(#gradient1)" fill-rule="evenodd" stroke="none"/>
    <path d="M-24.1 -6.3 L-20.05 -6.3 -17.85 -6.3 -4.7 -6.25 -4.1 -6.25 -3.95 -6.25 -3.7 -6.25 -2.85 -6.25 -2.7 -6.25 -1.9 -6.2 -0.55 -6.2 -0.35 -6.2 0.35 -6.2 0.35 -4.7 0.4 1.35 0.4 1.4 0.4 1.5 -0.95 -0.6 Q-1.2 -1.3 -2.05 -1.35 L-3.7 -1.1 -5.25 0.05 -6.95 1.65 Q-7.95 2.35 -10.65 2.3 L-14.4 2.3 -17.05 2.3 Q-17.1 1.1 -18.7 0.2 -19.4 -0.2 -20.15 -0.4 L-22.6 -0.8 -23.35 -0.75 -24.0 -0.65 -24.3 -0.6 -24.45 -0.55 -26.65 0.75 -26.65 0.5 -26.15 -2.85 Q-25.95 -4.0 -25.15 -4.05 -24.3 -4.1 -24.2 -4.4 L-24.15 -5.25 -24.1 -6.3" fill="#999999" fill-rule="evenodd" stroke="none"/>
    <path d="M-24.3 -0.6 L-24.0 -0.65 -23.35 -0.75 -22.6 -0.8 -20.15 -0.4 Q-19.4 -0.2 -18.7 0.2 -17.1 1.1 -17.05 2.3 L-17.5 2.15 -18.2 1.7 -19.25 0.95 -20.15 0.65 -20.25 0.6 -21.25 0.45 -23.9 0.35 -24.25 0.35 -24.3 0.2 -24.3 0.1 -24.3 0.05 -24.3 -0.1 -24.4 -0.5 -24.4 -0.55 -24.3 -0.6" fill="url(#gradient2)" fill-rule="evenodd" stroke="none"/>
    <path d="M-31.15 -1.55 L-27.95 -1.5 Q-28.35 4.5 -30.5 10.85 -32.8 11.25 -34.8 10.1 -33.95 4.1 -31.15 -1.55" fill="#4c4c4c" fill-rule="evenodd" stroke="none"/>
    <path d="M13.45 -6.65 L13.6 -7.6 13.55 -9.5 13.55 -9.55 36.9 -9.2 Q37.6 -8.0 36.95 -6.85 L13.45 -6.65" fill="url(#gradient3)" fill-rule="evenodd" stroke="none"/>
    <path d="M-26.65 0.5 L-26.65 0.75 -24.45 -0.55 -24.4 -0.55 -24.4 -0.5 -24.4 -0.3 -24.3 0.05 -24.3 0.1 -24.3 0.2 -24.25 0.35 Q-24.0 2.3 -24.3 4.3 L-27.15 4.25 -26.65 0.5" fill="url(#gradient4)" fill-rule="evenodd" stroke="none"/>
    <path d="M-36.15 -6.45 L-34.35 -6.45 -30.55 -6.3 -24.95 -6.25 -24.1 -6.3 -24.15 -5.25 -36.15 -5.15 -36.15 -6.45" fill="url(#gradient5)" fill-rule="evenodd" stroke="none"/>
    <path d="M13.45 -6.65 L13.6 -7.6 13.55 -9.5 13.55 -9.55 Q13.45 -10.25 12.7 -10.5 11.9 -10.8 11.55 -11.6 11.2 -12.35 10.7 -12.4 L6.1 -12.8 Q5.35 -12.8 5.3 -12.4 L5.0 -11.75 -19.5 -11.65 -20.0 -11.65 -35.45 -11.8 Q-35.9 -11.75 -35.95 -9.85 L-36.15 -6.45 -34.35 -6.45 -30.55 -6.3 -24.95 -6.25 -24.1 -6.3 -20.05 -6.3 -17.85 -6.3 -16.5 -6.35 -5.1 -6.25 -4.1 -6.25 -3.95 -6.25 -3.7 -6.25 -2.85 -6.25 -2.7 -6.25 -1.9 -6.2 -0.55 -6.2 -0.35 -6.2 0.35 -6.2 1.05 -6.2 1.25 -6.2 4.45 -6.2 4.85 -6.2 5.8 -6.2 6.1 -6.2 Q6.25 -5.1 6.9 -4.6 L7.75 -4.05 8.9 -3.85 10.65 -3.7 Q11.4 -3.75 11.65 -4.15 L11.95 -5.4 Q12.1 -6.05 12.45 -6.15 L13.15 -6.35 13.45 -6.65 36.95 -6.85 Q37.6 -8.0 36.9 -9.2 L13.55 -9.55 M7.05 3.85 Q6.85 -1.05 5.8 -6.2 M0.4 1.5 L0.65 5.3 7.1 5.0 7.05 3.85 1.45 4.3 Q0.9 -0.95 1.05 -6.2 M0.4 1.5 L0.4 1.4 0.4 1.35 0.35 -4.7 0.35 -6.2 M-4.1 -6.25 L-4.7 -6.25 -17.85 -6.3 M-17.05 2.3 L-14.4 2.3 -10.65 2.3 Q-7.95 2.35 -6.95 1.65 L-5.25 0.05 -3.7 -1.1 -2.05 -1.35 Q-1.2 -1.3 -0.95 -0.6 L0.4 1.5 M-24.1 -6.3 L-24.15 -5.25 -24.2 -4.4 Q-24.3 -4.1 -25.15 -4.05 -25.95 -4.0 -26.15 -2.85 L-26.65 0.5 -26.65 0.75 -24.45 -0.55 -24.3 -0.6 -24.0 -0.65 -23.35 -0.75 -22.6 -0.8 -20.15 -0.4 Q-19.4 -0.2 -18.7 0.2 -17.1 1.1 -17.05 2.3 L-17.5 2.15 -18.2 1.7 -19.25 0.95 -20.15 0.65 -20.25 0.6 -21.25 0.45 -23.9 0.35 -24.25 0.35 -24.3 0.2 -24.3 0.1 -24.3 0.05 -24.4 -0.3 -24.4 -0.5 -24.4 -0.55 -24.45 -0.55 M-27.25 4.8 L-27.4 5.9 -28.05 8.95 Q-28.85 12.1 -29.35 12.5 L-31.65 12.8 -34.0 12.45 -35.0 12.2 -36.2 11.8 Q-37.6 11.1 -37.05 9.55 L-35.35 5.05 -34.0 1.25 Q-33.7 0.1 -33.9 -0.7 -34.05 -1.45 -34.55 -1.8 L-35.6 -2.8 Q-36.25 -3.5 -36.2 -4.05 L-36.15 -4.9 -36.15 -5.15 -36.15 -6.45 M-24.3 -0.6 L-24.4 -0.55 M-27.15 4.25 L-24.3 4.3 Q-24.0 2.3 -24.25 0.35 M-31.15 -1.55 Q-33.95 4.1 -34.8 10.1 -32.8 11.25 -30.5 10.85 -28.35 4.5 -27.95 -1.5 L-31.15 -1.55 M-27.15 4.25 L-26.65 0.5 M-27.25 4.8 L-27.15 4.25 M-36.15 -5.15 L-24.15 -5.25" fill="none" stroke="#000000" stroke-linecap="round" stroke-linejoin="round" stroke-width="1.0"/>
    <path d="M-17.05 2.3 L-17.1 2.45 Q-17.4 3.5 -18.9 4.35 L-20.2 4.9 -22.65 5.3 -27.0 4.85 -27.25 4.8" fill="none" stroke="#000000" stroke-linecap="round" stroke-linejoin="round" stroke-width="1.0"/>
  </g>
  <defs>
    <linearGradient gradientTransform="matrix(1.0E-4, -0.007, -0.0055, -1.0E-4, -10.9, -9.5)" gradientUnits="userSpaceOnUse" id="gradient0" spreadMethod="pad" x1="-819.2" x2="819.2">
      <stop offset="0.01568627450980392" stop-color="#181818"/>
      <stop offset="0.5411764705882353" stop-color="#666666"/>
      <stop offset="1.0" stop-color="#000000"/>
    </linearGradient>
    <radialGradient cx="0" cy="0" gradientTransform="matrix(-0.0143, -2.0E-4, -2.0E-4, 0.0143, 2.5, 5.3)" gradientUnits="userSpaceOnUse" id="gradient1" r="819.2" spreadMethod="pad">
      <stop offset="0.0" stop-color="#cccccc"/>
      <stop offset="1.0" stop-color="#333333"/>
    </radialGradient>
    <linearGradient gradientTransform="matrix(2.0E-4, -0.0016, -0.002, -3.0E-4, -20.65, 0.6)" gradientUnits="userSpaceOnUse" id="gradient2" spreadMethod="pad" x1="-819.2" x2="819.2">
      <stop offset="0.0" stop-color="#cccccc"/>
      <stop offset="1.0" stop-color="#333333"/>
    </linearGradient>
    <radialGradient cx="0" cy="0" gradientTransform="matrix(0.0, -0.0042, -0.0359, 0.0, 25.1, -8.45)" gradientUnits="userSpaceOnUse" id="gradient3" r="819.2" spreadMethod="pad">
      <stop offset="0.0" stop-color="#cccccc"/>
      <stop offset="0.6588235294117647" stop-color="#000000"/>
    </radialGradient>
    <radialGradient cx="0" cy="0" gradientTransform="matrix(-0.0041, 0.0, -1.0E-4, 0.0078, -24.1, 2.3)" gradientUnits="userSpaceOnUse" id="gradient4" r="819.2" spreadMethod="pad">
      <stop offset="0.0" stop-color="#5e5e5e"/>
      <stop offset="1.0" stop-color="#333333"/>
    </radialGradient>
    <linearGradient gradientTransform="matrix(-0.0074, -1.0E-4, 0.0, 6.0E-4, -30.15, -5.9)" gradientUnits="userSpaceOnUse" id="gradient5" spreadMethod="pad" x1="-819.2" x2="819.2">
      <stop offset="0.0" stop-color="#999999"/>
      <stop offset="1.0" stop-color="#484848"/>
    </linearGradient>
  </defs>
</svg>
