<?xml version="1.0" encoding="UTF-8" standalone="no"?>
<svg xmlns:xlink="http://www.w3.org/1999/xlink" height="26.1px" width="46.8px" xmlns="http://www.w3.org/2000/svg">
  <g transform="matrix(1.0, 0.0, 0.0, 1.0, -28.5, 20.9)">
    <path d="M37.95 -14.0 Q53.45 -14.0 64.4 -12.15 75.3 -10.3 75.3 -7.7 75.3 -5.1 64.4 -3.25 53.45 -1.4 37.95 -1.4 L35.4 -1.4 35.4 -13.95 37.95 -14.0" fill="url(#gradient0)" fill-rule="evenodd" stroke="none"/>
    <path d="M37.3 5.15 L36.7 5.2 Q33.3 5.2 30.9 1.35 28.5 -2.5 28.5 -7.85 28.5 -13.25 30.9 -17.1 33.3 -20.95 36.7 -20.9 L37.3 -20.85 37.3 5.15" fill="url(#gradient1)" fill-rule="evenodd" stroke="none"/>
    <path d="M37.3 -20.85 L37.85 -20.9 Q41.25 -20.95 43.7 -17.1 46.05 -13.25 46.05 -7.85 46.05 -2.5 43.7 1.35 41.25 5.2 37.85 5.2 L37.3 5.15 37.3 -20.85" fill="url(#gradient2)" fill-rule="evenodd" stroke="none"/>
  </g>
  <defs>
    <radialGradient cx="0" cy="0" gradientTransform="matrix(0.0, 0.0068, -0.0456, 0.0, 37.9, -7.7)" gradientUnits="userSpaceOnUse" id="gradient0" r="819.2" spreadMethod="pad">
      <stop offset="0.17647058823529413" stop-color="#ffffff"/>
      <stop offset="1.0" stop-color="#ff1111" stop-opacity="0.0"/>
    </radialGradient>
    <radialGradient cx="0" cy="0" gradientTransform="matrix(0.0, 0.0142, 0.01, 0.0, 36.75, -7.9)" gradientUnits="userSpaceOnUse" id="gradient1" r="819.2" spreadMethod="pad">
      <stop offset="0.17647058823529413" stop-color="#ffffff"/>
      <stop offset="1.0" stop-color="#ff1111" stop-opacity="0.0"/>
    </radialGradient>
    <radialGradient cx="0" cy="0" gradientTransform="matrix(0.0, 0.0142, -0.01, 0.0, 37.85, -7.9)" gradientUnits="userSpaceOnUse" id="gradient2" r="819.2" spreadMethod="pad">
      <stop offset="0.17647058823529413" stop-color="#ffffff"/>
      <stop offset="1.0" stop-color="#ff1111" stop-opacity="0.0"/>
    </radialGradient>
  </defs>
</svg>
