<?xml version="1.0" encoding="UTF-8" standalone="no"?>
<svg xmlns:xlink="http://www.w3.org/1999/xlink" height="40.05px" width="19.3px" xmlns="http://www.w3.org/2000/svg">
  <g transform="matrix(1.0, 0.0, 0.0, 1.0, 2.75, 4.0)">
    <path d="M12.55 28.35 L16.05 31.85 13.5 34.4 10.0 30.9 12.55 28.35" fill="#333333" fill-rule="evenodd" stroke="none"/>
    <path d="M12.55 28.35 L16.05 31.85 13.5 34.4 10.0 30.9 12.55 28.35 Z" fill="none" stroke="#000000" stroke-linecap="round" stroke-linejoin="round" stroke-width="1.0"/>
    <path d="M9.55 31.15 L12.1 33.7 10.2 35.55 7.65 33.0 9.55 31.15" fill="#333333" fill-rule="evenodd" stroke="none"/>
    <path d="M9.55 31.15 L12.1 33.7 10.2 35.55 7.65 33.0 9.55 31.15 Z" fill="none" stroke="#000000" stroke-linecap="round" stroke-linejoin="round" stroke-width="1.0"/>
    <path d="M2.7 2.65 L-0.3 5.55 -2.25 -2.3 1.5 -3.5 2.7 2.65 M0.8 -0.8 L-0.55 -0.8 0.8 -0.8" fill="#666666" fill-rule="evenodd" stroke="none"/>
    <path d="M2.7 2.65 L-0.3 5.55 -2.25 -2.3 1.5 -3.5 2.7 2.65" fill="none" stroke="#000000" stroke-linecap="round" stroke-linejoin="round" stroke-width="1.0"/>
    <path d="M-0.55 -0.8 L0.8 -0.8" fill="none" stroke="#000000" stroke-linecap="round" stroke-linejoin="round" stroke-width="1.0"/>
  </g>
</svg>
