<?xml version="1.0" encoding="UTF-8" standalone="no"?>
<svg xmlns:xlink="http://www.w3.org/1999/xlink" height="26.35px" width="24.5px" xmlns="http://www.w3.org/2000/svg">
  <g transform="matrix(1.0, 0.0, 0.0, 1.0, 15.6, 28.55)">
    <path d="M8.35 -24.1 L8.4 -17.8 Q8.05 -13.65 5.75 -11.45 3.4 -7.0 3.8 -2.7 L-1.6 -3.9 -2.4 -12.7 -2.4 -23.3 8.25 -24.1 8.35 -24.1" fill="#333333" fill-rule="evenodd" stroke="none"/>
    <path d="M-1.6 -3.9 L-4.9 -3.85 -8.4 -26.65 -3.6 -28.05 2.05 -28.05 Q6.75 -27.0 8.35 -24.1 L8.25 -24.1 -2.4 -23.3 -2.4 -12.7 -1.6 -3.9" fill="#666666" fill-rule="evenodd" stroke="none"/>
    <path d="M8.35 -24.1 L8.4 -17.8 Q8.05 -13.65 5.75 -11.45 3.4 -7.0 3.8 -2.7 L-1.6 -3.9 -4.9 -3.85 -8.4 -26.65 -3.6 -28.05 2.05 -28.05 Q6.75 -27.0 8.35 -24.1 L8.25 -24.1" fill="none" stroke="#000000" stroke-linecap="round" stroke-linejoin="round" stroke-width="1.0"/>
    <path d="M-7.1 -10.65 L-7.1 -23.15 -4.65 -23.15 -4.65 -10.65 -7.1 -10.65" fill="#333333" fill-rule="evenodd" stroke="none"/>
    <path d="M-7.1 -23.15 L-7.1 -10.65 -7.1 -8.0 -15.1 -10.75 -15.1 -22.75 -7.1 -27.0 -7.1 -23.15 M-8.9 -14.75 L-8.9 -25.25 -8.9 -14.75" fill="#666666" fill-rule="evenodd" stroke="none"/>
    <path d="M-7.1 -23.15 L-7.1 -10.65 -7.1 -8.0 -15.1 -10.75 -15.1 -22.75 -7.1 -27.0 -7.1 -23.15" fill="none" stroke="#000000" stroke-linecap="round" stroke-linejoin="round" stroke-width="1.0"/>
    <path d="M-7.1 -10.65 L-4.65 -10.65 -4.65 -23.15 -7.1 -23.15 M-8.9 -25.25 L-8.9 -14.75" fill="none" stroke="#000000" stroke-linecap="round" stroke-linejoin="round" stroke-width="1.0"/>
  </g>
</svg>
