<?xml version="1.0" encoding="UTF-8" standalone="no"?>
<svg xmlns:xlink="http://www.w3.org/1999/xlink" height="11.9px" width="11.9px" xmlns="http://www.w3.org/2000/svg">
  <g transform="matrix(1.0, 0.0, 0.0, 1.0, 11.25, 12.65)">
    <path d="M-8.95 -2.65 Q-10.55 -4.25 -10.55 -6.55 -10.55 -8.85 -8.95 -10.45 -7.85 -11.55 -6.4 -11.9 L-5.05 -12.05 -3.7 -11.9 -2.1 -11.2 -1.15 -10.45 Q0.45 -8.85 0.45 -6.55 0.45 -4.25 -1.15 -2.65 -2.75 -1.05 -5.05 -1.05 -6.8 -1.05 -8.15 -1.95 L-8.95 -2.65" fill="#0033ff" fill-opacity="0.0" fill-rule="evenodd" stroke="none"/>
    <path d="M-2.4 -11.9 Q-1.7 -11.5 -1.1 -10.9 0.65 -9.15 0.65 -6.7 0.65 -4.25 -1.1 -2.45 -2.85 -0.75 -5.3 -0.75 -7.75 -0.75 -9.55 -2.45 -11.25 -4.25 -11.25 -6.7 -11.25 -9.15 -9.55 -10.9 L-8.25 -11.9 Q-6.9 -12.65 -5.3 -12.65 -3.7 -12.65 -2.4 -11.9 M-8.15 -1.95 Q-6.8 -1.05 -5.05 -1.05 -2.75 -1.05 -1.15 -2.65 0.45 -4.25 0.45 -6.55 0.45 -8.85 -1.15 -10.45 L-2.1 -11.2 -3.7 -11.9 -5.05 -12.05 -6.4 -11.9 Q-7.85 -11.55 -8.95 -10.45 -10.55 -8.85 -10.55 -6.55 -10.55 -4.25 -8.95 -2.65 L-8.95 -2.6 -8.15 -1.95" fill="#cc0000" fill-opacity="0.0" fill-rule="evenodd" stroke="none"/>
  </g>
</svg>
