<?xml version="1.0" encoding="UTF-8" standalone="no"?>
<svg xmlns:xlink="http://www.w3.org/1999/xlink" height="17.15px" width="19.35px" xmlns="http://www.w3.org/2000/svg">
  <g transform="matrix(1.0, 0.0, 0.0, 1.0, 6.25, 11.8)">
    <path d="M-0.55 -2.45 L-0.45 -1.2 Q0.7 -0.6 2.0 -0.15 L1.8 0.65 -2.85 0.4 -3.5 -3.25 -0.55 -2.45" fill="#d27e02" fill-rule="evenodd" stroke="none"/>
    <path d="M8.55 -6.8 Q6.15 -5.35 0.15 -4.8 -2.9 -6.35 -2.8 -8.75 L-2.6 -10.35 -2.45 -10.05 Q-0.4 -12.55 6.8 -10.05 9.0 -7.75 8.55 -6.8 M5.0 -8.65 L3.45 -8.65 5.0 -8.65" fill="#e38902" fill-rule="evenodd" stroke="none"/>
    <path d="M0.15 -4.8 Q6.15 -5.35 8.55 -6.8 9.4 -7.35 9.5 -8.1 L12.15 -3.95 Q13.65 -0.8 10.1 0.55 L9.7 0.65 2.0 -0.15 Q0.7 -0.6 -0.45 -1.2 L-0.55 -2.45 Q-1.05 -4.8 0.15 -4.8 M6.05 -1.95 L8.05 -5.0 6.05 -1.95 M7.8 -1.0 L9.8 -4.0 7.8 -1.0" fill="#999999" fill-rule="evenodd" stroke="none"/>
    <path d="M0.15 -4.8 Q-1.05 -4.8 -0.55 -2.45 L-3.5 -3.25 -4.75 -3.8 Q-6.5 -8.4 -4.15 -9.85 L-2.6 -10.35 -2.8 -8.75 Q-2.9 -6.35 0.15 -4.8 M-3.15 -5.15 Q-4.45 -6.8 -4.15 -9.85 -4.45 -6.8 -3.15 -5.15" fill="#666666" fill-rule="evenodd" stroke="none"/>
    <path d="M8.55 -6.8 Q6.15 -5.35 0.15 -4.8 -1.05 -4.8 -0.55 -2.45 L-0.45 -1.2 Q0.7 -0.6 2.0 -0.15 L9.7 0.65 10.1 0.55 Q13.65 -0.8 12.15 -3.95 L9.5 -8.1 Q9.4 -7.35 8.55 -6.8 9.0 -7.75 6.8 -10.05 -0.4 -12.55 -2.45 -10.05 L-2.6 -10.35 -2.8 -8.75 Q-2.9 -6.35 0.15 -4.8 M-3.5 -3.25 L-4.75 -3.8 Q-6.5 -8.4 -4.15 -9.85 L-2.6 -10.35 M-0.55 -2.45 L-3.5 -3.25 -2.85 0.4 1.8 0.65 2.0 -0.15 M-4.15 -9.85 Q-4.45 -6.8 -3.15 -5.15 M-3.5 -3.25 Q-7.45 -0.8 -4.4 4.85" fill="none" stroke="#000000" stroke-linecap="round" stroke-linejoin="round" stroke-width="1.0"/>
    <path d="M9.8 -4.0 L7.8 -1.0 M8.05 -5.0 L6.05 -1.95" fill="none" stroke="#333333" stroke-linecap="round" stroke-linejoin="round" stroke-width="1.0"/>
    <path d="M3.45 -8.65 L5.0 -8.65" fill="none" stroke="#910000" stroke-linecap="round" stroke-linejoin="round" stroke-width="2.0"/>
  </g>
</svg>
