<?xml version="1.0" encoding="UTF-8" standalone="no"?>
<svg xmlns:xlink="http://www.w3.org/1999/xlink" height="32.1px" width="32.1px" xmlns="http://www.w3.org/2000/svg">
  <g transform="matrix(1.0, 0.0, 0.0, 1.0, 16.25, 26.05)">
    <path d="M0.95 -1.0 Q1.35 -0.65 1.35 -0.05 1.35 0.5 0.95 0.9 L0.0 1.3 -0.95 0.9 Q-1.35 0.5 -1.35 -0.05 -1.35 -0.65 -0.95 -1.0 -0.6 -1.45 0.0 -1.4 0.5 -1.45 0.95 -1.0" fill="#4d95ff" fill-opacity="0.0" fill-rule="evenodd" stroke="none"/>
    <path d="M15.85 -10.0 Q15.85 -3.35 11.15 1.35 6.4 6.05 -0.2 6.05 -6.85 6.05 -11.55 1.35 -16.25 -3.35 -16.25 -10.0 -16.25 -16.65 -11.55 -21.35 -6.85 -26.05 -0.2 -26.05 6.4 -26.05 11.15 -21.35 15.85 -16.65 15.85 -10.0" fill="url(#gradient0)" fill-rule="evenodd" stroke="none"/>
  </g>
  <defs>
    <radialGradient cx="0" cy="0" gradientTransform="matrix(0.019, 0.0, 0.0, 0.019, -0.2, -10.0)" gradientUnits="userSpaceOnUse" id="gradient0" r="819.2" spreadMethod="pad">
      <stop offset="0.0" stop-color="#89d0fe" stop-opacity="0.0"/>
      <stop offset="1.0" stop-color="#4e71fe" stop-opacity="0.0"/>
    </radialGradient>
  </defs>
</svg>
