<?xml version="1.0" encoding="UTF-8" standalone="no"?>
<svg xmlns:xlink="http://www.w3.org/1999/xlink" height="125.75px" width="138.55px" xmlns="http://www.w3.org/2000/svg">
  <g transform="matrix(1.0, 0.0, 0.0, 1.0, 69.45, 52.9)">
    <path d="M47.45 -19.25 L46.95 -52.4 62.6 -52.4 68.6 72.35 49.7 72.35 47.45 -19.25 M-49.65 72.35 L-68.95 72.35 -60.95 -52.4 -46.0 -52.4 -46.7 -19.25 -49.65 72.35" fill="#999999" fill-rule="evenodd" stroke="none"/>
    <path d="M47.45 -19.25 L49.7 72.35 -49.65 72.35 -46.7 -19.25 47.45 -19.25" fill="#67c2fe" fill-rule="evenodd" stroke="none"/>
    <path d="M49.7 72.35 L68.6 72.35 62.6 -52.4 46.95 -52.4 47.45 -19.25 49.7 72.35 -49.65 72.35 -68.95 72.35 -60.95 -52.4 -46.0 -52.4 -46.7 -19.25 47.45 -19.25 M-46.7 -19.25 L-49.65 72.35" fill="none" stroke="#000000" stroke-linecap="round" stroke-linejoin="round" stroke-width="1.0"/>
  </g>
</svg>
