<?xml version="1.0" encoding="UTF-8" standalone="no"?>
<svg xmlns:xlink="http://www.w3.org/1999/xlink" height="32.5px" width="10.75px" xmlns="http://www.w3.org/2000/svg">
  <g transform="matrix(1.0, 0.0, 0.0, 1.0, 5.15, 2.5)">
    <path d="M3.35 24.9 L5.25 27.5 Q6.15 28.7 4.6 29.65 2.8 30.5 2.4 29.25 1.6 27.85 2.1 26.35 L2.85 25.55 3.35 24.9" fill="#cc9933" fill-rule="evenodd" stroke="none"/>
    <path d="M1.3 26.45 L0.6 25.35 -0.3 23.65 -2.8 19.05 Q-4.0 16.7 -4.6 14.35 -4.85 13.4 -4.7 11.45 L-4.45 9.65 -3.65 2.9 Q-3.15 -0.5 -1.7 -1.35 -0.4 -2.35 1.15 -1.85 2.55 -1.55 3.4 0.05 4.1 1.5 3.5 3.2 L1.35 8.25 Q0.6 9.8 -0.15 12.8 L-0.1 13.35 3.25 21.6 3.5 22.35 Q4.0 23.8 3.35 24.9 L2.85 25.55 2.1 26.35 1.3 26.45" fill="#eeeeee" fill-rule="evenodd" stroke="none"/>
    <path d="M1.3 26.45 L0.6 25.35 -0.3 23.65 -2.8 19.05 Q-4.0 16.7 -4.6 14.35 -4.85 13.4 -4.7 11.45 L-4.45 9.65 -3.65 2.9 Q-3.15 -0.5 -1.7 -1.35 -0.4 -2.35 1.15 -1.85 2.55 -1.55 3.4 0.05 4.1 1.5 3.5 3.2 L1.35 8.25 Q0.6 9.8 -0.15 12.8 L-0.1 13.35 3.25 21.6 3.5 22.35 M3.35 24.9 L5.25 27.5 Q6.15 28.7 4.6 29.65 2.8 30.5 2.4 29.25 1.6 27.85 2.1 26.35" fill="none" stroke="#000000" stroke-linecap="round" stroke-linejoin="round" stroke-width="0.05"/>
    <path d="M3.5 22.35 Q4.0 23.8 3.35 24.9 L2.85 25.55 2.1 26.35 1.3 26.45 Z" fill="none" stroke="#000000" stroke-linecap="round" stroke-linejoin="round" stroke-width="0.05"/>
    <path d="M1.4 -2.05 Q4.35 -1.05 4.4 0.4 4.4 1.8 1.85 3.7 -0.7 5.6 -2.25 2.3 -3.85 -1.05 -2.7 -2.0 -1.6 -3.0 1.4 -2.05" fill="#e1e1e1" fill-rule="evenodd" stroke="none"/>
    <path d="M1.4 -2.05 Q4.35 -1.05 4.4 0.4 4.4 1.8 1.85 3.7 -0.7 5.6 -2.25 2.3 -3.85 -1.05 -2.7 -2.0 -1.6 -3.0 1.4 -2.05 Z" fill="none" stroke="#000000" stroke-linecap="round" stroke-linejoin="round" stroke-width="0.05"/>
    <path d="M-4.75 10.55 Q-3.75 9.65 -1.1 10.5 1.5 11.35 1.55 12.65 1.55 13.9 -0.7 15.65 -2.95 17.3 -4.35 14.35 -5.75 11.4 -4.75 10.55" fill="#e6e6e6" fill-rule="evenodd" stroke="none"/>
    <path d="M-4.75 10.55 Q-3.75 9.65 -1.1 10.5 1.5 11.35 1.55 12.65 1.55 13.9 -0.7 15.65 -2.95 17.3 -4.35 14.35 -5.75 11.4 -4.75 10.55 Z" fill="none" stroke="#000000" stroke-linecap="round" stroke-linejoin="round" stroke-width="0.05"/>
  </g>
</svg>
