<?xml version="1.0" encoding="UTF-8" standalone="no"?>
<svg xmlns:xlink="http://www.w3.org/1999/xlink" height="5.95px" width="50.75px" xmlns="http://www.w3.org/2000/svg">
  <g transform="matrix(1.0, 0.0, 0.0, 1.0, 33.65, 2.9)">
    <path d="M0.55 -1.3 L9.65 -0.8 Q13.3 -0.5 14.15 0.25 14.65 0.7 7.65 1.25 L7.6 1.25 0.25 1.55 0.15 1.55 0.1 1.55 -0.25 1.55 -11.45 1.1 -25.9 0.2 -9.0 -0.95 -8.95 -0.95 0.1 -1.3 0.15 -1.3 0.25 -1.3 0.55 -1.3" fill="#ffffff" fill-rule="evenodd" stroke="none"/>
    <path d="M0.15 -2.85 L0.25 -2.85 0.35 -2.85 6.35 -2.55 14.4 -1.0 Q19.5 0.3 14.9 1.45 10.3 2.6 6.45 2.85 L0.25 3.05 0.15 3.05 0.1 3.05 0.0 3.05 -0.05 3.05 -7.35 2.75 -32.7 1.35 -32.85 1.35 -33.4 1.05 -33.65 0.35 -33.45 -0.35 -32.95 -0.7 -31.4 -0.8 -31.35 -0.8 -18.6 -1.7 -5.75 -2.65 0.1 -2.85 0.15 -2.85 M0.55 -1.3 L0.25 -1.3 0.15 -1.3 0.1 -1.3 -8.95 -0.95 -9.0 -0.95 -25.9 0.2 -11.45 1.1 -0.25 1.55 0.1 1.55 0.15 1.55 0.25 1.55 7.6 1.25 7.65 1.25 Q14.65 0.7 14.15 0.25 13.3 -0.5 9.65 -0.8 L0.55 -1.3" fill="#ffffff" fill-opacity="0.5019608" fill-rule="evenodd" stroke="none"/>
  </g>
</svg>
