<?xml version="1.0" encoding="UTF-8" standalone="no"?>
<svg xmlns:xlink="http://www.w3.org/1999/xlink" height="37.6px" width="22.0px" xmlns="http://www.w3.org/2000/svg">
  <g transform="matrix(1.0, 0.0, 0.0, 1.0, 11.0, 18.6)">
    <path d="M-10.0 -10.7 L-6.0 -17.6 6.0 -17.6 10.0 -10.7 -10.0 -10.7 M10.0 9.9 L6.0 18.0 -6.0 18.0 -10.0 9.9 10.0 9.9" fill="#8c8c8c" fill-rule="evenodd" stroke="none"/>
    <path d="M10.0 -10.7 L10.0 9.9 -10.0 9.9 -10.0 -10.7 10.0 -10.7 M0.05 -4.45 L-1.65 -2.0 -3.65 -3.9 -1.65 -2.0 0.05 -4.45 M-1.2 2.95 L1.0 2.0 -2.2 -1.25 -1.65 -2.0 -1.3 -1.65 3.65 -4.15 -1.3 -1.65 -0.7 -1.1 1.85 -0.85 5.85 -1.9 1.85 -0.85 -0.7 -1.1 -1.3 -1.65 -2.2 -1.25 -0.7 -1.1 1.0 2.0 3.35 2.75 1.0 2.0 -0.7 -1.1 -2.2 -1.25 -1.3 -1.65 -1.65 -2.0 -2.2 -1.25 1.0 2.0 -1.2 2.95" fill="#33c2ff" fill-rule="evenodd" stroke="none"/>
    <path d="M-10.0 -10.7 L-6.0 -17.6 6.0 -17.6 10.0 -10.7 10.0 9.9 6.0 18.0 -6.0 18.0 -10.0 9.9 -10.0 -10.7 10.0 -10.7 M-10.0 9.9 L10.0 9.9" fill="none" stroke="#000000" stroke-linecap="round" stroke-linejoin="round" stroke-width="2.0"/>
    <path d="M3.65 -4.15 L-1.3 -1.65 -0.7 -1.1 1.85 -0.85 5.85 -1.9 M-1.3 -1.65 L-2.2 -1.25 -0.7 -1.1 1.0 2.0 3.35 2.75 M-1.3 -1.65 L-1.65 -2.0 -2.2 -1.25 1.0 2.0 -1.2 2.95 M-3.65 -3.9 L-1.65 -2.0 0.05 -4.45" fill="none" stroke="#ffffff" stroke-linecap="round" stroke-linejoin="round" stroke-width="1.0"/>
  </g>
</svg>
