<?xml version="1.0" encoding="UTF-8" standalone="no"?>
<svg xmlns:xlink="http://www.w3.org/1999/xlink" height="8.5px" width="7.8px" xmlns="http://www.w3.org/2000/svg">
  <g transform="matrix(1.0, 0.0, 0.0, 1.0, 5.85, 11.95)">
    <path d="M0.8 -4.7 Q-0.35 -3.45 -2.0 -3.45 -3.6 -3.45 -4.7 -4.7 -5.85 -5.95 -5.85 -7.7 -5.85 -9.5 -4.7 -10.75 -3.6 -11.95 -2.0 -11.95 -0.35 -11.95 0.8 -10.75 1.95 -9.5 1.95 -7.7 1.95 -5.95 0.8 -4.7" fill="url(#gradient0)" fill-rule="evenodd" stroke="none"/>
    <path d="M0.8 -4.7 Q-0.35 -3.45 -2.0 -3.45 -3.6 -3.45 -4.7 -4.7 -5.85 -5.95 -5.85 -7.7 -5.85 -9.5 -4.7 -10.75 -3.6 -11.95 -2.0 -11.95 -0.35 -11.95 0.8 -10.75 1.95 -9.5 1.95 -7.7 1.95 -5.95 0.8 -4.7" fill="url(#gradient1)" fill-rule="evenodd" stroke="none"/>
  </g>
  <defs>
    <radialGradient cx="0" cy="0" gradientTransform="matrix(0.0058, 0.0, 0.0, 0.0061, -1.9, -7.75)" gradientUnits="userSpaceOnUse" id="gradient0" r="819.2" spreadMethod="pad">
      <stop offset="0.1450980392156863" stop-color="#ffffff" stop-opacity="0.7019608"/>
      <stop offset="0.20392156862745098" stop-color="#ffffff" stop-opacity="0.0"/>
    </radialGradient>
    <radialGradient cx="0" cy="0" gradientTransform="matrix(0.0058, 0.0, 0.0, 0.0061, -1.9, -7.75)" gradientUnits="userSpaceOnUse" id="gradient1" r="819.2" spreadMethod="pad">
      <stop offset="0.0" stop-color="#ffffff"/>
      <stop offset="0.7843137254901961" stop-color="#ffffff" stop-opacity="0.0"/>
    </radialGradient>
  </defs>
</svg>
