<?xml version="1.0" encoding="UTF-8" standalone="no"?>
<svg xmlns:xlink="http://www.w3.org/1999/xlink" height="41.55px" width="24.5px" xmlns="http://www.w3.org/2000/svg">
  <g transform="matrix(1.0, 0.0, 0.0, 1.0, 15.6, 43.75)">
    <path d="M-3.6 -28.05 L2.05 -28.05 Q6.75 -27.0 8.35 -24.1 L8.25 -24.1 -2.4 -23.3 -3.6 -28.05" fill="#e38902" fill-rule="evenodd" stroke="none"/>
    <path d="M-2.4 -23.3 L8.25 -24.1 8.35 -24.1 8.4 -17.8 Q8.05 -13.65 5.75 -11.45 L-2.4 -12.7 -2.4 -23.3" fill="#996600" fill-rule="evenodd" stroke="none"/>
    <path d="M-3.6 -28.05 L-2.4 -23.3 -2.4 -12.7 -6.65 -15.25 -8.4 -26.65 -3.6 -28.05" fill="#d27e02" fill-rule="evenodd" stroke="none"/>
    <path d="M5.75 -11.45 Q3.4 -7.0 3.8 -2.7 L-1.6 -3.9 -2.4 -12.7 5.75 -11.45" fill="#764701" fill-rule="evenodd" stroke="none"/>
    <path d="M-1.6 -3.9 L-4.9 -3.85 -6.65 -15.25 -2.4 -12.7 -1.6 -3.9" fill="#a76503" fill-rule="evenodd" stroke="none"/>
    <path d="M8.35 -24.1 Q6.75 -27.0 2.05 -28.05 L-3.6 -28.05 -8.4 -26.65 -6.65 -15.25 -4.9 -3.85 -1.6 -3.9 3.8 -2.7 Q3.4 -7.0 5.75 -11.45 8.05 -13.65 8.4 -17.8 L8.35 -24.1 8.25 -24.1" fill="none" stroke="#000000" stroke-linecap="round" stroke-linejoin="round" stroke-width="1.0"/>
    <path d="M-10.9 -25.0 L-7.1 -27.0 -7.1 -23.15 -7.1 -10.65 -7.1 -8.0 -15.1 -10.75 -15.1 -22.75 -10.9 -25.0 M-8.9 -14.75 L-8.9 -25.25 -8.9 -14.75" fill="#999999" fill-rule="evenodd" stroke="none"/>
    <path d="M-7.1 -23.15 L-4.65 -23.15 -4.65 -10.65 -7.1 -10.65 -7.1 -23.15" fill="#333333" fill-rule="evenodd" stroke="none"/>
    <path d="M-10.9 -25.0 L-7.1 -27.0 -7.1 -23.15 -7.1 -10.65 -7.1 -8.0 -15.1 -10.75 -15.1 -22.75 -10.9 -25.0" fill="none" stroke="#000000" stroke-linecap="round" stroke-linejoin="round" stroke-width="1.0"/>
    <path d="M-10.9 -25.0 L-10.9 -42.1 M-7.1 -23.15 L-4.65 -23.15 -4.65 -10.65 -7.1 -10.65 M-8.9 -25.25 L-8.9 -14.75" fill="none" stroke="#000000" stroke-linecap="round" stroke-linejoin="round" stroke-width="1.0"/>
    <path d="M-10.9 -42.1 L-10.9 -42.75" fill="none" stroke="#ff0000" stroke-linecap="round" stroke-linejoin="round" stroke-width="2.0"/>
  </g>
</svg>
