<?xml version="1.0" encoding="UTF-8" standalone="no"?>
<svg xmlns:xlink="http://www.w3.org/1999/xlink" height="22.0px" width="15.2px" xmlns="http://www.w3.org/2000/svg">
  <g transform="matrix(1.0, 0.0, 0.0, 1.0, 5.3, 27.5)">
    <path d="M9.4 -16.0 L7.8 -8.55 4.0 -6.0 5.5 -10.7 6.7 -10.7 6.7 -14.6 6.1 -14.6 6.5 -17.35 Q7.95 -16.65 9.4 -16.0 M2.65 -11.65 L-4.8 -11.65 -4.8 -15.0 2.3 -13.45 2.4 -12.95 2.5 -12.55 2.65 -11.65 M1.25 -17.35 L-4.55 -17.0 -4.55 -22.0 1.75 -20.85 1.75 -20.8 1.25 -17.35 M1.75 -20.8 L1.75 -20.85 1.75 -20.8" fill="#333333" fill-rule="evenodd" stroke="none"/>
    <path d="M1.75 -20.85 L3.0 -27.0 9.4 -25.4 9.4 -16.0 Q7.95 -16.65 6.5 -17.35 L1.25 -17.35 1.75 -20.8 1.75 -20.85" fill="#484848" fill-rule="evenodd" stroke="none"/>
    <path d="M5.5 -10.7 L2.8 -10.7 2.65 -11.65 2.5 -12.55 2.4 -12.95 2.1 -14.6 6.1 -14.6 6.7 -14.6 6.7 -10.7 5.5 -10.7" fill="#222222" fill-rule="evenodd" stroke="none"/>
    <path d="M1.75 -20.85 L3.0 -27.0 9.4 -25.4 9.4 -16.0 Q7.95 -16.65 6.5 -17.35 L1.25 -17.35 -4.55 -17.0 -4.55 -22.0 1.75 -20.85 1.75 -20.8 1.25 -17.35 M5.5 -10.7 L2.8 -10.7 2.65 -11.65 -4.8 -11.65 -4.8 -15.0 2.3 -13.45 2.4 -12.95 2.1 -14.6 6.1 -14.6 6.7 -14.6 6.7 -10.7 5.5 -10.7 M1.75 -20.85 L1.75 -20.8 M2.4 -12.95 L2.5 -12.55 2.65 -11.65" fill="none" stroke="#000000" stroke-linecap="round" stroke-linejoin="round" stroke-width="1.0"/>
    <path d="M9.4 -16.0 L7.8 -8.55 4.0 -6.0 5.5 -10.7 M6.1 -14.6 L6.5 -17.35" fill="none" stroke="#000000" stroke-linecap="round" stroke-linejoin="round" stroke-width="1.0"/>
  </g>
</svg>
