<?xml version="1.0" encoding="UTF-8" standalone="no"?>
<svg xmlns:xlink="http://www.w3.org/1999/xlink" height="19.8px" width="43.0px" xmlns="http://www.w3.org/2000/svg">
  <g transform="matrix(1.0, 0.0, 0.0, 1.0, 22.65, 2.6)">
    <path d="M10.0 4.9 L3.5 10.5 -3.5 10.5 -10.0 4.9 10.0 4.9" fill="#8c8c8c" fill-rule="evenodd" stroke="none"/>
    <path d="M-10.0 4.9 L-10.0 -1.6 10.0 -1.6 10.0 4.9 -10.0 4.9" fill="#ffffff" fill-rule="evenodd" stroke="none"/>
    <path d="M10.0 4.9 L3.5 10.5 -3.5 10.5 -10.0 4.9" fill="none" stroke="#000000" stroke-linecap="round" stroke-linejoin="round" stroke-width="2.0"/>
    <path d="M-10.0 -1.6 L10.0 -1.6 M10.0 4.9 L-10.0 4.9" fill="none" stroke="#000000" stroke-linecap="round" stroke-linejoin="round" stroke-width="2.0"/>
    <path d="M-10.0 4.9 L-10.0 -1.6 M10.0 -1.6 L10.0 4.9 Z" fill="none" stroke="#88c4ff" stroke-linecap="round" stroke-linejoin="round" stroke-width="2.0"/>
    <path d="M20.35 -1.8 L20.35 17.2 -22.65 17.2 -22.65 -1.8 20.35 -1.8" fill="#ffffff" fill-opacity="0.0" fill-rule="evenodd" stroke="none"/>
  </g>
</svg>
