<?xml version="1.0" encoding="UTF-8" standalone="no"?>
<svg xmlns:xlink="http://www.w3.org/1999/xlink" height="12.65px" width="13.1px" xmlns="http://www.w3.org/2000/svg">
  <g transform="matrix(1.0, 0.0, 0.0, 1.0, 6.95, 11.5)">
    <path d="M-0.55 -2.45 L-0.45 -1.2 Q0.7 -0.6 2.0 -0.15 L1.8 0.65 -2.85 0.4 Q-2.45 -1.25 -3.5 -3.25 L-2.3 -2.9 Q-2.95 -2.85 -2.95 -2.25 -2.95 -1.5 -2.45 -1.2 L-2.55 -0.65 Q-2.55 0.0 -1.95 0.0 -1.05 0.0 -1.05 -1.15 L-1.05 -1.25 -0.95 -1.65 -2.0 -2.8 -0.55 -2.45" fill="#d27e02" fill-rule="evenodd" stroke="none"/>
    <path d="M-1.45 -10.9 L-1.7 -9.45 -1.2 -8.2 Q-1.8 -8.05 -1.8 -7.5 -1.8 -7.15 -1.1 -6.65 -0.7 -5.9 -0.1 -5.9 L0.2 -6.25 0.4 -6.2 2.3 -5.55 4.5 -3.8 4.65 -3.8 Q4.9 -3.6 5.3 -3.6 L5.55 0.1 Q5.2 -2.3 4.3 -0.95 4.45 -1.75 3.2 -3.25 2.25 -4.4 2.25 -5.0 L0.15 -4.8 Q-2.9 -6.35 -2.8 -8.75 -2.75 -10.25 -3.45 -10.9 L-2.45 -10.05 -1.45 -10.9" fill="#e38902" fill-rule="evenodd" stroke="none"/>
    <path d="M0.15 -4.8 L2.25 -5.0 Q2.25 -4.4 3.2 -3.25 4.45 -1.75 4.3 -0.95 4.1 -0.05 2.0 -0.15 0.7 -0.6 -0.45 -1.2 L-0.55 -2.45 Q-1.05 -4.8 0.15 -4.8" fill="#999999" fill-rule="evenodd" stroke="none"/>
    <path d="M0.15 -4.8 Q-1.05 -4.8 -0.55 -2.45 L-2.0 -2.8 -2.25 -2.9 -2.3 -2.9 -3.5 -3.25 Q-4.15 -3.55 -6.45 -5.9 -5.15 -6.55 -4.15 -9.85 L-3.45 -10.9 Q-2.75 -10.25 -2.8 -8.75 -2.9 -6.35 0.15 -4.8 M-3.15 -5.15 Q-4.45 -6.8 -4.15 -9.85 -4.45 -6.8 -3.15 -5.15" fill="#666666" fill-rule="evenodd" stroke="none"/>
    <path d="M0.4 -10.0 L0.15 -10.05 Q-0.45 -10.05 -0.6 -8.1 -0.6 -7.05 0.25 -7.05 0.85 -7.05 0.85 -7.6 L0.85 -7.65 1.0 -7.45 1.45 -7.65 Q2.45 -7.65 3.4 -6.95 L2.0 -7.55 Q1.3 -7.55 1.3 -6.95 1.3 -6.45 2.45 -5.85 L4.0 -4.8 Q4.7 -4.8 4.7 -5.4 L4.4 -6.0 4.8 -5.55 4.9 -5.55 Q5.35 -5.55 5.95 -4.25 6.45 -3.15 5.55 0.1 L5.3 -3.6 Q4.9 -3.6 4.65 -3.8 L4.5 -3.8 2.3 -5.55 0.4 -6.2 0.2 -6.25 -0.1 -5.9 Q-0.7 -5.9 -1.1 -6.65 -1.8 -7.15 -1.8 -7.5 -1.8 -8.05 -1.2 -8.2 L-1.7 -9.45 -1.45 -10.9 -0.4 -10.55 0.4 -10.0 M-2.3 -2.9 L-2.25 -2.9 -2.0 -2.8 -0.95 -1.65 -1.05 -1.25 -1.05 -1.15 Q-1.05 0.0 -1.95 0.0 -2.55 0.0 -2.55 -0.65 L-2.45 -1.2 Q-2.95 -1.5 -2.95 -2.25 -2.95 -2.85 -2.3 -2.9" fill="#ffff33" fill-rule="evenodd" stroke="none"/>
    <path d="M0.85 -7.65 L0.85 -7.6 Q0.85 -7.05 0.25 -7.05 -0.6 -7.05 -0.6 -8.1 -0.45 -10.05 0.15 -10.05 L0.4 -10.0 Q0.9 -9.7 0.85 -7.65 M4.4 -6.0 L4.7 -5.4 Q4.7 -4.8 4.0 -4.8 L2.45 -5.85 Q1.3 -6.45 1.3 -6.95 1.3 -7.55 2.0 -7.55 L3.4 -6.95 4.05 -6.6 4.4 -6.0" fill="#cccc00" fill-rule="evenodd" stroke="none"/>
    <path d="M4.3 -0.95 Q4.45 -1.75 3.2 -3.25 2.25 -4.4 2.25 -5.0 L0.15 -4.8 Q-1.05 -4.8 -0.55 -2.45 L-0.45 -1.2 Q0.7 -0.6 2.0 -0.15 4.1 -0.05 4.3 -0.95 5.2 -2.3 5.55 0.1 M2.0 -0.15 L1.8 0.65 -2.85 0.4 Q-2.45 -1.25 -3.5 -3.25 -4.15 -3.55 -6.45 -5.9 -5.15 -6.55 -4.15 -9.85 L-3.45 -10.9 -2.45 -10.05 -1.45 -10.9 M0.15 -4.8 Q-2.9 -6.35 -2.8 -8.75 -2.75 -10.25 -3.45 -10.9 M-2.0 -2.8 L-0.55 -2.45 M-3.5 -3.25 L-2.3 -2.9 M-4.15 -9.85 Q-4.45 -6.8 -3.15 -5.15" fill="none" stroke="#000000" stroke-linecap="round" stroke-linejoin="round" stroke-width="1.0"/>
  </g>
</svg>
