<?xml version="1.0" encoding="UTF-8" standalone="no"?>
<svg xmlns:xlink="http://www.w3.org/1999/xlink" height="2.9px" width="55.3px" xmlns="http://www.w3.org/2000/svg">
  <g transform="matrix(1.0, 0.0, 0.0, 1.0, 27.5, 1.35)">
    <path d="M9.4 -0.35 L21.0 0.1 7.5 0.65 7.45 0.65 0.25 0.8 -0.2 0.8 -9.15 0.55 -20.7 0.15 -7.2 -0.4 -7.15 -0.4 0.25 -0.55 0.5 -0.55 9.4 -0.35" fill="#ffffff" fill-rule="evenodd" stroke="none"/>
    <path d="M9.4 -0.35 L0.5 -0.55 0.25 -0.55 -7.15 -0.4 -7.2 -0.4 -20.7 0.15 -9.15 0.55 -0.2 0.8 0.25 0.8 7.45 0.65 7.5 0.65 21.0 0.1 9.4 -0.35 M0.25 -1.35 L0.35 -1.35 6.35 -1.2 27.05 -0.5 27.15 -0.5 27.6 -0.35 27.8 0.0 27.65 0.35 27.25 0.5 25.95 0.55 15.5 1.0 5.05 1.45 0.25 1.55 0.0 1.55 -0.05 1.55 -6.0 1.4 -26.7 0.7 -26.85 0.7 -27.3 0.55 -27.5 0.25 -27.3 -0.1 -26.9 -0.3 -25.65 -0.35 -25.6 -0.35 -15.2 -0.8 -4.7 -1.25 0.25 -1.35" fill="#139ffd" fill-opacity="0.3019608" fill-rule="evenodd" stroke="none"/>
  </g>
</svg>
