<?xml version="1.0" encoding="UTF-8" standalone="no"?>
<svg xmlns:xlink="http://www.w3.org/1999/xlink" height="4.2px" width="55.1px" xmlns="http://www.w3.org/2000/svg">
  <g transform="matrix(1.0, 0.0, 0.0, 1.0, 27.5, 2.0)">
    <path d="M7.25 -0.65 L7.3 -0.65 20.95 0.15 9.25 0.8 0.25 1.1 0.1 1.1 0.0 1.1 -0.1 1.1 -9.15 0.8 -20.85 0.15 -7.2 -0.65 -7.1 -0.65 0.0 -0.85 0.1 -0.85 7.25 -0.65" fill="#ffffff" fill-rule="evenodd" stroke="none"/>
    <path d="M0.1 -1.95 L4.85 -1.8 15.3 -1.15 25.7 -0.55 25.75 -0.55 27.05 -0.45 27.45 -0.2 27.6 0.3 27.4 0.75 26.95 1.0 26.85 1.0 6.15 2.0 0.15 2.2 0.1 2.2 0.0 2.2 -0.05 2.2 -6.0 2.0 -26.7 1.0 -26.85 1.0 -27.3 0.75 -27.5 0.3 -27.3 -0.2 -26.9 -0.45 -25.65 -0.55 -25.6 -0.55 -15.2 -1.2 -4.7 -1.85 0.1 -2.0 0.1 -1.95 M7.25 -0.65 L0.1 -0.85 0.0 -0.85 -7.1 -0.65 -7.2 -0.65 -20.85 0.15 -9.15 0.8 -0.1 1.1 0.0 1.1 0.1 1.1 0.25 1.1 9.25 0.8 20.95 0.15 7.3 -0.65 7.25 -0.65" fill="#ffff00" fill-opacity="0.49803922" fill-rule="evenodd" stroke="none"/>
  </g>
</svg>
