<?xml version="1.0" encoding="UTF-8" standalone="no"?>
<svg xmlns:xlink="http://www.w3.org/1999/xlink" height="27.4px" width="22.3px" xmlns="http://www.w3.org/2000/svg">
  <g transform="matrix(1.0, 0.0, 0.0, 1.0, 12.75, 29.85)">
    <path d="M7.0 -16.5 Q7.6 -15.4 6.6 -11.2 L5.5 -6.3 -4.4 -6.35 -4.4 -6.4 -4.65 -6.4 Q-5.3 -8.2 -5.6 -10.25 -5.8 -11.5 -6.35 -12.2 L-7.35 -13.05 -6.35 -12.75 Q-2.25 -11.7 4.0 -12.5 L6.0 -16.5 7.0 -16.5 M3.5 -9.5 L-2.5 -9.5 3.5 -9.5 M2.5 -7.5 L-0.5 -7.5 2.5 -7.5" fill="url(#gradient0)" fill-rule="evenodd" stroke="none"/>
    <path d="M5.5 -6.3 L5.55 -4.65 Q5.55 -3.4 0.4 -3.0 -4.75 -2.6 -4.4 -6.35 L5.5 -6.3" fill="#330000" fill-rule="evenodd" stroke="none"/>
    <path d="M-5.05 -29.35 Q-4.55 -28.5 -0.35 -28.6 2.65 -28.35 3.85 -27.3 -3.9 -25.6 -5.05 -29.35" fill="#2c2c2c" fill-rule="evenodd" stroke="none"/>
    <path d="M3.85 -27.3 L4.4 -27.4 Q7.05 -26.95 9.05 -20.5 L7.65 -20.5 8.0 -18.5 9.05 -18.5 9.0 -16.5 7.0 -16.5 6.0 -16.5 4.0 -12.5 Q-2.25 -11.7 -6.35 -12.75 L-7.35 -13.05 Q-9.25 -16.5 -8.6 -23.45 -7.95 -26.55 -6.85 -28.0 -6.05 -29.1 -5.05 -29.35 -3.9 -25.6 3.85 -27.3 M3.65 -18.5 L0.65 -18.5 3.65 -18.5 M-2.35 -18.5 L-4.35 -18.5 -2.35 -18.5 M-3.35 -14.5 L1.65 -14.5 -3.35 -14.5 M2.65 -16.5 L-1.35 -16.5 2.65 -16.5" fill="url(#gradient1)" fill-rule="evenodd" stroke="none"/>
    <path d="M-6.35 -12.2 L-6.35 -10.4 Q-6.4 -9.25 -7.25 -8.45 -8.1 -7.55 -9.3 -7.55 -10.5 -7.55 -11.4 -8.45 -12.2 -9.25 -12.25 -10.4 L-12.25 -11.75 -9.75 -13.75 -9.75 -15.5 -12.25 -15.5 -12.25 -17.25 -9.8 -17.25 -9.8 -19.1 -12.25 -21.1 -12.25 -26.45 Q-12.2 -27.65 -11.4 -28.5 -10.5 -29.35 -9.3 -29.35 -8.1 -29.35 -7.25 -28.5 L-6.85 -28.0 Q-7.95 -26.55 -8.6 -23.45 -9.25 -16.5 -7.35 -13.05 L-6.35 -12.2" fill="url(#gradient2)" fill-rule="evenodd" stroke="none"/>
    <path d="M-12.25 -11.75 L-12.25 -15.5 -9.75 -15.5 -9.75 -13.75 -12.25 -11.75 M-12.25 -17.25 L-12.25 -21.1 -9.8 -19.1 -9.8 -17.25 -12.25 -17.25" fill="#2265ff" fill-rule="evenodd" stroke="none"/>
    <path d="M3.85 -27.3 L4.4 -27.4 Q7.05 -26.95 9.05 -20.5 L7.65 -20.5 8.0 -18.5 9.05 -18.5 9.0 -16.5 7.0 -16.5 Q7.6 -15.4 6.6 -11.2 L5.5 -6.3 M5.55 -4.65 Q5.55 -3.4 0.4 -3.0 -4.75 -2.6 -4.4 -6.35 L-4.55 -6.35 -4.65 -6.4 Q-5.3 -8.2 -5.6 -10.25 -5.8 -11.5 -6.35 -12.2 L-6.35 -10.4 Q-6.4 -9.25 -7.25 -8.45 -8.1 -7.55 -9.3 -7.55 -10.5 -7.55 -11.4 -8.45 -12.2 -9.25 -12.25 -10.4 L-12.25 -11.75 -12.25 -15.5 -12.25 -17.25 -12.25 -21.1 -12.25 -26.45 Q-12.2 -27.65 -11.4 -28.5 -10.5 -29.35 -9.3 -29.35 -8.1 -29.35 -7.25 -28.5 L-6.85 -28.0 Q-6.05 -29.1 -5.05 -29.35 -3.9 -25.6 3.85 -27.3 M0.65 -18.5 L3.65 -18.5 M7.0 -16.5 L6.0 -16.5 4.0 -12.5 Q-2.25 -11.7 -6.35 -12.75 L-7.35 -13.05 -6.35 -12.2 M-7.35 -13.05 Q-9.25 -16.5 -8.6 -23.45 -7.95 -26.55 -6.85 -28.0 M-4.35 -18.5 L-2.35 -18.5 M-12.25 -15.5 L-9.75 -15.5 -9.75 -13.75 -12.25 -11.75 M-12.25 -21.1 L-9.8 -19.1 -9.8 -17.25 -12.25 -17.25 M-4.4 -6.35 L-4.4 -6.4 -4.65 -6.4 M-1.35 -16.5 L2.65 -16.5 M1.65 -14.5 L-3.35 -14.5" fill="none" stroke="#000000" stroke-linecap="round" stroke-linejoin="round" stroke-width="1.0"/>
    <path d="M5.5 -6.3 L5.55 -4.65 M-5.05 -29.35 Q-4.55 -28.5 -0.35 -28.6 2.65 -28.35 3.85 -27.3 M-4.4 -6.35 L-4.55 -6.35 M5.5 -6.3 L-4.4 -6.35 M-0.5 -7.5 L2.5 -7.5 M-2.5 -9.5 L3.5 -9.5" fill="none" stroke="#000000" stroke-linecap="round" stroke-linejoin="round" stroke-width="1.0"/>
  </g>
  <defs>
    <radialGradient cx="0" cy="0" gradientTransform="matrix(0.0098, 0.0, 0.0, 0.0191, 1.0, -15.0)" gradientUnits="userSpaceOnUse" id="gradient0" r="819.2" spreadMethod="pad">
      <stop offset="0.0" stop-color="#444444"/>
      <stop offset="1.0" stop-color="#1a1a1a"/>
    </radialGradient>
    <radialGradient cx="0" cy="0" gradientTransform="matrix(0.0198, 0.0, 1.0E-4, 0.0343, 3.4, -20.25)" gradientUnits="userSpaceOnUse" id="gradient1" r="819.2" spreadMethod="pad">
      <stop offset="0.0" stop-color="#860202"/>
      <stop offset="1.0" stop-color="#000000"/>
    </radialGradient>
    <radialGradient cx="0" cy="0" gradientTransform="matrix(0.0066, 0.0, 0.0, 0.0272, -10.35, -24.55)" gradientUnits="userSpaceOnUse" id="gradient2" r="819.2" spreadMethod="pad">
      <stop offset="0.0" stop-color="#7f0101"/>
      <stop offset="1.0" stop-color="#2e0000"/>
    </radialGradient>
  </defs>
</svg>
