<?xml version="1.0" encoding="UTF-8" standalone="no"?>
<svg xmlns:xlink="http://www.w3.org/1999/xlink" height="27.4px" width="22.65px" xmlns="http://www.w3.org/2000/svg">
  <g transform="matrix(1.0, 0.0, 0.0, 1.0, 12.75, 29.85)">
    <path d="M6.25 -9.7 Q5.9 -7.55 6.05 -6.3 L-5.55 -6.3 Q-5.3 -8.2 -5.6 -10.25 -5.8 -11.5 -6.35 -12.2 L-7.35 -13.05 -6.35 -12.75 6.25 -9.7" fill="url(#gradient0)" fill-rule="evenodd" stroke="none"/>
    <path d="M-5.05 -29.35 Q-4.55 -28.5 -0.35 -28.6 2.65 -28.35 3.85 -27.3 -3.9 -25.6 -5.05 -29.35" fill="#2c2c2c" fill-rule="evenodd" stroke="none"/>
    <path d="M3.85 -27.3 L4.4 -27.4 Q7.05 -26.95 9.05 -20.5 9.9 -16.3 8.75 -11.75 8.5 -9.8 6.25 -9.7 L-6.35 -12.75 -7.35 -13.05 Q-9.25 -16.5 -8.6 -23.45 -7.95 -26.55 -6.85 -28.0 -6.05 -29.1 -5.05 -29.35 -3.9 -25.6 3.85 -27.3 M6.05 -6.3 L7.55 -6.3 Q7.45 -4.55 6.6 -3.95 5.75 -3.4 0.6 -3.0 -4.55 -2.6 -5.55 -6.3 L6.05 -6.3 M-3.55 -18.6 L-5.55 -18.6 -3.55 -18.6 M-4.55 -14.6 L0.45 -14.6 -4.55 -14.6 M1.45 -16.6 L-2.55 -16.6 1.45 -16.6 M2.45 -18.6 L-0.55 -18.6 2.45 -18.6" fill="#c08a54" fill-rule="evenodd" stroke="none"/>
    <path d="M-6.35 -12.2 L-6.35 -10.4 Q-6.4 -9.25 -7.25 -8.45 -8.1 -7.55 -9.3 -7.55 -10.5 -7.55 -11.4 -8.45 -12.2 -9.25 -12.25 -10.4 L-12.25 -15.5 -12.25 -17.25 -12.25 -26.45 Q-12.2 -27.65 -11.4 -28.5 -10.5 -29.35 -9.3 -29.35 -8.1 -29.35 -7.25 -28.5 L-6.85 -28.0 Q-7.95 -26.55 -8.6 -23.45 -9.25 -16.5 -7.35 -13.05 L-6.35 -12.2 M-9.75 -15.5 L-12.25 -15.5 -9.75 -15.5 M-9.8 -17.25 L-12.25 -17.25 -9.8 -17.25" fill="#956637" fill-rule="evenodd" stroke="none"/>
    <path d="M3.85 -27.3 L4.4 -27.4 Q7.05 -26.95 9.05 -20.5 9.9 -16.3 8.75 -11.75 8.5 -9.8 6.25 -9.7 5.9 -7.55 6.05 -6.3 L7.55 -6.3 Q7.45 -4.55 6.6 -3.95 5.75 -3.4 0.6 -3.0 -4.55 -2.6 -5.55 -6.3 -5.3 -8.2 -5.6 -10.25 -5.8 -11.5 -6.35 -12.2 L-6.35 -10.4 Q-6.4 -9.25 -7.25 -8.45 -8.1 -7.55 -9.3 -7.55 -10.5 -7.55 -11.4 -8.45 -12.2 -9.25 -12.25 -10.4 L-12.25 -15.5 -12.25 -17.25 -12.25 -26.45 Q-12.2 -27.65 -11.4 -28.5 -10.5 -29.35 -9.3 -29.35 -8.1 -29.35 -7.25 -28.5 L-6.85 -28.0 Q-6.05 -29.1 -5.05 -29.35 -4.55 -28.5 -0.35 -28.6 2.65 -28.35 3.85 -27.3 -3.9 -25.6 -5.05 -29.35 M-5.55 -18.6 L-3.55 -18.6 M6.25 -9.7 L-6.35 -12.75 -7.35 -13.05 -6.35 -12.2 M-7.35 -13.05 Q-9.25 -16.5 -8.6 -23.45 -7.95 -26.55 -6.85 -28.0 M-12.25 -17.25 L-9.8 -17.25 M-12.25 -15.5 L-9.75 -15.5 M6.05 -6.3 L-5.55 -6.3 M-0.55 -18.6 L2.45 -18.6 M-2.55 -16.6 L1.45 -16.6 M0.45 -14.6 L-4.55 -14.6" fill="none" stroke="#000000" stroke-linecap="round" stroke-linejoin="round" stroke-width="1.0"/>
  </g>
  <defs>
    <radialGradient cx="0" cy="0" gradientTransform="matrix(0.0098, 0.0, 0.0, 0.0191, 1.0, -15.0)" gradientUnits="userSpaceOnUse" id="gradient0" r="819.2" spreadMethod="pad">
      <stop offset="0.0" stop-color="#444444"/>
      <stop offset="1.0" stop-color="#1a1a1a"/>
    </radialGradient>
  </defs>
</svg>
