<?xml version="1.0" encoding="UTF-8" standalone="no"?>
<svg xmlns:xlink="http://www.w3.org/1999/xlink" height="25.7px" width="15.35px" xmlns="http://www.w3.org/2000/svg">
  <g transform="matrix(1.0, 0.0, 0.0, 1.0, 7.35, 22.2)">
    <path d="M6.25 -10.45 Q7.65 -10.35 7.55 -8.05 8.1 -7.2 8.0 -4.95 8.0 -3.05 6.75 -2.9 L6.6 -2.9 Q5.75 -2.95 5.45 -3.9 L3.7 -3.4 4.35 -3.0 5.2 -2.25 Q5.6 -1.55 5.6 -0.8 L4.75 0.25 3.75 0.9 Q2.35 0.9 2.75 -1.35 2.55 -2.9 2.95 -3.3 L2.45 -3.3 Q1.05 -3.35 0.6 -4.95 L0.35 -4.9 Q0.15 -4.2 -1.0 -4.1 L-0.9 -2.7 Q-0.9 -1.75 -1.7 -1.75 -2.35 -1.75 -2.8 -2.95 L-3.35 -5.55 -3.3 -5.9 Q-4.65 -5.85 -4.9 -4.3 -5.1 -2.75 -6.15 -2.7 L-6.6 -2.8 Q-7.7 -3.05 -7.2 -5.5 -6.75 -8.0 -7.1 -9.2 L-5.1 -9.85 -5.2 -9.4 Q-5.3 -7.8 -4.2 -7.8 -3.1 -7.8 -3.1 -9.25 -2.95 -9.9 -3.25 -10.2 L-1.75 -9.95 Q-1.6 -9.05 0.65 -8.75 L1.3 -8.1 2.1 -8.25 3.6 -8.4 Q3.55 -7.3 4.65 -7.25 6.35 -7.3 6.35 -8.6 L6.25 -10.45 M1.05 -2.9 Q2.7 -2.9 2.25 -0.55 2.25 1.5 1.55 1.5 L0.15 -1.85 Q0.15 -2.95 1.05 -2.9 M-3.75 -2.25 L-1.65 0.05 Q-1.7 1.1 -2.5 1.1 -3.4 1.1 -4.4 -1.15 -4.4 -2.25 -3.75 -2.25" fill="#3333cc" fill-rule="evenodd" stroke="none"/>
    <path d="M4.4 -20.4 L4.25 -21.6 Q4.25 -22.2 4.7 -22.2 5.0 -22.2 5.35 -20.05 L5.85 -15.6 Q5.85 -14.9 5.65 -14.7 L5.4 -14.6 Q5.35 -14.6 5.0 -14.85 L4.9 -15.95 4.85 -16.7 Q5.15 -16.8 5.15 -17.15 L4.75 -20.05 4.5 -20.45 4.4 -20.4 M5.6 -14.4 L6.15 -11.55 6.25 -10.45 6.35 -8.6 Q6.35 -7.3 4.65 -7.25 3.55 -7.3 3.6 -8.4 L3.65 -8.6 3.55 -8.6 0.65 -8.75 Q-1.6 -9.05 -1.75 -9.95 L-1.8 -10.1 Q-1.8 -11.25 0.6 -11.25 3.2 -11.25 4.25 -10.65 L4.3 -11.35 4.45 -11.75 Q5.6 -11.8 5.6 -14.35 L5.6 -14.4 M-5.1 -9.85 Q-4.9 -10.45 -4.1 -10.45 L-3.25 -10.2 Q-2.95 -9.9 -3.1 -9.25 -3.1 -7.8 -4.2 -7.8 -5.3 -7.8 -5.2 -9.4 L-5.1 -9.85 M3.75 -12.2 L3.65 -12.2 Q3.35 -12.25 3.2 -12.4 L2.55 -12.25 2.55 -12.3 Q2.55 -13.1 0.6 -13.1 L0.15 -12.9 0.15 -13.25 Q0.15 -14.4 1.95 -14.4 L3.25 -14.25 3.65 -14.4 4.15 -14.15 4.3 -13.25 Q4.35 -12.3 3.75 -12.2" fill="#7171db" fill-rule="evenodd" stroke="none"/>
    <path d="M4.85 -16.7 L4.6 -16.65 Q4.1 -16.65 4.05 -17.6 L4.05 -18.55 Q4.05 -19.6 4.2 -20.05 L4.4 -20.4 4.5 -20.45 4.75 -20.05 5.15 -17.15 Q5.15 -16.8 4.85 -16.7 M5.65 -14.7 L5.6 -14.4 5.6 -14.35 Q5.6 -11.8 4.45 -11.75 L4.4 -11.75 Q3.9 -11.75 3.75 -12.2 4.35 -12.3 4.3 -13.25 L4.15 -14.15 4.9 -15.95 5.0 -14.85 Q5.35 -14.6 5.4 -14.6 L5.65 -14.7 M2.55 -12.25 Q2.5 -11.75 1.6 -11.75 0.0 -11.75 0.0 -12.6 L0.15 -12.9 0.6 -13.1 Q2.55 -13.1 2.55 -12.3 L2.55 -12.25" fill="#3535ca" fill-rule="evenodd" stroke="none"/>
    <path d="M6.75 -2.9 L6.0 -0.4 Q5.25 1.25 3.95 2.7 L-0.45 3.0 -4.1 0.25 -6.05 -2.25 -5.5 -2.1 Q-4.35 -2.1 -2.8 -2.95 -2.35 -1.75 -1.7 -1.75 -0.9 -1.75 -0.9 -2.7 L-1.0 -4.1 Q0.15 -4.2 0.35 -4.9 L0.6 -4.95 Q1.05 -3.35 2.45 -3.3 L2.95 -3.3 Q2.55 -2.9 2.75 -1.35 2.35 0.9 3.75 0.9 L4.75 0.25 5.6 -0.8 Q5.6 -1.55 5.2 -2.25 L4.35 -3.0 3.7 -3.4 5.45 -3.9 Q5.75 -2.95 6.6 -2.9 L6.75 -2.9 M1.05 -2.9 Q0.15 -2.95 0.15 -1.85 L1.55 1.5 Q2.25 1.5 2.25 -0.55 2.7 -2.9 1.05 -2.9 M-3.75 -2.25 Q-4.4 -2.25 -4.4 -1.15 -3.4 1.1 -2.5 1.1 -1.7 1.1 -1.65 0.05 L-3.75 -2.25" fill="#0c0d30" fill-rule="evenodd" stroke="none"/>
    <path d="M-6.05 -2.25 L-6.6 -2.8 -6.15 -2.7 Q-5.1 -2.75 -4.9 -4.3 -4.65 -5.85 -3.3 -5.9 L-3.35 -5.55 -2.8 -2.95 Q-4.35 -2.1 -5.5 -2.1 L-6.05 -2.25" fill="#202079" fill-rule="evenodd" stroke="none"/>
    <path d="M6.75 -2.9 L6.0 -0.4 Q5.25 1.25 3.95 2.7 M-0.45 3.0 L-4.1 0.25 -6.05 -2.25 -6.6 -2.8" fill="none" stroke="#000000" stroke-linecap="round" stroke-linejoin="round" stroke-width="1.0"/>
    <path d="M3.95 2.7 L-0.45 3.0" fill="none" stroke="#000000" stroke-linecap="round" stroke-linejoin="round" stroke-width="1.0"/>
  </g>
</svg>
