<?xml version="1.0" encoding="UTF-8" standalone="no"?>
<svg xmlns:xlink="http://www.w3.org/1999/xlink" height="21.1px" width="18.95px" xmlns="http://www.w3.org/2000/svg">
  <g transform="matrix(1.0, 0.0, 0.0, 1.0, 9.25, 19.55)">
    <path d="M4.45 -5.35 L4.4 -5.2 4.35 -4.7 -3.95 -4.5 -3.85 -5.35 4.45 -5.35 M-4.3 -10.25 L-4.35 -10.9 -4.4 -11.1 -4.35 -11.1 -0.2 -11.05 -0.2 -10.25 -4.3 -10.25" fill="#fcccc7" fill-rule="evenodd" stroke="none"/>
    <path d="M3.05 -1.3 L3.2 0.05 Q0.3 1.85 -1.75 0.35 L-2.4 -0.65 -2.4 -0.95 1.3 -1.3 3.05 -1.3" fill="#1a1a1a" fill-rule="evenodd" stroke="none"/>
    <path d="M-6.5 -4.7 Q-8.2 -10.0 -6.8 -12.65 L-5.4 -12.5 Q-4.5 -12.0 -4.4 -11.6 L-4.35 -11.1 -4.4 -11.1 -4.35 -10.9 -4.3 -10.25 -4.0 -8.1 Q-3.6 -4.35 -4.4 -4.0 L-5.95 -3.45 -6.5 -4.7" fill="#151515" fill-rule="evenodd" stroke="none"/>
    <path d="M5.8 -11.6 L6.15 -11.2 8.0 -8.95 Q4.25 -9.5 3.7 -7.9 L3.7 -7.95 0.3 -7.4 0.3 -11.6 Q1.5 -12.45 5.8 -11.6" fill="url(#gradient0)" fill-rule="evenodd" stroke="none"/>
    <path d="M8.0 -8.95 L8.2 -8.05 6.85 -8.05 Q5.25 -7.9 5.05 -7.4 L4.45 -5.35 -3.85 -5.35 -3.95 -4.5 4.35 -4.7 4.35 -1.3 4.5 -1.25 3.05 -1.3 1.3 -1.3 -2.4 -0.95 -4.75 -1.0 Q-5.9 -2.9 -6.5 -4.7 L-5.95 -3.45 -4.4 -4.0 Q-3.6 -4.35 -4.0 -8.1 L-4.3 -10.25 -0.2 -10.25 -0.2 -11.05 -4.35 -11.1 -4.4 -11.6 Q-4.5 -12.0 -5.4 -12.5 L-6.8 -12.65 -8.75 -13.65 -6.7 -14.4 -5.2 -14.65 -2.75 -14.65 Q3.0 -14.0 4.7 -12.65 L5.8 -11.6 Q1.5 -12.45 0.3 -11.6 L0.3 -7.4 3.7 -7.95 3.7 -7.9 Q4.25 -9.5 8.0 -8.95 M-4.3 -13.1 L-5.2 -13.8 -5.2 -14.65 -5.2 -13.8 -4.3 -13.1" fill="url(#gradient1)" fill-rule="evenodd" stroke="none"/>
    <path d="M8.2 -8.05 Q8.95 -7.65 9.15 -5.65 9.4 -3.5 8.6 -0.65 L4.5 -1.25 4.35 -1.3 4.35 -4.7 4.4 -5.2 4.45 -5.35 5.05 -7.4 Q5.25 -7.9 6.85 -8.05 L8.2 -8.05 M7.15 -2.45 L6.05 -2.45 6.05 -3.6 6.05 -2.45 7.15 -2.45" fill="url(#gradient2)" fill-rule="evenodd" stroke="none"/>
    <path d="M5.8 -11.6 L6.15 -11.2 8.0 -8.95 8.2 -8.05 Q8.95 -7.65 9.15 -5.65 9.4 -3.5 8.6 -0.65 L4.5 -1.25 3.05 -1.3 3.2 0.05 Q0.3 1.85 -1.75 0.35 L-2.4 -0.65 -2.4 -0.95 -4.75 -1.0 Q-5.9 -2.9 -6.5 -4.7 -8.2 -10.0 -6.8 -12.65 L-8.75 -13.65 -6.7 -14.4 -5.2 -14.65 -5.2 -19.05 M8.2 -8.05 L6.85 -8.05 Q5.25 -7.9 5.05 -7.4 L4.45 -5.35 4.4 -5.2 4.35 -4.7 4.35 -1.3 4.5 -1.25 M8.0 -8.95 Q4.25 -9.5 3.7 -7.9 L3.7 -7.95 0.3 -7.4 0.3 -11.6 Q1.5 -12.45 5.8 -11.6 L4.7 -12.65 Q3.0 -14.0 -2.75 -14.65 L-5.2 -14.65 -5.2 -13.8 -4.3 -13.1 M3.05 -1.3 L1.3 -1.3 -2.4 -0.95 M-4.35 -11.1 L-4.4 -11.6 Q-4.5 -12.0 -5.4 -12.5 L-6.8 -12.65 M-4.35 -11.1 L-4.4 -11.1 -4.35 -10.9 -4.3 -10.25 -0.2 -10.25 -0.2 -11.05 -4.35 -11.1 M-6.5 -4.7 L-5.95 -3.45 -4.4 -4.0 Q-3.6 -4.35 -4.0 -8.1 L-4.3 -10.25 M4.45 -5.35 L-3.85 -5.35 -3.95 -4.5 4.35 -4.7" fill="none" stroke="#000000" stroke-linecap="round" stroke-linejoin="round" stroke-width="1.0"/>
    <path d="M6.05 -3.6 L6.05 -2.45 7.15 -2.45" fill="none" stroke="#000000" stroke-linecap="round" stroke-linejoin="round" stroke-width="1.0"/>
  </g>
  <defs>
    <linearGradient gradientTransform="matrix(0.0087, -0.0068, 0.0018, 0.0023, 5.2, -10.65)" gradientUnits="userSpaceOnUse" id="gradient0" spreadMethod="pad" x1="-819.2" x2="819.2">
      <stop offset="0.0" stop-color="#78aefe"/>
      <stop offset="1.0" stop-color="#000000"/>
      <stop offset="1.0" stop-color="#ffffff"/>
    </linearGradient>
    <radialGradient cx="0" cy="0" gradientTransform="matrix(-0.0095, 0.0166, -0.0184, -0.0106, -1.65, -8.65)" gradientUnits="userSpaceOnUse" id="gradient1" r="819.2" spreadMethod="pad">
      <stop offset="0.0" stop-color="#f20404"/>
      <stop offset="1.0" stop-color="#000000"/>
    </radialGradient>
    <radialGradient cx="0" cy="0" gradientTransform="matrix(0.0056, 0.0, 0.0, 0.0096, 6.85, -4.25)" gradientUnits="userSpaceOnUse" id="gradient2" r="819.2" spreadMethod="pad">
      <stop offset="0.0" stop-color="#ffffff"/>
      <stop offset="1.0" stop-color="#000000"/>
    </radialGradient>
  </defs>
</svg>
