<?xml version="1.0" encoding="UTF-8" standalone="no"?>
<svg xmlns:xlink="http://www.w3.org/1999/xlink" height="25.5px" width="22.0px" xmlns="http://www.w3.org/2000/svg">
  <g transform="matrix(1.0, 0.0, 0.0, 1.0, 9.8, 23.95)">
    <path d="M-6.7 -3.7 Q-2.55 -4.75 0.3 -1.3 L2.4 -1.3 Q2.2 1.0 0.75 1.05 -0.75 1.05 -1.75 0.35 L-3.25 -1.1 Q-5.8 -2.6 -6.7 -3.7" fill="#1a1a1a" fill-rule="evenodd" stroke="none"/>
    <path d="M8.65 -8.7 L7.7 -8.5 Q6.85 -8.5 6.25 -9.1 5.65 -9.7 5.65 -10.55 5.65 -11.4 6.25 -12.0 L6.85 -12.4 7.2 -11.8 7.2 -11.85 11.2 -11.85 11.7 -9.25 8.45 -9.25 8.65 -8.7" fill="#333333" fill-rule="evenodd" stroke="none"/>
    <path d="M6.0 -13.5 L6.85 -12.4 6.25 -12.0 Q5.65 -11.4 5.65 -10.55 5.65 -9.7 6.25 -9.1 6.85 -8.5 7.7 -8.5 L8.65 -8.7 Q9.7 -5.85 10.4 -1.3 L2.4 -1.3 0.3 -1.3 Q-2.55 -4.75 -6.7 -3.7 -10.85 -12.4 -8.35 -13.6 L-6.1 -14.1 6.0 -13.5 M-5.75 -11.65 L-6.1 -14.1 -5.75 -11.65 M4.15 -9.5 L1.1 -9.5 4.15 -9.5 M2.85 -11.8 L-2.95 -11.8 2.85 -11.8" fill="#f0c468" fill-rule="evenodd" stroke="none"/>
    <path d="M6.0 -13.5 L-6.1 -14.1 -8.35 -13.6 Q-10.85 -12.4 -6.7 -3.7 -5.8 -2.6 -3.25 -1.1 L-1.75 0.35 Q-0.75 1.05 0.75 1.05 2.2 1.0 2.4 -1.3 L10.4 -1.3 M2.4 -1.3 L0.3 -1.3 Q-2.55 -4.75 -6.7 -3.7 M7.2 -11.8 L7.2 -11.85 11.2 -11.85 11.7 -9.25 8.45 -9.25" fill="none" stroke="#000000" stroke-linecap="round" stroke-linejoin="round" stroke-width="1.0"/>
    <path d="M6.85 -12.4 L6.0 -13.5 M-6.1 -14.1 L-5.75 -11.65 M10.4 -1.3 Q9.7 -5.85 8.65 -8.7 L7.7 -8.5 Q6.85 -8.5 6.25 -9.1 5.65 -9.7 5.65 -10.55 5.65 -11.4 6.25 -12.0 L6.85 -12.4 7.2 -11.8 M8.45 -9.25 L8.65 -8.7 M1.1 -9.5 L4.15 -9.5 M-6.1 -14.1 L-7.5 -23.45 M-2.95 -11.8 L2.85 -11.8" fill="none" stroke="#000000" stroke-linecap="round" stroke-linejoin="round" stroke-width="1.0"/>
  </g>
</svg>
