<?xml version="1.0" encoding="UTF-8" standalone="no"?>
<svg xmlns:xlink="http://www.w3.org/1999/xlink" height="5.85px" width="8.25px" xmlns="http://www.w3.org/2000/svg">
  <g transform="matrix(1.0, 0.0, 0.0, 1.0, 4.3, 4.0)">
    <path d="M2.95 -1.55 L3.1 0.05 Q-0.15 2.4 -2.75 0.45 L-3.55 -0.75 -3.55 -1.1 0.9 -1.55 2.95 -1.55" fill="#1a1a1a" fill-rule="evenodd" stroke="none"/>
    <path d="M2.95 -1.55 L3.1 0.05 Q-0.15 2.4 -2.75 0.45 L-3.55 -0.75 -3.55 -1.1 0.9 -1.55 2.95 -1.55 Z" fill="none" stroke="#000000" stroke-linecap="round" stroke-linejoin="round" stroke-width="1.0"/>
    <path d="M3.9 -1.65 Q3.9 -0.55 2.8 -0.55 2.4 -1.1 1.15 -1.1 L-1.6 -0.8 -2.55 -0.9 -3.25 -0.55 Q-3.85 -0.55 -3.85 -1.45 L-4.3 -2.05 -3.85 -2.65 -3.05 -2.65 Q-2.75 -2.6 -2.65 -3.1 -2.45 -3.8 -0.55 -4.0 3.95 -3.2 3.95 -2.35 L3.9 -1.65 M-0.55 -3.05 Q-2.05 -3.05 -2.05 -2.4 -2.05 -1.8 -0.5 -1.8 1.05 -1.8 1.05 -2.4 1.3 -3.05 -0.55 -3.05" fill="#3333cc" fill-rule="evenodd" stroke="none"/>
    <path d="M-0.55 -3.05 Q1.3 -3.05 1.05 -2.4 1.05 -1.8 -0.5 -1.8 -2.05 -1.8 -2.05 -2.4 -2.05 -3.05 -0.55 -3.05" fill="#8585e0" fill-rule="evenodd" stroke="none"/>
  </g>
</svg>
