<?xml version="1.0" encoding="UTF-8" standalone="no"?>
<svg xmlns:xlink="http://www.w3.org/1999/xlink" height="37.15px" width="14.1px" xmlns="http://www.w3.org/2000/svg">
  <g transform="matrix(1.0, 0.0, 0.0, 1.0, 5.15, 4.1)">
    <path d="M-3.25 4.85 L-2.6 1.15 Q-2.55 0.85 -1.65 1.0 -0.75 1.1 -0.2 1.6 0.75 2.35 1.3 5.25 -1.2 4.5 -3.25 4.85" fill="#666666" fill-rule="evenodd" stroke="none"/>
    <path d="M3.85 22.35 L5.3 24.8 Q5.2 24.7 4.8 25.2 L4.6 25.35 Q2.9 24.45 2.1 25.6 L0.85 23.7 Q1.6 22.7 3.85 22.35" fill="#2f2f2f" fill-rule="evenodd" stroke="none"/>
    <path d="M5.3 24.8 L5.35 24.85 4.8 25.2 Q5.2 24.7 5.3 24.8" fill="#600f06" fill-rule="evenodd" stroke="none"/>
    <path d="M1.1 15.0 L2.65 19.8 Q1.95 19.95 1.2 20.55 0.4 21.05 0.45 22.9 L-3.0 15.0 Q-0.5 16.0 1.1 15.0 M5.3 24.8 Q5.45 24.7 5.55 24.65 5.65 24.55 6.0 25.0 L6.85 26.5 8.25 29.45 Q8.6 30.2 8.4 31.15 8.15 32.05 7.15 32.3 L5.55 32.55 4.45 32.25 Q3.95 31.95 2.8 30.05 1.65 28.05 2.1 25.6 2.9 24.45 4.6 25.35 L4.8 25.2 5.35 24.85 5.3 24.8 M6.85 26.5 Q6.8 27.45 4.6 25.35 6.8 27.45 6.85 26.5 M-0.25 18.0 L-0.7 17.0 -0.25 18.0" fill="#f0c468" fill-rule="evenodd" stroke="none"/>
    <path d="M1.45 7.95 L1.4 10.7 1.4 10.85 1.35 11.45 1.25 12.7 0.9 13.65 Q-1.6 13.0 -3.35 14.0 L-3.7 11.0 Q-3.9 9.7 -3.75 7.65 -1.2 9.25 1.45 7.95 M1.4 10.85 L-3.7 11.0 1.4 10.85" fill="#222222" fill-rule="evenodd" stroke="none"/>
    <path d="M1.3 5.25 L1.4 6.9 1.45 7.95 Q-1.2 9.25 -3.75 7.65 L-3.25 4.85 Q-1.2 4.5 1.3 5.25 M0.9 13.65 L0.95 13.7 Q0.95 14.2 1.1 14.45 L1.1 15.0 Q-0.5 16.0 -3.0 15.0 L-3.35 14.0 Q-1.6 13.0 0.9 13.65 M2.65 19.8 L3.85 22.35 Q1.6 22.7 0.85 23.7 L0.45 22.9 Q0.4 21.05 1.2 20.55 1.95 19.95 2.65 19.8" fill="#a47a4d" fill-rule="evenodd" stroke="none"/>
    <path d="M1.3 5.25 L1.4 6.9 1.45 7.95 1.4 10.7 1.4 10.85 1.35 11.45 1.25 12.7 0.9 13.65 0.95 13.7 Q0.95 14.2 1.1 14.45 L1.1 15.0 2.65 19.8 3.85 22.35 5.3 24.8 Q5.45 24.7 5.55 24.65 5.65 24.55 6.0 25.0 L6.85 26.5 8.25 29.45 Q8.6 30.2 8.4 31.15 8.15 32.05 7.15 32.3 L5.55 32.55 4.45 32.25 Q3.95 31.95 2.8 30.05 1.65 28.05 2.1 25.6 L0.85 23.7 0.45 22.9 -3.0 15.0 -3.35 14.0 -3.7 11.0 Q-3.9 9.7 -3.75 7.65 L-3.25 4.85 -2.6 1.15 Q-2.55 0.85 -1.65 1.0 -0.75 1.1 -0.2 1.6 0.75 2.35 1.3 5.25 -1.2 4.5 -3.25 4.85 M3.85 22.35 Q1.6 22.7 0.85 23.7 M0.45 22.9 Q0.4 21.05 1.2 20.55 1.95 19.95 2.65 19.8 M5.3 24.8 L5.35 24.85 M4.8 25.2 L4.6 25.35 Q6.8 27.45 6.85 26.5 M2.1 25.6 Q2.9 24.45 4.6 25.35 M4.8 25.2 Q5.2 24.7 5.3 24.8 M-0.7 17.0 L-0.25 18.0 M1.1 15.0 Q-0.5 16.0 -3.0 15.0 M1.45 7.95 Q-1.2 9.25 -3.75 7.65 M-3.7 11.0 L1.4 10.85 M0.9 13.65 Q-1.6 13.0 -3.35 14.0" fill="none" stroke="#000000" stroke-linecap="round" stroke-linejoin="round" stroke-width="1.0"/>
    <path d="M1.8 -0.55 Q1.6 -1.3 0.9 -1.7 L-0.55 -1.85 Q-1.3 -1.65 -1.7 -1.0 -2.05 -0.3 -1.85 0.45 -1.65 1.25 -1.0 1.65 L0.5 1.85 Q1.25 1.65 1.6 0.95 2.0 0.25 1.8 -0.55 M3.2 1.15 Q3.2 5.1 1.95 7.55 0.1 6.6 -1.9 7.1 L-3.85 7.55 Q-5.1 2.75 -4.4 0.55 -3.75 -1.7 -2.15 -2.8 -0.6 -4.0 1.35 -3.4 3.2 -2.8 3.2 1.15 M-1.2 3.45 L-1.95 3.35 -2.5 3.8 -2.6 4.5 -2.15 5.1 -1.45 5.2 Q-1.05 5.1 -0.85 4.75 -0.65 4.4 -0.75 4.0 -0.85 3.65 -1.2 3.45" fill="#f0c468" fill-rule="evenodd" stroke="none"/>
    <path d="M1.8 -0.55 Q2.0 0.25 1.6 0.95 1.25 1.65 0.5 1.85 L-1.0 1.65 Q-1.65 1.25 -1.85 0.45 -2.05 -0.3 -1.7 -1.0 -1.3 -1.65 -0.55 -1.85 L0.9 -1.7 Q1.6 -1.3 1.8 -0.55 M-1.2 3.45 Q-0.85 3.65 -0.75 4.0 -0.65 4.4 -0.85 4.75 -1.05 5.1 -1.45 5.2 L-2.15 5.1 -2.6 4.5 -2.5 3.8 -1.95 3.35 -1.2 3.45" fill="#a47a4d" fill-rule="evenodd" stroke="none"/>
    <path d="M3.2 1.15 Q3.2 -2.8 1.35 -3.4 -0.6 -4.0 -2.15 -2.8 -3.75 -1.7 -4.4 0.55 -5.1 2.75 -3.85 7.55 L-1.9 7.1 Q0.1 6.6 1.95 7.55 3.2 5.1 3.2 1.15" fill="none" stroke="#000000" stroke-linecap="round" stroke-linejoin="round" stroke-width="1.0"/>
    <path d="M1.8 -0.55 Q2.0 0.25 1.6 0.95 1.25 1.65 0.5 1.85 L-1.0 1.65 Q-1.65 1.25 -1.85 0.45 -2.05 -0.3 -1.7 -1.0 -1.3 -1.65 -0.55 -1.85 L0.9 -1.7 Q1.6 -1.3 1.8 -0.55 M-1.2 3.45 Q-0.85 3.65 -0.75 4.0 -0.65 4.4 -0.85 4.75 -1.05 5.1 -1.45 5.2 L-2.15 5.1 -2.6 4.5 -2.5 3.8 -1.95 3.35 -1.2 3.45" fill="none" stroke="#000000" stroke-linecap="round" stroke-linejoin="round" stroke-width="1.0"/>
  </g>
</svg>
