<?xml version="1.0" encoding="UTF-8" standalone="no"?>
<svg xmlns:xlink="http://www.w3.org/1999/xlink" height="33.0px" width="11.25px" xmlns="http://www.w3.org/2000/svg">
  <g transform="matrix(1.0, 0.0, 0.0, 1.0, 5.65, 3.0)">
    <path d="M3.35 24.9 L5.25 27.5 Q6.15 28.7 4.6 29.65 2.8 30.5 2.4 29.25 1.6 27.85 2.1 26.35 L2.85 25.55 3.35 24.9" fill="#cc9933" fill-rule="evenodd" stroke="none"/>
    <path d="M3.75 1.95 L3.5 3.2 1.35 8.25 Q0.8 9.35 0.3 11.1 L-1.1 10.5 Q-3.55 9.7 -4.6 10.45 L-4.45 9.65 -3.65 2.9 -3.0 0.35 -2.25 2.3 Q-0.7 5.6 1.85 3.7 L3.75 1.95 M0.4 14.7 L3.25 21.6 3.5 22.35 Q4.0 23.8 3.35 24.9 L2.85 25.55 2.1 26.35 1.3 26.45 0.6 25.35 -0.3 23.65 -2.8 19.05 Q-4.0 16.7 -4.6 14.35 L-4.7 13.5 -4.35 14.35 Q-2.95 17.3 -0.7 15.65 L0.4 14.7" fill="#eeeeee" fill-rule="evenodd" stroke="none"/>
    <path d="M-3.0 0.35 Q-3.45 -1.35 -2.7 -2.0 -1.6 -3.0 1.4 -2.05 4.35 -1.05 4.4 0.4 4.4 1.1 3.75 1.95 L1.85 3.7 Q-0.7 5.6 -2.25 2.3 L-3.0 0.35" fill="#e1e1e1" fill-rule="evenodd" stroke="none"/>
    <path d="M0.3 11.1 Q1.5 11.8 1.55 12.65 1.55 13.55 0.4 14.7 L-0.7 15.65 Q-2.95 17.3 -4.35 14.35 L-4.7 13.5 Q-5.6 11.25 -4.75 10.55 L-4.6 10.45 Q-3.55 9.7 -1.1 10.5 L0.3 11.1" fill="#e6e6e6" fill-rule="evenodd" stroke="none"/>
    <path d="M3.35 24.9 L5.25 27.5 Q6.15 28.7 4.6 29.65 2.8 30.5 2.4 29.25 1.6 27.85 2.1 26.35" fill="none" stroke="#000000" stroke-linecap="round" stroke-linejoin="round" stroke-width="0.05"/>
    <path d="M3.5 22.35 Q4.0 23.8 3.35 24.9 L2.85 25.55 2.1 26.35 1.3 26.45" fill="none" stroke="#000000" stroke-linecap="round" stroke-linejoin="round" stroke-width="0.05"/>
    <path d="M-3.0 0.35 Q-3.45 -1.35 -2.7 -2.0 -1.6 -3.0 1.4 -2.05 4.35 -1.05 4.4 0.4 4.4 1.1 3.75 1.95 L3.5 3.2 1.35 8.25 Q0.8 9.35 0.3 11.1 1.5 11.8 1.55 12.65 1.55 13.55 0.4 14.7 L3.25 21.6 3.5 22.35 M1.3 26.45 L0.6 25.35 -0.3 23.65 -2.8 19.05 Q-4.0 16.7 -4.6 14.35 L-4.7 13.5 Q-5.6 11.25 -4.75 10.55 L-4.6 10.45 -4.45 9.65 -3.65 2.9 -3.0 0.35 -2.25 2.3 Q-0.7 5.6 1.85 3.7 L3.75 1.95 M-4.6 10.45 Q-3.55 9.7 -1.1 10.5 L0.3 11.1 M-4.7 13.5 L-4.35 14.35 Q-2.95 17.3 -0.7 15.65 L0.4 14.7" fill="none" stroke="#000000" stroke-linecap="round" stroke-linejoin="round" stroke-width="1.0"/>
  </g>
</svg>
