<?xml version="1.0" encoding="UTF-8" standalone="no"?>
<svg xmlns:xlink="http://www.w3.org/1999/xlink" height="47.1px" width="1005.3px" xmlns="http://www.w3.org/2000/svg">
  <g transform="matrix(1.0, 0.0, 0.0, 1.0, 1776.45, -983.9)">
    <path d="M-1433.8 984.9 L-1428.35 985.4 -1429.5 984.9 M-1428.35 985.4 L-1488.3 985.4 -1450.35 988.65 -1428.35 985.4 -1412.4 991.9 -1396.4 998.4 -1380.4 1004.9 -1364.45 1011.45 -1348.45 1017.95 -1408.4 1017.95 -1424.4 1011.45 -1440.35 1004.9 -1456.35 998.4 -1472.35 991.9 -1488.3 985.4 -1489.45 984.9 M-1488.3 985.4 L-1485.15 984.9 M-1380.4 1004.9 L-1440.35 1004.9 -1402.45 1008.2 -1380.4 1004.9 -1418.4 1001.7 -1440.35 1004.9 M-1348.45 1017.95 L-1386.45 1014.7 -1408.4 1017.95 M-1456.35 998.4 L-1396.4 998.4 -1434.4 995.2 -1456.35 998.4 -1418.4 1001.7 -1396.4 998.4 M-1386.45 1014.7 L-1424.4 1011.45 -1402.45 1008.2 -1364.45 1011.45 -1386.45 1014.7 M-1412.4 991.9 L-1434.4 995.2 -1472.35 991.9 -1450.35 988.65 -1412.4 991.9 -1472.35 991.9 M-1364.45 1011.45 L-1424.4 1011.45 M-1775.45 984.9 L-1763.65 989.75 -1741.7 986.45 -1759.8 984.9 M-1731.15 984.9 L-1741.7 986.45 -1703.7 989.75 -1715.5 984.9 M-1763.65 989.75 L-1703.7 989.75 -1687.7 996.25 -1671.75 1002.75 -1655.75 1009.25 -1639.8 1015.75 -1623.8 1022.3 -1683.75 1022.3 -1699.75 1015.75 -1715.7 1009.25 -1731.7 1002.75 -1747.65 996.25 -1763.65 989.75 -1725.7 993.0 -1703.7 989.75 M-1671.75 1002.75 L-1731.7 1002.75 -1693.75 1006.05 -1671.75 1002.75 -1709.7 999.5 -1731.7 1002.75 M-1623.8 1022.3 L-1661.8 1019.05 -1683.75 1022.3 M-1661.8 1019.05 L-1639.8 1015.75 -1699.75 1015.75 -1661.8 1019.05 M-1639.8 1015.75 L-1677.75 1012.55 -1699.75 1015.75 M-1693.75 1006.05 L-1715.7 1009.25 -1655.75 1009.25 -1693.75 1006.05 M-1715.7 1009.25 L-1677.75 1012.55 -1655.75 1009.25 M-1747.65 996.25 L-1725.7 993.0 -1687.7 996.25 -1709.7 999.5 -1747.65 996.25 -1687.7 996.25 M-938.2 984.9 L-906.0 987.7 -887.35 984.9 M-848.1 1023.5 L-788.15 1023.5 -826.15 1020.25 -848.1 1023.5 -864.1 1017.0 -880.05 1010.5 -896.05 1003.95 -912.0 997.45 -928.0 990.95 -942.75 984.9 M-820.1 1010.5 L-880.05 1010.5 -842.1 1013.75 -820.1 1010.5 -858.1 1007.2 -880.05 1010.5 M-832.1 1030.0 L-772.15 1030.0 -810.15 1026.8 -832.1 1030.0 -848.1 1023.5 -810.15 1026.8 -788.15 1023.5 -804.15 1017.0 -826.15 1020.25 -864.1 1017.0 -842.1 1013.75 -804.15 1017.0 -820.1 1010.5 -836.1 1003.95 -858.1 1007.2 -896.05 1003.95 -874.05 1000.7 -912.0 997.45 -890.05 994.2 -928.0 990.95 -906.0 987.7 -868.05 990.95 -882.8 984.9 M-852.05 997.45 L-868.05 990.95 -890.05 994.2 -852.05 997.45 -836.1 1003.95 -874.05 1000.7 -852.05 997.45 -912.0 997.45 M-836.1 1003.95 L-896.05 1003.95 M-868.05 990.95 L-928.0 990.95 M-788.15 1023.5 L-772.15 1030.0 M-804.15 1017.0 L-864.1 1017.0 M-1217.05 984.9 L-1207.6 988.75 -1185.65 985.5 -1192.55 984.9 M-1181.6 984.9 L-1185.65 985.5 -1147.65 988.75 -1157.1 984.9 M-1207.6 988.75 L-1147.65 988.75 -1131.7 995.3 -1115.7 1001.8 -1099.7 1008.3 -1083.75 1014.85 -1067.75 1021.35 -1127.7 1021.35 -1143.7 1014.85 -1159.65 1008.3 -1175.65 1001.8 -1191.65 995.3 -1207.6 988.75 -1169.65 992.05 -1147.65 988.75 M-1159.65 1008.3 L-1137.7 1005.05 -1175.65 1001.8 -1153.7 998.55 -1191.65 995.3 -1169.65 992.05 -1131.7 995.3 -1153.7 998.55 -1115.7 1001.8 -1137.7 1005.05 -1099.7 1008.3 -1121.75 1011.55 -1083.75 1014.85 -1105.75 1018.1 -1067.75 1021.35 M-1105.75 1018.1 L-1127.7 1021.35 M-1115.7 1001.8 L-1175.65 1001.8 M-1131.7 995.3 L-1191.65 995.3 M-1121.75 1011.55 L-1143.7 1014.85 -1083.75 1014.85 M-1143.7 1014.85 L-1105.75 1018.1 M-1099.7 1008.3 L-1159.65 1008.3 -1121.75 1011.55" fill="none" stroke="#000000" stroke-linecap="round" stroke-linejoin="round" stroke-opacity="0.4" stroke-width="2.0"/>
  </g>
</svg>
