<?xml version="1.0" encoding="UTF-8" standalone="no"?>
<svg xmlns:xlink="http://www.w3.org/1999/xlink" height="26.0px" width="26.0px" xmlns="http://www.w3.org/2000/svg">
  <g transform="matrix(1.0, 0.0, 0.0, 1.0, 13.0, 13.0)">
    <path d="M8.4 -8.5 Q12.0 -4.95 12.0 0.0 12.0 4.95 8.4 8.45 4.9 12.0 0.0 12.0 -4.95 12.0 -8.5 8.45 -12.0 4.95 -12.0 0.0 -12.0 -4.95 -8.5 -8.5 -4.95 -12.0 0.0 -12.0 4.9 -12.0 8.4 -8.5" fill="none" stroke="#ffffff" stroke-linecap="round" stroke-linejoin="round" stroke-width="2.0"/>
    <path d="M4.9 -4.95 Q7.0 -2.9 7.0 0.0 7.0 2.9 4.9 4.95 2.85 7.0 0.0 7.0 -2.9 7.0 -4.95 4.95 -7.0 2.9 -7.0 0.0 -7.0 -2.9 -4.95 -4.95 -2.9 -7.0 0.0 -7.0 2.85 -7.0 4.9 -4.95" fill="none" stroke="#ffffff" stroke-linecap="round" stroke-linejoin="round" stroke-opacity="0.49803922" stroke-width="2.0"/>
  </g>
</svg>
