<?xml version="1.0" encoding="UTF-8" standalone="no"?>
<svg xmlns:xlink="http://www.w3.org/1999/xlink" height="57.4px" width="117.95px" xmlns="http://www.w3.org/2000/svg">
  <g transform="matrix(1.0, 0.0, 0.0, 1.0, 63.1, 34.8)">
    <path d="M-38.7 -4.55 L-38.7 1.75 -38.7 -4.55 -36.05 -4.55 -36.05 1.75 -38.7 1.75 -41.65 1.75 -44.35 1.75 -47.2 1.75 -49.9 1.75 -52.75 1.75 -52.75 -4.55 -49.9 -4.55 -47.2 -4.55 -44.35 -4.55 -41.65 -4.55 -38.7 -4.55 M-41.65 1.75 L-41.65 -4.55 -41.65 1.75 M-49.9 -4.55 L-49.9 1.75 -49.9 -4.55 M-47.2 -4.55 L-47.2 1.75 -47.2 -4.55 M-44.35 -4.55 L-44.35 1.75 -44.35 -4.55" fill="#1e1e1e" fill-rule="evenodd" stroke="none"/>
    <path d="M-38.7 1.75 L-38.7 -4.55 -41.65 -4.55 -41.65 1.75 -38.7 1.75 -36.05 1.75 -36.05 -4.55 -38.7 -4.55 M-41.65 1.75 L-44.35 1.75 -47.2 1.75 -49.9 1.75 -52.75 1.75 -52.75 -4.55 -49.9 -4.55 -47.2 -4.55 -44.35 -4.55 -41.65 -4.55 M-44.35 1.75 L-44.35 -4.55 M-47.2 1.75 L-47.2 -4.55 M-49.9 1.75 L-49.9 -4.55" fill="none" stroke="#000000" stroke-linecap="round" stroke-linejoin="round" stroke-width="1.0"/>
    <path d="M-36.7 3.1 L-36.7 9.4 -36.7 3.1 -34.05 3.1 -34.05 9.4 -36.7 9.4 -39.65 9.4 -42.35 9.4 -45.2 9.4 -47.9 9.4 -50.75 9.4 -50.75 3.1 -47.9 3.1 -45.2 3.1 -42.35 3.1 -39.65 3.1 -36.7 3.1 M-39.65 9.4 L-39.65 3.1 -39.65 9.4 M-45.2 3.1 L-45.2 9.4 -45.2 3.1 M-42.35 3.1 L-42.35 9.4 -42.35 3.1 M-47.9 3.1 L-47.9 9.4 -47.9 3.1" fill="#1e1e1e" fill-rule="evenodd" stroke="none"/>
    <path d="M-36.7 9.4 L-36.7 3.1 -39.65 3.1 -39.65 9.4 -36.7 9.4 -34.05 9.4 -34.05 3.1 -36.7 3.1 M-39.65 9.4 L-42.35 9.4 -45.2 9.4 -47.9 9.4 -50.75 9.4 -50.75 3.1 -47.9 3.1 -45.2 3.1 -42.35 3.1 -39.65 3.1 M-47.9 9.4 L-47.9 3.1 M-42.35 9.4 L-42.35 3.1 M-45.2 9.4 L-45.2 3.1" fill="none" stroke="#000000" stroke-linecap="round" stroke-linejoin="round" stroke-width="1.0"/>
    <path d="M-40.2 -12.35 L-40.2 -6.05 -40.2 -12.35 -37.55 -12.35 -37.55 -6.05 -40.2 -6.05 -43.15 -6.05 -45.85 -6.05 -48.7 -6.05 -51.4 -6.05 -54.25 -6.05 -54.25 -12.35 -51.4 -12.35 -48.7 -12.35 -45.85 -12.35 -43.15 -12.35 -40.2 -12.35 M-43.15 -6.05 L-43.15 -12.35 -43.15 -6.05 M-45.85 -12.35 L-45.85 -6.05 -45.85 -12.35 M-51.4 -12.35 L-51.4 -6.05 -51.4 -12.35 M-48.7 -12.35 L-48.7 -6.05 -48.7 -12.35" fill="#1e1e1e" fill-rule="evenodd" stroke="none"/>
    <path d="M-40.2 -6.05 L-40.2 -12.35 -43.15 -12.35 -43.15 -6.05 -40.2 -6.05 -37.55 -6.05 -37.55 -12.35 -40.2 -12.35 M-43.15 -6.05 L-45.85 -6.05 -48.7 -6.05 -51.4 -6.05 -54.25 -6.05 -54.25 -12.35 -51.4 -12.35 -48.7 -12.35 -45.85 -12.35 -43.15 -12.35 M-48.7 -6.05 L-48.7 -12.35 M-51.4 -6.05 L-51.4 -12.35 M-45.85 -6.05 L-45.85 -12.35" fill="none" stroke="#000000" stroke-linecap="round" stroke-linejoin="round" stroke-width="1.0"/>
    <path d="M25.75 1.7 L27.85 -0.65 25.75 1.7 M27.95 1.95 L29.2 0.45 27.95 1.95 M30.15 -2.7 L36.9 -0.85 Q31.0 0.85 27.95 7.2 24.0 15.1 20.7 18.85 L3.1 18.85 Q8.75 17.1 4.05 7.1 -12.05 3.75 -16.7 -7.25 1.85 -2.3 20.45 -2.85 L21.25 -2.85 30.15 -2.7 M11.65 17.4 L11.65 14.1 10.5 14.1 11.65 14.1 12.8 14.1 11.65 14.1 11.65 17.4 M17.75 17.4 L19.75 17.4 19.75 15.8 17.75 15.8 17.75 14.0 19.75 14.0 17.75 14.0 17.75 15.8 19.75 15.8 19.75 17.4 17.75 17.4 M16.1 16.35 L16.1 17.45 14.35 17.45 14.35 13.95 16.1 13.95 14.35 13.95 14.35 17.45 16.1 17.45 16.1 16.35 M9.95 2.95 L2.05 2.95 0.4 0.85 2.05 2.95 9.95 2.95" fill="url(#gradient0)" fill-rule="evenodd" stroke="none"/>
    <path d="M36.9 -0.85 L40.55 -4.5 Q48.8 2.95 54.35 14.05 L45.8 12.75 Q36.3 13.4 36.3 20.9 30.6 24.05 20.7 18.85 24.0 15.1 27.95 7.2 31.0 0.85 36.9 -0.85" fill="url(#gradient1)" fill-rule="evenodd" stroke="none"/>
    <path d="M21.25 -2.85 L20.45 -2.85 Q1.85 -2.3 -16.7 -7.25 -19.1 -8.35 -20.8 -9.9 -24.25 -12.6 -25.3 -16.8 -1.7 -14.1 9.15 -15.05 15.95 -11.75 21.25 -2.85 M17.2 -3.85 L12.1 -5.2 14.5 -5.7 12.1 -5.2 17.2 -3.85 M12.1 -5.2 L7.55 -4.25 12.1 -5.2" fill="url(#gradient2)" fill-rule="evenodd" stroke="none"/>
    <path d="M12.85 -15.55 Q21.25 -11.0 30.15 -2.7 L21.25 -2.85 Q15.95 -11.75 9.15 -15.05 L12.85 -15.55" fill="url(#gradient3)" fill-rule="evenodd" stroke="none"/>
    <path d="M-25.7 -20.1 L-20.8 -20.1 Q-6.2 -20.1 12.85 -15.55 L9.15 -15.05 Q-1.7 -14.1 -25.3 -16.8 -25.7 -18.35 -25.7 -20.1" fill="url(#gradient4)" fill-rule="evenodd" stroke="none"/>
    <path d="M-35.7 -19.45 L-30.75 -19.75 Q-25.45 -17.3 -27.7 -3.05 -34.8 -8.05 -41.75 -7.85 -40.0 -10.55 -40.3 -13.75 -35.75 -15.85 -35.7 -19.45 M-33.5 -12.65 L-35.8 -13.65 -34.7 -15.6 -35.8 -13.65 -33.5 -12.65 M-36.95 -11.75 L-35.8 -13.65 -36.95 -11.75" fill="url(#gradient5)" fill-rule="evenodd" stroke="none"/>
    <path d="M3.1 18.85 Q-9.65 23.7 -21.6 19.15 -23.75 10.7 -30.2 10.9 L-40.7 10.9 Q-39.25 -0.9 -41.75 -7.85 -34.8 -8.05 -27.7 -3.05 -25.45 -17.3 -30.75 -19.75 L-25.7 -20.1 Q-25.7 -18.35 -25.3 -16.8 -24.25 -12.6 -20.8 -9.9 -19.1 -8.35 -16.7 -7.25 -12.05 3.75 4.05 7.1 8.75 17.1 3.1 18.85 M-11.95 19.25 L-11.95 15.3 -11.95 19.25 M-9.95 18.5 L-9.95 14.9 -9.95 18.5 M-7.85 17.4 L-7.85 14.55 -7.85 17.4 M-20.5 0.3 Q-21.15 0.95 -21.15 1.85 -21.15 2.75 -20.5 3.4 -19.85 4.05 -18.95 4.05 -18.05 4.05 -17.4 3.4 -16.75 2.75 -16.75 1.85 -16.75 0.95 -17.4 0.3 -18.05 -0.35 -18.95 -0.35 -19.85 -0.35 -20.5 0.3 -19.85 -0.35 -18.95 -0.35 -18.05 -0.35 -17.4 0.3 -16.75 0.95 -16.75 1.85 -16.75 2.75 -17.4 3.4 -18.05 4.05 -18.95 4.05 -19.85 4.05 -20.5 3.4 -21.15 2.75 -21.15 1.85 -21.15 0.95 -20.5 0.3" fill="url(#gradient6)" fill-rule="evenodd" stroke="none"/>
    <path d="M-41.75 -7.85 Q-59.75 -25.3 -62.6 -34.3 -53.65 -25.2 -35.7 -19.45 -35.75 -15.85 -40.3 -13.75 -40.0 -10.55 -41.75 -7.85" fill="#1e1e1e" fill-rule="evenodd" stroke="none"/>
    <path d="M29.2 0.45 L27.95 1.95 M27.85 -0.65 L25.75 1.7 M12.85 -15.55 Q21.25 -11.0 30.15 -2.7 M14.5 -5.7 L12.1 -5.2 17.2 -3.85 M7.55 -4.25 L12.1 -5.2 M0.4 0.85 L2.05 2.95 9.95 2.95 M-34.7 -15.6 L-35.8 -13.65 -33.5 -12.65 M-20.5 0.3 Q-19.85 -0.35 -18.95 -0.35 -18.05 -0.35 -17.4 0.3 -16.75 0.95 -16.75 1.85 -16.75 2.75 -17.4 3.4 -18.05 4.05 -18.95 4.05 -19.85 4.05 -20.5 3.4 -21.15 2.75 -21.15 1.85 -21.15 0.95 -20.5 0.3 M-7.85 14.55 L-7.85 17.4 M-9.95 14.9 L-9.95 18.5 M-11.95 15.3 L-11.95 19.25 M-35.8 -13.65 L-36.95 -11.75" fill="none" stroke="#000000" stroke-linecap="round" stroke-linejoin="round" stroke-width="1.0"/>
    <path d="M30.15 -2.7 L36.9 -0.85 40.55 -4.5 Q48.8 2.95 54.35 14.05 L45.8 12.75 Q36.3 13.4 36.3 20.9 30.6 24.05 20.7 18.85 L3.1 18.85 Q-9.65 23.7 -21.6 19.15 -23.75 10.7 -30.2 10.9 L-40.7 10.9 Q-39.25 -0.9 -41.75 -7.85 -59.75 -25.3 -62.6 -34.3 -53.65 -25.2 -35.7 -19.45 L-30.75 -19.75 -25.7 -20.1 -20.8 -20.1 Q-6.2 -20.1 12.85 -15.55 L9.15 -15.05 Q15.95 -11.75 21.25 -2.85 L20.45 -2.85 Q1.85 -2.3 -16.7 -7.25 -12.05 3.75 4.05 7.1 8.75 17.1 3.1 18.85 M30.15 -2.7 L21.25 -2.85 M36.9 -0.85 Q31.0 0.85 27.95 7.2 24.0 15.1 20.7 18.85 M-35.7 -19.45 Q-35.75 -15.85 -40.3 -13.75 -40.0 -10.55 -41.75 -7.85 -34.8 -8.05 -27.7 -3.05 -25.45 -17.3 -30.75 -19.75 M-25.3 -16.8 Q-24.25 -12.6 -20.8 -9.9 -19.1 -8.35 -16.7 -7.25 M-25.7 -20.1 Q-25.7 -18.35 -25.3 -16.8 -1.7 -14.1 9.15 -15.05" fill="none" stroke="#000000" stroke-linecap="round" stroke-linejoin="round" stroke-width="1.0"/>
    <path d="M16.1 13.95 L14.35 13.95 14.35 17.45 16.1 17.45 16.1 16.35 M19.75 14.0 L17.75 14.0 17.75 15.8 19.75 15.8 19.75 17.4 17.75 17.4 M10.5 14.1 L11.65 14.1 12.8 14.1 M11.65 14.1 L11.65 17.4" fill="none" stroke="#000000" stroke-linecap="round" stroke-linejoin="round" stroke-width="1.0"/>
  </g>
  <defs>
    <radialGradient cx="0" cy="0" gradientTransform="matrix(0.0, 0.0345, -0.065, 0.0, 16.2, -6.9)" gradientUnits="userSpaceOnUse" id="gradient0" r="819.2" spreadMethod="pad">
      <stop offset="0.0" stop-color="#000000"/>
      <stop offset="1.0" stop-color="#848484"/>
    </radialGradient>
    <radialGradient cx="0" cy="0" gradientTransform="matrix(0.0227, -0.0227, 0.0352, 0.0352, 29.25, 4.85)" gradientUnits="userSpaceOnUse" id="gradient1" r="819.2" spreadMethod="pad">
      <stop offset="0.0" stop-color="#ffffff"/>
      <stop offset="1.0" stop-color="#000000"/>
    </radialGradient>
    <radialGradient cx="0" cy="0" gradientTransform="matrix(0.0057, -0.0215, 0.0481, 0.0128, 4.45, -0.4)" gradientUnits="userSpaceOnUse" id="gradient2" r="819.2" spreadMethod="pad">
      <stop offset="0.0" stop-color="#ffffff"/>
      <stop offset="0.7725490196078432" stop-color="#bfd9d3"/>
      <stop offset="1.0" stop-color="#fef5b4"/>
    </radialGradient>
    <radialGradient cx="0" cy="0" gradientTransform="matrix(0.0116, -0.0143, 0.0208, 0.017, 9.1, -3.0)" gradientUnits="userSpaceOnUse" id="gradient3" r="819.2" spreadMethod="pad">
      <stop offset="0.0" stop-color="#ffffff"/>
      <stop offset="1.0" stop-color="#626262"/>
    </radialGradient>
    <radialGradient cx="0" cy="0" gradientTransform="matrix(-9.0E-4, 0.0094, -0.0386, -0.0039, -13.35, -15.1)" gradientUnits="userSpaceOnUse" id="gradient4" r="819.2" spreadMethod="pad">
      <stop offset="0.0" stop-color="#6f6f6f"/>
      <stop offset="1.0" stop-color="#000000"/>
    </radialGradient>
    <radialGradient cx="0" cy="0" gradientTransform="matrix(0.0137, -0.0137, 0.0163, 0.0163, -26.8, -5.4)" gradientUnits="userSpaceOnUse" id="gradient5" r="819.2" spreadMethod="pad">
      <stop offset="0.0" stop-color="#848484"/>
      <stop offset="1.0" stop-color="#000000"/>
    </radialGradient>
    <radialGradient cx="0" cy="0" gradientTransform="matrix(0.0534, 0.0, 0.0, 0.0534, -15.3, -3.65)" gradientUnits="userSpaceOnUse" id="gradient6" r="819.2" spreadMethod="pad">
      <stop offset="0.0" stop-color="#ffffff"/>
      <stop offset="1.0" stop-color="#000000"/>
    </radialGradient>
  </defs>
</svg>
