<?xml version="1.0" encoding="UTF-8" standalone="no"?>
<svg xmlns:xlink="http://www.w3.org/1999/xlink" height="23.2px" width="10.3px" xmlns="http://www.w3.org/2000/svg">
  <g transform="matrix(1.0, 0.0, 0.0, 1.0, 5.5, 4.1)">
    <path d="M3.6 0.1 L3.6 0.5 Q2.65 10.2 1.15 14.6 L0.25 16.5 Q-1.05 18.65 -2.9 17.7 L-4.0 16.4 Q-5.05 14.2 -4.2 8.85 -3.45 3.85 -3.9 0.1 -1.7 -4.1 1.0 -3.9 3.65 -3.75 3.6 0.1" fill="#000033" fill-rule="evenodd" stroke="none"/>
    <path d="M3.6 0.1 L3.6 0.5 Q2.65 10.2 1.15 14.6 L0.25 16.5 Q-1.05 18.65 -2.9 17.7 L-4.0 16.4 Q-5.05 14.2 -4.2 8.85 -3.45 3.85 -3.9 0.1" fill="none" stroke="#000000" stroke-linecap="round" stroke-linejoin="round" stroke-width="0.05"/>
    <path d="M0.15 -0.5 Q0.15 -1.5 0.4 -2.2 1.0 -4.45 2.85 -4.05 4.7 -3.6 4.8 -1.1 4.9 1.35 3.45 5.8 2.0 10.2 0.9 5.1 0.4 2.85 0.25 1.2 L0.15 -0.5" fill="#514d80" fill-rule="evenodd" stroke="none"/>
    <path d="M0.15 -0.5 L0.25 1.2 -3.0 0.75 Q-5.95 0.2 -2.5 -0.25 L0.15 -0.5" fill="#353355" fill-rule="evenodd" stroke="none"/>
    <path d="M0.25 1.2 Q0.4 2.85 0.9 5.1 2.0 10.2 3.45 5.8 4.9 1.35 4.8 -1.1 4.7 -3.6 2.85 -4.05 1.0 -4.45 0.4 -2.2 0.15 -1.5 0.15 -0.5 L0.25 1.2 -3.0 0.75 Q-5.95 0.2 -2.5 -0.25 L0.15 -0.5" fill="none" stroke="#000000" stroke-linecap="round" stroke-linejoin="round" stroke-width="0.05"/>
    <path d="M-3.75 15.0 Q-2.35 14.9 0.2 16.05 2.7 17.15 -0.25 18.15 -3.2 19.15 -4.45 18.65 -5.7 18.15 -5.45 16.65 -5.15 15.1 -3.75 15.0" fill="#514d80" fill-rule="evenodd" stroke="none"/>
    <path d="M-3.75 15.0 Q-2.35 14.9 0.2 16.05 2.7 17.15 -0.25 18.15 -3.2 19.15 -4.45 18.65 -5.7 18.15 -5.45 16.65 -5.15 15.1 -3.75 15.0 Z" fill="none" stroke="#000000" stroke-linecap="round" stroke-linejoin="round" stroke-width="0.05"/>
    <path d="M-1.35 17.5 Q-2.4 14.55 -1.9 13.3 -1.4 12.05 0.1 12.3 1.65 12.6 1.75 14.0 1.85 15.4 0.75 17.95 -0.4 20.45 -1.35 17.5" fill="#514d80" fill-rule="evenodd" stroke="none"/>
    <path d="M-1.35 17.5 Q-2.4 14.55 -1.9 13.3 -1.4 12.05 0.1 12.3 1.65 12.6 1.75 14.0 1.85 15.4 0.75 17.95 -0.4 20.45 -1.35 17.5 Z" fill="none" stroke="#000000" stroke-linecap="round" stroke-linejoin="round" stroke-width="0.05"/>
  </g>
</svg>
