<?xml version="1.0" encoding="UTF-8" standalone="no"?>
<svg xmlns:xlink="http://www.w3.org/1999/xlink" height="38.0px" width="23.0px" xmlns="http://www.w3.org/2000/svg">
  <g transform="matrix(1.0, 0.0, 0.0, 1.0, 11.15, 18.45)">
    <path d="M-1.75 -4.45 L-5.3 -0.9 -1.8 2.55 -10.15 2.55 -10.15 -4.45 -1.75 -4.45 M2.55 2.55 L6.05 -0.9 2.55 -4.45 10.85 -4.45 10.85 2.55 2.55 2.55 M10.85 9.55 L10.85 18.55 -10.15 18.55 -10.15 9.55 10.85 9.55 M-10.15 -10.45 L-10.15 -17.45 10.85 -17.45 10.85 -10.45 -10.15 -10.45" fill="#bb0000" fill-rule="evenodd" stroke="none"/>
    <path d="M2.0 -5.0 L0.4 -6.6 -1.75 -4.45 -10.15 -4.45 -10.15 -10.45 10.85 -10.45 10.85 -4.45 2.55 -4.45 2.0 -5.0 M-1.8 2.55 L0.4 4.75 2.55 2.55 10.85 2.55 10.85 9.55 -10.15 9.55 -10.15 2.55 -1.8 2.55" fill="#641c1c" fill-rule="evenodd" stroke="none"/>
    <path d="M0.5 -2.7 L0.75 -1.85 Q1.6 -0.6 1.35 0.55 1.1 1.75 0.0 1.7 -1.5 1.65 -0.95 -0.65 -0.45 -2.85 1.15 -4.4 L0.55 -3.1 0.5 -2.7" fill="#f7f700" fill-rule="evenodd" stroke="none"/>
    <path d="M0.5 -2.7 L0.55 -3.1 1.15 -4.4 Q-0.45 -2.85 -0.95 -0.65 -1.5 1.65 0.0 1.7 1.1 1.75 1.35 0.55 1.6 -0.6 0.75 -1.85 L0.5 -2.7 M-1.75 -4.45 L0.4 -6.6 2.0 -5.0 2.55 -4.45 6.05 -0.9 2.55 2.55 0.4 4.75 -1.8 2.55 -5.3 -0.9 -1.75 -4.45" fill="#4d0000" fill-rule="evenodd" stroke="none"/>
    <path d="M10.85 -10.45 L10.85 -4.45 10.85 2.55 10.85 9.55 10.85 18.55 -10.15 18.55 -10.15 9.55 -10.15 2.55 -10.15 -4.45 -10.15 -10.45 -10.15 -17.45 10.85 -17.45 10.85 -10.45" fill="none" stroke="#000000" stroke-linecap="round" stroke-linejoin="round" stroke-width="2.0"/>
    <path d="M2.0 -5.0 L0.4 -6.6 -1.75 -4.45 M6.05 -0.9 L2.55 -4.45" fill="none" stroke="#000000" stroke-linecap="round" stroke-linejoin="round" stroke-width="1.0"/>
    <path d="M-1.75 -4.45 L-5.3 -0.9 -1.8 2.55 0.4 4.75 2.55 2.55 6.05 -0.9" fill="none" stroke="#000000" stroke-linecap="round" stroke-linejoin="round" stroke-width="1.0"/>
  </g>
</svg>
