<?xml version="1.0" encoding="UTF-8" standalone="no"?>
<svg xmlns:xlink="http://www.w3.org/1999/xlink" height="37.6px" width="22.0px" xmlns="http://www.w3.org/2000/svg">
  <g transform="matrix(1.0, 0.0, 0.0, 1.0, 11.0, 18.6)">
    <path d="M-10.0 -10.7 L-6.0 -17.6 6.0 -17.6 10.0 -10.7 -10.0 -10.7 M10.0 9.9 L6.0 18.0 -6.0 18.0 -10.0 9.9 10.0 9.9" fill="#8c8c8c" fill-rule="evenodd" stroke="none"/>
    <path d="M10.0 -10.7 L10.0 9.9 -10.0 9.9 -10.0 -10.7 10.0 -10.7" fill="#33c2ff" fill-rule="evenodd" stroke="none"/>
    <path d="M-10.0 -10.7 L-6.0 -17.6 6.0 -17.6 10.0 -10.7 10.0 9.9 6.0 18.0 -6.0 18.0 -10.0 9.9 -10.0 -10.7" fill="none" stroke="#000000" stroke-linecap="round" stroke-linejoin="round" stroke-width="2.0"/>
    <path d="M-10.0 -10.7 L10.0 -10.7 M-10.0 9.9 L10.0 9.9" fill="none" stroke="#000000" stroke-linecap="round" stroke-linejoin="round" stroke-width="2.0"/>
  </g>
</svg>
