<?xml version="1.0" encoding="UTF-8" standalone="no"?>
<svg xmlns:xlink="http://www.w3.org/1999/xlink" height="13.1px" width="10.55px" xmlns="http://www.w3.org/2000/svg">
  <g transform="matrix(1.0, 0.0, 0.0, 1.0, 5.75, 7.65)">
    <path d="M0.55 -2.5 Q0.55 -2.05 0.8 -1.65 1.65 -0.4 1.4 0.75 1.15 1.95 0.05 1.9 -1.45 1.85 -0.9 -0.45 -0.4 -2.65 1.2 -4.2 L0.6 -2.9 0.55 -2.5" fill="#767601" fill-rule="evenodd" stroke="none"/>
    <path d="M4.3 -1.15 L0.45 4.95 -5.25 -0.7 2.3 -7.15 4.3 -1.15 M0.55 -2.5 L0.6 -2.9 1.2 -4.2 Q-0.4 -2.65 -0.9 -0.45 -1.45 1.85 0.05 1.9 1.15 1.95 1.4 0.75 1.65 -0.4 0.8 -1.65 0.55 -2.05 0.55 -2.5" fill="#220000" fill-rule="evenodd" stroke="none"/>
    <path d="M4.3 -1.15 L0.45 4.95 -5.25 -0.7 2.3 -7.15 4.3 -1.15 Z" fill="none" stroke="#000000" stroke-linecap="round" stroke-linejoin="round" stroke-width="1.0"/>
  </g>
</svg>
