<?xml version="1.0" encoding="UTF-8" standalone="no"?>
<svg xmlns:xlink="http://www.w3.org/1999/xlink" height="170.6px" width="146.8px" xmlns="http://www.w3.org/2000/svg">
  <g transform="matrix(1.0, 0.0, 0.0, 1.0, 74.8, 118.0)">
    <path d="M50.45 -19.7 Q29.0 -2.8 -1.4 -2.8 -31.85 -2.8 -53.4 -19.7 -74.85 -36.5 -74.8 -60.4 -74.85 -84.3 -53.4 -101.2 -31.85 -118.0 -1.4 -118.0 29.0 -118.0 50.45 -101.2 72.0 -84.3 72.0 -60.4 72.0 -36.5 50.45 -19.7" fill="url(#gradient0)" fill-rule="evenodd" stroke="none"/>
    <path d="M51.6 -0.4 Q51.6 21.55 36.05 37.05 20.55 52.6 -1.4 52.6 -23.4 52.6 -38.95 37.05 -54.4 21.55 -54.4 -0.4 -54.4 -22.4 -38.95 -37.95 -23.4 -53.4 -1.4 -53.4 20.55 -53.4 36.05 -37.95 51.6 -22.4 51.6 -0.4" fill="url(#gradient1)" fill-rule="evenodd" stroke="none"/>
  </g>
  <defs>
    <radialGradient cx="0" cy="0" gradientTransform="matrix(0.0883, 0.0, 0.0, 0.0693, -1.4, -60.4)" gradientUnits="userSpaceOnUse" id="gradient0" r="819.2" spreadMethod="pad">
      <stop offset="0.0" stop-color="#000000" stop-opacity="0.0"/>
      <stop offset="0.4117647058823529" stop-color="#000000" stop-opacity="0.0"/>
      <stop offset="1.0" stop-color="#000000" stop-opacity="0.0"/>
    </radialGradient>
    <radialGradient cx="0" cy="0" gradientTransform="matrix(0.0638, 0.0, 0.0, 0.0638, -1.4, -0.4)" gradientUnits="userSpaceOnUse" id="gradient1" r="819.2" spreadMethod="pad">
      <stop offset="0.0" stop-color="#f5ff99" stop-opacity="0.0"/>
      <stop offset="0.4117647058823529" stop-color="#ffcf88" stop-opacity="0.0"/>
      <stop offset="1.0" stop-color="#ffc94d" stop-opacity="0.0"/>
    </radialGradient>
  </defs>
</svg>
