<?xml version="1.0" encoding="UTF-8" standalone="no"?>
<svg xmlns:xlink="http://www.w3.org/1999/xlink" height="37.6px" width="22.0px" xmlns="http://www.w3.org/2000/svg">
  <g transform="matrix(1.0, 0.0, 0.0, 1.0, 11.0, 18.6)">
    <path d="M-10.0 -10.7 L-6.0 -17.6 6.0 -17.6 10.0 -10.7 -10.0 -10.7 M10.0 9.9 L6.0 18.0 -6.0 18.0 -10.0 9.9 10.0 9.9" fill="#8c8c8c" fill-rule="evenodd" stroke="none"/>
    <path d="M3.65 -4.15 L3.05 -3.85 3.9 -3.15 3.05 -3.85 -1.3 -1.65 -0.7 -1.1 1.85 -0.85 4.5 -1.5 5.5 -1.8 3.9 -3.15 5.35 -6.55 3.9 -3.15 5.5 -1.8 4.5 -1.5 1.85 -0.85 -0.7 -1.1 -1.3 -1.65 3.05 -3.85 3.65 -4.15 M5.85 -1.9 L5.5 -1.8 5.85 -1.9 M10.0 -10.7 L10.0 9.9 -10.0 9.9 -10.0 -10.7 10.0 -10.7 M6.5 2.6 L4.7 5.6 6.5 2.6 4.5 0.95 6.5 2.6 7.95 3.8 6.5 2.6 M1.45 5.4 L1.75 4.4 2.25 2.75 1.75 4.4 4.15 6.1 1.75 4.4 1.45 5.4 M4.5 0.65 L4.5 0.1 8.3 0.1 4.5 0.1 4.5 0.65 M-7.45 2.95 L-8.6 0.3 -7.45 2.95 M-8.7 3.35 L-5.65 3.35 -5.65 5.6 -5.65 3.35 -8.7 3.35 M-5.0 5.7 L-1.65 3.5 -5.0 5.7 M-0.15 -4.15 L-1.75 -6.45 -0.15 -4.15 0.0 -4.55 2.6 -6.45 0.0 -4.55 -0.15 -4.15 -1.65 -2.0 -1.3 -1.65 -2.2 -1.25 -0.7 -1.1 1.0 2.0 3.35 2.75 1.0 2.0 -0.7 -1.1 -2.2 -1.25 -1.3 -1.65 -1.65 -2.0 -0.15 -4.15 M-5.65 -3.45 L-7.45 -6.25 -5.65 -3.45 -3.55 -3.8 -1.65 -2.0 -2.2 -1.25 1.0 2.0 -1.1 2.95 -1.1 5.7 -1.1 2.95 1.0 2.0 -2.2 -1.25 -1.65 -2.0 -3.55 -3.8 -5.65 -3.45 -7.95 -3.05 -5.65 -3.45 M4.5 0.1 L4.5 -1.5 4.5 0.1 M-5.65 3.35 L-5.65 -0.55 -5.65 3.35 M-6.6 -2.95 L-3.1 2.1 -6.6 -2.95 M-3.1 4.1 L-2.05 -0.2 -3.1 4.1" fill="#33c2ff" fill-rule="evenodd" stroke="none"/>
    <path d="M-10.0 -10.7 L-6.0 -17.6 6.0 -17.6 10.0 -10.7 10.0 9.9 6.0 18.0 -6.0 18.0 -10.0 9.9 -10.0 -10.7 10.0 -10.7 M-10.0 9.9 L10.0 9.9" fill="none" stroke="#000000" stroke-linecap="round" stroke-linejoin="round" stroke-width="2.0"/>
    <path d="M3.9 -3.15 L3.05 -3.85 -1.3 -1.65 -0.7 -1.1 1.85 -0.85 4.5 -1.5 5.5 -1.8 3.9 -3.15 5.35 -6.55 M5.5 -1.8 L5.85 -1.9 M3.05 -3.85 L3.65 -4.15 M-1.1 5.7 L-1.1 2.95 1.0 2.0 -2.2 -1.25 -1.65 -2.0 -3.55 -3.8 -5.65 -3.45 -7.95 -3.05 M2.6 -6.45 L0.0 -4.55 -0.15 -4.15 -1.65 -2.0 -1.3 -1.65 -2.2 -1.25 -0.7 -1.1 1.0 2.0 3.35 2.75 M-7.45 -6.25 L-5.65 -3.45 M-1.75 -6.45 L-0.15 -4.15 M-1.65 3.5 L-5.0 5.7 M-5.65 5.6 L-5.65 3.35 -8.7 3.35 M-8.6 0.3 L-7.45 2.95 M4.5 0.95 L6.5 2.6 7.95 3.8 M8.3 0.1 L4.5 0.1 4.5 0.65 M2.25 2.75 L1.75 4.4 4.15 6.1 M1.75 4.4 L1.45 5.4 M4.7 5.6 L6.5 2.6 M-2.05 -0.2 L-3.1 4.1 M-3.1 2.1 L-6.6 -2.95 M-5.65 -0.55 L-5.65 3.35 M4.5 -1.5 L4.5 0.1" fill="none" stroke="#ffffff" stroke-linecap="round" stroke-linejoin="round" stroke-width="1.0"/>
  </g>
</svg>
