<?xml version="1.0" encoding="UTF-8" standalone="no"?>
<svg xmlns:xlink="http://www.w3.org/1999/xlink" height="19.7px" width="18.0px" xmlns="http://www.w3.org/2000/svg">
  <g transform="matrix(1.0, 0.0, 0.0, 1.0, 9.0, 14.75)">
    <path d="M9.0 -4.9 Q9.0 -0.85 6.35 2.05 3.7 4.95 -0.05 4.95 -3.75 4.95 -6.4 2.05 -9.0 -0.85 -9.0 -4.9 -9.0 -8.95 -6.4 -11.85 -3.75 -14.75 -0.05 -14.75 3.7 -14.75 6.35 -11.85 9.0 -8.95 9.0 -4.9" fill="url(#gradient0)" fill-rule="evenodd" stroke="none"/>
    <path d="M3.3 -8.8 Q4.7 -7.3 4.7 -5.2 4.7 -3.1 3.3 -1.6 1.95 -0.1 0.0 -0.1 -1.9 -0.1 -3.25 -1.6 -4.6 -3.1 -4.6 -5.2 -4.6 -7.3 -3.25 -8.8 -1.9 -10.25 0.0 -10.25 1.95 -10.25 3.3 -8.8" fill="url(#gradient1)" fill-rule="evenodd" stroke="none"/>
  </g>
  <defs>
    <radialGradient cx="0" cy="0" gradientTransform="matrix(0.0109, 0.0, 0.0, 0.0121, 0.0, -4.9)" gradientUnits="userSpaceOnUse" id="gradient0" r="819.2" spreadMethod="pad">
      <stop offset="0.0" stop-color="#4d71ff"/>
      <stop offset="1.0" stop-color="#00b3ff" stop-opacity="0.0"/>
    </radialGradient>
    <radialGradient cx="0" cy="0" gradientTransform="matrix(0.0053, 0.0, 0.0, 0.0058, 0.05, -5.15)" gradientUnits="userSpaceOnUse" id="gradient1" r="819.2" spreadMethod="pad">
      <stop offset="0.5333333333333333" stop-color="#000000" stop-opacity="0.3019608"/>
      <stop offset="0.9176470588235294" stop-color="#0277ec" stop-opacity="0.3019608"/>
      <stop offset="1.0" stop-color="#78bbfe" stop-opacity="0.6509804"/>
    </radialGradient>
  </defs>
</svg>
