<?xml version="1.0" encoding="UTF-8" standalone="no"?>
<svg xmlns:xlink="http://www.w3.org/1999/xlink" height="35.75px" width="12.3px" xmlns="http://www.w3.org/2000/svg">
  <g transform="matrix(1.0, 0.0, 0.0, 1.0, 5.65, 3.0)">
    <path d="M4.1 25.9 Q5.15 25.55 5.55 26.65 6.5 28.25 5.9 30.05 5.85 30.65 5.1 30.8 L4.75 30.85 3.1 30.8 2.3 29.95 1.95 29.15 Q1.65 28.5 1.85 27.9 L1.9 27.75 Q2.2 27.0 3.2 26.35 3.7 26.0 4.1 25.9" fill="#514d80" fill-rule="evenodd" stroke="none"/>
    <path d="M3.35 24.9 L4.1 25.9 Q3.7 26.0 3.2 26.35 2.2 27.0 1.9 27.75 1.85 27.05 2.1 26.35 L2.85 25.55 3.35 24.9 M5.1 30.8 Q4.65 32.3 4.1 32.25 3.55 32.2 2.9 31.75 2.25 31.25 2.3 29.95 L3.1 30.8 4.75 30.85 5.1 30.8" fill="#13112b" fill-rule="evenodd" stroke="none"/>
    <path d="M0.3 11.1 L-1.1 10.5 Q-3.55 9.7 -4.6 10.45 L-4.45 9.65 -3.65 2.9 -3.0 0.35 -2.25 2.3 Q-0.7 5.6 1.85 3.7 L3.75 1.95 3.5 3.2 1.35 8.25 Q0.8 9.35 0.3 11.1 M-4.7 13.5 L-4.35 14.35 Q-2.95 17.3 -0.7 15.65 L0.4 14.7 3.25 21.6 3.5 22.35 Q4.0 23.8 3.35 24.9 L2.85 25.55 2.1 26.35 1.3 26.45 0.6 25.35 -0.3 23.65 -2.8 19.05 Q-4.0 16.7 -4.6 14.35 L-4.7 13.5" fill="#eeeeee" fill-rule="evenodd" stroke="none"/>
    <path d="M-4.6 10.45 Q-3.55 9.7 -1.1 10.5 L0.3 11.1 Q1.5 11.8 1.55 12.65 1.55 13.55 0.4 14.7 L-0.7 15.65 Q-2.95 17.3 -4.35 14.35 L-4.7 13.5 Q-5.6 11.25 -4.75 10.55 L-4.6 10.45 M3.75 1.95 L1.85 3.7 Q-0.7 5.6 -2.25 2.3 L-3.0 0.35 Q-3.45 -1.35 -2.7 -2.0 -1.6 -3.0 1.4 -2.05 4.35 -1.05 4.4 0.4 4.4 1.1 3.75 1.95" fill="#e1e1e1" fill-rule="evenodd" stroke="none"/>
    <path d="M-4.6 10.45 Q-3.55 9.7 -1.1 10.5 L0.3 11.1 Q0.8 9.35 1.35 8.25 L3.5 3.2 3.75 1.95 1.85 3.7 Q-0.7 5.6 -2.25 2.3 L-3.0 0.35 -3.65 2.9 -4.45 9.65 -4.6 10.45 -4.75 10.55 Q-5.6 11.25 -4.7 13.5 L-4.35 14.35 Q-2.95 17.3 -0.7 15.65 L0.4 14.7 Q1.55 13.55 1.55 12.65 1.5 11.8 0.3 11.1 M2.1 26.35 L1.3 26.45 0.6 25.35 -0.3 23.65 -2.8 19.05 Q-4.0 16.7 -4.6 14.35 L-4.7 13.5 M-3.0 0.35 Q-3.45 -1.35 -2.7 -2.0 -1.6 -3.0 1.4 -2.05 4.35 -1.05 4.4 0.4 4.4 1.1 3.75 1.95 M0.4 14.7 L3.25 21.6 3.5 22.35 Q4.0 23.8 3.35 24.9 L4.1 25.9 Q5.15 25.55 5.55 26.65 6.5 28.25 5.9 30.05 5.85 30.65 5.1 30.8 4.65 32.3 4.1 32.25 3.55 32.2 2.9 31.75 2.25 31.25 2.3 29.95 L1.95 29.15 Q1.65 28.5 1.85 27.9 L1.9 27.75 Q1.85 27.05 2.1 26.35 L2.85 25.55 3.35 24.9 M1.9 27.75 Q2.2 27.0 3.2 26.35 3.7 26.0 4.1 25.9 M5.1 30.8 L4.75 30.85 3.1 30.8 2.3 29.95" fill="none" stroke="#000000" stroke-linecap="round" stroke-linejoin="round" stroke-width="1.0"/>
  </g>
</svg>
