<?xml version="1.0" encoding="UTF-8" standalone="no"?>
<svg xmlns:xlink="http://www.w3.org/1999/xlink" height="21.35px" width="22.0px" xmlns="http://www.w3.org/2000/svg">
  <g transform="matrix(1.0, 0.0, 0.0, 1.0, 11.0, 0.5)">
    <path d="M4.85 2.05 L4.85 2.6 6.85 5.1 5.05 8.85 2.1 7.4 2.7 4.95 3.7 5.35 2.7 4.95 2.1 7.4 5.05 8.85 6.85 5.1 4.85 2.6 4.85 2.05 10.0 1.7 10.0 11.75 -10.0 11.75 -10.0 1.7 -6.8 6.1 -5.3 6.1 -5.3 8.25 -1.3 6.25 1.25 4.4 -0.35 0.55 2.2 0.85 4.85 0.0 4.85 2.05 M2.7 4.95 L1.25 4.4 2.7 4.95" fill="#000000" fill-opacity="0.101960786" fill-rule="evenodd" stroke="none"/>
    <path d="M10.0 11.75 L6.0 19.85 -6.0 19.85 -10.0 11.75 10.0 11.75" fill="#8c8c8c" fill-rule="evenodd" stroke="none"/>
    <path d="M3.7 5.35 L2.7 4.95 2.1 7.4 5.05 8.85 6.85 5.1 4.85 2.6 4.85 2.05 4.85 0.0 2.2 0.85 -0.35 0.55 1.25 4.4 2.7 4.95 M-10.0 1.7 L-6.8 6.1 -5.3 6.1 -5.3 8.25 -1.3 6.25 1.25 4.4 M4.85 2.05 L10.0 1.7" fill="none" stroke="#000000" stroke-linecap="round" stroke-linejoin="round" stroke-opacity="0.5019608" stroke-width="1.0"/>
    <path d="M10.0 1.7 L10.0 11.75 6.0 19.85 -6.0 19.85 -10.0 11.75 -10.0 1.7 M10.0 11.75 L-10.0 11.75" fill="none" stroke="#000000" stroke-linecap="round" stroke-linejoin="round" stroke-width="2.0"/>
  </g>
</svg>
