<?xml version="1.0" encoding="UTF-8" standalone="no"?>
<svg xmlns:xlink="http://www.w3.org/1999/xlink" height="17.0px" width="38.3px" xmlns="http://www.w3.org/2000/svg">
  <g transform="matrix(1.0, 0.0, 0.0, 1.0, -23.0, 4.55)">
    <path d="M54.5 3.95 L54.5 8.95 54.5 11.95 36.5 11.95 34.5 7.95 36.5 3.95 54.5 3.95 M52.5 7.95 L52.5 5.95 38.5 5.95 37.5 7.95 52.5 7.95 M51.5 9.95 L50.5 9.95 51.5 9.95 M45.5 9.95 L41.5 9.95 45.5 9.95 M48.5 9.95 L47.5 9.95 48.5 9.95 M39.5 9.95 L38.5 9.95 39.5 9.95" fill="#999999" fill-rule="evenodd" stroke="none"/>
    <path d="M54.5 11.95 L54.5 8.95 54.5 3.95 56.5 5.95 56.5 8.95 57.5 11.95 54.5 11.95 M34.5 7.95 L36.5 11.95 23.5 11.95 27.5 7.95 34.5 7.95 M54.5 8.95 L56.5 8.95 54.5 8.95 M33.5 9.95 L33.5 8.95 33.5 9.95 M31.5 9.95 L31.5 8.95 31.5 9.95 M29.5 9.95 L29.5 8.95 29.5 9.95" fill="#808080" fill-rule="evenodd" stroke="none"/>
    <path d="M52.5 7.95 L37.5 7.95 38.5 5.95 52.5 5.95 52.5 7.95" fill="#2b4ffd" fill-rule="evenodd" stroke="none"/>
    <path d="M54.5 3.95 L36.5 3.95 34.5 7.95 27.5 7.95 23.5 11.95 36.5 11.95 54.5 11.95 M29.5 8.95 L29.5 9.95" fill="none" stroke="#000000" stroke-linecap="round" stroke-linejoin="round" stroke-width="1.0"/>
    <path d="M54.5 11.95 L54.5 8.95 54.5 3.95 56.5 5.95 56.5 8.95 54.5 8.95 M34.5 7.95 L36.5 11.95 M54.5 11.95 L57.5 11.95 56.5 8.95 M52.5 7.95 L37.5 7.95 38.5 5.95 52.5 5.95 52.5 7.95 M47.5 9.95 L48.5 9.95 M41.5 9.95 L45.5 9.95 M50.5 9.95 L51.5 9.95 M31.5 8.95 L31.5 9.95 M33.5 8.95 L33.5 9.95 M38.5 9.95 L39.5 9.95 M37.5 2.95 L43.5 2.95" fill="none" stroke="#000000" stroke-linecap="round" stroke-linejoin="round" stroke-width="1.0"/>
    <path d="M54.5 3.95 Q64.6 -1.25 58.5 -4.05" fill="none" stroke="#990000" stroke-linecap="round" stroke-linejoin="round" stroke-width="1.0"/>
    <path d="M54.5 3.95 Q57.65 1.0 58.5 -4.05" fill="none" stroke="#003300" stroke-linecap="round" stroke-linejoin="round" stroke-width="1.0"/>
    <path d="M58.5 -4.05 Q54.15 -0.45 54.5 3.95 Z" fill="none" stroke="#000066" stroke-linecap="round" stroke-linejoin="round" stroke-width="1.0"/>
  </g>
</svg>
