<?xml version="1.0" encoding="UTF-8" standalone="no"?>
<svg xmlns:xlink="http://www.w3.org/1999/xlink" height="23.65px" width="139.05px" xmlns="http://www.w3.org/2000/svg">
  <g transform="matrix(1.0, 0.0, 0.0, 1.0, 69.25, 10.2)">
    <path d="M37.0 -3.55 L36.3 -9.7 61.45 -9.65 69.3 12.95 39.35 12.95 28.55 4.9 37.0 -3.55" fill="url(#gradient0)" fill-rule="evenodd" stroke="none"/>
    <path d="M28.55 4.9 L39.35 12.95 -38.75 12.95 -28.05 4.95 28.55 4.9" fill="#858585" fill-rule="evenodd" stroke="none"/>
    <path d="M-38.75 12.95 L-68.75 12.95 -60.95 -9.6 -35.8 -9.65 -36.5 -3.5 -28.05 4.95 -38.75 12.95" fill="url(#gradient1)" fill-rule="evenodd" stroke="none"/>
    <path d="M37.0 -3.55 L28.55 4.9 -28.05 4.95 -36.5 -3.5 37.0 -3.55" fill="url(#gradient2)" fill-rule="evenodd" stroke="none"/>
    <path d="M39.35 12.95 L69.3 12.95 61.45 -9.65 36.3 -9.7 37.0 -3.55 28.55 4.9 -28.05 4.95 -36.5 -3.5 37.0 -3.55 M39.35 12.95 L-38.75 12.95 -68.75 12.95 -60.95 -9.6 -35.8 -9.65 -36.5 -3.5" fill="none" stroke="#000000" stroke-linecap="round" stroke-linejoin="round" stroke-width="1.0"/>
  </g>
  <defs>
    <linearGradient gradientTransform="matrix(0.0241, -0.0065, 0.0037, 0.0136, 43.75, 2.0)" gradientUnits="userSpaceOnUse" id="gradient0" spreadMethod="pad" x1="-819.2" x2="819.2">
      <stop offset="0.0" stop-color="#888888"/>
      <stop offset="0.3215686274509804" stop-color="#848484"/>
      <stop offset="0.5098039215686274" stop-color="#777777"/>
      <stop offset="0.6431372549019608" stop-color="#626262"/>
      <stop offset="0.7725490196078432" stop-color="#707070"/>
      <stop offset="0.8980392156862745" stop-color="#4d4d4d"/>
      <stop offset="1.0" stop-color="#2f2f2f"/>
    </linearGradient>
    <linearGradient gradientTransform="matrix(-0.0241, -0.0065, 0.0037, -0.0136, -45.75, 5.1)" gradientUnits="userSpaceOnUse" id="gradient1" spreadMethod="pad" x1="-819.2" x2="819.2">
      <stop offset="0.0" stop-color="#888888"/>
      <stop offset="0.3215686274509804" stop-color="#848484"/>
      <stop offset="0.5098039215686274" stop-color="#777777"/>
      <stop offset="0.6431372549019608" stop-color="#626262"/>
      <stop offset="0.7725490196078432" stop-color="#707070"/>
      <stop offset="0.8980392156862745" stop-color="#4d4d4d"/>
      <stop offset="1.0" stop-color="#2f2f2f"/>
    </linearGradient>
    <linearGradient gradientTransform="matrix(0.0, 0.0065, -0.0052, 0.0, 0.25, 0.7)" gradientUnits="userSpaceOnUse" id="gradient2" spreadMethod="pad" x1="-819.2" x2="819.2">
      <stop offset="0.0" stop-color="#010a54"/>
      <stop offset="0.20784313725490197" stop-color="#0b23fd"/>
      <stop offset="1.0" stop-color="#5588ff"/>
    </linearGradient>
  </defs>
</svg>
