<?xml version="1.0" encoding="UTF-8" standalone="no"?>
<svg xmlns:xlink="http://www.w3.org/1999/xlink" height="47.5px" width="91.0px" xmlns="http://www.w3.org/2000/svg">
  <g transform="matrix(1.0, 0.0, 0.0, 1.0, 0.5, 0.5)">
    <path d="M90.0 41.0 L90.0 46.5 0.0 46.5 0.0 41.0 90.0 41.0 M0.0 6.0 L0.0 0.0 90.0 0.0 90.0 6.0 0.0 6.0" fill="#666666" fill-rule="evenodd" stroke="none"/>
    <path d="M0.0 41.0 L0.0 6.0 90.0 6.0 90.0 41.0 0.0 41.0 M20.2 16.3 Q18.05 13.5 15.0 13.55 12.0 13.5 9.85 16.3 7.7 19.05 7.7 23.05 7.7 27.0 9.85 29.75 12.0 32.5 15.0 32.5 18.05 32.5 20.2 29.75 22.35 27.0 22.35 23.05 22.35 19.05 20.2 16.3 M83.95 23.05 Q83.95 19.05 81.8 16.3 79.65 13.5 76.6 13.55 73.6 13.5 71.45 16.3 69.3 19.05 69.3 23.05 69.3 27.0 71.45 29.75 73.6 32.5 76.6 32.5 79.65 32.5 81.8 29.75 83.95 27.0 83.95 23.05" fill="#404040" fill-rule="evenodd" stroke="none"/>
    <path d="M83.95 23.05 Q83.95 27.0 81.8 29.75 79.65 32.5 76.6 32.5 73.6 32.5 71.45 29.75 69.3 27.0 69.3 23.05 69.3 19.05 71.45 16.3 73.6 13.5 76.6 13.55 79.65 13.5 81.8 16.3 83.95 19.05 83.95 23.05 M20.2 16.3 Q22.35 19.05 22.35 23.05 22.35 27.0 20.2 29.75 18.05 32.5 15.0 32.5 12.0 32.5 9.85 29.75 7.7 27.0 7.7 23.05 7.7 19.05 9.85 16.3 12.0 13.5 15.0 13.55 18.05 13.5 20.2 16.3" fill="#373737" fill-rule="evenodd" stroke="none"/>
    <path d="M90.0 41.0 L90.0 46.5 0.0 46.5 0.0 41.0 0.0 6.0 0.0 0.0 90.0 0.0 90.0 6.0 90.0 41.0 0.0 41.0 M83.95 23.05 Q83.95 27.0 81.8 29.75 79.65 32.5 76.6 32.5 73.6 32.5 71.45 29.75 69.3 27.0 69.3 23.05 69.3 19.05 71.45 16.3 73.6 13.5 76.6 13.55 79.65 13.5 81.8 16.3 83.95 19.05 83.95 23.05 M20.2 16.3 Q22.35 19.05 22.35 23.05 22.35 27.0 20.2 29.75 18.05 32.5 15.0 32.5 12.0 32.5 9.85 29.75 7.7 27.0 7.7 23.05 7.7 19.05 9.85 16.3 12.0 13.5 15.0 13.55 18.05 13.5 20.2 16.3 M90.0 6.0 L0.0 6.0" fill="none" stroke="#000000" stroke-linecap="round" stroke-linejoin="round" stroke-width="1.0"/>
  </g>
</svg>
