<?xml version="1.0" encoding="UTF-8" standalone="no"?>
<svg xmlns:xlink="http://www.w3.org/1999/xlink" height="121.0px" width="19.0px" xmlns="http://www.w3.org/2000/svg">
  <g transform="matrix(1.0, 0.0, 0.0, 1.0, 9.15, 65.8)">
    <path d="M2.35 -50.3 L6.35 -61.3 M5.35 -59.3 L1.35 -65.3 M2.55 -12.85 L2.35 -12.3 M2.55 -12.85 L6.35 -25.3 M7.35 -38.3 L3.35 -43.3 4.35 -39.3 M0.35 -55.3 L3.35 -43.3 M1.35 20.7 L5.35 37.7 M3.35 27.7 L7.35 11.7 4.35 3.7 3.35 -8.3 M-8.65 54.7 L-2.65 44.7 1.35 43.7 1.85 41.7 1.35 41.7 M2.35 39.7 L1.85 41.7 6.35 41.7 M9.35 54.7 L4.75 50.75 4.35 51.7 M2.35 48.7 L4.75 50.75 6.35 46.7 M-8.65 -27.3 L-4.8 -32.4 -2.65 -35.3 M-5.65 47.7 L-6.45 40.6 -6.65 38.7 M-6.45 40.6 L-2.65 38.7 M0.35 -17.3 L-2.65 -4.3 M1.35 -47.3 L-0.65 -42.3 M0.35 -33.3 L-4.8 -32.4" fill="none" stroke="#000000" stroke-linecap="round" stroke-linejoin="round" stroke-opacity="0.5019608" stroke-width="1.0"/>
    <path d="M5.35 -3.3 L2.55 -12.85 0.35 -20.3" fill="none" stroke="#000000" stroke-linecap="round" stroke-linejoin="round" stroke-opacity="0.5019608" stroke-width="1.0"/>
  </g>
</svg>
