<?xml version="1.0" encoding="UTF-8" standalone="no"?>
<svg xmlns:xlink="http://www.w3.org/1999/xlink" height="130.0px" width="22.0px" xmlns="http://www.w3.org/2000/svg">
  <g transform="matrix(1.0, 0.0, 0.0, 1.0, 11.15, 67.8)">
    <path d="M0.35 -29.3 L-6.65 -30.3" fill="none" stroke="#000000" stroke-linecap="round" stroke-linejoin="round" stroke-opacity="0.5019608" stroke-width="1.0"/>
    <path d="M4.35 -55.3 L9.35 -58.3 M3.35 -63.3 L4.35 -67.3 M4.35 -18.3 L9.35 -13.3 M0.35 -29.3 L5.4 -32.2 7.35 -38.3 M0.35 -29.3 L4.35 -22.3 M7.35 -33.3 L5.4 -32.2 M10.35 38.7 L6.35 41.7 5.35 37.7 1.35 31.7 -3.65 34.7 -8.65 26.7 -10.65 28.7 M6.35 45.7 L10.35 42.7 M3.35 -1.3 L-1.8 7.35 5.35 17.7 10.35 23.7 M4.35 32.7 L7.35 27.7 10.35 30.7 M2.35 47.7 L-0.25 54.75 1.35 57.7 5.35 58.7 9.35 53.7 M5.35 4.7 L10.35 -1.3 M-6.65 -59.3 L-4.7 -58.2 -5.65 -67.3 M-1.65 -42.3 L-0.65 -34.3 M-2.65 -49.3 L-2.9 -49.1 0.35 -45.3 M-2.9 -49.1 L-9.65 -44.3 M-6.65 -30.3 L-4.65 -23.3 -4.3 -23.5 -4.65 -24.3 M-1.65 -11.3 L-9.65 -20.3 M-1.65 -25.3 L-4.3 -23.5 -2.65 -19.3 M-2.65 -6.3 L-6.65 -2.3 -9.65 -6.3 M-2.9 -49.1 L-5.65 -52.3 M-9.65 10.7 L-2.65 8.7 -1.8 7.35 -3.65 4.7 -8.65 9.7 M1.35 22.7 L-1.65 26.7 -4.6 14.95 -6.65 15.7 M-8.65 26.7 L-3.65 21.7 M-0.65 55.7 L-0.25 54.75 -4.65 46.7 M0.35 2.7 L-2.65 -5.3 M1.35 12.7 L-4.6 14.95 M0.35 -55.3 L-4.7 -58.2 M-2.65 61.7 L1.35 57.7" fill="none" stroke="#000000" stroke-linecap="round" stroke-linejoin="round" stroke-opacity="0.5019608" stroke-width="1.0"/>
    <path d="M5.15 -59.75 L1.15 -65.75 M2.15 -50.75 L6.15 -61.75 M7.15 -38.75 L3.15 -43.75 4.15 -39.75 M2.35 -13.3 L6.15 -25.75 M2.35 -13.3 L2.15 -12.75 M0.15 -55.75 L3.15 -43.75 M2.15 39.25 L1.65 41.25 6.15 41.25 M-8.85 54.25 L-2.85 44.25 1.15 43.25 1.65 41.25 1.15 41.25 M3.15 27.25 L7.15 11.25 4.15 3.25 3.15 -8.75 M1.15 20.25 L5.15 37.25 M9.15 54.25 L4.55 50.3 4.15 51.25 M2.15 48.25 L4.55 50.3 6.15 46.25 M-8.85 -27.75 L-5.0 -32.85 -2.85 -35.75 M-6.85 38.25 L-6.65 40.15 -2.85 38.25 M-5.85 47.25 L-6.65 40.15 M1.15 -47.75 L-0.85 -42.75 M0.15 -17.75 L-2.85 -4.75 M0.15 -33.75 L-5.0 -32.85" fill="none" stroke="#000000" stroke-linecap="round" stroke-linejoin="round" stroke-opacity="0.5019608" stroke-width="1.0"/>
    <path d="M2.35 -13.3 L0.15 -20.75 M5.15 -3.75 L2.35 -13.3" fill="none" stroke="#000000" stroke-linecap="round" stroke-linejoin="round" stroke-opacity="0.5019608" stroke-width="1.0"/>
  </g>
</svg>
