<?xml version="1.0" encoding="UTF-8" standalone="no"?>
<svg xmlns:xlink="http://www.w3.org/1999/xlink" height="44.0px" width="43.95px" xmlns="http://www.w3.org/2000/svg">
  <g transform="matrix(1.0, 0.0, 0.0, 1.0, 21.95, 21.95)">
    <path d="M-21.15 -0.65 L-20.45 -0.95 -7.25 -0.95 Q-6.85 -0.95 -6.55 -0.65 -6.25 -0.35 -6.25 0.05 -6.25 0.45 -6.55 0.75 -6.85 1.05 -7.25 1.05 L-20.45 1.05 -21.15 0.75 -21.45 0.05 -21.15 -0.65 M0.0 6.3 Q0.4 6.3 0.7 6.6 L1.0 7.3 1.0 20.55 0.7 21.25 0.0 21.55 -0.7 21.25 -1.0 20.55 -1.0 7.3 -0.7 6.6 Q-0.4 6.3 0.0 6.3 M6.55 -0.65 Q6.85 -0.95 7.25 -0.95 L20.5 -0.95 21.2 -0.65 21.5 0.05 21.2 0.75 20.5 1.05 7.25 1.05 Q6.85 1.05 6.55 0.75 6.25 0.45 6.25 0.05 6.25 -0.35 6.55 -0.65 M0.0 -21.45 L0.7 -21.15 1.0 -20.45 1.0 -7.2 0.7 -6.5 Q0.4 -6.2 0.0 -6.2 -0.4 -6.2 -0.7 -6.5 L-1.0 -7.2 -1.0 -20.45 -0.7 -21.15 0.0 -21.45" fill="#ffffff" fill-rule="evenodd" stroke="none"/>
    <path d="M0.0 -21.45 L-0.7 -21.15 -1.0 -20.45 -1.0 -7.2 -0.7 -6.5 Q-0.4 -6.2 0.0 -6.2 0.4 -6.2 0.7 -6.5 L1.0 -7.2 1.0 -20.45 0.7 -21.15 0.0 -21.45 M6.55 -0.65 Q6.25 -0.35 6.25 0.05 6.25 0.45 6.55 0.75 6.85 1.05 7.25 1.05 L20.5 1.05 21.2 0.75 21.5 0.05 21.2 -0.65 20.5 -0.95 7.25 -0.95 Q6.85 -0.95 6.55 -0.65 M0.0 6.3 Q-0.4 6.3 -0.7 6.6 L-1.0 7.3 -1.0 20.55 -0.7 21.25 0.0 21.55 0.7 21.25 1.0 20.55 1.0 7.3 0.7 6.6 Q0.4 6.3 0.0 6.3 M-21.15 -0.65 L-21.45 0.05 -21.15 0.75 -20.45 1.05 -7.25 1.05 Q-6.85 1.05 -6.55 0.75 -6.25 0.45 -6.25 0.05 -6.25 -0.35 -6.55 -0.65 -6.85 -0.95 -7.25 -0.95 L-20.45 -0.95 -21.15 -0.65" fill="none" stroke="#000000" stroke-linecap="round" stroke-linejoin="round" stroke-width="1.0"/>
  </g>
</svg>
