<?xml version="1.0" encoding="UTF-8" standalone="no"?>
<svg xmlns:xlink="http://www.w3.org/1999/xlink" height="17.05px" width="27.85px" xmlns="http://www.w3.org/2000/svg">
  <g transform="matrix(1.0, 0.0, 0.0, 1.0, 14.0, 10.0)">
    <path d="M13.35 6.55 L-13.5 6.55 -13.5 -9.5 13.35 -9.5 13.35 6.55" fill="#666666" fill-rule="evenodd" stroke="none"/>
    <path d="M13.35 6.55 L-13.5 6.55 -13.5 -9.5 13.35 -9.5 13.35 6.55 Z" fill="none" stroke="#000000" stroke-linecap="round" stroke-linejoin="round" stroke-width="1.0"/>
    <path d="M-7.1 0.0 L-7.1 4.0 -11.1 4.0 -11.1 0.0 -7.1 0.0" fill="#0099ff" fill-rule="evenodd" stroke="none"/>
    <path d="M-7.1 0.0 L-7.1 4.0 -11.1 4.0 -11.1 0.0 -7.1 0.0 Z" fill="none" stroke="#78c9fe" stroke-linecap="round" stroke-linejoin="round" stroke-width="1.0"/>
    <path d="M-1.0 0.0 L-1.0 4.0 -5.0 4.0 -5.0 0.0 -1.0 0.0" fill="#0099ff" fill-rule="evenodd" stroke="none"/>
    <path d="M-1.0 0.0 L-1.0 4.0 -5.0 4.0 -5.0 0.0 -1.0 0.0 Z" fill="none" stroke="#78c9fe" stroke-linecap="round" stroke-linejoin="round" stroke-width="1.0"/>
    <path d="M5.0 0.0 L5.0 4.0 1.0 4.0 1.0 0.0 5.0 0.0" fill="#0099ff" fill-rule="evenodd" stroke="none"/>
    <path d="M5.0 0.0 L5.0 4.0 1.0 4.0 1.0 0.0 5.0 0.0 Z" fill="none" stroke="#78c9fe" stroke-linecap="round" stroke-linejoin="round" stroke-width="1.0"/>
    <path d="M11.0 0.0 L11.0 4.0 7.0 4.0 7.0 0.0 11.0 0.0" fill="#0099ff" fill-rule="evenodd" stroke="none"/>
    <path d="M11.0 0.0 L11.0 4.0 7.0 4.0 7.0 0.0 11.0 0.0 Z" fill="none" stroke="#78c9fe" stroke-linecap="round" stroke-linejoin="round" stroke-width="1.0"/>
  </g>
</svg>
