<?xml version="1.0" encoding="UTF-8" standalone="no"?>
<svg xmlns:xlink="http://www.w3.org/1999/xlink" height="27.0px" width="27.0px" xmlns="http://www.w3.org/2000/svg">
  <g transform="matrix(1.0, 0.0, 0.0, 1.0, 13.5, 13.5)">
    <path d="M0.0 -13.0 Q5.3 -13.0 9.1 -9.2 13.0 -5.35 13.0 0.0 13.0 5.35 9.1 9.2 L9.1 9.15 Q5.3 13.0 0.0 13.0 -5.35 13.0 -9.2 9.15 -13.0 5.35 -13.0 0.0 -13.0 -5.35 -9.2 -9.2 -5.35 -13.0 0.0 -13.0 M7.7 -7.8 Q4.5 -11.0 0.0 -11.0 -4.55 -11.0 -7.8 -7.8 -11.0 -4.55 -11.0 0.0 -11.0 4.55 -7.8 7.75 -4.55 11.0 0.0 11.0 4.5 11.0 7.7 7.75 11.0 4.55 11.0 0.0 11.0 -4.55 7.7 -7.8" fill="#ffffff" fill-rule="evenodd" stroke="none"/>
    <path d="M5.6 -5.65 Q8.0 -3.3 8.0 0.0 8.0 3.3 5.6 5.7 L5.6 5.65 Q3.25 8.0 0.0 8.0 -3.3 8.0 -5.65 5.65 -8.0 3.3 -8.0 0.0 -8.0 -3.3 -5.65 -5.65 -3.3 -8.0 0.0 -8.0 3.25 -8.0 5.6 -5.65 M4.2 -4.2 L4.2 -4.25 Q2.45 -6.0 0.0 -6.0 -2.5 -6.0 -4.25 -4.25 -6.0 -2.5 -6.0 0.0 -6.0 2.5 -4.25 4.25 -2.5 6.0 0.0 6.0 2.45 6.0 4.2 4.25 6.0 2.5 6.0 0.0 6.0 -2.5 4.2 -4.2" fill="#ffffff" fill-opacity="0.49803922" fill-rule="evenodd" stroke="none"/>
    <path d="M7.7 -7.8 Q11.0 -4.55 11.0 0.0 11.0 4.55 7.7 7.75 4.5 11.0 0.0 11.0 -4.55 11.0 -7.8 7.75 -11.0 4.55 -11.0 0.0 -11.0 -4.55 -7.8 -7.8 -4.55 -11.0 0.0 -11.0 4.5 -11.0 7.7 -7.8 M0.0 -13.0 Q-5.35 -13.0 -9.2 -9.2 -13.0 -5.35 -13.0 0.0 -13.0 5.35 -9.2 9.15 -5.35 13.0 0.0 13.0 5.3 13.0 9.1 9.15 L9.1 9.2 Q13.0 5.35 13.0 0.0 13.0 -5.35 9.1 -9.2 5.3 -13.0 0.0 -13.0 M4.2 -4.2 Q6.0 -2.5 6.0 0.0 6.0 2.5 4.2 4.25 2.45 6.0 0.0 6.0 -2.5 6.0 -4.25 4.25 -6.0 2.5 -6.0 0.0 -6.0 -2.5 -4.25 -4.25 -2.5 -6.0 0.0 -6.0 2.45 -6.0 4.2 -4.25 L4.2 -4.2 M5.6 -5.65 Q3.25 -8.0 0.0 -8.0 -3.3 -8.0 -5.65 -5.65 -8.0 -3.3 -8.0 0.0 -8.0 3.3 -5.65 5.65 -3.3 8.0 0.0 8.0 3.25 8.0 5.6 5.65 L5.6 5.7 Q8.0 3.3 8.0 0.0 8.0 -3.3 5.6 -5.65" fill="none" stroke="#000000" stroke-linecap="round" stroke-linejoin="round" stroke-width="1.0"/>
  </g>
</svg>
