<?xml version="1.0" encoding="UTF-8" standalone="no"?>
<svg xmlns:xlink="http://www.w3.org/1999/xlink" height="1865.85px" width="2612.8px" xmlns="http://www.w3.org/2000/svg">
  <g transform="matrix(1.0, 0.0, 0.0, 1.0, 358.4, 1375.2)">
    <path d="M2236.75 345.35 L2236.8 349.75 Q2236.25 353.05 2233.25 353.05 2231.55 353.05 2229.85 345.75 L2228.45 338.25 2228.45 338.15 2220.2 338.25 Q2220.2 339.75 2220.9 347.55 2220.75 354.5 2216.7 354.5 2213.85 354.45 2213.25 348.7 L2213.25 342.75 Q2212.35 339.45 2213.25 336.6 2215.0 331.0 2223.95 331.0 2247.35 330.95 2251.9 335.65 2253.35 337.1 2252.75 339.15 L2251.9 341.35 Q2253.05 351.05 2248.35 351.05 2244.45 351.05 2244.35 346.35 2244.95 340.7 2244.95 338.75 L2235.9 338.25 2236.35 339.85 Q2236.85 342.5 2236.75 345.35 M2219.45 368.7 Q2219.45 367.55 2219.9 366.65 2220.75 364.8 2223.0 364.85 L2233.0 377.95 Q2242.75 366.8 2242.95 366.85 2246.1 366.85 2246.35 370.75 2241.7 378.5 2237.7 384.15 L2247.05 396.6 Q2247.05 400.6 2243.65 400.6 2240.2 400.6 2232.9 390.45 2225.55 399.25 2220.9 399.25 2218.55 399.25 2217.8 397.65 2217.45 396.85 2217.45 395.75 L2228.15 383.5 2222.3 373.9 2219.45 368.7 M2246.85 413.1 L2247.25 414.45 Q2247.25 415.45 2246.5 416.2 2245.7 416.9 2244.75 416.95 L2220.2 416.15 2219.25 415.4 Q2218.75 414.75 2218.75 413.85 L2218.5 413.2 Q2218.45 412.7 2219.25 412.35 2221.75 411.3 2232.7 411.3 L2246.25 410.75 Q2245.5 411.3 2246.2 412.35 L2246.85 413.1 M2254.4 435.25 L2254.2 436.35 2254.4 443.15 Q2254.35 445.9 2251.85 445.95 2249.25 445.9 2248.8 439.75 L2248.75 437.7 2224.9 437.3 Q2222.8 437.3 2221.15 436.5 2219.75 435.85 2219.75 434.2 2219.75 433.35 2220.35 432.7 2221.15 431.65 2222.8 431.7 L2248.7 432.4 Q2248.6 429.9 2248.8 427.75 2249.2 422.5 2251.3 422.55 2253.4 422.5 2254.1 434.05 L2254.4 435.25 M2222.95 472.8 Q2223.7 471.85 2224.9 471.85 2227.85 471.85 2229.0 474.2 L2229.9 475.8 Q2230.55 476.5 2231.75 476.55 L2233.5 476.5 2233.0 461.05 Q2232.7 457.75 2233.0 454.95 2233.6 449.45 2236.55 449.45 2239.75 449.45 2239.05 452.6 L2238.1 461.15 2238.6 481.3 2240.85 476.6 Q2243.35 472.4 2246.7 472.4 2249.0 472.4 2249.3 475.35 2239.05 490.65 2238.1 490.65 2236.0 490.65 2228.95 482.65 2222.25 475.0 2222.3 474.45 2222.25 473.55 2222.95 472.8" fill="#000000" fill-opacity="0.3019608" fill-rule="evenodd" stroke="none"/>
    <path d="M-221.65 -1327.05 L-223.45 -1327.2 Q-224.65 -1327.2 -225.85 -1326.1 -226.85 -1325.2 -226.85 -1324.8 L-226.65 -1324.5 -221.75 -1324.95 -221.8 -1325.55 -221.75 -1326.45 -221.65 -1327.05 M-215.45 -1327.8 Q-215.45 -1324.7 -217.0 -1322.1 -219.85 -1317.35 -226.85 -1318.6 L-226.85 -1316.25 -226.75 -1316.0 -217.95 -1316.35 -215.45 -1316.65 Q-213.45 -1316.65 -212.7 -1315.2 L-212.35 -1313.65 Q-212.35 -1312.1 -213.25 -1311.4 -215.2 -1310.0 -221.35 -1310.0 -230.9 -1310.0 -232.7 -1315.05 -233.7 -1317.7 -232.7 -1320.65 -232.7 -1326.5 -232.2 -1328.0 -230.6 -1332.65 -224.3 -1333.0 L-221.95 -1333.15 Q-217.15 -1333.2 -215.8 -1330.5 -215.4 -1329.65 -215.35 -1328.65 L-215.45 -1327.8 M-236.9 -1331.8 L-237.05 -1331.35 Q-237.05 -1327.8 -246.85 -1328.2 -239.75 -1324.65 -238.15 -1323.15 -236.25 -1321.4 -236.25 -1317.85 -236.3 -1315.35 -239.65 -1313.6 -243.4 -1311.6 -249.6 -1311.6 -253.55 -1311.6 -254.7 -1313.05 -255.3 -1313.75 -255.1 -1314.5 -255.1 -1315.4 -254.75 -1315.7 L-253.15 -1316.25 Q-247.5 -1317.4 -242.95 -1318.9 L-242.6 -1319.1 -252.0 -1324.4 Q-254.7 -1326.4 -254.7 -1329.7 -254.7 -1331.9 -253.8 -1332.65 -251.9 -1334.3 -245.3 -1334.3 -239.1 -1334.3 -237.45 -1332.8 -236.95 -1332.4 -236.9 -1331.8 M-272.4 -1336.8 L-272.0 -1335.3 Q-274.3 -1327.45 -274.3 -1326.6 -274.35 -1325.6 -273.45 -1323.8 -272.25 -1321.45 -270.5 -1321.45 -267.7 -1321.5 -266.6 -1323.9 -265.9 -1325.55 -265.65 -1329.25 L-265.1 -1334.6 Q-264.4 -1337.05 -262.4 -1337.05 -260.25 -1337.05 -259.6 -1335.0 L-259.4 -1332.95 Q-259.2 -1328.05 -260.2 -1323.8 -262.3 -1315.45 -268.85 -1315.45 -275.95 -1315.5 -278.8 -1320.85 -280.25 -1323.6 -280.2 -1326.45 -279.8 -1338.25 -275.3 -1338.25 -273.25 -1338.25 -272.4 -1336.8 M-316.2 -1336.6 L-315.95 -1334.85 Q-315.95 -1334.1 -317.1 -1331.35 -310.85 -1333.6 -301.4 -1333.55 -291.75 -1333.6 -288.65 -1331.9 -287.25 -1331.1 -287.25 -1329.5 -287.25 -1328.7 -287.85 -1327.75 -288.7 -1326.45 -290.2 -1326.45 L-293.85 -1327.6 -311.5 -1326.5 Q-309.35 -1326.15 -308.45 -1325.4 -307.95 -1325.0 -307.95 -1324.4 L-308.05 -1323.9 Q-308.1 -1322.65 -308.65 -1322.2 -310.45 -1321.0 -316.75 -1321.0 L-322.25 -1321.4 -322.35 -1321.4 -323.05 -1321.4 Q-324.45 -1321.6 -325.0 -1322.45 -325.7 -1323.15 -325.4 -1323.8 L-325.35 -1324.9 Q-323.15 -1338.25 -318.85 -1338.25 -316.9 -1338.25 -316.2 -1336.6" fill="#000000" fill-opacity="0.3019608" fill-rule="evenodd" stroke="none"/>
    <path d="M-357.9 -1312.85 Q-344.05 -1318.85 -337.9 -1374.7 -192.5 -1350.4 -36.0 -1373.9 95.05 -1349.2 248.95 -1373.85 303.9 -1317.55 354.95 -1373.9 546.75 -1340.9 742.0 -1374.0 L741.9 -1373.85 Q823.05 -1266.55 1001.85 -1338.85" fill="none" stroke="#000000" stroke-linecap="round" stroke-linejoin="round" stroke-width="1.0"/>
  </g>
</svg>
