<?xml version="1.0" encoding="UTF-8" standalone="no"?>
<svg xmlns:xlink="http://www.w3.org/1999/xlink" height="34.8px" width="34.75px" xmlns="http://www.w3.org/2000/svg">
  <g transform="matrix(1.0, 0.0, 0.0, 1.0, 17.35, 17.35)">
    <path d="M-16.55 -0.65 L-15.85 -0.95 -5.6 -0.95 Q-5.2 -0.95 -4.9 -0.65 -4.6 -0.35 -4.6 0.05 -4.6 0.45 -4.9 0.75 -5.2 1.05 -5.6 1.05 L-15.85 1.05 -16.55 0.75 -16.85 0.05 -16.55 -0.65 M0.0 4.65 Q0.4 4.65 0.7 4.95 L1.0 5.65 1.0 15.95 0.7 16.65 0.0 16.95 -0.7 16.65 -1.0 15.95 -1.0 5.65 -0.7 4.95 Q-0.4 4.65 0.0 4.65 M4.95 -0.65 L5.65 -0.95 15.9 -0.95 Q16.3 -0.95 16.6 -0.65 L16.9 0.05 16.6 0.75 Q16.3 1.05 15.9 1.05 L5.65 1.05 4.95 0.75 Q4.65 0.45 4.65 0.05 4.65 -0.35 4.95 -0.65 M0.0 -16.85 L0.7 -16.55 1.0 -15.85 1.0 -5.55 0.7 -4.85 Q0.4 -4.55 0.0 -4.55 -0.4 -4.55 -0.7 -4.85 L-1.0 -5.55 -1.0 -15.85 -0.7 -16.55 0.0 -16.85" fill="#ffffff" fill-rule="evenodd" stroke="none"/>
    <path d="M0.0 -16.85 L-0.7 -16.55 -1.0 -15.85 -1.0 -5.55 -0.7 -4.85 Q-0.4 -4.55 0.0 -4.55 0.4 -4.55 0.7 -4.85 L1.0 -5.55 1.0 -15.85 0.7 -16.55 0.0 -16.85 M4.95 -0.65 Q4.65 -0.35 4.65 0.05 4.65 0.45 4.95 0.75 L5.65 1.05 15.9 1.05 Q16.3 1.05 16.6 0.75 L16.9 0.05 16.6 -0.65 Q16.3 -0.95 15.9 -0.95 L5.65 -0.95 4.95 -0.65 M0.0 4.65 Q-0.4 4.65 -0.7 4.95 L-1.0 5.65 -1.0 15.95 -0.7 16.65 0.0 16.95 0.7 16.65 1.0 15.95 1.0 5.65 0.7 4.95 Q0.4 4.65 0.0 4.65 M-16.55 -0.65 L-16.85 0.05 -16.55 0.75 -15.85 1.05 -5.6 1.05 Q-5.2 1.05 -4.9 0.75 -4.6 0.45 -4.6 0.05 -4.6 -0.35 -4.9 -0.65 -5.2 -0.95 -5.6 -0.95 L-15.85 -0.95 -16.55 -0.65" fill="none" stroke="#000000" stroke-linecap="round" stroke-linejoin="round" stroke-width="1.0"/>
  </g>
</svg>
