<?xml version="1.0" encoding="UTF-8" standalone="no"?>
<svg xmlns:xlink="http://www.w3.org/1999/xlink" height="28.3px" width="28.25px" xmlns="http://www.w3.org/2000/svg">
  <g transform="matrix(1.0, 0.0, 0.0, 1.0, 14.1, 14.1)">
    <path d="M-13.3 -0.65 L-12.6 -0.95 -4.45 -0.95 -3.75 -0.65 Q-3.45 -0.35 -3.45 0.05 -3.45 0.45 -3.75 0.75 L-4.45 1.05 -12.6 1.05 -13.3 0.75 -13.6 0.05 -13.3 -0.65 M0.0 3.5 Q0.4 3.5 0.7 3.8 L1.0 4.5 1.0 12.7 0.7 13.4 0.0 13.7 -0.7 13.4 -1.0 12.7 -1.0 4.5 -0.7 3.8 Q-0.4 3.5 0.0 3.5 M3.8 -0.65 Q4.1 -0.95 4.5 -0.95 L12.65 -0.95 13.35 -0.65 13.65 0.05 13.35 0.75 12.65 1.05 4.5 1.05 Q4.1 1.05 3.8 0.75 L3.5 0.05 3.8 -0.65 M0.0 -13.6 L0.7 -13.3 1.0 -12.6 1.0 -4.4 0.7 -3.7 Q0.4 -3.4 0.0 -3.4 -0.4 -3.4 -0.7 -3.7 L-1.0 -4.4 -1.0 -12.6 -0.7 -13.3 0.0 -13.6" fill="#ffffff" fill-rule="evenodd" stroke="none"/>
    <path d="M0.0 -13.6 L-0.7 -13.3 -1.0 -12.6 -1.0 -4.4 -0.7 -3.7 Q-0.4 -3.4 0.0 -3.4 0.4 -3.4 0.7 -3.7 L1.0 -4.4 1.0 -12.6 0.7 -13.3 0.0 -13.6 M3.8 -0.65 L3.5 0.05 3.8 0.75 Q4.1 1.05 4.5 1.05 L12.65 1.05 13.35 0.75 13.65 0.05 13.35 -0.65 12.65 -0.95 4.5 -0.95 Q4.1 -0.95 3.8 -0.65 M0.0 3.5 Q-0.4 3.5 -0.7 3.8 L-1.0 4.5 -1.0 12.7 -0.7 13.4 0.0 13.7 0.7 13.4 1.0 12.7 1.0 4.5 0.7 3.8 Q0.4 3.5 0.0 3.5 M-13.3 -0.65 L-13.6 0.05 -13.3 0.75 -12.6 1.05 -4.45 1.05 -3.75 0.75 Q-3.45 0.45 -3.45 0.05 -3.45 -0.35 -3.75 -0.65 L-4.45 -0.95 -12.6 -0.95 -13.3 -0.65" fill="none" stroke="#000000" stroke-linecap="round" stroke-linejoin="round" stroke-width="1.0"/>
  </g>
</svg>
