<?xml version="1.0" encoding="UTF-8" standalone="no"?>
<svg xmlns:xlink="http://www.w3.org/1999/xlink" height="25.35px" width="16.8px" xmlns="http://www.w3.org/2000/svg">
  <g transform="matrix(1.0, 0.0, 0.0, 1.0, 7.4, 29.25)">
    <path d="M-2.6 -5.05 L-4.05 -6.6 Q-6.15 -9.55 -6.9 -16.2 -7.65 -22.85 -6.85 -26.0 -6.2 -28.5 -3.8 -29.0 L1.3 -29.25 Q5.5 -29.0 6.95 -27.0 8.7 -24.65 8.5 -18.7 8.3 -12.75 6.2 -8.75 4.85 -6.15 3.1 -5.0 2.15 -4.4 1.05 -4.2 -1.0 -3.8 -2.6 -5.05" fill="#000033" fill-rule="evenodd" stroke="none"/>
    <path d="M-2.6 -5.05 L-4.05 -6.6 Q-6.15 -9.55 -6.9 -16.2 -7.65 -22.85 -6.85 -26.0 -6.2 -28.5 -3.8 -29.0 L1.3 -29.25 Q5.5 -29.0 6.95 -27.0 8.7 -24.65 8.5 -18.7 8.3 -12.75 6.2 -8.75 4.85 -6.15 3.1 -5.0" fill="none" stroke="#000000" stroke-linecap="round" stroke-linejoin="round" stroke-width="0.05"/>
    <path d="M3.1 -5.0 Q2.15 -4.4 1.05 -4.2 -1.0 -3.8 -2.6 -5.05 Z" fill="none" stroke="#000000" stroke-linecap="round" stroke-linejoin="round" stroke-width="0.05"/>
    <path d="M3.7 -24.6 Q5.75 -25.35 7.15 -25.35 8.55 -25.35 9.1 -23.55 9.55 -21.75 9.3 -18.55 9.05 -15.35 8.45 -12.3 7.8 -9.3 5.2 -10.9 2.55 -12.55 2.45 -15.55 L2.0 -21.25 Q1.65 -23.9 3.7 -24.6" fill="#514d80" fill-rule="evenodd" stroke="none"/>
    <path d="M6.35 -6.4 Q4.55 -4.6 -0.7 -5.5 -5.95 -6.45 -6.8 -7.8 -7.7 -9.1 -7.25 -10.1 L-3.75 -9.95 Q-0.65 -8.75 3.75 -8.5 8.15 -8.25 6.35 -6.4" fill="#2f2d4a" fill-rule="evenodd" stroke="none"/>
    <path d="M3.7 -24.6 Q5.75 -25.35 7.15 -25.35 8.55 -25.35 9.1 -23.55 9.55 -21.75 9.3 -18.55 9.05 -15.35 8.45 -12.3 7.8 -9.3 5.2 -10.9 2.55 -12.55 2.45 -15.55 L2.0 -21.25 Q1.65 -23.9 3.7 -24.6 M6.35 -6.4 Q4.55 -4.6 -0.7 -5.5 -5.95 -6.45 -6.8 -7.8 -7.7 -9.1 -7.25 -10.1 L-3.75 -9.95 Q-0.65 -8.75 3.75 -8.5 8.15 -8.25 6.35 -6.4" fill="none" stroke="#000000" stroke-linecap="round" stroke-linejoin="round" stroke-width="0.05"/>
    <path d="M-6.1 -9.65 Q-5.7 -10.7 -4.1 -10.55 -2.5 -10.4 -2.25 -9.3 -2.1 -8.2 -3.1 -6.15 -4.1 -4.15 -5.3 -6.4 -6.55 -8.7 -6.1 -9.65" fill="#514d80" fill-rule="evenodd" stroke="none"/>
    <path d="M-6.1 -9.65 Q-5.7 -10.7 -4.1 -10.55 -2.5 -10.4 -2.25 -9.3 -2.1 -8.2 -3.1 -6.15 -4.1 -4.15 -5.3 -6.4 -6.55 -8.7 -6.1 -9.65 Z" fill="none" stroke="#000000" stroke-linecap="round" stroke-linejoin="round" stroke-width="0.05"/>
    <path d="M3.1 -8.65 Q3.5 -9.7 5.1 -9.55 6.7 -9.4 6.95 -8.3 7.1 -7.2 6.1 -5.15 5.1 -3.15 3.9 -5.4 2.65 -7.7 3.1 -8.65" fill="#514d80" fill-rule="evenodd" stroke="none"/>
    <path d="M3.1 -8.65 Q3.5 -9.7 5.1 -9.55 6.7 -9.4 6.95 -8.3 7.1 -7.2 6.1 -5.15 5.1 -3.15 3.9 -5.4 2.65 -7.7 3.1 -8.65 Z" fill="none" stroke="#000000" stroke-linecap="round" stroke-linejoin="round" stroke-width="0.05"/>
    <path d="M1.5 -8.35 Q1.9 -9.4 3.5 -9.25 5.1 -9.1 5.35 -8.0 5.5 -6.9 4.5 -4.85 3.5 -2.85 2.3 -5.1 1.05 -7.4 1.5 -8.35" fill="#514d80" fill-rule="evenodd" stroke="none"/>
    <path d="M1.5 -8.35 Q1.9 -9.4 3.5 -9.25 5.1 -9.1 5.35 -8.0 5.5 -6.9 4.5 -4.85 3.5 -2.85 2.3 -5.1 1.05 -7.4 1.5 -8.35 Z" fill="none" stroke="#000000" stroke-linecap="round" stroke-linejoin="round" stroke-width="0.05"/>
  </g>
</svg>
