<?xml version="1.0" encoding="UTF-8" standalone="no"?>
<svg xmlns:xlink="http://www.w3.org/1999/xlink" height="46.25px" width="222.3px" xmlns="http://www.w3.org/2000/svg">
  <g transform="matrix(1.0, 0.0, 0.0, 1.0, -367.3, -609.6)">
    <path d="M463.4 624.35 Q470.3 621.0 480.15 621.0 485.75 621.0 485.35 624.7 485.35 626.45 483.65 627.3 481.25 628.45 474.35 629.35 L475.1 635.35 Q475.7 641.75 475.6 648.25 475.6 652.9 471.85 652.9 469.15 652.9 467.65 639.65 L467.1 631.45 461.6 633.35 Q457.85 633.35 457.85 629.2 457.85 627.0 463.4 624.35 M452.35 623.35 Q451.4 624.25 447.5 623.9 443.7 623.5 442.3 625.1 L438.5 629.85 Q450.0 634.5 452.45 636.6 454.5 638.4 454.5 643.0 454.5 647.45 452.75 649.45 449.8 652.9 441.0 652.9 438.3 652.9 437.25 651.05 L436.75 649.2 Q436.75 646.2 441.95 645.25 447.1 644.3 447.1 643.0 447.1 641.45 444.55 640.3 L439.0 638.3 Q430.9 635.4 430.9 630.25 430.9 626.95 434.75 622.6 439.6 617.1 446.6 617.1 451.55 617.1 453.0 618.9 453.75 619.8 453.5 620.7 453.5 622.2 452.35 623.35 M408.25 633.2 Q411.5 643.6 420.0 643.75 L425.2 643.8 Q427.4 644.35 427.4 647.35 427.4 651.05 420.05 651.05 410.5 651.05 404.75 642.45 402.95 639.75 401.75 636.5 L400.9 633.8 Q400.9 630.15 403.5 625.15 407.35 617.6 414.35 617.6 422.85 617.6 425.25 621.7 426.5 623.75 426.0 625.9 426.45 629.15 424.5 631.65 420.5 636.55 408.25 633.2 M411.55 625.75 L411.8 626.35 418.55 626.2 417.5 625.05 412.25 625.3 Q411.45 625.3 411.55 625.75 M367.8 613.5 Q369.6 609.6 378.55 609.6 387.55 609.6 390.0 616.6 391.2 620.1 390.6 623.6 390.6 628.1 388.75 629.3 L387.8 629.8 Q393.95 632.0 396.7 639.1 398.7 644.25 398.45 649.6 398.45 653.85 394.8 653.85 391.05 653.85 390.25 649.05 L389.95 642.75 Q388.85 636.55 380.9 635.95 L377.8 635.7 378.5 647.6 Q378.35 655.85 374.15 655.85 371.45 655.85 369.2 637.8 L367.55 619.65 367.3 616.8 Q367.2 614.8 367.8 613.5 M376.95 617.25 Q376.2 617.25 376.45 619.45 L376.85 622.6 Q376.85 626.1 377.45 627.65 378.45 627.7 380.85 625.5 383.2 623.35 383.2 622.7 382.1 615.5 376.95 617.1 L376.95 617.25 M570.4 630.1 Q563.5 629.7 561.1 628.85 559.55 628.3 559.65 627.5 L560.05 626.25 559.85 625.3 Q559.9 624.6 560.8 624.1 563.5 622.6 574.45 622.6 585.6 622.6 588.6 624.4 589.55 625.0 589.6 625.8 L589.45 626.65 Q589.45 630.45 585.55 630.45 L577.7 630.4 Q578.75 636.9 578.65 649.7 578.65 650.8 577.95 651.9 576.9 653.5 574.95 653.5 571.9 653.5 570.8 641.05 L570.4 630.1 M530.85 622.35 Q530.85 617.6 534.55 617.6 537.9 617.6 538.7 622.7 544.7 620.55 551.7 620.55 556.05 620.55 555.85 624.2 555.85 626.55 544.45 629.15 543.55 629.35 539.45 631.1 L538.9 631.35 538.7 634.2 Q538.8 640.65 542.1 651.15 542.1 654.95 538.2 654.95 533.5 654.95 531.7 638.75 L531.35 631.7 530.35 630.5 529.85 628.65 Q529.85 627.75 531.1 626.7 L530.85 622.35 M495.55 635.7 Q491.9 635.7 491.9 630.95 491.9 627.5 494.1 623.9 497.4 618.5 504.15 618.5 512.0 618.5 516.15 625.3 518.65 629.3 519.15 633.75 520.2 641.9 523.6 646.0 L525.75 648.25 Q526.7 649.15 526.7 649.8 526.7 653.45 522.8 653.45 518.95 653.45 516.55 650.8 L515.2 652.95 Q512.85 655.85 509.0 655.85 500.8 655.85 498.75 651.65 498.25 650.65 498.25 646.85 498.25 643.05 500.4 639.95 503.65 635.2 510.75 635.2 L511.7 635.25 510.9 631.0 Q509.7 626.85 507.15 626.85 503.5 626.85 500.45 631.3 497.45 635.7 495.55 635.7 M511.05 642.85 Q505.65 643.95 505.65 646.45 505.65 647.7 507.55 648.1 507.95 648.1 510.05 646.85 512.15 645.55 512.95 645.55 L513.85 645.6 Q513.35 644.15 513.0 642.35 L511.05 642.85" fill="#000000" fill-opacity="0.3019608" fill-rule="evenodd" stroke="none"/>
  </g>
</svg>
