<?xml version="1.0" encoding="UTF-8" standalone="no"?>
<svg xmlns:xlink="http://www.w3.org/1999/xlink" height="9.0px" width="37.0px" xmlns="http://www.w3.org/2000/svg">
  <g transform="matrix(1.0, 0.0, 0.0, 1.0, 10.55, 3.75)">
    <path d="M8.85 -1.55 L15.4 -1.55 15.4 -0.85 9.25 -0.85 15.4 -0.85 15.4 -0.2 15.4 0.5 10.1 0.5 9.65 -0.2 9.25 -0.85 8.85 -1.55 M3.45 2.75 L1.45 4.75 -1.55 4.75 -3.55 2.75 3.45 2.75 M-7.35 1.25 L-10.05 1.25 -10.05 -1.45 -6.15 -3.25 -6.15 -0.25 -7.35 1.25 M15.4 -0.2 L9.65 -0.2 15.4 -0.2" fill="#333333" fill-rule="evenodd" stroke="none"/>
    <path d="M8.85 -1.55 L9.25 -0.85 9.65 -0.2 10.1 0.5 11.4 2.75 3.45 2.75 -3.55 2.75 -8.6 2.75 -7.35 1.25 -6.15 -0.25 -6.15 -3.25 7.85 -3.25 8.85 -1.55 M1.05 -0.65 L-0.95 1.35 1.05 -0.65 M-3.0 -0.75 L-5.0 1.25 -3.0 -0.75 M-0.95 -0.75 L-2.95 1.25 -0.95 -0.75" fill="#cccccc" fill-rule="evenodd" stroke="none"/>
    <path d="M15.4 -0.85 L15.4 -1.55 8.85 -1.55 9.25 -0.85 9.65 -0.2 10.1 0.5 11.4 2.75 3.45 2.75 1.45 4.75 -1.55 4.75 -3.55 2.75 -8.6 2.75 -7.35 1.25 -10.05 1.25 -10.05 -1.45 -6.15 -3.25 7.85 -3.25 8.85 -1.55 M15.4 -0.85 L15.4 -0.2 15.4 0.5 10.1 0.5 M-7.35 1.25 L-6.15 -0.25 -6.15 -3.25 M-2.95 1.25 L-0.95 -0.75 M-5.0 1.25 L-3.0 -0.75 M-0.95 1.35 L1.05 -0.65 M-3.55 2.75 L3.45 2.75" fill="none" stroke="#000000" stroke-linecap="round" stroke-linejoin="round" stroke-width="1.0"/>
    <path d="M9.25 -0.85 L15.4 -0.85 M9.65 -0.2 L15.4 -0.2" fill="none" stroke="#000000" stroke-linecap="round" stroke-linejoin="round" stroke-width="1.0"/>
    <path d="M16.8 -0.8 Q16.75 0.3 16.35 1.05 15.9 1.85 15.3 1.85 14.65 1.85 14.2 1.05 13.8 0.3 13.8 -0.8 13.8 -1.9 14.2 -2.7 14.65 -3.5 15.3 -3.5 15.9 -3.5 16.35 -2.7 16.75 -1.9 16.8 -0.8" fill="url(#gradient0)" fill-rule="evenodd" stroke="none"/>
    <path d="M15.5 -2.5 L16.8 -2.5 23.65 -2.0 Q26.45 -1.5 26.45 -0.75 26.45 -0.05 23.65 0.5 L16.8 1.0 15.5 1.0 15.5 -2.5" fill="url(#gradient1)" fill-rule="evenodd" stroke="none"/>
  </g>
  <defs>
    <radialGradient cx="0" cy="0" gradientTransform="matrix(0.0019, 0.0, 0.0, 0.0034, 15.3, -0.8)" gradientUnits="userSpaceOnUse" id="gradient0" r="819.2" spreadMethod="pad">
      <stop offset="0.36470588235294116" stop-color="#ffffff"/>
      <stop offset="1.0" stop-color="#00b3ff" stop-opacity="0.0"/>
    </radialGradient>
    <radialGradient cx="0" cy="0" gradientTransform="matrix(0.0118, 0.0, 0.0, 0.0022, 16.85, -0.8)" gradientUnits="userSpaceOnUse" id="gradient1" r="819.2" spreadMethod="pad">
      <stop offset="0.36470588235294116" stop-color="#ffffff"/>
      <stop offset="1.0" stop-color="#0099ff" stop-opacity="0.0"/>
    </radialGradient>
  </defs>
</svg>
