<?xml version="1.0" encoding="UTF-8" standalone="no"?>
<svg xmlns:xlink="http://www.w3.org/1999/xlink" height="57.4px" width="117.95px" xmlns="http://www.w3.org/2000/svg">
  <g transform="matrix(1.0, 0.0, 0.0, 1.0, 0.5, 0.5)">
    <path d="M20.85 33.0 L23.55 33.0 26.5 33.0 29.15 33.0 29.15 39.3 26.5 39.3 23.55 39.3 20.85 39.3 18.0 39.3 15.3 39.3 12.45 39.3 12.45 33.0 15.3 33.0 18.0 33.0 20.85 33.0 20.85 39.3 20.85 33.0 M26.5 33.0 L26.5 39.3 26.5 33.0 M23.55 39.3 L23.55 33.0 23.55 39.3 M18.0 33.0 L18.0 39.3 18.0 33.0 M15.3 39.3 L15.3 33.0 15.3 39.3" fill="url(#gradient0)" fill-rule="evenodd" stroke="none"/>
    <path d="M20.85 33.0 L23.55 33.0 26.5 33.0 29.15 33.0 29.15 39.3 26.5 39.3 23.55 39.3 20.85 39.3 18.0 39.3 15.3 39.3 12.45 39.3 12.45 33.0 15.3 33.0 18.0 33.0 20.85 33.0 20.85 39.3 M15.3 33.0 L15.3 39.3 M18.0 39.3 L18.0 33.0 M23.55 33.0 L23.55 39.3 M26.5 39.3 L26.5 33.0" fill="none" stroke="#000000" stroke-linecap="round" stroke-linejoin="round" stroke-width="1.0"/>
    <path d="M22.85 41.45 L25.55 41.45 28.5 41.45 31.15 41.45 31.15 47.75 28.5 47.75 25.55 47.75 22.85 47.75 20.0 47.75 17.3 47.75 14.45 47.75 14.45 41.45 17.3 41.45 20.0 41.45 22.85 41.45 22.85 47.75 22.85 41.45 M28.5 41.45 L28.5 47.75 28.5 41.45 M25.55 47.75 L25.55 41.45 25.55 47.75 M20.0 41.45 L20.0 47.75 20.0 41.45 M17.3 47.75 L17.3 41.45 17.3 47.75" fill="url(#gradient1)" fill-rule="evenodd" stroke="none"/>
    <path d="M22.85 41.45 L25.55 41.45 28.5 41.45 31.15 41.45 31.15 47.75 28.5 47.75 25.55 47.75 22.85 47.75 20.0 47.75 17.3 47.75 14.45 47.75 14.45 41.45 17.3 41.45 20.0 41.45 22.85 41.45 22.85 47.75 M17.3 41.45 L17.3 47.75 M20.0 47.75 L20.0 41.45 M25.55 41.45 L25.55 47.75 M28.5 47.75 L28.5 41.45" fill="none" stroke="#000000" stroke-linecap="round" stroke-linejoin="round" stroke-width="1.0"/>
    <path d="M18.85 24.85 L21.55 24.85 24.5 24.85 27.15 24.85 27.15 31.15 24.5 31.15 21.55 31.15 18.85 31.15 16.0 31.15 13.3 31.15 10.45 31.15 10.45 24.85 13.3 24.85 16.0 24.85 18.85 24.85 18.85 31.15 18.85 24.85 M24.5 24.85 L24.5 31.15 24.5 24.85 M21.55 31.15 L21.55 24.85 21.55 31.15 M16.0 24.85 L16.0 31.15 16.0 24.85 M13.3 31.15 L13.3 24.85 13.3 31.15" fill="url(#gradient2)" fill-rule="evenodd" stroke="none"/>
    <path d="M18.85 24.85 L21.55 24.85 24.5 24.85 27.15 24.85 27.15 31.15 24.5 31.15 21.55 31.15 18.85 31.15 16.0 31.15 13.3 31.15 10.45 31.15 10.45 24.85 13.3 24.85 16.0 24.85 18.85 24.85 18.85 31.15 M13.3 24.85 L13.3 31.15 M16.0 31.15 L16.0 24.85 M21.55 24.85 L21.55 31.15 M24.5 31.15 L24.5 24.85" fill="none" stroke="#000000" stroke-linecap="round" stroke-linejoin="round" stroke-width="1.0"/>
    <path d="M83.85 31.45 L83.05 31.45 Q64.45 32.0 45.9 27.05 43.5 25.95 41.8 24.4 38.35 21.7 37.3 17.5 60.9 20.2 71.75 19.25 78.55 22.55 83.85 31.45 M79.8 30.45 L74.7 29.1 70.15 30.05 74.7 29.1 77.1 28.6 74.7 29.1 79.8 30.45" fill="url(#gradient3)" fill-rule="evenodd" stroke="none"/>
    <path d="M92.75 31.6 L83.85 31.45 Q78.55 22.55 71.75 19.25 L75.45 18.75 Q83.85 23.3 92.75 31.6" fill="url(#gradient4)" fill-rule="evenodd" stroke="none"/>
    <path d="M41.45 36.15 Q41.45 35.25 42.1 34.6 42.75 33.95 43.65 33.95 44.55 33.95 45.2 34.6 45.85 35.25 45.85 36.15 45.85 37.05 45.2 37.7 44.55 38.35 43.65 38.35 42.75 38.35 42.1 37.7 41.45 37.05 41.45 36.15" fill="url(#gradient5)" fill-rule="evenodd" stroke="none"/>
    <path d="M83.3 53.15 Q86.6 49.4 90.55 41.5 93.6 35.15 99.5 33.45 L103.15 29.8 Q111.4 37.25 116.95 48.35 L108.4 47.05 Q98.9 47.7 98.9 55.2 93.2 58.35 83.3 53.15" fill="url(#gradient6)" fill-rule="evenodd" stroke="none"/>
    <path d="M45.9 27.05 Q50.55 38.05 66.65 41.4 71.35 51.4 65.7 53.15 52.95 58.0 41.0 53.45 38.85 45.0 32.4 45.2 L21.9 45.2 Q23.35 33.4 20.85 26.45 27.8 26.25 34.9 31.25 37.15 17.0 31.85 14.55 L36.9 14.2 Q36.9 15.95 37.3 17.5 38.35 21.7 41.8 24.4 43.5 25.95 45.9 27.05 M41.45 36.15 Q41.45 37.05 42.1 37.7 42.75 38.35 43.65 38.35 44.55 38.35 45.2 37.7 45.85 37.05 45.85 36.15 45.85 35.25 45.2 34.6 44.55 33.95 43.65 33.95 42.75 33.95 42.1 34.6 41.45 35.25 41.45 36.15 M50.65 53.55 L50.65 49.6 50.65 53.55 M54.75 51.7 L54.75 48.85 54.75 51.7 M52.65 52.8 L52.65 49.2 52.65 52.8" fill="url(#gradient7)" fill-rule="evenodd" stroke="none"/>
    <path d="M26.9 14.85 Q26.85 18.45 22.3 20.55 22.6 23.75 20.85 26.45 2.85 9.0 0.0 0.0 8.95 9.1 26.9 14.85" fill="url(#gradient8)" fill-rule="evenodd" stroke="none"/>
    <path d="M31.85 14.55 Q37.15 17.0 34.9 31.25 27.8 26.25 20.85 26.45 22.6 23.75 22.3 20.55 26.85 18.45 26.9 14.85 L31.85 14.55 M26.8 20.65 L29.1 21.65 26.8 20.65 25.65 22.55 26.8 20.65 27.9 18.7 26.8 20.65" fill="url(#gradient9)" fill-rule="evenodd" stroke="none"/>
    <path d="M75.45 18.75 L71.75 19.25 Q60.9 20.2 37.3 17.5 36.9 15.95 36.9 14.2 L41.8 14.2 Q56.4 14.2 75.45 18.75" fill="url(#gradient10)" fill-rule="evenodd" stroke="none"/>
    <path d="M83.85 31.45 L92.75 31.6 99.5 33.45 Q93.6 35.15 90.55 41.5 86.6 49.4 83.3 53.15 L65.7 53.15 Q71.35 51.4 66.65 41.4 50.55 38.05 45.9 27.05 64.45 32.0 83.05 31.45 L83.85 31.45 M90.55 36.25 L91.8 34.75 90.55 36.25 M88.35 36.0 L90.45 33.65 88.35 36.0 M80.35 51.7 L82.35 51.7 82.35 50.1 80.35 50.1 80.35 48.3 82.35 48.3 80.35 48.3 80.35 50.1 82.35 50.1 82.35 51.7 80.35 51.7 M72.55 37.25 L64.65 37.25 63.0 35.15 64.65 37.25 72.55 37.25 M75.4 48.4 L74.25 48.4 73.1 48.4 74.25 48.4 75.4 48.4 M78.7 50.65 L78.7 51.75 76.95 51.75 76.95 48.25 78.7 48.25 76.95 48.25 76.95 51.75 78.7 51.75 78.7 50.65 M74.25 48.4 L74.25 51.7 74.25 48.4" fill="url(#gradient11)" fill-rule="evenodd" stroke="none"/>
    <path d="M92.75 31.6 L83.85 31.45 83.05 31.45 Q64.45 32.0 45.9 27.05 50.55 38.05 66.65 41.4 71.35 51.4 65.7 53.15 L83.3 53.15 Q86.6 49.4 90.55 41.5 93.6 35.15 99.5 33.45 L92.75 31.6 Q83.85 23.3 75.45 18.75 L71.75 19.25 Q78.55 22.55 83.85 31.45 M90.45 33.65 L88.35 36.0 M91.8 34.75 L90.55 36.25 M99.5 33.45 L103.15 29.8 Q111.4 37.25 116.95 48.35 L108.4 47.05 Q98.9 47.7 98.9 55.2 93.2 58.35 83.3 53.15 M82.35 48.3 L80.35 48.3 80.35 50.1 82.35 50.1 82.35 51.7 80.35 51.7 M41.45 36.15 Q41.45 35.25 42.1 34.6 42.75 33.95 43.65 33.95 44.55 33.95 45.2 34.6 45.85 35.25 45.85 36.15 45.85 37.05 45.2 37.7 44.55 38.35 43.65 38.35 42.75 38.35 42.1 37.7 41.45 37.05 41.45 36.15 M78.7 48.25 L76.95 48.25 76.95 51.75 78.7 51.75 78.7 50.65 M73.1 48.4 L74.25 48.4 75.4 48.4 M63.0 35.15 L64.65 37.25 72.55 37.25 M70.15 30.05 L74.7 29.1 77.1 28.6 M74.7 29.1 L79.8 30.45 M45.9 27.05 Q43.5 25.95 41.8 24.4 38.35 21.7 37.3 17.5 36.9 15.95 36.9 14.2 L31.85 14.55 Q37.15 17.0 34.9 31.25 27.8 26.25 20.85 26.45 23.35 33.4 21.9 45.2 L32.4 45.2 Q38.85 45.0 41.0 53.45 52.95 58.0 65.7 53.15 M75.45 18.75 Q56.4 14.2 41.8 14.2 L36.9 14.2 M26.9 14.85 Q26.85 18.45 22.3 20.55 22.6 23.75 20.85 26.45 2.85 9.0 0.0 0.0 8.95 9.1 26.9 14.85 L31.85 14.55 M25.65 22.55 L26.8 20.65 27.9 18.7 M29.1 21.65 L26.8 20.65 M50.65 49.6 L50.65 53.55 M74.25 51.7 L74.25 48.4 M52.65 49.2 L52.65 52.8 M54.75 48.85 L54.75 51.7 M37.3 17.5 Q60.9 20.2 71.75 19.25" fill="none" stroke="#000000" stroke-linecap="round" stroke-linejoin="round" stroke-width="1.0"/>
  </g>
  <defs>
    <linearGradient gradientTransform="matrix(0.0, 0.0036, -0.0102, 0.0, 20.8, 36.2)" gradientUnits="userSpaceOnUse" id="gradient0" spreadMethod="pad" x1="-819.2" x2="819.2">
      <stop offset="0.0" stop-color="#9d9d9d"/>
      <stop offset="0.33725490196078434" stop-color="#555555"/>
      <stop offset="1.0" stop-color="#777777"/>
    </linearGradient>
    <linearGradient gradientTransform="matrix(0.0, 0.0036, -0.0102, 0.0, 22.8, 44.65)" gradientUnits="userSpaceOnUse" id="gradient1" spreadMethod="pad" x1="-819.2" x2="819.2">
      <stop offset="0.0" stop-color="#9d9d9d"/>
      <stop offset="0.33725490196078434" stop-color="#555555"/>
      <stop offset="1.0" stop-color="#777777"/>
    </linearGradient>
    <linearGradient gradientTransform="matrix(0.0, 0.0036, -0.0102, 0.0, 18.8, 28.05)" gradientUnits="userSpaceOnUse" id="gradient2" spreadMethod="pad" x1="-819.2" x2="819.2">
      <stop offset="0.0" stop-color="#9d9d9d"/>
      <stop offset="0.33725490196078434" stop-color="#555555"/>
      <stop offset="1.0" stop-color="#777777"/>
    </linearGradient>
    <radialGradient cx="0" cy="0" gradientTransform="matrix(0.0057, -0.0215, 0.0481, 0.0128, 67.05, 33.9)" gradientUnits="userSpaceOnUse" id="gradient3" r="819.2" spreadMethod="pad">
      <stop offset="0.0" stop-color="#ffffff"/>
      <stop offset="0.7725490196078432" stop-color="#bfd9d3"/>
      <stop offset="1.0" stop-color="#fef5b4"/>
    </radialGradient>
    <radialGradient cx="0" cy="0" gradientTransform="matrix(0.0116, -0.0143, 0.0208, 0.017, 71.7, 31.3)" gradientUnits="userSpaceOnUse" id="gradient4" r="819.2" spreadMethod="pad">
      <stop offset="0.0" stop-color="#ffffff"/>
      <stop offset="1.0" stop-color="#626262"/>
    </radialGradient>
    <radialGradient cx="0" cy="0" gradientTransform="matrix(0.0534, 0.0, 0.0, 0.0534, 56.0, 15.15)" gradientUnits="userSpaceOnUse" id="gradient5" r="819.2" spreadMethod="pad">
      <stop offset="0.0" stop-color="#ffffff"/>
      <stop offset="1.0" stop-color="#000000"/>
    </radialGradient>
    <radialGradient cx="0" cy="0" gradientTransform="matrix(0.0227, -0.0227, 0.0352, 0.0352, 82.0, 22.8)" gradientUnits="userSpaceOnUse" id="gradient6" r="819.2" spreadMethod="pad">
      <stop offset="0.5019607843137255" stop-color="#ffffff"/>
      <stop offset="1.0" stop-color="#333333"/>
    </radialGradient>
    <radialGradient cx="0" cy="0" gradientTransform="matrix(0.0534, 0.0, 0.0, 0.0534, 56.0, 15.15)" gradientUnits="userSpaceOnUse" id="gradient7" r="819.2" spreadMethod="pad">
      <stop offset="0.5215686274509804" stop-color="#ffffff"/>
      <stop offset="0.8313725490196079" stop-color="#5a5a5a"/>
      <stop offset="1.0" stop-color="#373737"/>
    </radialGradient>
    <radialGradient cx="0" cy="0" fx="-3.2" fy="0" gradientTransform="matrix(0.0186, -0.0221, 0.0525, 0.0441, 19.0, 4.0)" gradientUnits="userSpaceOnUse" id="gradient8" r="819.2" spreadMethod="pad">
      <stop offset="0.0" stop-color="#565656"/>
      <stop offset="1.0" stop-color="#000000"/>
    </radialGradient>
    <radialGradient cx="0" cy="0" gradientTransform="matrix(0.0175, -0.0175, 0.0208, 0.0208, 38.0, 32.0)" gradientUnits="userSpaceOnUse" id="gradient9" r="819.2" spreadMethod="pad">
      <stop offset="0.0" stop-color="#7b7b7b"/>
      <stop offset="0.6313725490196078" stop-color="#393939"/>
      <stop offset="1.0" stop-color="#5e5e5e"/>
    </radialGradient>
    <radialGradient cx="0" cy="0" gradientTransform="matrix(-0.001, 0.0101, -0.0417, -0.0042, 50.0, 15.0)" gradientUnits="userSpaceOnUse" id="gradient10" r="819.2" spreadMethod="pad">
      <stop offset="0.0" stop-color="#5e5e5e"/>
      <stop offset="1.0" stop-color="#222222"/>
    </radialGradient>
    <radialGradient cx="0" cy="0" gradientTransform="matrix(0.0, 0.0369, -0.0696, 0.0, 74.0, 29.25)" gradientUnits="userSpaceOnUse" id="gradient11" r="819.2" spreadMethod="pad">
      <stop offset="0.0" stop-color="#6a6a6a"/>
      <stop offset="1.0" stop-color="#000000"/>
    </radialGradient>
  </defs>
</svg>
