<?xml version="1.0" encoding="UTF-8" standalone="no"?>
<svg xmlns:xlink="http://www.w3.org/1999/xlink" height="10.6px" width="17.1px" xmlns="http://www.w3.org/2000/svg">
  <g transform="matrix(1.0, 0.0, 0.0, 1.0, 4.9, 3.9)">
    <path d="M4.5 6.2 L-0.55 6.2 -3.35 5.2 3.1 1.0 3.1 0.95 3.1 1.0 4.5 6.2" fill="#996600" fill-rule="evenodd" stroke="none"/>
    <path d="M-3.35 5.2 L-4.35 0.25 Q-4.75 -1.55 -0.4 -3.4 L4.55 -3.4 Q5.55 0.7 10.35 2.9 L3.1 1.0 -3.35 5.2 M3.1 0.95 L3.1 1.0 3.1 0.95" fill="#d27e02" fill-rule="evenodd" stroke="none"/>
    <path d="M10.35 2.9 Q12.35 4.55 11.35 6.2 L4.5 6.2 3.1 1.0 10.35 2.9" fill="#e38902" fill-rule="evenodd" stroke="none"/>
    <path d="M-3.35 5.2 L-4.35 0.25 Q-4.75 -1.55 -0.4 -3.4 L4.55 -3.4 Q5.55 0.7 10.35 2.9 12.35 4.55 11.35 6.2 L4.5 6.2 -0.55 6.2 -3.35 5.2 M3.1 1.0 L3.1 0.95" fill="none" stroke="#000000" stroke-linecap="round" stroke-linejoin="round" stroke-width="1.0"/>
    <path d="M3.1 0.95 L3.1 1.0" fill="none" stroke="#c17402" stroke-linecap="round" stroke-linejoin="round" stroke-width="1.0"/>
  </g>
</svg>
