<?xml version="1.0" encoding="UTF-8" standalone="no"?>
<svg xmlns:xlink="http://www.w3.org/1999/xlink" height="39.9px" width="48.8px" xmlns="http://www.w3.org/2000/svg">
  <g transform="matrix(1.0, 0.0, 0.0, 1.0, 24.4, 19.95)">
    <path d="M3.4 -15.45 L1.4 -19.45 14.9 -14.4 23.9 3.05 13.25 -5.95 1.4 -1.95 2.3 -8.0 -2.3 -8.0 -1.4 -1.95 -13.25 -5.95 -23.9 3.05 -14.9 -14.4 -1.4 -19.45 -3.4 -15.45 -2.75 -11.0 2.75 -11.0 3.4 -15.45 M4.65 -6.05 L11.55 -12.0 6.6 -13.0 4.65 -6.05 M-11.35 -12.0 L-4.4 -6.05 -6.4 -13.0 -11.35 -12.0" fill="url(#gradient0)" fill-rule="evenodd" stroke="none"/>
    <path d="M13.25 -5.95 L11.4 -4.0 3.4 0.0 -3.4 0.0 -11.4 -4.0 -13.25 -5.95 -1.4 -1.95 -2.3 -8.0 2.3 -8.0 1.4 -1.95 13.25 -5.95 M4.65 -6.05 L6.6 -13.0 11.55 -12.0 4.65 -6.05 M-11.35 -12.0 L-6.4 -13.0 -4.4 -6.05 -11.35 -12.0" fill="#1e1e1e" fill-rule="evenodd" stroke="none"/>
    <path d="M13.35 8.0 L13.3 7.95 13.35 7.95 13.35 8.0" fill="url(#gradient1)" fill-rule="evenodd" stroke="none"/>
    <path d="M-13.35 8.0 L-9.45 9.45 -9.55 9.45 -9.55 19.45 -17.4 12.0 -17.4 11.95 -13.35 8.0" fill="url(#gradient2)" fill-rule="evenodd" stroke="none"/>
    <path d="M-17.4 11.95 L-19.75 3.9 -14.2 2.7 -13.35 8.0 -17.4 11.95" fill="url(#gradient3)" fill-rule="evenodd" stroke="none"/>
    <path d="M14.2 2.65 L14.2 2.7 19.75 3.9 17.4 11.95 13.35 7.95 14.2 2.65" fill="url(#gradient4)" fill-rule="evenodd" stroke="none"/>
    <path d="M17.4 11.95 L17.4 12.0 9.55 19.45 9.55 9.45 9.5 9.45 13.4 8.05 13.35 8.0 13.35 7.95 17.4 11.95" fill="url(#gradient5)" fill-rule="evenodd" stroke="none"/>
    <path d="M11.4 -4.0 L13.85 -0.95 11.15 0.85 14.2 2.65 13.35 7.95 13.3 7.95 3.4 0.0 11.4 -4.0" fill="url(#gradient6)" fill-rule="evenodd" stroke="none"/>
    <path d="M-3.4 0.0 L-13.35 8.0 -14.2 2.7 -11.15 0.85 -13.85 -0.95 -11.4 -4.0 -3.4 0.0" fill="url(#gradient7)" fill-rule="evenodd" stroke="none"/>
    <path d="M-3.4 -15.45 Q0.0 -18.7 3.4 -15.45 L2.75 -11.0 -2.75 -11.0 -3.4 -15.45" fill="url(#gradient8)" fill-rule="evenodd" stroke="none"/>
    <path d="M3.4 -15.45 L1.4 -19.45 14.9 -14.4 23.9 3.05 13.25 -5.95 11.4 -4.0 13.85 -0.95 M19.75 3.9 L17.4 11.95 17.4 12.0 9.55 19.45 M9.5 9.45 L13.4 8.05 13.35 8.0 13.3 7.95 3.4 0.0 11.4 -4.0 M-11.4 -4.0 L-13.25 -5.95 -23.9 3.05 -14.9 -14.4 -1.4 -19.45 -3.4 -15.45 Q0.0 -18.7 3.4 -15.45 L2.75 -11.0 M-2.75 -11.0 L-3.4 -15.45 M13.25 -5.95 L1.4 -1.95 2.3 -8.0 M-2.3 -8.0 L-1.4 -1.95 -13.25 -5.95 M4.65 -6.05 L11.55 -12.0 6.6 -13.0 4.65 -6.05 M-3.4 0.0 L-11.4 -4.0" fill="none" stroke="#000000" stroke-linecap="round" stroke-linejoin="round" stroke-width="1.0"/>
    <path d="M13.85 -0.95 L11.15 0.85 14.2 2.65 14.2 2.7 19.75 3.9 M-3.4 0.0 L-13.35 8.0 -9.45 9.45 M-9.55 19.45 L-17.4 12.0 -17.4 11.95 -19.75 3.9 -14.2 2.7 -11.15 0.85 -13.85 -0.95 -11.4 -4.0 M2.75 -11.0 L-2.75 -11.0 M2.3 -8.0 L-2.3 -8.0 M13.35 7.95 L13.35 8.0 M13.3 7.95 L13.35 7.95 14.2 2.65 M13.35 7.95 L17.4 11.95 M-11.35 -12.0 L-6.4 -13.0 -4.4 -6.05 -11.35 -12.0 M-13.35 8.0 L-14.2 2.7 M-17.4 11.95 L-13.35 8.0" fill="none" stroke="#000000" stroke-linecap="round" stroke-linejoin="round" stroke-width="1.0"/>
  </g>
  <defs>
    <radialGradient cx="0" cy="0" gradientTransform="matrix(0.0373, 0.0, 0.0, 0.0373, 0.6, 11.05)" gradientUnits="userSpaceOnUse" id="gradient0" r="819.2" spreadMethod="pad">
      <stop offset="0.48627450980392156" stop-color="#ffffff"/>
      <stop offset="1.0" stop-color="#373737"/>
    </radialGradient>
    <radialGradient cx="0" cy="0" gradientTransform="matrix(-0.0311, 0.0, 0.0, 0.0311, 0.4, 16.05)" gradientUnits="userSpaceOnUse" id="gradient1" r="819.2" spreadMethod="pad">
      <stop offset="0.48627450980392156" stop-color="#b3b3b3"/>
      <stop offset="1.0" stop-color="#555555"/>
    </radialGradient>
    <radialGradient cx="0" cy="0" gradientTransform="matrix(0.0311, 0.0, 0.0, 0.0311, -0.4, 16.05)" gradientUnits="userSpaceOnUse" id="gradient2" r="819.2" spreadMethod="pad">
      <stop offset="0.48627450980392156" stop-color="#595959"/>
      <stop offset="1.0" stop-color="#000000"/>
    </radialGradient>
    <radialGradient cx="0" cy="0" gradientTransform="matrix(0.0311, 0.0, 0.0, 0.0311, -0.4, 16.05)" gradientUnits="userSpaceOnUse" id="gradient3" r="819.2" spreadMethod="pad">
      <stop offset="0.48627450980392156" stop-color="#ffffff"/>
      <stop offset="1.0" stop-color="#555555"/>
    </radialGradient>
    <radialGradient cx="0" cy="0" gradientTransform="matrix(-0.0311, 0.0, 0.0, 0.0311, 0.4, 16.05)" gradientUnits="userSpaceOnUse" id="gradient4" r="819.2" spreadMethod="pad">
      <stop offset="0.48627450980392156" stop-color="#ffffff"/>
      <stop offset="1.0" stop-color="#555555"/>
    </radialGradient>
    <radialGradient cx="0" cy="0" gradientTransform="matrix(-0.0311, 0.0, 0.0, 0.0311, 0.4, 16.05)" gradientUnits="userSpaceOnUse" id="gradient5" r="819.2" spreadMethod="pad">
      <stop offset="0.48627450980392156" stop-color="#595959"/>
      <stop offset="1.0" stop-color="#000000"/>
    </radialGradient>
    <radialGradient cx="0" cy="0" gradientTransform="matrix(-0.0311, 0.0, 0.0, 0.0311, 0.4, 16.05)" gradientUnits="userSpaceOnUse" id="gradient6" r="819.2" spreadMethod="pad">
      <stop offset="0.48627450980392156" stop-color="#4d4d4d"/>
      <stop offset="1.0" stop-color="#373737"/>
    </radialGradient>
    <radialGradient cx="0" cy="0" gradientTransform="matrix(0.0311, 0.0, 0.0, 0.0311, -0.4, 16.05)" gradientUnits="userSpaceOnUse" id="gradient7" r="819.2" spreadMethod="pad">
      <stop offset="0.48627450980392156" stop-color="#4d4d4d"/>
      <stop offset="1.0" stop-color="#373737"/>
    </radialGradient>
    <radialGradient cx="0" cy="0" gradientTransform="matrix(0.0069, 0.0, 0.0, 0.0069, 0.0, -12.0)" gradientUnits="userSpaceOnUse" id="gradient8" r="819.2" spreadMethod="pad">
      <stop offset="0.0" stop-color="#000000" stop-opacity="0.32156864"/>
      <stop offset="0.3058823529411765" stop-color="#000000" stop-opacity="0.5921569"/>
      <stop offset="0.3803921568627451" stop-color="#000000"/>
      <stop offset="0.43137254901960786" stop-color="#000000" stop-opacity="0.0"/>
      <stop offset="0.788235294117647" stop-color="#000000" stop-opacity="0.72156864"/>
      <stop offset="1.0" stop-color="#000000"/>
    </radialGradient>
  </defs>
</svg>
