<?xml version="1.0" encoding="UTF-8" standalone="no"?>
<svg xmlns:xlink="http://www.w3.org/1999/xlink" height="10.65px" width="43.2px" xmlns="http://www.w3.org/2000/svg">
  <g transform="matrix(1.0, 0.0, 0.0, 1.0, 10.55, 5.4)">
    <path d="M10.2 0.7 L9.45 -0.55 8.7 -1.8 15.4 -1.8 15.4 -0.55 15.4 0.7 10.2 0.7 M-6.15 -3.25 L-6.15 -0.25 -7.35 1.25 -10.05 1.25 -10.05 -1.45 -6.15 -3.25 M-3.55 2.75 L3.45 2.75 1.45 4.75 -1.55 4.75 -3.55 2.75 M9.45 -0.55 L15.4 -0.55 9.45 -0.55" fill="#333333" fill-rule="evenodd" stroke="none"/>
    <path d="M8.7 -1.8 L9.45 -0.55 10.2 0.7 11.4 2.75 3.45 2.75 -3.55 2.75 -8.6 2.75 -7.35 1.25 -6.15 -0.25 -6.15 -3.25 7.85 -3.25 8.7 -1.8 M-0.95 -0.75 L-2.95 1.25 -0.95 -0.75 M-3.0 -0.75 L-5.0 1.25 -3.0 -0.75 M1.05 -0.65 L-0.95 1.35 1.05 -0.65" fill="#cccccc" fill-rule="evenodd" stroke="none"/>
    <path d="M10.2 0.7 L9.45 -0.55 8.7 -1.8 7.85 -3.25 -6.15 -3.25 -6.15 -0.25 -7.35 1.25 -8.6 2.75 -3.55 2.75 3.45 2.75 11.4 2.75 10.2 0.7 M-7.35 1.25 L-10.05 1.25 -10.05 -1.45 -6.15 -3.25 M3.45 2.75 L1.45 4.75 -1.55 4.75 -3.55 2.75 M-0.95 1.35 L1.05 -0.65 M-5.0 1.25 L-3.0 -0.75 M-2.95 1.25 L-0.95 -0.75" fill="none" stroke="#000000" stroke-linecap="round" stroke-linejoin="round" stroke-width="1.0"/>
    <path d="M10.2 0.7 L15.4 0.7 15.4 -0.55 15.4 -1.8 8.7 -1.8" fill="none" stroke="#000000" stroke-linecap="round" stroke-linejoin="round" stroke-width="1.0"/>
    <path d="M15.4 -0.55 L9.45 -0.55" fill="none" stroke="#000000" stroke-linecap="round" stroke-linejoin="round" stroke-width="1.0"/>
    <path d="M13.5 -4.05 Q14.25 -5.4 15.35 -5.4 16.45 -5.4 17.2 -4.05 18.0 -2.65 18.0 -0.7 18.0 1.2 17.2 2.6 16.45 4.0 15.35 4.0 14.25 4.0 13.5 2.6 12.7 1.2 12.7 -0.7 12.7 -2.65 13.5 -4.05" fill="url(#gradient0)" fill-rule="evenodd" stroke="none"/>
    <path d="M32.65 -0.45 Q32.65 0.7 28.2 1.5 L17.45 2.3 15.4 2.3 15.4 -3.2 17.45 -3.25 28.2 -2.45 Q32.65 -1.65 32.65 -0.45" fill="url(#gradient1)" fill-rule="evenodd" stroke="none"/>
  </g>
  <defs>
    <radialGradient cx="0" cy="0" gradientTransform="matrix(0.0033, 0.0, 0.0, 0.0059, 15.35, -0.7)" gradientUnits="userSpaceOnUse" id="gradient0" r="819.2" spreadMethod="pad">
      <stop offset="0.36470588235294116" stop-color="#ffffff"/>
      <stop offset="1.0" stop-color="#00ccff" stop-opacity="0.0"/>
    </radialGradient>
    <radialGradient cx="0" cy="0" gradientTransform="matrix(0.0186, 0.0, 0.0, 0.0034, 17.5, -0.5)" gradientUnits="userSpaceOnUse" id="gradient1" r="819.2" spreadMethod="pad">
      <stop offset="0.36470588235294116" stop-color="#ffffff"/>
      <stop offset="1.0" stop-color="#00e6ff" stop-opacity="0.0"/>
    </radialGradient>
  </defs>
</svg>
