<?xml version="1.0" encoding="UTF-8" standalone="no"?>
<svg xmlns:xlink="http://www.w3.org/1999/xlink" height="27.95px" width="29.25px" xmlns="http://www.w3.org/2000/svg">
  <g transform="matrix(1.0, 0.0, 0.0, 1.0, 15.0, 3.45)">
    <path d="M6.05 17.5 Q4.6 10.35 4.6 0.2 L4.6 -3.45 14.15 -3.45 14.25 0.2 Q14.25 10.35 12.9 17.5 11.45 24.5 9.45 24.5 7.4 24.5 6.05 17.5" fill="url(#gradient0)" fill-rule="evenodd" stroke="none"/>
    <path d="M-13.55 17.5 Q-15.0 10.35 -15.0 0.2 L-15.0 -3.45 -5.45 -3.45 -5.35 0.2 Q-5.35 10.35 -6.7 17.5 -8.15 24.5 -10.15 24.5 -12.2 24.5 -13.55 17.5" fill="url(#gradient1)" fill-rule="evenodd" stroke="none"/>
  </g>
  <defs>
    <radialGradient cx="0" cy="0" gradientTransform="matrix(-0.006, 0.0, 0.0, -0.03, 9.45, 0.2)" gradientUnits="userSpaceOnUse" id="gradient0" r="819.2" spreadMethod="pad">
      <stop offset="0.30196078431372547" stop-color="#ffffff"/>
      <stop offset="1.0" stop-color="#3399ff" stop-opacity="0.0"/>
    </radialGradient>
    <radialGradient cx="0" cy="0" gradientTransform="matrix(-0.006, 0.0, 0.0, -0.03, -10.15, 0.2)" gradientUnits="userSpaceOnUse" id="gradient1" r="819.2" spreadMethod="pad">
      <stop offset="0.30196078431372547" stop-color="#ffffff"/>
      <stop offset="1.0" stop-color="#3399ff" stop-opacity="0.0"/>
    </radialGradient>
  </defs>
</svg>
