<?xml version="1.0" encoding="UTF-8" standalone="no"?>
<svg xmlns:xlink="http://www.w3.org/1999/xlink" height="23.5px" width="27.65px" xmlns="http://www.w3.org/2000/svg">
  <g transform="matrix(1.0, 0.0, 0.0, 1.0, 13.8, 11.75)">
    <path d="M-7.15 -7.25 L-7.8 -2.8 -13.3 -2.8 -8.25 0.2 -9.15 6.25 2.7 2.25 13.35 11.25 4.35 -6.2 -9.15 -11.25 -7.15 -7.25 M0.8 -3.8 L-6.15 2.15 -4.15 -4.8 0.8 -3.8" fill="url(#gradient0)" fill-rule="evenodd" stroke="none"/>
    <path d="M0.8 -3.8 L-4.15 -4.8 -6.15 2.15 0.8 -3.8" fill="#0d0d0d" fill-rule="evenodd" stroke="none"/>
    <path d="M-7.15 -7.25 L-7.8 -2.8 -13.3 -2.8 -8.25 0.2 -9.15 6.25 2.7 2.25 13.35 11.25 4.35 -6.2 -9.15 -11.25 -7.15 -7.25 M0.8 -3.8 L-4.15 -4.8 -6.15 2.15 0.8 -3.8" fill="none" stroke="#000000" stroke-linecap="round" stroke-linejoin="round" stroke-width="1.0"/>
  </g>
  <defs>
    <radialGradient cx="0" cy="0" gradientTransform="matrix(-0.0373, 0.0, 0.0, 0.0373, -11.15, 19.25)" gradientUnits="userSpaceOnUse" id="gradient0" r="819.2" spreadMethod="pad">
      <stop offset="0.48627450980392156" stop-color="#484848"/>
      <stop offset="1.0" stop-color="#040404"/>
    </radialGradient>
  </defs>
</svg>
