<?xml version="1.0" encoding="UTF-8" standalone="no"?>
<svg xmlns:xlink="http://www.w3.org/1999/xlink" height="17.8px" width="13.35px" xmlns="http://www.w3.org/2000/svg">
  <g transform="matrix(1.0, 0.0, 0.0, 1.0, 6.7, 8.9)">
    <path d="M0.2 -3.1 L-0.65 -8.4 -0.65 -8.35 -6.2 -7.15 -3.85 0.9 0.2 -3.1" fill="url(#gradient0)" fill-rule="evenodd" stroke="none"/>
    <path d="M0.2 -3.1 L-3.85 0.9 -3.85 0.95 4.0 8.4 4.0 -1.6 4.05 -1.6 0.15 -3.0 0.2 -3.05 0.2 -3.1" fill="url(#gradient1)" fill-rule="evenodd" stroke="none"/>
    <path d="M4.0 8.4 L6.15 6.95 6.15 -0.15 4.05 -1.6 4.0 -1.6 4.0 8.4" fill="#e30202" fill-rule="evenodd" stroke="none"/>
    <path d="M-3.85 0.9 L-6.2 -7.15 -0.65 -8.35 -0.65 -8.4 0.2 -3.1 -3.85 0.9 -3.85 0.95 4.0 8.4 M4.05 -1.6 L0.15 -3.0 0.2 -3.05 0.2 -3.1" fill="none" stroke="#000000" stroke-linecap="round" stroke-linejoin="round" stroke-width="1.0"/>
    <path d="M4.0 8.4 L6.15 6.95 6.15 -0.15 4.05 -1.6 4.0 -1.6 4.0 8.4" fill="none" stroke="#000000" stroke-linecap="round" stroke-linejoin="round" stroke-width="1.0"/>
  </g>
  <defs>
    <radialGradient cx="0" cy="0" gradientTransform="matrix(0.0311, 0.0, 0.0, 0.0311, 13.15, 5.0)" gradientUnits="userSpaceOnUse" id="gradient0" r="819.2" spreadMethod="pad">
      <stop offset="0.48627450980392156" stop-color="#ffffff"/>
      <stop offset="1.0" stop-color="#555555"/>
    </radialGradient>
    <radialGradient cx="0" cy="0" gradientTransform="matrix(0.0311, 0.0, 0.0, 0.0311, 13.15, 5.0)" gradientUnits="userSpaceOnUse" id="gradient1" r="819.2" spreadMethod="pad">
      <stop offset="0.48627450980392156" stop-color="#595959"/>
      <stop offset="1.0" stop-color="#000000"/>
    </radialGradient>
  </defs>
</svg>
