<?xml version="1.0" encoding="UTF-8" standalone="no"?>
<svg xmlns:xlink="http://www.w3.org/1999/xlink" height="1377.45px" width="1594.15px" xmlns="http://www.w3.org/2000/svg">
  <g transform="matrix(1.0, 0.0, 0.0, 1.0, 766.95, 510.55)">
    <path d="M779.15 -359.55 L732.1 -359.55 732.1 -495.5 746.15 -509.55 779.15 -509.55 779.15 -445.55 779.15 -509.55 812.15 -509.55 826.2 -495.5 826.2 -359.55 779.15 -359.55 779.15 -390.05 779.15 -359.55 M779.15 -409.0 L778.6 -409.05 Q774.65 -409.05 771.85 -406.3 769.1 -403.5 769.1 -399.55 769.1 -395.6 771.85 -392.85 774.65 -390.05 778.6 -390.05 L779.15 -390.05 Q782.75 -390.25 785.3 -392.85 788.1 -395.6 788.1 -399.55 788.1 -403.5 785.3 -406.3 782.75 -408.85 779.15 -409.0 L779.15 -414.55 779.15 -409.0 M779.15 -445.55 L778.6 -445.55 Q772.2 -445.55 767.65 -441.0 763.1 -436.45 763.1 -430.05 763.1 -423.65 767.65 -419.1 772.2 -414.55 778.6 -414.55 L779.15 -414.55 Q785.2 -414.75 789.55 -419.1 794.1 -423.65 794.1 -430.05 794.1 -436.45 789.55 -441.0 785.2 -445.35 779.15 -445.55 M802.15 -448.05 L802.15 -461.55 802.15 -448.05 M799.6 -471.6 L799.6 -480.1 799.6 -471.6 M817.6 -468.1 L795.1 -468.1 789.6 -482.6 795.1 -468.1 817.6 -468.1 M808.55 -461.7 L807.15 -456.65 808.55 -461.7 M813.6 -475.1 L805.1 -475.1 813.6 -475.1 M18.95 -6.7 L51.95 -6.7 66.0 7.35 66.0 143.3 18.95 143.3 18.95 112.8 18.95 143.3 -28.1 143.3 -28.1 7.35 -14.05 -6.7 18.95 -6.7 18.95 57.3 18.95 -6.7 M18.95 88.3 Q25.0 88.1 29.35 83.75 33.9 79.2 33.9 72.8 33.9 66.4 29.35 61.85 25.0 57.5 18.95 57.3 L18.4 57.3 Q12.0 57.3 7.45 61.85 2.9 66.4 2.9 72.8 2.9 79.2 7.45 83.75 12.0 88.3 18.4 88.3 L18.95 88.3 18.95 93.85 18.95 88.3 M18.95 112.8 Q22.55 112.6 25.1 110.0 27.9 107.25 27.9 103.3 27.9 99.35 25.1 96.55 22.55 94.0 18.95 93.85 L18.4 93.8 Q14.45 93.8 11.65 96.55 8.9 99.35 8.9 103.3 8.9 107.25 11.65 110.0 14.45 112.8 18.4 112.8 L18.95 112.8 M57.4 34.75 L34.9 34.75 29.4 20.25 34.9 34.75 57.4 34.75 M39.4 31.25 L39.4 22.75 39.4 31.25 M48.35 41.15 L46.95 46.2 48.35 41.15 M53.4 27.75 L44.9 27.75 53.4 27.75 M41.95 54.8 L41.95 41.3 41.95 54.8" fill="#808080" fill-rule="evenodd" stroke="none"/>
    <path d="M779.15 -390.05 L778.6 -390.05 Q774.65 -390.05 771.85 -392.85 769.1 -395.6 769.1 -399.55 769.1 -403.5 771.85 -406.3 774.65 -409.05 778.6 -409.05 L779.15 -409.0 Q782.75 -408.85 785.3 -406.3 788.1 -403.5 788.1 -399.55 788.1 -395.6 785.3 -392.85 782.75 -390.25 779.15 -390.05 M779.15 -414.55 L778.6 -414.55 Q772.2 -414.55 767.65 -419.1 763.1 -423.65 763.1 -430.05 763.1 -436.45 767.65 -441.0 772.2 -445.55 778.6 -445.55 L779.15 -445.55 Q785.2 -445.35 789.55 -441.0 794.1 -436.45 794.1 -430.05 794.1 -423.65 789.55 -419.1 785.2 -414.75 779.15 -414.55 M18.95 57.3 Q25.0 57.5 29.35 61.85 33.9 66.4 33.9 72.8 33.9 79.2 29.35 83.75 25.0 88.1 18.95 88.3 L18.4 88.3 Q12.0 88.3 7.45 83.75 2.9 79.2 2.9 72.8 2.9 66.4 7.45 61.85 12.0 57.3 18.4 57.3 L18.95 57.3 M18.95 93.85 Q22.55 94.0 25.1 96.55 27.9 99.35 27.9 103.3 27.9 107.25 25.1 110.0 22.55 112.6 18.95 112.8 L18.4 112.8 Q14.45 112.8 11.65 110.0 8.9 107.25 8.9 103.3 8.9 99.35 11.65 96.55 14.45 93.8 18.4 93.8 L18.95 93.85" fill="#515151" fill-rule="evenodd" stroke="none"/>
    <path d="M-753.95 390.15 L-753.95 409.15 -753.95 428.15 -753.95 447.1 -753.95 466.1 -753.95 485.1 -753.95 504.1 -753.95 523.05 -753.95 542.05 M-753.95 693.95 L-753.95 713.0 -753.95 732.0 -753.95 750.95 -753.95 769.95 -753.95 788.95 -753.95 807.95 -753.95 826.9 -753.95 845.9 -753.95 864.9 M-764.95 409.15 L-764.95 428.15 -764.95 447.1 -764.95 466.1 -764.95 485.1 -764.95 504.1 -764.95 523.05 -764.95 542.05 M-764.95 409.15 L-764.95 390.15 M-764.95 864.9 L-764.95 845.9 -764.95 826.9 -764.95 807.95 -764.95 788.95 -764.95 769.95 -764.95 750.95 -764.95 732.0 -764.95 713.0 -764.95 693.95" fill="none" stroke="#000000" stroke-linecap="round" stroke-linejoin="round" stroke-width="4.0"/>
    <path d="M-753.95 -464.3 L-753.95 -483.25 -753.95 -502.25 M-764.95 -483.25 L-764.95 -464.3 -764.95 -445.3 -764.95 -426.3 -764.95 -407.3 -764.95 -388.35 -764.95 -369.35 -764.95 -350.35 -764.95 -331.35 -764.95 -312.4 -764.95 -293.4 -764.95 -274.4 -764.95 -255.4 -764.95 -236.45 -764.95 -217.45 -764.95 -198.45 -764.95 -179.45 -764.95 -160.5 -764.95 -141.5 -764.95 -122.5 -764.95 -103.5 -764.95 -84.55 -764.95 -65.55 -764.95 -46.55 -764.95 -27.55 -764.95 -8.6 -764.95 10.4 -764.95 29.4 -764.95 48.4 -764.95 67.35 -764.95 86.35 -764.95 105.35 -764.95 124.35 -764.95 143.3 -764.95 162.3 -764.95 181.3 -764.95 200.3 -764.95 219.25 -764.95 238.25 -764.95 257.25 -764.95 276.25 -764.95 295.2 -764.95 314.2 -764.95 333.2 -764.95 352.2 -764.95 371.15 -764.95 390.15 M-753.95 -464.3 L-753.95 -445.3 -753.95 -426.3 -753.95 -407.3 -753.95 -388.35 -753.95 -369.35 -753.95 -350.35 -753.95 -331.35 -753.95 -312.4 -753.95 -293.4 -753.95 -274.4 -753.95 -255.4 -753.95 -236.45 -753.95 -217.45 -753.95 -198.45 -753.95 -179.45 -753.95 -160.5 -753.95 -141.5 -753.95 -122.5 -753.95 -103.5 -753.95 -84.55 -753.95 -65.55 -753.95 -46.55 -753.95 -27.55 -753.95 -8.6 -753.95 10.4 -753.95 29.4 -753.95 48.4 -753.95 67.35 -753.95 86.35 -753.95 105.35 -753.95 124.35 -753.95 143.3 -753.95 162.3 -753.95 181.3 -753.95 200.3 -753.95 219.25 -753.95 238.25 -753.95 257.25 -753.95 276.25 -753.95 295.2 -753.95 314.2 -753.95 333.2 -753.95 352.2 -753.95 371.15 -753.95 390.15 M-753.95 542.05 L-753.95 561.05 -753.95 580.05 -753.95 599.0 -753.95 618.0 -753.95 637.0 -753.95 656.0 -753.95 674.95 -753.95 693.95 M-764.95 -502.25 L-764.95 -483.25 M-764.95 542.05 L-764.95 561.05 -764.95 580.05 -764.95 599.0 -764.95 618.0 -764.95 637.0 -764.95 656.0 -764.95 674.95 -764.95 693.95" fill="none" stroke="#000000" stroke-linecap="round" stroke-linejoin="round" stroke-width="4.0"/>
    <path d="M-753.95 -483.25 L-764.95 -483.25 M-764.95 -464.3 L-753.95 -464.3 M-764.95 -426.3 L-753.95 -426.3 M-764.95 -407.3 L-753.95 -407.3 M-753.95 -445.3 L-764.95 -445.3 M-753.95 -388.35 L-764.95 -388.35 M-764.95 -369.35 L-753.95 -369.35 M-753.95 -350.35 L-764.95 -350.35 M-764.95 -312.4 L-753.95 -312.4 M-753.95 -331.35 L-764.95 -331.35 M-764.95 -274.4 L-753.95 -274.4 M-764.95 -255.4 L-753.95 -255.4 M-753.95 -293.4 L-764.95 -293.4 M-764.95 -217.45 L-753.95 -217.45 M-753.95 -198.45 L-764.95 -198.45 M-753.95 -236.45 L-764.95 -236.45 M-753.95 -160.5 L-764.95 -160.5 M-764.95 -179.45 L-753.95 -179.45 M-764.95 -103.5 L-753.95 -103.5 M-764.95 -141.5 L-753.95 -141.5 M-753.95 -122.5 L-764.95 -122.5 M-764.95 -65.55 L-753.95 -65.55 M-753.95 -84.55 L-764.95 -84.55 M-753.95 -27.55 L-764.95 -27.55 M-764.95 -8.6 L-753.95 -8.6 M-753.95 -46.55 L-764.95 -46.55 M-764.95 29.4 L-753.95 29.4 M-764.95 48.4 L-753.95 48.4 M-753.95 10.4 L-764.95 10.4 M-764.95 86.35 L-753.95 86.35 M-753.95 67.35 L-764.95 67.35 M-753.95 124.35 L-764.95 124.35 M-764.95 143.3 L-753.95 143.3 M-753.95 105.35 L-764.95 105.35 M-764.95 181.3 L-753.95 181.3 M-753.95 162.3 L-764.95 162.3 M-753.95 238.25 L-764.95 238.25 M-764.95 219.25 L-753.95 219.25 M-753.95 200.3 L-764.95 200.3 M-764.95 257.25 L-753.95 257.25 M-753.95 276.25 L-764.95 276.25 M-764.95 295.2 L-753.95 295.2 M-764.95 333.2 L-753.95 333.2 M-753.95 314.2 L-764.95 314.2 M-753.95 371.15 L-764.95 371.15 M-764.95 390.15 L-753.95 390.15 M-753.95 352.2 L-764.95 352.2 M-764.95 428.15 L-753.95 428.15 M-764.95 447.1 L-753.95 447.1 M-753.95 409.15 L-764.95 409.15 M-764.95 485.1 L-753.95 485.1 M-753.95 466.1 L-764.95 466.1 M-764.95 523.05 L-753.95 523.05 M-764.95 542.05 L-753.95 542.05 M-764.95 561.05 L-753.95 561.05 M-753.95 504.1 L-764.95 504.1 M-764.95 580.05 L-753.95 580.05 M-764.95 599.0 L-753.95 599.0 M-764.95 618.0 L-753.95 618.0 M-764.95 637.0 L-753.95 637.0 M-764.95 656.0 L-753.95 656.0 M-764.95 674.95 L-753.95 674.95 M-764.95 693.95 L-753.95 693.95 M-753.95 732.0 L-764.95 732.0 M-764.95 713.0 L-753.95 713.0 M-764.95 750.95 L-753.95 750.95 M-753.95 769.95 L-764.95 769.95 M-764.95 788.95 L-753.95 788.95 M-764.95 826.9 L-753.95 826.9 M-753.95 807.95 L-764.95 807.95 M-764.95 845.9 L-753.95 845.9" fill="none" stroke="#000000" stroke-linecap="round" stroke-linejoin="round" stroke-width="3.0"/>
    <path d="M779.15 -509.55 L746.15 -509.55 732.1 -495.5 732.1 -359.55 779.15 -359.55 779.15 -390.05 778.6 -390.05 Q774.65 -390.05 771.85 -392.85 769.1 -395.6 769.1 -399.55 769.1 -403.5 771.85 -406.3 774.65 -409.05 778.6 -409.05 L779.15 -409.0 779.15 -414.55 778.6 -414.55 Q772.2 -414.55 767.65 -419.1 763.1 -423.65 763.1 -430.05 763.1 -436.45 767.65 -441.0 772.2 -445.55 778.6 -445.55 L779.15 -445.55 779.15 -509.55 812.15 -509.55 826.2 -495.5 826.2 -359.55 779.15 -359.55 M807.15 -456.65 L808.55 -461.7 M789.6 -482.6 L795.1 -468.1 817.6 -468.1 M799.6 -480.1 L799.6 -471.6 M802.15 -461.55 L802.15 -448.05 M779.15 -445.55 Q785.2 -445.35 789.55 -441.0 794.1 -436.45 794.1 -430.05 794.1 -423.65 789.55 -419.1 785.2 -414.75 779.15 -414.55 M779.15 -409.0 Q782.75 -408.85 785.3 -406.3 788.1 -403.5 788.1 -399.55 788.1 -395.6 785.3 -392.85 782.75 -390.25 779.15 -390.05 M805.1 -475.1 L813.6 -475.1 M18.95 143.3 L66.0 143.3 66.0 7.35 51.95 -6.7 18.95 -6.7 18.95 57.3 Q25.0 57.5 29.35 61.85 33.9 66.4 33.9 72.8 33.9 79.2 29.35 83.75 25.0 88.1 18.95 88.3 L18.95 93.85 Q22.55 94.0 25.1 96.55 27.9 99.35 27.9 103.3 27.9 107.25 25.1 110.0 22.55 112.6 18.95 112.8 L18.95 143.3 -28.1 143.3 -28.1 7.35 -14.05 -6.7 18.95 -6.7 M44.9 27.75 L53.4 27.75 M46.95 46.2 L48.35 41.15 M39.4 22.75 L39.4 31.25 M29.4 20.25 L34.9 34.75 57.4 34.75 M18.95 88.3 L18.4 88.3 Q12.0 88.3 7.45 83.75 2.9 79.2 2.9 72.8 2.9 66.4 7.45 61.85 12.0 57.3 18.4 57.3 L18.95 57.3 M18.95 112.8 L18.4 112.8 Q14.45 112.8 11.65 110.0 8.9 107.25 8.9 103.3 8.9 99.35 11.65 96.55 14.45 93.8 18.4 93.8 L18.95 93.85 M41.95 41.3 L41.95 54.8" fill="none" stroke="#333333" stroke-linecap="round" stroke-linejoin="round" stroke-width="2.0"/>
  </g>
</svg>
