<?xml version="1.0" encoding="UTF-8" standalone="no"?>
<svg xmlns:xlink="http://www.w3.org/1999/xlink" height="152.0px" width="96.1px" xmlns="http://www.w3.org/2000/svg">
  <g transform="matrix(1.0, 0.0, 0.0, 1.0, -744.95, 511.0)">
    <path d="M793.0 -360.0 L745.95 -360.0 745.95 -495.95 760.0 -510.0 793.0 -510.0 793.0 -446.0 793.0 -510.0 826.0 -510.0 840.05 -495.95 840.05 -360.0 793.0 -360.0 793.0 -390.5 793.0 -360.0 M793.0 -409.45 L792.45 -409.5 Q788.5 -409.5 785.7 -406.75 782.95 -403.95 782.95 -400.0 782.95 -396.05 785.7 -393.3 788.5 -390.5 792.45 -390.5 L793.0 -390.5 Q796.6 -390.7 799.15 -393.3 801.95 -396.05 801.95 -400.0 801.95 -403.95 799.15 -406.75 796.6 -409.3 793.0 -409.45 L793.0 -415.0 793.0 -409.45 M793.0 -446.0 L792.45 -446.0 Q786.05 -446.0 781.5 -441.45 776.95 -436.9 776.95 -430.5 776.95 -424.1 781.5 -419.55 786.05 -415.0 792.45 -415.0 L793.0 -415.0 Q799.05 -415.2 803.4 -419.55 807.95 -424.1 807.95 -430.5 807.95 -436.9 803.4 -441.45 799.05 -445.8 793.0 -446.0 M831.45 -468.55 L808.95 -468.55 803.45 -483.05 808.95 -468.55 831.45 -468.55 M816.0 -448.5 L816.0 -462.0 816.0 -448.5 M813.45 -472.05 L813.45 -480.55 813.45 -472.05 M822.4 -462.15 L821.0 -457.1 822.4 -462.15 M827.45 -475.55 L818.95 -475.55 827.45 -475.55" fill="#808080" fill-rule="evenodd" stroke="none"/>
    <path d="M793.0 -390.5 L792.45 -390.5 Q788.5 -390.5 785.7 -393.3 782.95 -396.05 782.95 -400.0 782.95 -403.95 785.7 -406.75 788.5 -409.5 792.45 -409.5 L793.0 -409.45 Q796.6 -409.3 799.15 -406.75 801.95 -403.95 801.95 -400.0 801.95 -396.05 799.15 -393.3 796.6 -390.7 793.0 -390.5 M793.0 -415.0 L792.45 -415.0 Q786.05 -415.0 781.5 -419.55 776.95 -424.1 776.95 -430.5 776.95 -436.9 781.5 -441.45 786.05 -446.0 792.45 -446.0 L793.0 -446.0 Q799.05 -445.8 803.4 -441.45 807.95 -436.9 807.95 -430.5 807.95 -424.1 803.4 -419.55 799.05 -415.2 793.0 -415.0" fill="#515151" fill-rule="evenodd" stroke="none"/>
    <path d="M793.0 -510.0 L760.0 -510.0 745.95 -495.95 745.95 -360.0 793.0 -360.0 793.0 -390.5 792.45 -390.5 Q788.5 -390.5 785.7 -393.3 782.95 -396.05 782.95 -400.0 782.95 -403.95 785.7 -406.75 788.5 -409.5 792.45 -409.5 L793.0 -409.45 793.0 -415.0 792.45 -415.0 Q786.05 -415.0 781.5 -419.55 776.95 -424.1 776.95 -430.5 776.95 -436.9 781.5 -441.45 786.05 -446.0 792.45 -446.0 L793.0 -446.0 793.0 -510.0 826.0 -510.0 840.05 -495.95 840.05 -360.0 793.0 -360.0 M803.45 -483.05 L808.95 -468.55 831.45 -468.55 M793.0 -446.0 Q799.05 -445.8 803.4 -441.45 807.95 -436.9 807.95 -430.5 807.95 -424.1 803.4 -419.55 799.05 -415.2 793.0 -415.0 M793.0 -409.45 Q796.6 -409.3 799.15 -406.75 801.95 -403.95 801.95 -400.0 801.95 -396.05 799.15 -393.3 796.6 -390.7 793.0 -390.5 M818.95 -475.55 L827.45 -475.55 M821.0 -457.1 L822.4 -462.15 M813.45 -480.55 L813.45 -472.05 M816.0 -462.0 L816.0 -448.5" fill="none" stroke="#333333" stroke-linecap="round" stroke-linejoin="round" stroke-width="2.0"/>
  </g>
</svg>
