<?xml version="1.0" encoding="UTF-8" standalone="no"?>
<svg xmlns:xlink="http://www.w3.org/1999/xlink" height="406.95px" width="113.45px" xmlns="http://www.w3.org/2000/svg">
  <g transform="matrix(1.0, 0.0, 0.0, 1.0, 56.7, 203.45)">
    <path d="M-36.2 -100.0 Q-30.95 -135.95 -53.9 -196.95 L-56.2 -202.95 Q-47.45 -201.1 -39.4 -196.95 -4.15 -178.6 21.3 -106.5 14.05 -103.8 13.75 -89.8 -12.8 -118.25 -36.2 -100.0 M-2.45 -116.2 Q-7.85 -132.05 -18.2 -140.45 -7.85 -132.05 -2.45 -116.2 M1.55 -126.7 Q-3.2 -142.95 -19.95 -163.45 -3.2 -142.95 1.55 -126.7" fill="url(#gradient0)" fill-rule="evenodd" stroke="none"/>
    <path d="M13.75 -89.8 Q13.5 -79.8 16.8 -64.0 19.15 -53.9 20.85 -44.65 9.65 7.7 5.6 41.15 1.75 38.5 -1.6 37.6 -12.7 34.55 -19.05 49.95 -24.0 31.45 -33.05 16.85 L-33.1 16.8 -33.1 16.85 Q-38.85 7.65 -46.2 0.0 -49.2 -69.95 -36.2 -100.0 -12.8 -118.25 13.75 -89.8 M-3.2 -83.5 Q-19.7 -104.05 -35.2 -80.0 -40.15 -66.6 -39.7 0.55 -35.3 5.4 -28.95 0.55 -22.45 -9.5 -17.95 -1.7 -13.05 3.15 -6.2 -1.7 6.35 -58.35 -3.2 -83.5" fill="url(#gradient1)" fill-rule="evenodd" stroke="none"/>
    <path d="M-3.2 -83.5 Q6.35 -58.35 -6.2 -1.7 -13.05 3.15 -17.95 -1.7 -22.45 -9.5 -28.95 0.55 -35.3 5.4 -39.7 0.55 -40.15 -66.6 -35.2 -80.0 -19.7 -104.05 -3.2 -83.5 M-11.7 -65.7 Q-7.0 -47.6 -17.95 -1.7 -7.0 -47.6 -11.7 -65.7 M-28.95 -65.95 Q-32.7 -31.75 -28.95 0.55 -32.7 -31.75 -28.95 -65.95" fill="url(#gradient2)" fill-rule="evenodd" stroke="none"/>
    <path d="M-15.2 132.0 Q-11.65 99.7 -14.65 73.5 -16.1 61.05 -19.05 49.95 -12.7 34.55 -1.6 37.6 1.75 38.5 5.6 41.15 0.5 82.55 11.2 109.6 8.05 136.05 -15.2 132.0" fill="url(#gradient3)" fill-rule="evenodd" stroke="none"/>
    <path d="M43.15 14.7 Q52.75 16.55 51.85 33.65 50.85 64.85 43.8 111.5 70.15 156.45 40.8 203.0 L18.3 159.5 Q8.0 146.65 21.8 106.0 18.45 36.75 23.65 20.0 36.15 13.35 43.15 14.7" fill="url(#gradient4)" fill-rule="evenodd" stroke="none"/>
    <path d="M16.8 -64.0 Q43.45 -40.9 43.15 14.6 L43.15 14.7 Q36.15 13.35 23.65 20.0 28.35 -3.85 20.85 -44.65 19.15 -53.9 16.8 -64.0" fill="url(#gradient5)" fill-rule="evenodd" stroke="none"/>
    <path d="M23.65 20.0 Q18.45 36.75 21.8 106.0 16.1 107.5 11.2 109.6 0.5 82.55 5.6 41.15 9.65 7.7 20.85 -44.65 28.35 -3.85 23.65 20.0" fill="url(#gradient6)" fill-rule="evenodd" stroke="none"/>
    <path d="M-33.05 16.85 L-33.1 16.85 -33.1 16.8 -33.05 16.85" fill="url(#gradient7)" fill-rule="evenodd" stroke="none"/>
    <path d="M-14.65 73.5 L-17.65 86.8 Q-20.6 100.0 -20.2 151.05 -26.65 154.55 -33.1 151.05 L-33.1 16.85 -33.05 16.85 Q-24.0 31.45 -19.05 49.95 -16.1 61.05 -14.65 73.5" fill="url(#gradient8)" fill-rule="evenodd" stroke="none"/>
    <path d="M18.3 159.5 Q-5.6 161.65 -15.2 132.0 8.05 136.05 11.2 109.6 16.1 107.5 21.8 106.0 8.0 146.65 18.3 159.5" fill="url(#gradient9)" fill-rule="evenodd" stroke="none"/>
    <path d="M-36.2 -100.0 Q-30.95 -135.95 -53.9 -196.95 L-56.2 -202.95 Q-47.45 -201.1 -39.4 -196.95 -4.15 -178.6 21.3 -106.5 M16.8 -64.0 Q43.45 -40.9 43.15 14.6 L43.15 14.7 Q52.75 16.55 51.85 33.65 50.85 64.85 43.8 111.5 70.15 156.45 40.8 203.0 L18.3 159.5 Q-5.6 161.65 -15.2 132.0 -11.65 99.7 -14.65 73.5 -16.1 61.05 -19.05 49.95 -24.0 31.45 -33.05 16.85 L-33.1 16.85 Q-38.85 7.65 -46.2 0.0 -49.2 -69.95 -36.2 -100.0 -12.8 -118.25 13.75 -89.8 M-18.2 -140.45 Q-7.85 -132.05 -2.45 -116.2 M-3.2 -83.5 Q6.35 -58.35 -6.2 -1.7 -13.05 3.15 -17.95 -1.7 -22.45 -9.5 -28.95 0.55 -35.3 5.4 -39.7 0.55 -40.15 -66.6 -35.2 -80.0 -19.7 -104.05 -3.2 -83.5 M-19.95 -163.45 Q-3.2 -142.95 1.55 -126.7 M5.6 41.15 Q1.75 38.5 -1.6 37.6 -12.7 34.55 -19.05 49.95 M43.15 14.7 Q36.15 13.35 23.65 20.0 18.45 36.75 21.8 106.0 8.0 146.65 18.3 159.5 M43.15 14.7 L43.15 14.6 M20.85 -44.65 Q9.65 7.7 5.6 41.15 0.5 82.55 11.2 109.6 16.1 107.5 21.8 106.0 M23.65 20.0 Q28.35 -3.85 20.85 -44.65 19.15 -53.9 16.8 -64.0 M-15.2 132.0 Q8.05 136.05 11.2 109.6 M-28.95 0.55 Q-32.7 -31.75 -28.95 -65.95 M-17.95 -1.7 Q-7.0 -47.6 -11.7 -65.7" fill="none" stroke="#000000" stroke-linecap="round" stroke-linejoin="round" stroke-width="1.0"/>
    <path d="M21.3 -106.5 Q14.05 -103.8 13.75 -89.8 13.5 -79.8 16.8 -64.0 M-14.65 73.5 L-17.65 86.8 Q-20.6 100.0 -20.2 151.05 -26.65 154.55 -33.1 151.05 L-33.1 16.85 -33.1 16.8 -33.05 16.85" fill="none" stroke="#000000" stroke-linecap="round" stroke-linejoin="round" stroke-width="1.0"/>
  </g>
  <defs>
    <radialGradient cx="0" cy="0" gradientTransform="matrix(-0.0772, 0.0446, -0.0631, -0.1093, -59.7, -111.95)" gradientUnits="userSpaceOnUse" id="gradient0" r="819.2" spreadMethod="pad">
      <stop offset="0.0" stop-color="#ff0000"/>
      <stop offset="1.0" stop-color="#760101"/>
    </radialGradient>
    <radialGradient cx="0" cy="0" gradientTransform="matrix(-0.0709, 0.0091, -0.0137, -0.1071, -13.2, -31.45)" gradientUnits="userSpaceOnUse" id="gradient1" r="819.2" spreadMethod="pad">
      <stop offset="0.0" stop-color="#7b7b7b"/>
      <stop offset="1.0" stop-color="#000000"/>
    </radialGradient>
    <radialGradient cx="0" cy="0" gradientTransform="matrix(-0.0302, 0.0, 0.0, -0.0829, -20.7, -55.95)" gradientUnits="userSpaceOnUse" id="gradient2" r="819.2" spreadMethod="pad">
      <stop offset="0.0" stop-color="#ea0404"/>
      <stop offset="1.0" stop-color="#430101"/>
    </radialGradient>
    <radialGradient cx="0" cy="0" gradientTransform="matrix(-0.0614, 0.0114, -0.026, -0.14, 20.65, 72.05)" gradientUnits="userSpaceOnUse" id="gradient3" r="819.2" spreadMethod="pad">
      <stop offset="0.0" stop-color="#640202"/>
      <stop offset="1.0" stop-color="#320101"/>
    </radialGradient>
    <radialGradient cx="0" cy="0" gradientTransform="matrix(-0.0832, -0.0151, 0.0231, -0.1274, -8.2, 62.05)" gradientUnits="userSpaceOnUse" id="gradient4" r="819.2" spreadMethod="pad">
      <stop offset="0.0" stop-color="#ff0000"/>
      <stop offset="1.0" stop-color="#760101"/>
    </radialGradient>
    <radialGradient cx="0" cy="0" gradientTransform="matrix(0.0602, 0.0, 0.0, 0.1006, -6.2, 9.05)" gradientUnits="userSpaceOnUse" id="gradient5" r="819.2" spreadMethod="pad">
      <stop offset="0.34901960784313724" stop-color="#000000" stop-opacity="0.0"/>
      <stop offset="0.8392156862745098" stop-color="#000000" stop-opacity="0.101960786"/>
      <stop offset="1.0" stop-color="#000000" stop-opacity="0.5019608"/>
    </radialGradient>
    <radialGradient cx="0" cy="0" gradientTransform="matrix(-0.0614, 0.0114, -0.026, -0.14, 20.65, 72.05)" gradientUnits="userSpaceOnUse" id="gradient6" r="819.2" spreadMethod="pad">
      <stop offset="0.0" stop-color="#9e0303"/>
      <stop offset="1.0" stop-color="#430101"/>
    </radialGradient>
    <radialGradient cx="0" cy="0" gradientTransform="matrix(-0.0307, 0.0, 0.0, -0.1031, -27.7, 84.55)" gradientUnits="userSpaceOnUse" id="gradient7" r="819.2" spreadMethod="pad">
      <stop offset="0.0" stop-color="#ffffff"/>
      <stop offset="1.0" stop-color="#151515"/>
    </radialGradient>
    <radialGradient cx="0" cy="0" gradientTransform="matrix(-0.0307, 0.0, 0.0, -0.1031, -27.7, 84.55)" gradientUnits="userSpaceOnUse" id="gradient8" r="819.2" spreadMethod="pad">
      <stop offset="0.0" stop-color="#6f6f6f"/>
      <stop offset="1.0" stop-color="#151515"/>
    </radialGradient>
    <radialGradient cx="0" cy="0" gradientTransform="matrix(-0.0614, 0.0114, -0.026, -0.14, 20.65, 72.05)" gradientUnits="userSpaceOnUse" id="gradient9" r="819.2" spreadMethod="pad">
      <stop offset="0.0" stop-color="#515151"/>
      <stop offset="1.0" stop-color="#222222"/>
    </radialGradient>
  </defs>
</svg>
