<?xml version="1.0" encoding="UTF-8" standalone="no"?>
<svg xmlns:xlink="http://www.w3.org/1999/xlink" height="35.1px" width="47.85px" xmlns="http://www.w3.org/2000/svg">
  <g transform="matrix(1.0, 0.0, 0.0, 1.0, 34.0, 30.05)">
    <path d="M13.35 4.55 L-33.5 4.5 -33.5 -29.55 13.35 -29.5 13.35 4.55" fill="#666666" fill-rule="evenodd" stroke="none"/>
    <path d="M13.35 4.55 L-33.5 4.5 -33.5 -29.55 13.35 -29.5 13.35 4.55 Z" fill="none" stroke="#000000" stroke-linecap="round" stroke-linejoin="round" stroke-width="1.0"/>
    <path d="M4.5 -8.5 L4.5 -4.5 0.5 -4.5 0.5 -8.5 4.5 -8.5" fill="#0099ff" fill-rule="evenodd" stroke="none"/>
    <path d="M4.5 -8.5 L4.5 -4.5 0.5 -4.5 0.5 -8.5 4.5 -8.5 Z" fill="none" stroke="#78c9fe" stroke-linecap="round" stroke-linejoin="round" stroke-width="1.0"/>
    <path d="M4.5 -2.5 L4.5 1.5 0.5 1.5 0.5 -2.5 4.5 -2.5" fill="#0099ff" fill-rule="evenodd" stroke="none"/>
    <path d="M4.5 -2.5 L4.5 1.5 0.5 1.5 0.5 -2.5 4.5 -2.5 Z" fill="none" stroke="#78c9fe" stroke-linecap="round" stroke-linejoin="round" stroke-width="1.0"/>
    <path d="M10.5 -8.5 L10.5 -4.5 6.5 -4.5 6.5 -8.5 10.5 -8.5" fill="#0099ff" fill-rule="evenodd" stroke="none"/>
    <path d="M10.5 -8.5 L10.5 -4.5 6.5 -4.5 6.5 -8.5 10.5 -8.5 Z" fill="none" stroke="#78c9fe" stroke-linecap="round" stroke-linejoin="round" stroke-width="1.0"/>
    <path d="M10.5 -2.5 L10.5 1.5 6.5 1.5 6.5 -2.5 10.5 -2.5" fill="#0099ff" fill-rule="evenodd" stroke="none"/>
    <path d="M10.5 -2.5 L10.5 1.5 6.5 1.5 6.5 -2.5 10.5 -2.5 Z" fill="none" stroke="#78c9fe" stroke-linecap="round" stroke-linejoin="round" stroke-width="1.0"/>
    <path d="M4.5 -14.5 L4.5 -10.5 0.5 -10.5 0.5 -14.5 4.5 -14.5" fill="#0099ff" fill-rule="evenodd" stroke="none"/>
    <path d="M4.5 -14.5 L4.5 -10.5 0.5 -10.5 0.5 -14.5 4.5 -14.5 Z" fill="none" stroke="#78c9fe" stroke-linecap="round" stroke-linejoin="round" stroke-width="1.0"/>
    <path d="M10.5 -20.5 L10.5 -16.5 6.5 -16.5 6.5 -20.5 10.5 -20.5" fill="#0099ff" fill-rule="evenodd" stroke="none"/>
    <path d="M10.5 -20.5 L10.5 -16.5 6.5 -16.5 6.5 -20.5 10.5 -20.5 Z" fill="none" stroke="#78c9fe" stroke-linecap="round" stroke-linejoin="round" stroke-width="1.0"/>
    <path d="M10.5 -14.5 L10.5 -10.5 6.5 -10.5 6.5 -14.5 10.5 -14.5" fill="#0099ff" fill-rule="evenodd" stroke="none"/>
    <path d="M10.5 -14.5 L10.5 -10.5 6.5 -10.5 6.5 -14.5 10.5 -14.5 Z" fill="none" stroke="#78c9fe" stroke-linecap="round" stroke-linejoin="round" stroke-width="1.0"/>
    <path d="M4.5 -20.5 L4.5 -16.5 0.5 -16.5 0.5 -20.5 4.5 -20.5" fill="#0099ff" fill-rule="evenodd" stroke="none"/>
    <path d="M4.5 -20.5 L4.5 -16.5 0.5 -16.5 0.5 -20.5 4.5 -20.5 Z" fill="none" stroke="#78c9fe" stroke-linecap="round" stroke-linejoin="round" stroke-width="1.0"/>
    <path d="M10.5 -26.5 L10.5 -22.5 6.5 -22.5 6.5 -26.5 10.5 -26.5" fill="#0099ff" fill-rule="evenodd" stroke="none"/>
    <path d="M10.5 -26.5 L10.5 -22.5 6.5 -22.5 6.5 -26.5 10.5 -26.5 Z" fill="none" stroke="#78c9fe" stroke-linecap="round" stroke-linejoin="round" stroke-width="1.0"/>
    <path d="M4.55 -26.5 L4.55 -22.5 0.55 -22.5 0.55 -26.5 4.55 -26.5" fill="#dbdb02" fill-rule="evenodd" stroke="none"/>
    <path d="M4.55 -26.5 L4.55 -22.5 0.55 -22.5 0.55 -26.5 4.55 -26.5 Z" fill="none" stroke="#fefe5f" stroke-linecap="round" stroke-linejoin="round" stroke-width="1.0"/>
  </g>
</svg>
