<?xml version="1.0" encoding="UTF-8" standalone="no"?>
<svg xmlns:xlink="http://www.w3.org/1999/xlink" height="89.5px" width="66.7px" xmlns="http://www.w3.org/2000/svg">
  <g transform="matrix(1.0, 0.0, 0.0, 1.0, 32.35, 3.25)">
    <path d="M-10.95 9.55 L-10.95 3.2 -5.2 -3.15 -1.75 -3.15 0.55 11.4 -1.75 11.65 -5.2 11.4 Q-8.25 11.05 -10.95 9.55 M3.3 11.1 Q0.15 1.2 2.05 0.7 L5.1 -0.25 7.5 11.0 3.3 11.1" fill="#333333" fill-rule="evenodd" stroke="none"/>
    <path d="M0.55 11.4 L2.2 11.35 3.3 11.1 7.5 11.0 10.8 10.6 12.65 9.6 Q12.85 9.45 12.9 10.0 L12.3 11.8 Q9.45 19.3 9.55 20.1 L9.35 22.4 9.1 24.65 7.85 33.85 8.0 35.95 8.25 38.15 11.05 43.3 Q11.9 44.65 13.7 49.5 L10.6 50.75 Q8.55 51.7 7.6 52.6 6.2 53.9 5.6 55.6 L5.45 56.05 Q4.85 57.95 4.3 58.05 L4.2 57.95 4.15 57.9 0.3 55.95 -2.1 54.6 -2.25 54.4 -2.3 54.25 -4.15 51.0 -6.75 46.85 -8.0 44.95 -9.1 43.55 Q-11.0 41.35 -14.1 40.85 L-14.65 40.75 -17.45 40.65 -17.85 40.65 Q-18.25 40.15 -17.8 39.95 L-16.1 39.65 Q-15.45 39.55 -15.0 37.4 -14.6 35.1 -14.9 33.3 L-15.25 27.95 -16.0 21.7 Q-16.55 17.0 -17.55 13.5 -18.6 9.95 -18.7 8.2 L-18.65 7.1 -18.4 6.35 Q-18.2 5.7 -17.7 5.55 L-17.15 5.4 -14.4 7.6 -10.95 9.55 Q-8.25 11.05 -5.2 11.4 L-1.75 11.65 0.55 11.4 M6.6 18.45 L7.25 18.2 7.7 17.55 7.7 16.85 Q7.5 16.55 7.15 16.6 6.8 16.5 6.5 16.8 L6.05 17.45 Q5.85 17.8 6.05 18.1 L6.6 18.45 M4.95 23.25 Q4.8 23.6 5.0 23.9 5.1 24.2 5.45 24.25 L6.15 23.95 6.65 23.4 6.65 22.85 6.65 22.7 6.1 22.35 Q5.75 22.3 5.45 22.55 L5.05 23.05 4.95 23.25 M5.75 29.65 Q5.6 29.35 5.3 29.35 L4.6 29.55 Q4.2 29.8 4.1 30.25 4.0 30.55 4.15 30.85 L4.65 31.25 5.3 30.95 5.85 30.35 5.75 29.65 M4.4 35.55 Q4.25 35.9 4.45 36.2 L4.65 36.5 4.9 36.6 5.6 36.35 5.6 36.3 6.1 35.7 6.05 35.0 5.55 34.7 Q5.2 34.65 4.85 34.95 L4.4 35.55" fill="url(#gradient0)" fill-rule="evenodd" stroke="none"/>
    <path d="M6.6 18.45 L6.05 18.1 Q5.85 17.8 6.05 17.45 L6.5 16.8 Q6.8 16.5 7.15 16.6 7.5 16.55 7.7 16.85 L7.7 17.55 7.25 18.2 6.6 18.45" fill="url(#gradient1)" fill-rule="evenodd" stroke="none"/>
    <path d="M4.95 23.25 L5.05 23.05 5.45 22.55 Q5.75 22.3 6.1 22.35 L6.65 22.7 6.65 22.85 6.65 23.4 6.15 23.95 5.45 24.25 Q5.1 24.2 5.0 23.9 4.8 23.6 4.95 23.25" fill="url(#gradient2)" fill-rule="evenodd" stroke="none"/>
    <path d="M5.75 29.65 L5.85 30.35 5.3 30.95 4.65 31.25 4.15 30.85 Q4.0 30.55 4.1 30.25 4.2 29.8 4.6 29.55 L5.3 29.35 Q5.6 29.35 5.75 29.65" fill="url(#gradient3)" fill-rule="evenodd" stroke="none"/>
    <path d="M4.4 35.55 L4.85 34.95 Q5.2 34.65 5.55 34.7 L6.05 35.0 6.1 35.7 5.6 36.3 5.6 36.35 4.9 36.6 4.65 36.5 4.45 36.2 Q4.25 35.9 4.4 35.55" fill="url(#gradient4)" fill-rule="evenodd" stroke="none"/>
    <path d="M19.7 61.0 L23.45 64.8 23.5 64.85 21.7 66.95 21.5 67.15 21.1 67.45 20.75 67.75 17.1 63.9 18.2 63.15 Q19.25 62.2 19.7 61.0" fill="url(#gradient5)" fill-rule="evenodd" stroke="none"/>
    <path d="M23.45 64.8 Q24.65 63.0 25.0 61.15 25.15 60.35 27.9 66.3 L30.0 69.45 Q31.4 71.75 31.25 74.5 31.1 77.25 31.3 77.65 L31.3 77.75 31.15 77.5 Q31.35 77.85 30.95 80.45 L23.95 80.1 Q21.65 80.1 16.05 78.6 13.2 77.9 3.95 79.95 L-3.15 80.45 -8.1 80.25 -24.05 79.35 Q-27.25 79.2 -26.95 77.9 L-26.85 76.2 -26.35 73.0 Q-13.15 69.3 -4.35 65.05 L-4.25 62.65 -5.1 63.1 Q-13.95 68.25 -25.7 69.45 L-24.85 66.45 Q-23.7 63.1 -24.2 62.2 -24.75 61.25 -24.5 60.6 -24.25 59.95 -21.25 60.95 -18.25 61.9 -16.85 61.55 -16.35 61.35 -16.1 61.0 L-5.4 59.3 -3.95 55.95 Q-8.9 58.55 -16.3 59.45 -17.35 57.3 -17.75 56.65 L-19.55 53.55 -12.65 55.0 -6.5 53.6 -5.65 51.1 Q-10.0 52.55 -13.9 53.25 L-17.25 48.7 -17.7 47.95 -16.25 47.75 -13.25 47.95 -10.05 47.15 -8.95 44.95 -14.45 46.4 -16.3 43.8 -17.4 41.7 -17.85 40.65 -17.45 40.65 -14.3 40.8 -14.1 40.85 Q-11.0 41.35 -9.1 43.55 L-8.0 44.95 -6.75 46.85 -4.15 51.0 -2.3 54.25 -2.25 54.4 -2.1 54.6 0.3 55.95 4.15 57.9 4.2 57.95 4.15 60.55 Q4.05 62.1 5.2 63.95 L6.7 65.85 7.35 66.5 Q9.3 68.45 11.55 69.25 L13.3 69.7 13.3 69.65 14.9 69.7 Q18.3 69.6 20.75 67.75 L21.1 67.45 21.5 67.15 21.7 66.95 23.5 64.85 23.45 64.8 M-13.7 42.85 Q-14.05 42.8 -14.35 43.05 L-14.65 43.7 -14.45 44.3 -13.8 44.65 -13.2 44.4 -12.85 43.8 Q-12.8 43.45 -13.1 43.15 -13.35 42.85 -13.7 42.85 M-12.9 49.9 Q-13.15 49.65 -13.5 49.6 -13.85 49.55 -14.15 49.8 L-14.4 50.45 -14.25 51.05 -13.6 51.4 Q-13.25 51.45 -13.0 51.15 L-12.65 50.6 Q-12.6 50.2 -12.9 49.9 M-16.6 56.8 L-16.4 57.4 -15.75 57.75 -15.15 57.5 -14.8 56.9 Q-14.8 56.55 -15.05 56.25 -15.3 55.95 -15.65 55.95 -16.0 55.9 -16.3 56.15 L-16.6 56.8 M-21.75 64.7 Q-22.0 64.45 -22.35 64.45 L-23.0 64.65 -23.3 65.25 -23.05 65.9 Q-22.8 66.2 -22.45 66.2 L-21.8 65.95 Q-21.5 65.7 -21.5 65.35 -21.45 65.0 -21.75 64.7 M-24.4 75.45 L-24.7 76.1 -24.5 76.7 -23.85 77.05 -23.25 76.8 -22.9 76.2 Q-22.9 75.85 -23.2 75.55 -23.45 75.25 -23.75 75.25 -24.1 75.2 -24.4 75.45" fill="url(#gradient6)" fill-rule="evenodd" stroke="none"/>
    <path d="M12.75 53.8 L14.85 53.55 Q17.15 53.65 18.65 55.35 20.15 57.05 20.05 59.35 L19.7 61.0 Q19.25 62.2 18.2 63.15 L17.1 63.9 Q16.15 64.4 15.05 64.5 L14.25 64.5 Q11.95 64.35 10.45 62.7 9.65 61.75 9.3 60.7 9.0 59.75 9.05 58.7 L9.2 57.75 Q9.55 56.1 10.9 54.9 11.7 54.15 12.75 53.8 M13.2 60.15 Q13.7 60.7 14.45 60.75 15.15 60.8 15.7 60.3 16.3 59.8 16.35 59.1 16.4 58.35 15.9 57.75 15.4 57.2 14.65 57.2 13.9 57.1 13.3 57.6 12.8 58.1 12.75 58.85 12.7 59.6 13.2 60.15" fill="url(#gradient7)" fill-rule="evenodd" stroke="none"/>
    <path d="M10.6 50.75 L12.75 53.8 Q11.7 54.15 10.9 54.9 9.55 56.1 9.2 57.75 L5.6 55.6 Q6.2 53.9 7.6 52.6 8.55 51.7 10.6 50.75" fill="url(#gradient8)" fill-rule="evenodd" stroke="none"/>
    <path d="M9.3 60.7 Q9.65 61.75 10.45 62.7 11.95 64.35 14.25 64.5 L15.05 64.5 13.3 69.65 13.3 69.7 11.55 69.25 Q10.2 68.65 8.85 67.65 L6.7 65.85 5.2 63.95 9.3 60.7" fill="url(#gradient9)" fill-rule="evenodd" stroke="none"/>
    <path d="M31.3 77.75 L31.9 78.45 32.1 78.7 33.85 81.65 34.25 84.45 31.95 84.4 25.7 83.7 22.55 83.5 22.25 83.5 19.35 83.1 16.75 82.8 13.1 82.7 7.6 86.15 -12.35 85.0 -23.1 84.3 Q-32.35 83.55 -32.25 82.85 -32.1 82.0 -30.25 79.15 L-28.9 77.15 -28.8 77.0 -27.85 76.1 -26.85 76.2 -26.95 77.9 Q-27.25 79.2 -24.05 79.35 L-8.1 80.25 -3.15 80.45 3.95 79.95 Q13.2 77.9 16.05 78.6 21.65 80.1 23.95 80.1 L30.95 80.45 Q31.35 77.85 31.15 77.5 L31.3 77.75" fill="url(#gradient10)" fill-rule="evenodd" stroke="none"/>
    <path d="M-13.7 42.85 Q-13.35 42.85 -13.1 43.15 -12.8 43.45 -12.85 43.8 L-13.2 44.4 -13.8 44.65 -14.45 44.3 -14.65 43.7 -14.35 43.05 Q-14.05 42.8 -13.7 42.85" fill="url(#gradient11)" fill-rule="evenodd" stroke="none"/>
    <path d="M-13.25 47.95 L-13.7 47.4 -14.1 46.9 -14.45 46.4 -8.95 44.95 -10.05 47.15 -13.25 47.95" fill="url(#gradient12)" fill-rule="evenodd" stroke="none"/>
    <path d="M-12.65 55.0 L-13.0 54.5 -13.9 53.25 Q-10.0 52.55 -5.65 51.1 L-6.5 53.6 -12.65 55.0" fill="url(#gradient13)" fill-rule="evenodd" stroke="none"/>
    <path d="M-16.1 61.0 L-16.0 60.7 Q-15.95 60.2 -16.3 59.45 -8.9 58.55 -3.95 55.95 L-5.4 59.3 -16.1 61.0" fill="url(#gradient14)" fill-rule="evenodd" stroke="none"/>
    <path d="M-12.9 49.9 Q-12.6 50.2 -12.65 50.6 L-13.0 51.15 Q-13.25 51.45 -13.6 51.4 L-14.25 51.05 -14.4 50.45 -14.15 49.8 Q-13.85 49.55 -13.5 49.6 -13.15 49.65 -12.9 49.9" fill="url(#gradient15)" fill-rule="evenodd" stroke="none"/>
    <path d="M-16.6 56.8 L-16.3 56.15 Q-16.0 55.9 -15.65 55.95 -15.3 55.95 -15.05 56.25 -14.8 56.55 -14.8 56.9 L-15.15 57.5 -15.75 57.75 -16.4 57.4 -16.6 56.8" fill="url(#gradient16)" fill-rule="evenodd" stroke="none"/>
    <path d="M-26.35 73.0 L-25.7 69.45 Q-13.95 68.25 -5.1 63.1 L-4.25 62.65 -4.35 65.05 Q-13.15 69.3 -26.35 73.0" fill="url(#gradient17)" fill-rule="evenodd" stroke="none"/>
    <path d="M-21.75 64.7 Q-21.45 65.0 -21.5 65.35 -21.5 65.7 -21.8 65.95 L-22.45 66.2 Q-22.8 66.2 -23.05 65.9 L-23.3 65.25 -23.0 64.65 -22.35 64.45 Q-22.0 64.45 -21.75 64.7" fill="url(#gradient18)" fill-rule="evenodd" stroke="none"/>
    <path d="M-24.4 75.45 Q-24.1 75.2 -23.75 75.25 -23.45 75.25 -23.2 75.55 -22.9 75.85 -22.9 76.2 L-23.25 76.8 -23.85 77.05 -24.5 76.7 -24.7 76.1 -24.4 75.45" fill="url(#gradient19)" fill-rule="evenodd" stroke="none"/>
    <path d="M-10.95 9.55 L-10.95 3.2 -5.2 -3.15 -1.75 -3.15 0.55 11.4 2.2 11.35 3.3 11.1 Q0.15 1.2 2.05 0.7 L5.1 -0.25 7.5 11.0 10.8 10.6 12.65 9.6 Q12.85 9.45 12.9 10.0 L12.3 11.8 Q9.45 19.3 9.55 20.1 L9.35 22.4 9.1 24.65 7.85 33.85 8.0 35.95 8.25 38.15 11.05 43.3 Q11.9 44.65 13.7 49.5 L10.6 50.75 12.75 53.8 14.85 53.55 Q17.15 53.65 18.65 55.35 20.15 57.05 20.05 59.35 L19.7 61.0 23.45 64.8 Q24.65 63.0 25.0 61.15 25.15 60.35 27.9 66.3 L30.0 69.45 Q31.4 71.75 31.25 74.5 31.1 77.25 31.3 77.65 L31.3 77.75 31.9 78.45 32.1 78.7 33.85 81.65 34.25 84.45 31.95 84.4 25.7 83.7 22.55 83.5 22.25 83.5 19.35 83.1 16.75 82.8 13.1 82.7 7.6 86.15 -12.35 85.0 -23.1 84.3 Q-32.35 83.55 -32.25 82.85 -32.1 82.0 -30.25 79.15 L-28.9 77.15 -28.9 77.05 -28.8 77.0 -27.85 76.1 -26.85 76.2 -26.35 73.0 -25.7 69.45 -24.85 66.45 Q-23.7 63.1 -24.2 62.2 -24.75 61.25 -24.5 60.6 -24.25 59.95 -21.25 60.95 -18.25 61.9 -16.85 61.55 -16.35 61.35 -16.1 61.0 L-16.0 60.7 Q-15.95 60.2 -16.3 59.45 -17.35 57.3 -17.75 56.65 L-19.55 53.55 -12.65 55.0 -13.0 54.5 -13.95 53.25 -13.9 53.25 -17.25 48.7 -17.7 47.95 -16.25 47.75 -13.25 47.95 -13.7 47.4 -14.1 46.9 -14.45 46.4 -16.3 43.8 -17.4 41.7 -17.85 40.65 Q-18.25 40.15 -17.8 39.95 L-16.1 39.65 Q-15.45 39.55 -15.0 37.4 -14.6 35.1 -14.9 33.3 L-15.25 27.95 -16.0 21.7 Q-16.55 17.0 -17.55 13.5 -18.6 9.95 -18.7 8.2 L-18.65 7.1 -18.4 6.35 Q-18.2 5.7 -17.7 5.55 L-17.15 5.4 -14.4 7.6 -10.95 9.55 Q-8.25 11.05 -5.2 11.4 L-1.75 11.65 0.55 11.4 M3.3 11.1 L7.5 11.0 M6.6 18.45 L6.05 18.1 Q5.85 17.8 6.05 17.45 L6.5 16.8 Q6.8 16.5 7.15 16.6 7.5 16.55 7.7 16.85 L7.7 17.55 7.25 18.2 6.6 18.45 M4.95 23.25 L5.05 23.05 5.45 22.55 Q5.75 22.3 6.1 22.35 L6.65 22.7 6.65 22.85 6.65 23.4 6.15 23.95 5.45 24.25 Q5.1 24.2 5.0 23.9 4.8 23.6 4.95 23.25 M5.75 29.65 L5.85 30.35 5.3 30.95 4.65 31.25 4.15 30.85 Q4.0 30.55 4.1 30.25 4.2 29.8 4.6 29.55 L5.3 29.35 Q5.6 29.35 5.75 29.65 M4.4 35.55 L4.85 34.95 Q5.2 34.65 5.55 34.7 L6.05 35.0 6.1 35.7 5.6 36.3 5.6 36.35 4.9 36.6 4.65 36.5 4.45 36.2 Q4.25 35.9 4.4 35.55 M20.75 67.75 L21.1 67.45 21.5 67.15 21.7 66.95 23.5 64.85 23.45 64.8 M9.2 57.75 Q9.55 56.1 10.9 54.9 11.7 54.15 12.75 53.8 M13.2 60.15 Q12.7 59.6 12.75 58.85 12.8 58.1 13.3 57.6 13.9 57.1 14.65 57.2 15.4 57.2 15.9 57.75 16.4 58.35 16.35 59.1 16.3 59.8 15.7 60.3 15.15 60.8 14.45 60.75 13.7 60.7 13.2 60.15 M10.6 50.75 Q8.55 51.7 7.6 52.6 6.2 53.9 5.6 55.6 L9.2 57.75 9.05 58.7 Q9.0 59.75 9.3 60.7 9.65 61.75 10.45 62.7 11.95 64.35 14.25 64.5 L15.05 64.5 Q16.15 64.4 17.1 63.9 L18.2 63.15 Q19.25 62.2 19.7 61.0 M5.6 55.6 L5.45 56.05 Q4.85 57.95 4.3 58.05 L4.2 57.95 4.15 60.55 Q4.05 62.1 5.2 63.95 L9.3 60.7 M4.2 57.95 L4.15 57.9 0.3 55.95 -2.1 54.6 -2.25 54.4 -2.3 54.25 -4.15 51.0 -6.75 46.85 -8.0 44.95 -9.1 43.55 Q-11.0 41.35 -14.1 40.85 L-14.3 40.8 -17.45 40.65 -17.85 40.65 M6.7 65.85 L8.85 67.65 Q10.2 68.65 11.55 69.25 L13.3 69.7 13.3 69.65 15.05 64.5 M6.7 65.85 L7.35 66.5 Q9.3 68.45 11.55 69.25 M5.2 63.95 L6.7 65.85 M13.3 69.65 L14.9 69.7 Q18.3 69.6 20.75 67.75 L17.1 63.9 M-26.85 76.2 L-26.95 77.9 Q-27.25 79.2 -24.05 79.35 L-8.1 80.25 -3.15 80.45 3.95 79.95 Q13.2 77.9 16.05 78.6 21.65 80.1 23.95 80.1 L30.95 80.45 Q31.35 77.85 31.15 77.5 L31.3 77.75 M-13.7 42.85 Q-13.35 42.85 -13.1 43.15 -12.8 43.45 -12.85 43.8 L-13.2 44.4 -13.8 44.65 -14.45 44.3 -14.65 43.7 -14.35 43.05 Q-14.05 42.8 -13.7 42.85 M-14.1 40.85 L-14.65 40.75 -17.45 40.65 M-14.45 46.4 L-8.95 44.95 -10.05 47.15 -13.25 47.95 M-16.3 59.45 Q-8.9 58.55 -3.95 55.95 L-5.4 59.3 -16.1 61.0 M-13.9 53.25 Q-10.0 52.55 -5.65 51.1 L-6.5 53.6 -12.65 55.0 M-12.9 49.9 Q-12.6 50.2 -12.65 50.6 L-13.0 51.15 Q-13.25 51.45 -13.6 51.4 L-14.25 51.05 -14.4 50.45 -14.15 49.8 Q-13.85 49.55 -13.5 49.6 -13.15 49.65 -12.9 49.9 M-13.9 53.25 L-13.0 54.5 M-16.6 56.8 L-16.3 56.15 Q-16.0 55.9 -15.65 55.95 -15.3 55.95 -15.05 56.25 -14.8 56.55 -14.8 56.9 L-15.15 57.5 -15.75 57.75 -16.4 57.4 -16.6 56.8 M-25.7 69.45 Q-13.95 68.25 -5.1 63.1 L-4.25 62.65 -4.35 65.05 Q-13.15 69.3 -26.35 73.0 M-21.75 64.7 Q-21.45 65.0 -21.5 65.35 -21.5 65.7 -21.8 65.95 L-22.45 66.2 Q-22.8 66.2 -23.05 65.9 L-23.3 65.25 -23.0 64.65 -22.35 64.45 Q-22.0 64.45 -21.75 64.7 M-24.4 75.45 Q-24.1 75.2 -23.75 75.25 -23.45 75.25 -23.2 75.55 -22.9 75.85 -22.9 76.2 L-23.25 76.8 -23.85 77.05 -24.5 76.7 -24.7 76.1 -24.4 75.45 M-28.9 77.15 L-28.8 77.0" fill="none" stroke="#000000" stroke-linecap="round" stroke-linejoin="round" stroke-width="0.25"/>
  </g>
  <defs>
    <linearGradient gradientTransform="matrix(0.0444, 0.0025, -0.0017, 0.0298, -1.1, 28.1)" gradientUnits="userSpaceOnUse" id="gradient0" spreadMethod="pad" x1="-819.2" x2="819.2">
      <stop offset="0.0" stop-color="#666666"/>
      <stop offset="1.0" stop-color="#000000"/>
    </linearGradient>
    <radialGradient cx="0" cy="0" gradientTransform="matrix(0.0018, 0.0, 0.0, 0.0018, 6.55, 17.25)" gradientUnits="userSpaceOnUse" id="gradient1" r="819.2" spreadMethod="pad">
      <stop offset="0.0" stop-color="#666666"/>
      <stop offset="1.0" stop-color="#000000"/>
    </radialGradient>
    <radialGradient cx="0" cy="0" gradientTransform="matrix(0.002, 0.0, 0.0, 0.002, 5.6, 22.9)" gradientUnits="userSpaceOnUse" id="gradient2" r="819.2" spreadMethod="pad">
      <stop offset="0.0" stop-color="#666666"/>
      <stop offset="1.0" stop-color="#000000"/>
    </radialGradient>
    <radialGradient cx="0" cy="0" gradientTransform="matrix(0.0021, 0.0, 0.0, 0.0021, 4.9, 29.8)" gradientUnits="userSpaceOnUse" id="gradient3" r="819.2" spreadMethod="pad">
      <stop offset="0.0" stop-color="#666666"/>
      <stop offset="1.0" stop-color="#000000"/>
    </radialGradient>
    <radialGradient cx="0" cy="0" gradientTransform="matrix(0.0017, 0.0, 0.0, 0.0017, 5.25, 35.5)" gradientUnits="userSpaceOnUse" id="gradient4" r="819.2" spreadMethod="pad">
      <stop offset="0.0" stop-color="#666666"/>
      <stop offset="1.0" stop-color="#000000"/>
    </radialGradient>
    <linearGradient gradientTransform="matrix(0.007, -0.004, 0.002, 0.0035, 20.3, 64.4)" gradientUnits="userSpaceOnUse" id="gradient5" spreadMethod="pad" x1="-819.2" x2="819.2">
      <stop offset="0.0" stop-color="#ffffff"/>
      <stop offset="1.0" stop-color="#000000"/>
    </linearGradient>
    <linearGradient gradientTransform="matrix(0.0571, 0.0033, -0.0014, 0.0238, 17.1, 63.85)" gradientUnits="userSpaceOnUse" id="gradient6" spreadMethod="pad" x1="-819.2" x2="819.2">
      <stop offset="0.0" stop-color="#666666"/>
      <stop offset="1.0" stop-color="#000000"/>
    </linearGradient>
    <linearGradient gradientTransform="matrix(0.0129, 8.0E-4, -4.0E-4, 0.0067, 14.55, 59.0)" gradientUnits="userSpaceOnUse" id="gradient7" spreadMethod="pad" x1="-819.2" x2="819.2">
      <stop offset="0.0" stop-color="#ffffff"/>
      <stop offset="1.0" stop-color="#000000"/>
    </linearGradient>
    <linearGradient gradientTransform="matrix(0.0089, -0.0051, 0.0022, 0.0038, 9.7, 54.45)" gradientUnits="userSpaceOnUse" id="gradient8" spreadMethod="pad" x1="-819.2" x2="819.2">
      <stop offset="0.0" stop-color="#ffffff"/>
      <stop offset="1.0" stop-color="#000000"/>
    </linearGradient>
    <linearGradient gradientTransform="matrix(0.0093, 0.0053, -0.0027, 0.0047, 10.1, 65.2)" gradientUnits="userSpaceOnUse" id="gradient9" spreadMethod="pad" x1="-819.2" x2="819.2">
      <stop offset="0.0" stop-color="#ffffff"/>
      <stop offset="1.0" stop-color="#000000"/>
    </linearGradient>
    <linearGradient gradientTransform="matrix(0.9972, 0.0571, -0.0571, 0.9972, -289.8, -260.05)" gradientUnits="userSpaceOnUse" id="gradient10" spreadMethod="pad" x1="-819.2" x2="819.2">
      <stop offset="0.0" stop-color="#ffffff"/>
      <stop offset="1.0" stop-color="#666666"/>
    </linearGradient>
    <radialGradient cx="0" cy="0" gradientTransform="matrix(0.0015, 1.0E-4, -1.0E-4, 0.0015, -13.75, 43.75)" gradientUnits="userSpaceOnUse" id="gradient11" r="819.2" spreadMethod="pad">
      <stop offset="0.0" stop-color="#bbbbbb"/>
      <stop offset="1.0" stop-color="#000000"/>
    </radialGradient>
    <linearGradient gradientTransform="matrix(0.0033, 2.0E-4, -1.0E-4, 0.002, -11.75, 46.35)" gradientUnits="userSpaceOnUse" id="gradient12" spreadMethod="pad" x1="-819.2" x2="819.2">
      <stop offset="0.0" stop-color="#333333"/>
      <stop offset="1.0" stop-color="#000000"/>
    </linearGradient>
    <linearGradient gradientTransform="matrix(0.005, 3.0E-4, -2.0E-4, 0.0026, -9.85, 53.0)" gradientUnits="userSpaceOnUse" id="gradient13" spreadMethod="pad" x1="-819.2" x2="819.2">
      <stop offset="0.0" stop-color="#333333"/>
      <stop offset="1.0" stop-color="#000000"/>
    </linearGradient>
    <linearGradient gradientTransform="matrix(0.0074, 4.0E-4, -2.0E-4, 0.0035, -10.2, 58.4)" gradientUnits="userSpaceOnUse" id="gradient14" spreadMethod="pad" x1="-819.2" x2="819.2">
      <stop offset="0.0" stop-color="#333333"/>
      <stop offset="1.0" stop-color="#000000"/>
    </linearGradient>
    <radialGradient cx="0" cy="0" gradientTransform="matrix(0.0015, 1.0E-4, -1.0E-4, 0.0015, -13.6, 50.5)" gradientUnits="userSpaceOnUse" id="gradient15" r="819.2" spreadMethod="pad">
      <stop offset="0.0" stop-color="#bbbbbb"/>
      <stop offset="1.0" stop-color="#000000"/>
    </radialGradient>
    <radialGradient cx="0" cy="0" gradientTransform="matrix(0.0015, 1.0E-4, -1.0E-4, 0.0015, -15.7, 56.85)" gradientUnits="userSpaceOnUse" id="gradient16" r="819.2" spreadMethod="pad">
      <stop offset="0.0" stop-color="#bbbbbb"/>
      <stop offset="1.0" stop-color="#000000"/>
    </radialGradient>
    <linearGradient gradientTransform="matrix(0.0131, 7.0E-4, -4.0E-4, 0.0071, -15.3, 67.8)" gradientUnits="userSpaceOnUse" id="gradient17" spreadMethod="pad" x1="-819.2" x2="819.2">
      <stop offset="0.0" stop-color="#333333"/>
      <stop offset="1.0" stop-color="#000000"/>
    </linearGradient>
    <radialGradient cx="0" cy="0" gradientTransform="matrix(0.0018, 0.0, 0.0, 0.0018, -22.65, 65.2)" gradientUnits="userSpaceOnUse" id="gradient18" r="819.2" spreadMethod="pad">
      <stop offset="0.0" stop-color="#bbbbbb"/>
      <stop offset="1.0" stop-color="#000000"/>
    </radialGradient>
    <radialGradient cx="0" cy="0" gradientTransform="matrix(0.0017, 0.0, 0.0, 0.0017, -24.0, 76.2)" gradientUnits="userSpaceOnUse" id="gradient19" r="819.2" spreadMethod="pad">
      <stop offset="0.0" stop-color="#bbbbbb"/>
      <stop offset="1.0" stop-color="#000000"/>
    </radialGradient>
  </defs>
</svg>
