<?xml version="1.0" encoding="UTF-8" standalone="no"?>
<svg xmlns:xlink="http://www.w3.org/1999/xlink" height="79.5px" width="224.4px" xmlns="http://www.w3.org/2000/svg">
  <g transform="matrix(1.0, 0.0, 0.0, 1.0, -915.6, -519.25)">
    <path d="M1138.05 536.65 L1138.15 550.45 1140.0 573.3 Q1140.0 575.0 1138.3 575.15 1137.3 577.55 1127.9 580.8 L1122.95 584.3 Q1118.7 587.45 1117.0 587.45 1113.75 587.45 1113.65 579.75 L1113.75 578.2 1107.75 578.85 Q1103.75 578.85 1103.6 574.35 L1104.25 567.3 Q1103.6 559.55 1103.6 555.65 1103.6 548.35 1103.1 542.9 1102.6 537.5 1102.6 532.55 L1102.6 531.2 1102.0 530.85 Q1101.85 530.7 1101.85 529.9 1101.85 528.05 1104.9 528.05 L1123.75 528.35 Q1132.25 528.3 1134.9 528.55 1135.3 527.8 1135.9 527.8 1137.85 527.8 1138.05 536.65 M1134.95 567.8 Q1135.35 559.0 1135.0 556.05 1134.05 547.7 1134.05 536.85 L1134.05 533.05 Q1130.45 535.3 1122.6 539.2 L1119.2 540.8 Q1117.1 541.95 1117.1 543.6 L1117.1 548.8 Q1117.1 563.8 1118.05 582.65 1124.7 577.55 1126.05 577.15 1127.7 576.65 1135.7 573.05 1135.0 571.25 1134.95 567.8 M1108.05 575.1 L1109.7 574.55 1112.4 574.2 1113.95 574.3 1114.15 567.95 Q1114.15 561.1 1113.8 556.95 1113.4 552.8 1113.4 548.25 L1113.4 540.95 Q1113.5 539.1 1114.55 538.55 1115.3 538.1 1118.6 537.0 1122.6 535.4 1127.35 532.3 1111.75 532.25 1106.1 531.8 1108.0 540.8 1108.0 575.05 L1108.0 575.1 1108.05 575.1 M1121.65 559.45 Q1123.8 559.45 1123.75 561.35 1123.75 562.6 1123.25 564.25 1122.55 566.6 1121.4 566.6 1119.9 566.6 1119.6 564.95 L1119.6 563.1 1119.65 560.9 Q1120.05 559.45 1121.65 559.45" fill="#000000" fill-opacity="0.4" fill-rule="evenodd" stroke="none"/>
    <path d="M948.15 522.4 Q949.45 524.0 949.5 525.65 949.5 526.9 948.7 528.05 947.7 529.55 945.8 529.55 944.25 529.55 942.9 528.15 941.55 526.75 941.0 526.75 932.95 526.75 927.25 533.25 923.0 538.1 923.0 540.9 923.0 546.1 926.45 548.55 928.25 549.85 934.05 551.5 939.35 553.05 941.6 555.1 945.05 558.3 945.05 564.75 945.05 569.7 939.95 574.75 934.0 580.6 925.65 580.6 917.55 580.6 917.55 575.55 917.55 571.25 921.25 571.25 922.2 571.25 923.6 572.2 L925.35 573.1 Q930.45 573.1 934.45 569.45 937.75 566.4 937.75 564.3 937.75 562.3 934.3 560.3 929.45 558.0 926.7 556.5 915.6 550.6 915.6 540.8 915.6 535.15 921.75 528.0 929.2 519.25 939.4 519.25 945.6 519.25 948.15 522.4 M970.25 553.55 Q974.55 553.55 974.7 561.9 974.8 566.35 974.0 573.85 974.0 580.5 974.5 594.05 974.5 598.75 970.75 598.75 966.05 598.75 965.85 591.05 L966.6 579.25 Q955.75 579.1 952.45 575.35 950.9 573.65 950.9 569.55 950.9 564.8 955.05 560.0 960.6 553.55 970.25 553.55 M966.6 561.9 Q967.1 561.5 965.85 561.5 962.65 561.5 960.15 565.5 L958.25 569.6 Q958.25 570.6 961.05 571.6 966.75 571.6 967.2 567.9 966.6 563.4 966.6 561.9 M1002.25 554.1 Q1006.65 554.1 1005.9 559.85 1005.9 564.6 1003.45 571.4 999.65 582.1 992.4 582.1 985.5 582.1 983.8 579.75 983.3 579.05 983.3 576.3 983.3 572.6 984.3 565.4 985.75 555.1 988.0 555.1 992.2 555.1 992.35 563.1 L991.4 574.25 991.3 574.6 Q994.7 571.0 997.3 561.55 999.3 554.1 1002.25 554.1 M1008.9 573.5 L1008.85 571.85 Q1008.85 567.85 1011.15 565.8 1014.9 562.5 1025.0 562.5 L1026.35 562.55 1026.05 558.3 Q1021.45 558.85 1019.6 560.8 1017.95 562.5 1016.25 562.5 1013.7 562.5 1012.75 560.65 L1012.3 558.75 Q1012.3 556.75 1015.6 554.0 1019.5 550.75 1024.3 550.75 1033.3 550.75 1034.45 556.25 1035.05 559.2 1033.9 564.0 1033.9 571.3 1038.85 572.55 L1042.2 573.45 Q1043.75 574.25 1043.75 576.5 1043.75 580.15 1037.55 580.15 L1033.0 579.45 Q1029.8 581.6 1023.35 581.6 1013.5 581.6 1010.2 576.85 1009.15 575.35 1008.9 573.5 M1049.65 553.9 Q1053.55 550.25 1059.65 550.25 1065.25 550.25 1066.8 552.05 1067.6 552.95 1067.25 553.85 1067.25 558.5 1056.35 557.8 L1055.6 559.25 Q1064.4 561.7 1066.2 563.3 1067.25 564.25 1067.25 567.85 1067.25 571.2 1065.55 573.75 1062.6 578.25 1055.25 578.25 1051.4 578.25 1050.1 576.4 L1049.6 574.5 Q1049.6 572.8 1051.7 572.1 1057.3 570.1 1059.55 569.0 1046.65 564.85 1046.65 558.85 1046.65 556.65 1049.65 553.9 M1027.1 572.4 L1026.6 569.0 Q1020.5 570.15 1016.5 571.65 1018.35 574.15 1018.55 574.15 L1027.55 573.85 1027.1 572.4 M1108.0 575.05 Q1108.0 540.8 1106.1 531.8 1111.75 532.25 1127.35 532.3 1122.6 535.4 1118.6 537.0 1115.3 538.1 1114.55 538.55 1113.5 539.1 1113.4 540.95 L1113.4 548.25 Q1113.4 552.8 1113.8 556.95 1114.15 561.1 1114.15 567.95 L1113.95 574.3 1112.4 574.2 1109.7 574.55 1108.05 575.1 1108.0 575.05 M1081.25 542.5 Q1081.3 545.75 1080.55 551.55 1089.8 553.0 1092.95 555.25 1094.95 556.7 1096.25 560.85 L1097.8 566.25 1097.75 570.4 1097.7 574.5 Q1097.1 577.75 1094.05 577.75 1090.1 577.75 1089.9 573.65 1090.5 569.2 1090.35 568.5 1090.0 566.85 1087.9 563.9 L1084.5 559.25 Q1082.75 560.9 1082.2 564.35 1081.95 565.75 1081.8 570.65 1081.7 574.4 1081.0 576.0 1080.0 578.25 1077.35 578.25 1073.85 578.25 1073.15 567.2 L1073.15 555.85 Q1072.85 550.45 1073.15 545.75 1073.75 536.5 1076.85 536.5 1081.1 536.5 1081.25 542.5" fill="#000000" fill-opacity="0.6" fill-rule="evenodd" stroke="none"/>
  </g>
</svg>
