<?xml version="1.0" encoding="UTF-8" standalone="no"?>
<svg xmlns:xlink="http://www.w3.org/1999/xlink" height="86.15px" width="42.65px" xmlns="http://www.w3.org/2000/svg">
  <g transform="matrix(1.0, 0.0, 0.0, 1.0, 27.3, 14.05)">
    <path d="M-8.2 12.6 Q-10.3 11.05 -11.8 8.75 -13.6 6.0 -14.05 3.0 -14.45 0.45 -13.85 -2.3 L-13.65 -3.2 -13.45 -3.95 Q-12.5 -6.9 -10.5 -9.05 L-10.05 -9.55 -7.5 -11.6 -6.75 -12.0 -5.1 -12.75 Q-3.75 -13.45 -1.4 -13.85 L3.55 -13.6 5.0 -13.25 5.15 -13.2 5.25 -13.15 Q7.3 -12.5 9.0 -11.3 L11.25 -9.35 12.35 -7.85 12.4 -7.9 12.85 -7.25 Q16.15 -2.15 14.9 3.8 13.6 9.75 8.5 13.1 7.05 14.0 5.55 14.6 L4.55 14.95 3.95 15.1 Q0.85 15.85 -2.55 15.1 -5.8 14.4 -8.2 12.6 M-3.45 -5.4 Q-5.9 -3.8 -6.5 -0.95 -7.1 1.9 -5.5 4.3 -3.9 6.8 -1.05 7.4 1.75 8.0 4.2 6.4 6.7 4.8 7.3 2.0 7.9 -0.85 6.3 -3.35 4.7 -5.8 1.85 -6.35 -1.0 -7.0 -3.45 -5.4" fill="url(#gradient0)" fill-rule="evenodd" stroke="none"/>
    <path d="M-3.45 -5.4 Q-1.0 -7.0 1.85 -6.35 4.7 -5.8 6.3 -3.35 7.9 -0.85 7.3 2.0 6.7 4.8 4.2 6.4 1.75 8.0 -1.05 7.4 -3.9 6.8 -5.5 4.3 -7.1 1.9 -6.5 -0.95 -5.9 -3.8 -3.45 -5.4" fill="url(#gradient1)" fill-rule="evenodd" stroke="none"/>
    <path d="M5.55 14.6 L8.65 13.35 8.65 13.3 Q13.8 10.7 14.6 9.45 9.65 22.1 8.75 22.55 L8.65 22.7 8.45 22.7 7.95 22.65 Q2.7 21.5 -0.1 19.95 L-3.5 17.95 -4.2 17.4 -4.7 16.95 -4.85 16.85 0.25 15.95 3.95 15.1 4.55 14.95 5.55 14.6" fill="url(#gradient2)" fill-rule="evenodd" stroke="none"/>
    <path d="M0.2 49.7 L0.5 53.75 -2.15 53.65 -2.65 48.8 -0.1 49.55 0.2 49.65 0.2 49.7 M-14.95 53.25 L-14.15 49.7 -8.35 48.2 -8.3 48.2 -7.0 47.9 -6.95 47.9 -5.1 48.3 -5.05 48.3 -4.65 53.55 -8.6 53.45 -14.95 53.25 M-8.85 13.85 L-8.2 12.6 Q-5.8 14.4 -2.55 15.1 0.85 15.85 3.95 15.1 L0.25 15.95 -4.85 16.85 -8.85 13.85 M-4.7 16.95 L-4.9 16.85 -4.85 16.85 -4.7 16.95 M-8.6 53.45 L-8.6 53.4 -8.6 53.45 -8.6 53.4 -8.6 53.45" fill="#333333" fill-rule="evenodd" stroke="none"/>
    <path d="M7.95 22.65 L8.45 22.7 Q10.25 24.45 11.85 25.1 L14.05 25.8 12.05 30.5 Q-6.75 30.45 -23.25 19.25 -23.1 19.2 -23.3 18.85 -24.9 15.75 -24.95 12.4 -25.2 3.9 -24.4 0.25 L-23.8 -2.7 -18.2 4.65 Q-15.65 7.4 -8.9 13.75 L-8.85 13.85 -4.85 16.85 -4.9 16.85 -4.7 16.95 -4.2 17.4 -3.5 17.95 -0.1 19.95 Q2.7 21.5 7.95 22.65" fill="url(#gradient3)" fill-rule="evenodd" stroke="none"/>
    <path d="M12.05 30.5 Q11.9 31.05 14.0 30.9 L12.95 35.8 Q-5.65 41.95 -22.3 33.4 -25.95 25.05 -26.05 22.35 L-26.75 16.1 -24.25 18.65 -23.35 19.2 -23.25 19.25 Q-6.75 30.45 12.05 30.5" fill="url(#gradient4)" fill-rule="evenodd" stroke="none"/>
    <path d="M12.95 35.8 L15.15 35.25 Q14.3 40.9 11.7 41.65 L8.35 43.0 -6.95 47.9 -7.0 47.9 -8.3 48.2 -8.35 48.2 -14.15 49.7 -15.65 50.15 -17.35 50.7 Q-18.35 50.35 -20.1 47.15 -27.6 33.45 -27.15 32.35 -27.0 31.8 -24.55 32.7 L-22.3 33.4 Q-5.65 41.95 12.95 35.8" fill="url(#gradient5)" fill-rule="evenodd" stroke="none"/>
    <path d="M8.35 43.0 L11.25 48.7 Q12.15 53.25 11.95 55.0 L11.5 56.95 Q7.2 52.15 3.55 51.15 L0.2 49.7 0.2 49.65 -0.1 49.55 Q-1.85 48.9 -3.1 48.7 L-5.1 48.3 -6.95 47.9 8.35 43.0" fill="url(#gradient6)" fill-rule="evenodd" stroke="none"/>
    <path d="M0.5 53.75 L3.15 53.85 Q1.9 54.35 1.65 54.95 1.4 55.55 1.6 55.85 L1.75 56.15 Q-1.0 55.75 -3.4 57.3 -4.85 58.25 -5.7 59.6 -7.45 58.85 -8.75 58.55 L-16.15 56.8 -17.6 53.2 -14.95 53.25 -8.6 53.45 -4.65 53.55 -2.15 53.65 0.5 53.75 M-2.35 61.15 Q-2.0 60.55 -1.35 60.1 -0.1 59.2 1.35 59.55 2.8 59.85 3.6 61.2 4.35 62.55 4.05 64.2 3.7 65.8 2.45 66.7 1.15 67.65 -0.3 67.35 L-0.55 67.3 Q1.3 65.05 0.5 63.8 -0.4 62.35 -2.35 61.15" fill="url(#gradient7)" fill-rule="evenodd" stroke="none"/>
    <path d="M-3.25 69.9 L-4.9 71.0 -5.35 71.25 -6.65 71.8 Q-8.55 72.35 -10.05 71.45 L-10.25 71.35 Q-13.3 69.3 -17.0 63.65 L-21.4 55.55 -16.15 56.8 -8.75 58.55 Q-7.45 58.85 -5.7 59.6 L-3.7 60.45 -2.35 61.15 Q-0.4 62.35 0.5 63.8 1.3 65.05 -0.55 67.3 L-2.8 69.5 -3.25 69.9" fill="url(#gradient8)" fill-rule="evenodd" stroke="none"/>
    <path d="M1.75 56.15 L2.15 56.25 Q5.15 56.85 6.85 59.5 8.5 62.1 7.85 65.1 L7.0 67.35 Q6.15 68.75 4.65 69.75 L2.25 70.9 1.1 70.95 -0.75 70.75 Q-2.25 70.5 -3.25 69.9 L-2.8 69.5 -0.55 67.3 -0.3 67.35 Q1.15 67.65 2.45 66.7 3.7 65.8 4.05 64.2 4.35 62.55 3.6 61.2 2.8 59.85 1.35 59.55 -0.1 59.2 -1.35 60.1 -2.0 60.55 -2.35 61.15 L-3.7 60.45 -5.7 59.6 Q-4.85 58.25 -3.4 57.3 -1.0 55.75 1.75 56.15" fill="url(#gradient9)" fill-rule="evenodd" stroke="none"/>
    <path d="M-8.2 12.6 Q-10.3 11.05 -11.8 8.75 -13.6 6.0 -14.05 3.0 -14.45 0.45 -13.85 -2.3 L-13.65 -3.2 -13.45 -3.95 Q-12.5 -6.9 -10.5 -9.05 L-10.05 -9.55 -7.5 -11.6 -6.75 -12.0 -5.1 -12.75 Q-3.75 -13.45 -1.4 -13.85 L3.55 -13.6 5.0 -13.25 5.15 -13.2 5.25 -13.15 Q7.3 -12.5 9.0 -11.3 L11.25 -9.35 12.35 -7.85 12.4 -7.9 12.85 -7.25 Q16.15 -2.15 14.9 3.8 13.6 9.75 8.5 13.1 7.05 14.0 5.55 14.6 L8.65 13.35 8.65 13.3 Q13.8 10.7 14.6 9.45 9.65 22.1 8.75 22.55 L8.65 22.7 8.45 22.7 7.95 22.65 Q2.7 21.5 -0.1 19.95 L-3.5 17.95 -4.2 17.4 -4.7 16.95 -4.9 16.85 -4.85 16.85 -8.85 13.85 -8.2 12.6 Q-5.8 14.4 -2.55 15.1 0.85 15.85 3.95 15.1 L4.55 14.95 5.55 14.6 M8.45 22.7 Q10.25 24.45 11.85 25.1 L14.05 25.8 12.05 30.5 Q11.9 31.05 14.0 30.9 L12.95 35.8 15.15 35.25 Q14.3 40.9 11.7 41.65 L8.35 43.0 11.25 48.7 Q12.15 53.25 11.95 55.0 L11.5 56.95 Q7.2 52.15 3.55 51.15 L0.2 49.7 0.5 53.75 3.15 53.85 Q1.9 54.35 1.65 54.95 1.4 55.55 1.6 55.85 L1.75 56.15 Q-1.0 55.75 -3.4 57.3 -4.85 58.25 -5.7 59.6 -7.45 58.85 -8.75 58.55 L-16.15 56.8 -17.6 53.2 -14.95 53.25 -14.15 49.7 -15.65 50.15 -17.35 50.7 Q-18.35 50.35 -20.1 47.15 -27.6 33.45 -27.15 32.35 -27.0 31.8 -24.55 32.7 L-22.3 33.4 Q-25.95 25.05 -26.05 22.35 L-26.75 16.1 -24.25 18.65 -23.35 19.2 -23.25 19.25 Q-23.1 19.2 -23.3 18.85 -24.9 15.75 -24.95 12.4 -25.2 3.9 -24.4 0.25 L-23.8 -2.7 -18.2 4.65 Q-15.65 7.4 -8.9 13.75 L-8.85 13.85 M-3.25 69.9 L-4.9 71.0 -5.35 71.25 -6.65 71.8 Q-8.55 72.35 -10.05 71.45 L-10.25 71.35 Q-13.3 69.3 -17.0 63.65 L-21.4 55.55 -16.15 56.8 M-3.45 -5.4 Q-1.0 -7.0 1.85 -6.35 4.7 -5.8 6.3 -3.35 7.9 -0.85 7.3 2.0 6.7 4.8 4.2 6.4 1.75 8.0 -1.05 7.4 -3.9 6.8 -5.5 4.3 -7.1 1.9 -6.5 -0.95 -5.9 -3.8 -3.45 -5.4 M-4.85 16.85 L0.25 15.95 3.95 15.1 M0.2 49.7 L0.2 49.65 -0.1 49.55 -2.65 48.8 -2.15 53.65 0.5 53.75 M-2.35 61.15 Q-2.0 60.55 -1.35 60.1 -0.1 59.2 1.35 59.55 2.8 59.85 3.6 61.2 4.35 62.55 4.05 64.2 3.7 65.8 2.45 66.7 1.15 67.65 -0.3 67.35 L-0.55 67.3 -2.8 69.5 -3.25 69.9 M-4.85 16.85 L-4.7 16.95 M-5.1 48.3 L-6.95 47.9 -7.0 47.9 -8.3 48.2 -8.35 48.2 -14.15 49.7 M-5.1 48.3 L-5.05 48.3 -4.65 53.55 -2.15 53.65 M-0.1 49.55 Q-1.85 48.9 -3.1 48.7 L-5.1 48.3 M-8.6 53.45 L-8.6 53.4 -8.6 53.45 -4.65 53.55 M-2.35 61.15 L-3.7 60.45 -5.7 59.6 M-8.6 53.45 L-14.95 53.25 M12.95 35.8 Q-5.65 41.95 -22.3 33.4 M-6.95 47.9 L8.35 43.0 M-0.55 67.3 Q1.3 65.05 0.5 63.8 -0.4 62.35 -2.35 61.15" fill="none" stroke="#000000" stroke-linecap="round" stroke-linejoin="round" stroke-width="0.25"/>
    <path d="M1.75 56.15 L2.15 56.25 Q5.15 56.85 6.85 59.5 8.5 62.1 7.85 65.1 L7.0 67.35 Q6.15 68.75 4.65 69.75 L2.25 70.9 1.1 70.95 -0.75 70.75 Q-2.25 70.5 -3.25 69.9 M12.05 30.5 Q-6.75 30.45 -23.25 19.25" fill="none" stroke="#000000" stroke-linecap="round" stroke-linejoin="round" stroke-width="0.25"/>
  </g>
  <defs>
    <radialGradient cx="0" cy="0" gradientTransform="matrix(0.0279, 0.006, -0.006, 0.0279, 0.5, 0.75)" gradientUnits="userSpaceOnUse" id="gradient0" r="819.2" spreadMethod="pad">
      <stop offset="0.0" stop-color="#999999"/>
      <stop offset="1.0" stop-color="#000000"/>
    </radialGradient>
    <radialGradient cx="0" cy="0" gradientTransform="matrix(0.0245, 0.0052, -0.0052, 0.0245, -1.8, -2.9)" gradientUnits="userSpaceOnUse" id="gradient1" r="819.2" spreadMethod="pad">
      <stop offset="0.0" stop-color="#666666"/>
      <stop offset="1.0" stop-color="#000000"/>
    </radialGradient>
    <linearGradient gradientTransform="matrix(0.0101, 0.0022, -0.0018, 0.0087, 4.75, 14.75)" gradientUnits="userSpaceOnUse" id="gradient2" spreadMethod="pad" x1="-819.2" x2="819.2">
      <stop offset="0.0" stop-color="#666666"/>
      <stop offset="1.0" stop-color="#000000"/>
    </linearGradient>
    <linearGradient gradientTransform="matrix(0.0257, 0.0055, -0.0034, 0.0157, -5.55, 14.6)" gradientUnits="userSpaceOnUse" id="gradient3" spreadMethod="pad" x1="-819.2" x2="819.2">
      <stop offset="0.0" stop-color="#666666"/>
      <stop offset="1.0" stop-color="#000000"/>
    </linearGradient>
    <linearGradient gradientTransform="matrix(0.0257, 0.0055, -0.0022, 0.0105, -7.6, 29.15)" gradientUnits="userSpaceOnUse" id="gradient4" spreadMethod="pad" x1="-819.2" x2="819.2">
      <stop offset="0.0" stop-color="#666666"/>
      <stop offset="1.0" stop-color="#000000"/>
    </linearGradient>
    <linearGradient gradientTransform="matrix(0.0251, 0.0053, -0.0028, 0.0131, -7.7, 41.55)" gradientUnits="userSpaceOnUse" id="gradient5" spreadMethod="pad" x1="-819.2" x2="819.2">
      <stop offset="0.0" stop-color="#666666"/>
      <stop offset="1.0" stop-color="#000000"/>
    </linearGradient>
    <linearGradient gradientTransform="matrix(0.012, 0.0025, -0.0016, 0.0078, 3.05, 48.5)" gradientUnits="userSpaceOnUse" id="gradient6" spreadMethod="pad" x1="-819.2" x2="819.2">
      <stop offset="0.0" stop-color="#666666"/>
      <stop offset="1.0" stop-color="#000000"/>
    </linearGradient>
    <linearGradient gradientTransform="matrix(0.02, 0.0043, -0.0011, 0.005, -6.0, 57.45)" gradientUnits="userSpaceOnUse" id="gradient7" spreadMethod="pad" x1="-819.2" x2="819.2">
      <stop offset="0.0" stop-color="#666666"/>
      <stop offset="1.0" stop-color="#000000"/>
    </linearGradient>
    <linearGradient gradientTransform="matrix(0.0207, -0.012, 0.0041, 0.007, -3.65, 55.25)" gradientUnits="userSpaceOnUse" id="gradient8" spreadMethod="pad" x1="-819.2" x2="819.2">
      <stop offset="0.0" stop-color="#666666"/>
      <stop offset="1.0" stop-color="#000000"/>
    </linearGradient>
    <radialGradient cx="0" cy="0" gradientTransform="matrix(0.0097, 0.0021, -0.0021, 0.0097, 0.6, 63.5)" gradientUnits="userSpaceOnUse" id="gradient9" r="819.2" spreadMethod="pad">
      <stop offset="0.0" stop-color="#cccccc"/>
      <stop offset="1.0" stop-color="#333333"/>
    </radialGradient>
  </defs>
</svg>
