<?xml version="1.0" encoding="UTF-8" standalone="no"?>
<svg xmlns:xlink="http://www.w3.org/1999/xlink" height="43.0px" width="29.25px" xmlns="http://www.w3.org/2000/svg">
  <g transform="matrix(1.0, 0.0, 0.0, 1.0, 19.1, 33.0)">
    <path d="M4.2 -7.8 L5.65 -5.75 5.65 -0.45 -0.65 3.9 -6.8 3.9 -7.85 1.0 -3.95 -1.8 -3.05 -2.45 -1.25 -3.75 0.6 -5.1 2.4 -6.4 4.2 -7.8 M5.65 -0.45 L0.6 -5.1 5.65 -0.45 M-0.65 3.9 L-3.95 -1.8 -0.65 3.9" fill="#333333" fill-rule="evenodd" stroke="none"/>
    <path d="M1.9 -30.75 Q2.6 -31.4 3.6 -31.9 L5.4 -32.85 Q6.1 -33.05 6.6 -31.9 L8.25 -29.5 Q9.35 -28.0 9.6 -26.9 10.0 -25.15 10.05 -21.7 10.15 -17.8 9.45 -14.45 9.05 -12.8 7.3 -10.8 L4.2 -7.8 2.4 -6.4 0.6 -5.1 -1.25 -3.75 -3.05 -2.45 -3.95 -1.8 -7.85 1.0 -8.4 1.35 -8.45 1.4 -11.65 4.0 Q-13.2 5.55 -13.45 6.8 L-14.05 9.9 -15.5 9.0 Q-15.3 7.5 -15.55 5.15 L-15.6 4.0 Q-15.8 0.1 -14.9 -1.4 L-12.8 -5.5 -12.8 -5.55 Q-11.6 -8.0 -9.9 -9.4 L-8.4 -10.3 -7.25 -10.8 -4.95 -11.55 Q-2.05 -12.35 -1.9 -13.4 -1.7 -14.75 -2.75 -14.85 L-5.9 -14.4 -8.6 -13.8 Q-9.3 -13.7 -9.9 -14.4 L-10.8 -16.25 -10.65 -16.65 -7.9 -19.4 -6.25 -20.7 Q-6.35 -18.55 -4.15 -18.6 -6.35 -18.55 -6.25 -20.7 L-4.75 -21.9 -2.9 -23.4 Q-1.5 -24.45 -0.9 -23.4 L1.05 -20.95 Q2.55 -19.0 2.1 -18.4 -0.1 -15.65 0.1 -14.4 0.15 -14.0 4.1 -16.4 L7.1 -18.4 7.3 -19.35 7.3 -20.45 Q7.1 -21.45 6.1 -21.4 4.6 -21.35 3.8 -22.0 2.9 -22.65 4.1 -23.4 L5.75 -24.4 Q6.15 -24.7 6.1 -25.4 L6.05 -26.1 Q5.85 -28.25 5.1 -28.4 L3.1 -28.4 Q2.6 -28.35 1.9 -29.3 L1.9 -30.75 M-17.9 -0.15 L-16.9 -2.7 -15.6 -5.5 -14.95 -6.85 -16.0 -4.45 -17.75 -0.5 -17.9 -0.15 M-6.85 -21.7 L-6.7 -22.15 Q-6.6 -21.2 -6.85 -21.65 L-6.85 -21.7 M-3.1 -27.45 Q-2.4 -28.1 -2.25 -27.75 L-2.2 -27.7 -3.1 -27.45 M-2.7 -19.85 Q-4.9 -19.8 -4.75 -21.9 -4.9 -19.8 -2.7 -19.85 M-5.15 -16.65 Q-7.5 -16.7 -7.9 -19.4 -7.5 -16.7 -5.15 -16.65 M-2.0 -10.8 L-4.8 -8.7 -7.5 -6.9 -8.2 -8.1 -8.4 -8.3 Q-9.0 -8.65 -10.65 -5.5 L-11.05 -4.75 -13.25 1.7 -11.05 -4.75 -10.65 -5.5 Q-9.0 -8.65 -8.4 -8.3 L-8.2 -8.1 -7.5 -6.9 -4.8 -8.7 -2.0 -10.8" fill="url(#gradient0)" fill-rule="evenodd" stroke="none"/>
    <path d="M-10.9 -16.4 Q-10.75 -18.05 -9.8 -20.4 L-7.9 -22.95 -6.85 -21.7 -6.85 -21.65 Q-6.6 -21.2 -6.7 -22.15 L-6.7 -22.2 -6.9 -23.4 -4.45 -26.1 -4.15 -26.4 -3.1 -27.45 -2.2 -27.7 -2.15 -27.65 -1.7 -27.45 -1.1 -27.55 -0.7 -27.75 0.7 -29.05 Q1.15 -30.0 1.9 -30.75 L1.9 -29.3 Q2.6 -28.35 3.1 -28.4 L5.1 -28.4 Q5.85 -28.25 6.05 -26.1 L6.1 -25.4 Q6.15 -24.7 5.75 -24.4 L4.1 -23.4 Q2.9 -22.65 3.8 -22.0 4.6 -21.35 6.1 -21.4 7.1 -21.45 7.3 -20.45 L7.3 -19.35 7.1 -18.4 4.1 -16.4 Q0.15 -14.0 0.1 -14.4 -0.1 -15.65 2.1 -18.4 2.55 -19.0 1.05 -20.95 L-0.9 -23.4 Q-1.5 -24.45 -2.9 -23.4 L-4.75 -21.9 -6.25 -20.7 -7.9 -19.4 -10.65 -16.65 -10.9 -16.4" fill="url(#gradient1)" fill-rule="evenodd" stroke="none"/>
    <path d="M-15.5 9.0 L-15.5 9.05 -18.65 7.05 -18.7 6.85 Q-19.05 5.4 -19.0 4.0 -19.0 2.55 -17.9 -0.15 L-17.75 -0.5 -16.0 -4.45 -14.95 -6.85 -10.9 -16.4 -10.8 -16.25 -9.9 -14.4 Q-9.3 -13.7 -8.6 -13.8 L-5.9 -14.4 -2.75 -14.85 Q-1.7 -14.75 -1.9 -13.4 -2.05 -12.35 -4.95 -11.55 L-7.25 -10.8 -8.4 -10.3 -9.9 -9.4 Q-11.6 -8.0 -12.8 -5.55 L-12.8 -5.5 -14.9 -1.4 Q-15.8 0.1 -15.6 4.0 L-15.55 5.15 Q-15.3 7.5 -15.5 9.0" fill="url(#gradient2)" fill-rule="evenodd" stroke="none"/>
    <path d="M1.9 -30.75 Q2.6 -31.4 3.6 -31.9 L5.4 -32.85 Q6.1 -33.05 6.6 -31.9 L8.25 -29.5 Q9.35 -28.0 9.6 -26.9 10.0 -25.15 10.05 -21.7 10.15 -17.8 9.45 -14.45 9.05 -12.8 7.3 -10.8 L4.2 -7.8 5.65 -5.75 5.65 -0.45 -0.65 3.9 -6.8 3.9 -7.85 1.0 -8.4 1.35 -8.45 1.4 -11.65 4.0 Q-13.2 5.55 -13.45 6.8 L-14.05 9.9 -15.5 9.0 -15.5 9.05 -18.65 7.05 -18.7 6.85 Q-19.05 5.4 -19.0 4.0 -19.0 2.55 -17.9 -0.15 L-16.9 -2.7 -15.6 -5.5 -14.95 -6.85 -10.9 -16.4 Q-10.75 -18.05 -9.8 -20.4 L-7.9 -22.95 -6.85 -21.7 -6.7 -22.15 -6.7 -22.2 -6.9 -23.4 -4.45 -26.1 -4.15 -26.4 -3.1 -27.45 Q-2.4 -28.1 -2.25 -27.75 L-2.2 -27.7 -2.15 -27.65 -1.7 -27.45 -1.1 -27.55 -0.7 -27.75 0.7 -29.05 Q1.15 -30.0 1.9 -30.75 L1.9 -29.3 Q2.6 -28.35 3.1 -28.4 L5.1 -28.4 Q5.85 -28.25 6.05 -26.1 L6.1 -25.4 Q6.15 -24.7 5.75 -24.4 L4.1 -23.4 Q2.9 -22.65 3.8 -22.0 4.6 -21.35 6.1 -21.4 7.1 -21.45 7.3 -20.45 L7.3 -19.35 7.1 -18.4 4.1 -16.4 Q0.15 -14.0 0.1 -14.4 -0.1 -15.65 2.1 -18.4 2.55 -19.0 1.05 -20.95 L-0.9 -23.4 Q-1.5 -24.45 -2.9 -23.4 L-4.75 -21.9 Q-4.9 -19.8 -2.7 -19.85 M0.6 -5.1 L5.65 -0.45 M4.2 -7.8 L2.4 -6.4 0.6 -5.1 -1.25 -3.75 -3.05 -2.45 -3.95 -1.8 -0.65 3.9 M-3.1 -27.45 L-2.2 -27.7 M-6.85 -21.7 L-6.85 -21.65 Q-6.6 -21.2 -6.7 -22.15 M-6.25 -20.7 L-7.9 -19.4 Q-7.5 -16.7 -5.15 -16.65 M-15.5 9.0 Q-15.3 7.5 -15.55 5.15 L-15.6 4.0 Q-15.8 0.1 -14.9 -1.4 L-12.8 -5.5 -12.8 -5.55 Q-11.6 -8.0 -9.9 -9.4 L-8.4 -10.3 -7.25 -10.8 -4.95 -11.55 Q-2.05 -12.35 -1.9 -13.4 -1.7 -14.75 -2.75 -14.85 L-5.9 -14.4 -8.6 -13.8 Q-9.3 -13.7 -9.9 -14.4 L-10.8 -16.25 -10.9 -16.4 -10.65 -16.65 -7.9 -19.4 M-6.25 -20.7 Q-6.35 -18.55 -4.15 -18.6 M-4.75 -21.9 L-6.25 -20.7 M-10.8 -16.25 L-10.65 -16.65 M-14.95 -6.85 L-16.0 -4.45 -17.75 -0.5 -17.9 -0.15 M-13.25 1.7 L-11.05 -4.75 -10.65 -5.5 Q-9.0 -8.65 -8.4 -8.3 L-8.2 -8.1 -7.5 -6.9 -4.8 -8.7 -2.0 -10.8 M-3.95 -1.8 L-7.85 1.0" fill="none" stroke="#000000" stroke-linecap="round" stroke-linejoin="round" stroke-width="0.25"/>
  </g>
  <defs>
    <linearGradient gradientTransform="matrix(0.0176, 0.0, 0.0, 0.0261, -4.4, -11.5)" gradientUnits="userSpaceOnUse" id="gradient0" spreadMethod="pad" x1="-819.2" x2="819.2">
      <stop offset="0.0" stop-color="#cccccc"/>
      <stop offset="1.0" stop-color="#333333"/>
    </linearGradient>
    <linearGradient gradientTransform="matrix(-0.0046, -0.017, 0.0096, -0.0026, -0.8, -18.75)" gradientUnits="userSpaceOnUse" id="gradient1" spreadMethod="pad" x1="-819.2" x2="819.2">
      <stop offset="0.0" stop-color="#666666"/>
      <stop offset="0.6980392156862745" stop-color="#000000"/>
    </linearGradient>
    <linearGradient gradientTransform="matrix(0.0105, 0.0, 0.0, 0.0159, -10.45, -3.4)" gradientUnits="userSpaceOnUse" id="gradient2" spreadMethod="pad" x1="-819.2" x2="819.2">
      <stop offset="0.0" stop-color="#cccccc"/>
      <stop offset="0.40784313725490196" stop-color="#000000"/>
      <stop offset="0.5882352941176471" stop-color="#000000"/>
      <stop offset="0.9333333333333333" stop-color="#ff0000"/>
    </linearGradient>
  </defs>
</svg>
