<?xml version="1.0" encoding="UTF-8" standalone="no"?>
<svg xmlns:xlink="http://www.w3.org/1999/xlink" height="145.45px" width="88.25px" xmlns="http://www.w3.org/2000/svg">
  <g transform="matrix(1.0, 0.0, 0.0, 1.0, 71.2, 12.85)">
    <path d="M6.0 -8.6 Q6.35 -8.6 6.6 -8.9 L6.9 -9.5 6.6 -10.15 6.0 -10.4 5.35 -10.15 5.1 -9.5 Q5.1 -9.15 5.35 -8.9 5.65 -8.6 6.0 -8.6 M1.7 -3.4 Q2.05 -3.4 2.3 -3.7 L2.6 -4.3 2.3 -4.95 1.7 -5.2 1.05 -4.95 0.8 -4.3 1.05 -3.7 Q1.35 -3.4 1.7 -3.4 M8.8 -4.4 L8.15 -4.15 7.9 -3.5 8.15 -2.9 Q8.45 -2.6 8.8 -2.6 9.15 -2.6 9.4 -2.9 L9.7 -3.5 9.4 -4.15 8.8 -4.4 M15.0 3.3 L11.0 1.1 Q7.95 -0.4 6.65 -0.5 L1.3 -0.55 Q-2.8 -0.5 -4.6 0.7 L-8.5 3.45 Q-10.6 4.95 -13.1 7.7 -10.6 4.95 -8.5 3.45 L-4.6 0.7 Q-2.8 -0.5 1.3 -0.55 L6.65 -0.5 Q7.95 -0.4 11.0 1.1 L15.0 3.3 15.45 3.6 Q16.2 3.8 16.95 4.4 L16.55 5.75 14.25 8.5 Q12.55 10.3 12.6 10.7 L9.7 8.6 Q7.7 7.25 2.7 6.6 L-1.95 7.05 Q-4.9 7.65 -6.55 8.4 -8.25 9.1 -10.5 10.9 L-11.25 11.6 -10.5 10.9 Q-8.25 9.1 -6.55 8.4 -4.9 7.65 -1.95 7.05 L2.7 6.6 Q7.7 7.25 9.7 8.6 L12.6 10.7 12.7 10.75 14.9 12.2 Q14.65 13.9 13.85 14.55 L10.65 16.3 8.0 17.4 8.0 17.1 Q0.8 20.75 -8.9 16.1 L-9.7 15.35 -12.15 13.0 Q-12.6 12.7 -11.7 12.15 L-11.25 11.6 Q-11.2 11.2 -11.6 10.75 L-13.0 9.4 -13.65 8.7 -13.2 8.1 -13.1 7.7 Q-13.15 7.35 -13.55 6.85 L-15.0 5.35 -15.7 4.5 Q-15.8 4.25 -15.3 3.6 L-15.15 3.45 Q-14.5 2.1 -17.75 -0.55 -18.05 -2.15 -16.25 -4.85 -14.45 -7.55 -10.85 -9.75 -7.3 -11.95 -4.45 -12.5 -1.6 -13.05 3.7 -12.4 6.35 -12.05 11.7 -9.4 14.7 -7.9 14.7 -7.4 15.3 -3.4 14.8 -0.55 16.85 0.1 15.35 1.75 L14.85 2.6 Q14.75 3.0 15.0 3.3 M-15.15 3.45 L-11.3 -2.4 Q-10.15 -4.15 -7.4 -5.75 -4.7 -7.35 -3.2 -7.5 L2.0 -7.6 Q5.65 -7.55 7.7 -6.45 9.7 -5.4 11.9 -3.3 L14.8 -0.55 11.9 -3.3 Q9.7 -5.4 7.7 -6.45 5.65 -7.55 2.0 -7.6 L-3.2 -7.5 Q-4.7 -7.35 -7.4 -5.75 -10.15 -4.15 -11.3 -2.4 L-15.15 3.45 M11.6 5.9 L11.9 5.3 11.6 4.65 Q11.35 4.4 11.0 4.4 10.65 4.4 10.35 4.65 L10.1 5.3 10.35 5.9 Q10.65 6.2 11.0 6.2 L11.6 5.9 M2.05 3.25 Q1.8 3.55 1.8 3.9 L2.05 4.5 Q2.35 4.8 2.7 4.8 L3.3 4.5 3.6 3.9 3.3 3.25 2.7 3.0 Q2.35 3.0 2.05 3.25 M-12.9 -4.65 L-13.5 -4.9 -14.15 -4.65 -14.4 -4.0 -14.15 -3.4 Q-13.85 -3.1 -13.5 -3.1 -13.15 -3.1 -12.9 -3.4 -12.6 -3.65 -12.6 -4.0 -12.6 -4.35 -12.9 -4.65 M-0.1 -10.5 L-0.4 -11.15 -1.0 -11.4 -1.65 -11.15 -1.9 -10.5 -1.65 -9.9 Q-1.35 -9.6 -1.0 -9.6 -0.65 -9.6 -0.4 -9.9 -0.1 -10.15 -0.1 -10.5 M-7.1 -8.4 Q-6.8 -8.65 -6.8 -9.0 L-7.1 -9.65 -7.7 -9.9 -8.35 -9.65 -8.6 -9.0 -8.35 -8.4 Q-8.05 -8.1 -7.7 -8.1 -7.35 -8.1 -7.1 -8.4 M-5.35 -4.15 L-5.6 -3.5 -5.35 -2.9 Q-5.05 -2.6 -4.7 -2.6 -4.35 -2.6 -4.1 -2.9 -3.8 -3.15 -3.8 -3.5 -3.8 -3.85 -4.1 -4.15 L-4.7 -4.4 -5.35 -4.15 M-4.2 5.3 Q-4.2 4.95 -4.5 4.65 -4.75 4.4 -5.1 4.4 L-5.75 4.65 -6.0 5.3 -5.75 5.9 -5.1 6.2 Q-4.75 6.2 -4.5 5.9 -4.2 5.65 -4.2 5.3 M-9.3 0.35 Q-9.55 0.1 -9.9 0.1 -10.25 0.1 -10.55 0.35 L-10.8 1.0 -10.55 1.6 -9.9 1.9 Q-9.55 1.9 -9.3 1.6 -9.0 1.35 -9.0 1.0 -9.0 0.65 -9.3 0.35" fill="url(#gradient0)" fill-rule="evenodd" stroke="none"/>
    <path d="M6.0 -8.6 Q5.65 -8.6 5.35 -8.9 5.1 -9.15 5.1 -9.5 L5.35 -10.15 6.0 -10.4 6.6 -10.15 6.9 -9.5 6.6 -8.9 Q6.35 -8.6 6.0 -8.6" fill="url(#gradient1)" fill-rule="evenodd" stroke="none"/>
    <path d="M1.7 -3.4 Q1.35 -3.4 1.05 -3.7 L0.8 -4.3 1.05 -4.95 1.7 -5.2 2.3 -4.95 2.6 -4.3 2.3 -3.7 Q2.05 -3.4 1.7 -3.4" fill="url(#gradient2)" fill-rule="evenodd" stroke="none"/>
    <path d="M8.8 -4.4 L9.4 -4.15 9.7 -3.5 9.4 -2.9 Q9.15 -2.6 8.8 -2.6 8.45 -2.6 8.15 -2.9 L7.9 -3.5 8.15 -4.15 8.8 -4.4" fill="url(#gradient3)" fill-rule="evenodd" stroke="none"/>
    <path d="M-12.9 -4.65 Q-12.6 -4.35 -12.6 -4.0 -12.6 -3.65 -12.9 -3.4 -13.15 -3.1 -13.5 -3.1 -13.85 -3.1 -14.15 -3.4 L-14.4 -4.0 -14.15 -4.65 -13.5 -4.9 -12.9 -4.65" fill="url(#gradient4)" fill-rule="evenodd" stroke="none"/>
    <path d="M-0.1 -10.5 Q-0.1 -10.15 -0.4 -9.9 -0.65 -9.6 -1.0 -9.6 -1.35 -9.6 -1.65 -9.9 L-1.9 -10.5 -1.65 -11.15 -1.0 -11.4 -0.4 -11.15 -0.1 -10.5" fill="url(#gradient5)" fill-rule="evenodd" stroke="none"/>
    <path d="M-7.1 -8.4 Q-7.35 -8.1 -7.7 -8.1 -8.05 -8.1 -8.35 -8.4 L-8.6 -9.0 -8.35 -9.65 -7.7 -9.9 -7.1 -9.65 -6.8 -9.0 Q-6.8 -8.65 -7.1 -8.4" fill="url(#gradient6)" fill-rule="evenodd" stroke="none"/>
    <path d="M-5.35 -4.15 L-4.7 -4.4 -4.1 -4.15 Q-3.8 -3.85 -3.8 -3.5 -3.8 -3.15 -4.1 -2.9 -4.35 -2.6 -4.7 -2.6 -5.05 -2.6 -5.35 -2.9 L-5.6 -3.5 -5.35 -4.15" fill="url(#gradient7)" fill-rule="evenodd" stroke="none"/>
    <path d="M-4.2 5.3 Q-4.2 5.65 -4.5 5.9 -4.75 6.2 -5.1 6.2 L-5.75 5.9 -6.0 5.3 -5.75 4.65 -5.1 4.4 Q-4.75 4.4 -4.5 4.65 -4.2 4.95 -4.2 5.3" fill="url(#gradient8)" fill-rule="evenodd" stroke="none"/>
    <path d="M-9.3 0.35 Q-9.0 0.65 -9.0 1.0 -9.0 1.35 -9.3 1.6 -9.55 1.9 -9.9 1.9 L-10.55 1.6 -10.8 1.0 -10.55 0.35 Q-10.25 0.1 -9.9 0.1 -9.55 0.1 -9.3 0.35" fill="url(#gradient9)" fill-rule="evenodd" stroke="none"/>
    <path d="M6.9 33.9 L8.7 33.6 Q10.2 33.1 10.7 32.6 12.0 31.9 11.7 32.6 11.25 33.6 10.7 35.6 9.75 38.85 10.7 42.6 11.7 46.6 10.7 48.6 L9.45 50.25 9.35 50.35 Q8.75 51.1 8.7 52.6 8.6 57.95 6.7 56.6 L3.4 54.3 2.25 53.5 0.85 52.4 Q-0.25 51.55 -1.65 51.2 L-3.7 50.5 -8.3 50.6 Q-9.3 51.15 -9.7 51.0 -10.45 50.75 -11.3 48.6 -13.55 42.8 -14.3 38.6 -15.3 32.9 -15.3 30.6 L-15.1 27.05 Q-14.85 23.35 -14.3 22.6 L-13.45 21.9 Q-13.3 22.0 -12.3 23.6 L-10.5 26.35 -8.9 27.85 -6.3 29.6 -5.8 29.9 -5.9 29.9 -5.1 30.3 -4.45 30.7 Q-1.75 32.2 0.25 32.95 L2.7 33.6 3.3 33.7 5.15 33.85 6.9 33.9 M5.75 41.8 L5.15 41.55 Q4.8 41.55 4.5 41.8 L4.25 42.45 4.5 43.05 Q4.8 43.35 5.15 43.35 5.5 43.35 5.75 43.05 L6.05 42.45 5.75 41.8 M4.5 47.9 L4.25 48.55 4.5 49.15 Q4.8 49.45 5.15 49.45 5.5 49.45 5.75 49.15 L6.05 48.55 5.75 47.9 5.15 47.65 Q4.8 47.65 4.5 47.9 M4.5 44.9 L4.25 45.55 4.5 46.15 Q4.8 46.45 5.15 46.45 5.5 46.45 5.75 46.15 L6.05 45.55 5.75 44.9 5.15 44.65 Q4.8 44.65 4.5 44.9" fill="url(#gradient10)" fill-rule="evenodd" stroke="none"/>
    <path d="M8.0 17.4 L8.0 25.1 5.3 26.05 Q6.6 24.95 6.6 23.55 6.6 21.85 4.3 20.45 2.6 19.35 0.3 19.25 L-0.25 19.2 -0.55 19.2 Q-3.05 19.3 -5.2 20.45 -7.15 21.85 -7.15 23.55 -7.15 25.25 -5.2 26.45 -2.95 27.9 -0.25 27.9 L-0.1 27.9 -5.8 29.9 -5.5 30.1 -5.9 29.9 -5.8 29.9 -6.3 29.6 -8.9 27.85 -8.9 16.1 Q0.8 20.75 8.0 17.1 L8.0 17.4" fill="url(#gradient11)" fill-rule="evenodd" stroke="none"/>
    <path d="M-0.1 27.9 L-0.25 27.9 Q-2.95 27.9 -5.2 26.45 -7.15 25.25 -7.15 23.55 -7.15 21.85 -5.2 20.45 -3.05 19.3 -0.55 19.2 L-0.25 19.2 0.3 19.25 Q2.6 19.35 4.3 20.45 6.6 21.85 6.6 23.55 6.6 24.95 5.3 26.05 L-0.1 27.9" fill="url(#gradient12)" fill-rule="evenodd" stroke="none"/>
    <path d="M8.0 25.1 L12.15 23.65 8.95 33.45 6.9 33.9 5.15 33.85 3.3 33.7 0.25 32.95 Q-1.75 32.2 -4.45 30.7 L-5.1 30.3 -5.5 30.1 -5.8 29.9 -0.1 27.9 5.3 26.05 8.0 25.1 M5.75 29.4 L5.15 29.15 Q4.8 29.15 4.5 29.4 L4.25 30.05 4.5 30.65 Q4.8 30.95 5.15 30.95 5.5 30.95 5.75 30.65 L6.05 30.05 5.75 29.4" fill="url(#gradient13)" fill-rule="evenodd" stroke="none"/>
    <path d="M3.4 54.3 L2.5 56.25 1.3 55.35 Q-1.1 54.4 -2.65 54.2 L-1.65 51.2 Q-0.25 51.55 0.85 52.4 L2.25 53.5 3.4 54.3 M-2.7 71.1 L-5.3 75.35 -5.45 75.2 -6.6 74.25 -9.4 71.45 -7.95 69.5 Q-7.4 70.3 -4.9 70.9 L-3.0 71.1 -2.7 71.1 M-11.45 68.85 L-9.8 67.7 -9.2 68.4 -10.6 70.0 -11.45 68.85 M-5.15 54.45 L-4.7 50.3 -3.7 50.5 -4.0 54.25 -5.15 54.45" fill="#333333" fill-rule="evenodd" stroke="none"/>
    <path d="M2.5 56.25 L2.95 56.65 3.7 57.5 Q5.45 59.75 5.45 62.65 5.45 66.15 2.95 68.6 0.6 71.0 -2.7 71.1 L-3.0 71.1 -4.9 70.9 Q-7.4 70.3 -7.95 69.5 L-9.0 68.6 -9.2 68.4 -9.8 67.7 Q-11.45 65.5 -11.45 62.65 -11.45 59.15 -9.0 56.65 -7.3 55.0 -5.15 54.45 L-4.0 54.25 -3.0 54.2 -2.65 54.2 Q-1.1 54.4 1.3 55.35 L2.5 56.25 M0.95 63.25 Q1.15 61.65 0.85 60.85 0.55 60.0 -0.55 59.4 -1.7 58.8 -3.05 59.05 -4.45 59.3 -4.85 59.7 L-5.85 60.9 Q-6.4 61.7 -6.45 62.95 -6.6 64.2 -5.85 65.35 -5.1 66.5 -3.4 66.8 -1.75 67.05 -0.5 65.95 0.75 64.85 0.95 63.25" fill="url(#gradient14)" fill-rule="evenodd" stroke="none"/>
    <path d="M0.95 63.25 Q0.75 64.85 -0.5 65.95 -1.75 67.05 -3.4 66.8 -5.1 66.5 -5.85 65.35 -6.6 64.2 -6.45 62.95 -6.4 61.7 -5.85 60.9 L-4.85 59.7 Q-4.45 59.3 -3.05 59.05 -1.7 58.8 -0.55 59.4 0.55 60.0 0.85 60.85 1.15 61.65 0.95 63.25" fill="url(#gradient15)" fill-rule="evenodd" stroke="none"/>
    <path d="M-23.4 100.3 L-23.0 102.15 -23.35 102.4 -28.3 106.6 Q-28.65 102.1 -28.3 100.6 L-28.35 99.4 -28.35 99.35 -28.35 99.25 Q-28.6 95.4 -31.3 90.15 L-31.95 88.85 -32.8 87.0 -27.3 78.6 Q-26.7 77.6 -21.95 72.1 -17.3 66.65 -14.15 64.5 L-14.05 64.4 Q-14.65 66.65 -15.3 67.6 L-17.3 71.6 -19.3 74.6 Q-27.0 83.1 -27.15 84.3 -27.3 85.5 -26.9 87.15 L-25.8 90.7 Q-25.15 92.35 -23.4 100.3" fill="url(#gradient16)" fill-rule="evenodd" stroke="none"/>
    <path d="M-5.3 75.35 Q-3.55 76.6 -2.3 76.6 -1.0 76.6 1.7 77.6 L-12.3 90.6 -17.85 94.9 Q-23.05 98.85 -23.4 100.3 -25.15 92.35 -25.8 90.7 L-26.9 87.15 Q-27.3 85.5 -27.15 84.3 -27.0 83.1 -19.3 74.6 L-17.3 71.6 -15.3 67.6 Q-14.65 66.65 -14.05 64.4 L-14.15 64.5 -14.05 64.4 Q-13.55 63.8 -12.7 66.4 -12.35 67.5 -11.45 68.85 L-9.4 71.45 -6.6 74.25 -5.45 75.2 -5.3 75.35 M-15.3 71.2 L-15.55 71.85 -15.3 72.45 -14.65 72.75 Q-14.3 72.75 -14.05 72.45 -13.75 72.2 -13.75 71.85 -13.75 71.5 -14.05 71.2 -14.3 70.95 -14.65 70.95 L-15.3 71.2 M-9.45 76.15 Q-9.45 75.8 -9.75 75.5 -10.0 75.25 -10.35 75.25 L-11.0 75.5 -11.25 76.15 -11.0 76.75 -10.35 77.05 Q-10.0 77.05 -9.75 76.75 -9.45 76.5 -9.45 76.15 M-5.65 79.35 Q-5.65 79.0 -5.95 78.7 -6.2 78.45 -6.55 78.45 -6.9 78.45 -7.2 78.7 L-7.45 79.35 -7.2 79.95 -6.55 80.25 Q-6.2 80.25 -5.95 79.95 -5.65 79.7 -5.65 79.35" fill="url(#gradient17)" fill-rule="evenodd" stroke="none"/>
    <path d="M-15.3 71.2 L-14.65 70.95 Q-14.3 70.95 -14.05 71.2 -13.75 71.5 -13.75 71.85 -13.75 72.2 -14.05 72.45 -14.3 72.75 -14.65 72.75 L-15.3 72.45 -15.55 71.85 -15.3 71.2" fill="url(#gradient18)" fill-rule="evenodd" stroke="none"/>
    <path d="M-36.1 108.1 Q-35.8 110.4 -36.1 110.45 L-38.25 111.55 -43.3 114.6 Q-47.95 108.4 -51.05 104.75 L-39.3 92.6 -38.5 95.85 -38.3 96.6 -38.05 97.4 -37.35 100.25 -37.3 100.5 -36.75 103.8 -36.35 106.4 -36.1 108.1 M-39.4 109.7 L-39.15 110.3 Q-38.85 110.6 -38.5 110.6 -38.15 110.6 -37.9 110.3 -37.6 110.05 -37.6 109.7 -37.6 109.35 -37.9 109.05 -38.15 108.8 -38.5 108.8 L-39.15 109.05 -39.4 109.7 M-41.3 110.6 L-41.95 110.85 -42.2 111.5 -41.95 112.1 -41.3 112.4 Q-40.95 112.4 -40.7 112.1 -40.4 111.85 -40.4 111.5 -40.4 111.15 -40.7 110.85 -40.95 110.6 -41.3 110.6" fill="url(#gradient19)" fill-rule="evenodd" stroke="none"/>
    <path d="M-28.35 99.25 L-28.45 101.45 -36.1 108.1 -36.35 106.4 -36.75 103.8 -37.3 100.5 -37.35 100.25 -38.05 97.4 -38.5 95.85 -31.3 90.15 Q-28.6 95.4 -28.35 99.25 M-35.45 96.35 Q-36.35 97.3 -36.35 98.65 -36.35 99.95 -35.45 100.95 -34.55 101.9 -33.3 101.9 -32.05 101.9 -31.15 100.95 -30.25 99.95 -30.25 98.65 -30.25 97.3 -31.15 96.35 -32.05 95.4 -33.3 95.4 -34.55 95.4 -35.45 96.35" fill="url(#gradient20)" fill-rule="evenodd" stroke="none"/>
    <path d="M-35.45 96.35 Q-34.55 95.4 -33.3 95.4 -32.05 95.4 -31.15 96.35 -30.25 97.3 -30.25 98.65 -30.25 99.95 -31.15 100.95 -32.05 101.9 -33.3 101.9 -34.55 101.9 -35.45 100.95 -36.35 99.95 -36.35 98.65 -36.35 97.3 -35.45 96.35" fill="url(#gradient21)" fill-rule="evenodd" stroke="none"/>
    <path d="M-9.45 76.15 Q-9.45 76.5 -9.75 76.75 -10.0 77.05 -10.35 77.05 L-11.0 76.75 -11.25 76.15 -11.0 75.5 -10.35 75.25 Q-10.0 75.25 -9.75 75.5 -9.45 75.8 -9.45 76.15" fill="url(#gradient22)" fill-rule="evenodd" stroke="none"/>
    <path d="M-5.65 79.35 Q-5.65 79.7 -5.95 79.95 -6.2 80.25 -6.55 80.25 L-7.2 79.95 -7.45 79.35 -7.2 78.7 Q-6.9 78.45 -6.55 78.45 -6.2 78.45 -5.95 78.7 -5.65 79.0 -5.65 79.35" fill="url(#gradient23)" fill-rule="evenodd" stroke="none"/>
    <path d="M-39.4 109.7 L-39.15 109.05 -38.5 108.8 Q-38.15 108.8 -37.9 109.05 -37.6 109.35 -37.6 109.7 -37.6 110.05 -37.9 110.3 -38.15 110.6 -38.5 110.6 -38.85 110.6 -39.15 110.3 L-39.4 109.7" fill="url(#gradient24)" fill-rule="evenodd" stroke="none"/>
    <path d="M-41.3 110.6 Q-40.95 110.6 -40.7 110.85 -40.4 111.15 -40.4 111.5 -40.4 111.85 -40.7 112.1 -40.95 112.4 -41.3 112.4 L-41.95 112.1 -42.2 111.5 -41.95 110.85 -41.3 110.6" fill="url(#gradient25)" fill-rule="evenodd" stroke="none"/>
    <path d="M11.6 5.9 L11.0 6.2 Q10.65 6.2 10.35 5.9 L10.1 5.3 10.35 4.65 Q10.65 4.4 11.0 4.4 11.35 4.4 11.6 4.65 L11.9 5.3 11.6 5.9" fill="url(#gradient26)" fill-rule="evenodd" stroke="none"/>
    <path d="M2.05 3.25 Q2.35 3.0 2.7 3.0 L3.3 3.25 3.6 3.9 3.3 4.5 2.7 4.8 Q2.35 4.8 2.05 4.5 L1.8 3.9 Q1.8 3.55 2.05 3.25" fill="url(#gradient27)" fill-rule="evenodd" stroke="none"/>
    <path d="M5.75 29.4 L6.05 30.05 5.75 30.65 Q5.5 30.95 5.15 30.95 4.8 30.95 4.5 30.65 L4.25 30.05 4.5 29.4 Q4.8 29.15 5.15 29.15 L5.75 29.4" fill="url(#gradient28)" fill-rule="evenodd" stroke="none"/>
    <path d="M5.75 41.8 L6.05 42.45 5.75 43.05 Q5.5 43.35 5.15 43.35 4.8 43.35 4.5 43.05 L4.25 42.45 4.5 41.8 Q4.8 41.55 5.15 41.55 L5.75 41.8" fill="url(#gradient29)" fill-rule="evenodd" stroke="none"/>
    <path d="M4.5 44.9 Q4.8 44.65 5.15 44.65 L5.75 44.9 6.05 45.55 5.75 46.15 Q5.5 46.45 5.15 46.45 4.8 46.45 4.5 46.15 L4.25 45.55 4.5 44.9" fill="url(#gradient30)" fill-rule="evenodd" stroke="none"/>
    <path d="M4.5 47.9 Q4.8 47.65 5.15 47.65 L5.75 47.9 6.05 48.55 5.75 49.15 Q5.5 49.45 5.15 49.45 4.8 49.45 4.5 49.15 L4.25 48.55 4.5 47.9" fill="url(#gradient31)" fill-rule="evenodd" stroke="none"/>
    <path d="M6.0 -8.6 Q5.65 -8.6 5.35 -8.9 5.1 -9.15 5.1 -9.5 L5.35 -10.15 6.0 -10.4 6.6 -10.15 6.9 -9.5 6.6 -8.9 Q6.35 -8.6 6.0 -8.6 M8.8 -4.4 L9.4 -4.15 9.7 -3.5 9.4 -2.9 Q9.15 -2.6 8.8 -2.6 8.45 -2.6 8.15 -2.9 L7.9 -3.5 8.15 -4.15 8.8 -4.4 M-13.1 7.7 Q-10.6 4.95 -8.5 3.45 L-4.6 0.7 Q-2.8 -0.5 1.3 -0.55 L6.65 -0.5 Q7.95 -0.4 11.0 1.1 L15.0 3.3 M-11.25 11.6 L-10.5 10.9 Q-8.25 9.1 -6.55 8.4 -4.9 7.65 -1.95 7.05 L2.7 6.6 Q7.7 7.25 9.7 8.6 L12.6 10.7 M11.6 5.9 L11.0 6.2 Q10.65 6.2 10.35 5.9 L10.1 5.3 10.35 4.65 Q10.65 4.4 11.0 4.4 11.35 4.4 11.6 4.65 L11.9 5.3 11.6 5.9 M-12.9 -4.65 Q-12.6 -4.35 -12.6 -4.0 -12.6 -3.65 -12.9 -3.4 -13.15 -3.1 -13.5 -3.1 -13.85 -3.1 -14.15 -3.4 L-14.4 -4.0 -14.15 -4.65 -13.5 -4.9 -12.9 -4.65 M-0.1 -10.5 Q-0.1 -10.15 -0.4 -9.9 -0.65 -9.6 -1.0 -9.6 -1.35 -9.6 -1.65 -9.9 L-1.9 -10.5 -1.65 -11.15 -1.0 -11.4 -0.4 -11.15 -0.1 -10.5 M-9.3 0.35 Q-9.0 0.65 -9.0 1.0 -9.0 1.35 -9.3 1.6 -9.55 1.9 -9.9 1.9 L-10.55 1.6 -10.8 1.0 -10.55 0.35 Q-10.25 0.1 -9.9 0.1 -9.55 0.1 -9.3 0.35 M-9.45 76.15 Q-9.45 76.5 -9.75 76.75 -10.0 77.05 -10.35 77.05 L-11.0 76.75 -11.25 76.15 -11.0 75.5 -10.35 75.25 Q-10.0 75.25 -9.75 75.5 -9.45 75.8 -9.45 76.15" fill="none" stroke="#000000" stroke-linecap="round" stroke-linejoin="round" stroke-width="0.25"/>
    <path d="M1.7 -3.4 Q1.35 -3.4 1.05 -3.7 L0.8 -4.3 1.05 -4.95 1.7 -5.2 2.3 -4.95 2.6 -4.3 2.3 -3.7 Q2.05 -3.4 1.7 -3.4 M15.0 3.3 Q14.75 3.0 14.85 2.6 L15.35 1.75 Q16.85 0.1 14.8 -0.55 L11.9 -3.3 Q9.7 -5.4 7.7 -6.45 5.65 -7.55 2.0 -7.6 L-3.2 -7.5 Q-4.7 -7.35 -7.4 -5.75 -10.15 -4.15 -11.3 -2.4 L-15.15 3.45 -15.3 3.6 Q-15.8 4.25 -15.7 4.5 L-15.0 5.35 -13.55 6.85 Q-13.15 7.35 -13.1 7.7 L-13.2 8.1 -13.65 8.7 -13.0 9.4 -11.6 10.75 Q-11.2 11.2 -11.25 11.6 L-11.7 12.15 Q-12.6 12.7 -12.15 13.0 L-9.7 15.35 -8.9 16.1 -8.9 27.85 -10.5 26.35 -12.3 23.6 Q-13.3 22.0 -13.45 21.9 L-14.3 22.6 Q-14.85 23.35 -15.1 27.05 L-15.3 30.6 Q-15.3 32.9 -14.3 38.6 -13.55 42.8 -11.3 48.6 -10.45 50.75 -9.7 51.0 -9.3 51.15 -8.3 50.6 L-3.7 50.5 -4.0 54.25 -5.15 54.45 -4.7 50.3 -3.7 50.5 -1.65 51.2 -2.65 54.2 Q-1.1 54.4 1.3 55.35 L2.5 56.25 2.95 56.65 3.7 57.5 Q5.45 59.75 5.45 62.65 5.45 66.15 2.95 68.6 0.6 71.0 -2.7 71.1 L-5.3 75.35 Q-3.55 76.6 -2.3 76.6 -1.0 76.6 1.7 77.6 L-12.3 90.6 -17.85 94.9 Q-23.05 98.85 -23.4 100.3 L-23.0 102.15 -23.35 102.4 -28.3 106.6 Q-28.65 102.1 -28.3 100.6 L-28.35 99.4 -28.35 99.35 -28.35 99.25 -28.45 101.45 -36.1 108.1 Q-35.8 110.4 -36.1 110.45 L-38.25 111.55 -43.3 114.6 Q-47.95 108.4 -51.05 104.75 L-39.3 92.6 -38.5 95.85 -31.3 90.15 -31.95 88.85 -32.8 87.0 -27.3 78.6 Q-26.7 77.6 -21.95 72.1 -17.3 66.65 -14.15 64.5 L-14.05 64.4 Q-13.55 63.8 -12.7 66.4 -12.35 67.5 -11.45 68.85 L-9.8 67.7 Q-11.45 65.5 -11.45 62.65 -11.45 59.15 -9.0 56.65 -7.3 55.0 -5.15 54.45 M12.6 10.7 Q12.55 10.3 14.25 8.5 L16.55 5.75 16.95 4.4 Q16.2 3.8 15.45 3.6 L15.0 3.3 M14.8 -0.55 Q15.3 -3.4 14.7 -7.4 14.7 -7.9 11.7 -9.4 6.35 -12.05 3.7 -12.4 -1.6 -13.05 -4.45 -12.5 -7.3 -11.95 -10.85 -9.75 -14.45 -7.55 -16.25 -4.85 -18.05 -2.15 -17.75 -0.55 -14.5 2.1 -15.15 3.45 M12.6 10.7 L12.7 10.75 14.9 12.2 Q14.65 13.9 13.85 14.55 L10.65 16.3 8.0 17.4 8.0 25.1 12.15 23.65 8.95 33.45 6.9 33.9 8.7 33.6 Q10.2 33.1 10.7 32.6 12.0 31.9 11.7 32.6 11.25 33.6 10.7 35.6 9.75 38.85 10.7 42.6 11.7 46.6 10.7 48.6 L9.45 50.25 9.35 50.35 Q8.75 51.1 8.7 52.6 8.6 57.95 6.7 56.6 L3.4 54.3 2.5 56.25 M2.05 3.25 Q2.35 3.0 2.7 3.0 L3.3 3.25 3.6 3.9 3.3 4.5 2.7 4.8 Q2.35 4.8 2.05 4.5 L1.8 3.9 Q1.8 3.55 2.05 3.25 M8.0 17.4 L8.0 17.1 Q0.8 20.75 -8.9 16.1 M-0.1 27.9 L-0.25 27.9 Q-2.95 27.9 -5.2 26.45 -7.15 25.25 -7.15 23.55 -7.15 21.85 -5.2 20.45 -3.05 19.3 -0.55 19.2 L-0.25 19.2 0.3 19.25 Q2.6 19.35 4.3 20.45 6.6 21.85 6.6 23.55 6.6 24.95 5.3 26.05 L8.0 25.1 M5.75 29.4 L6.05 30.05 5.75 30.65 Q5.5 30.95 5.15 30.95 4.8 30.95 4.5 30.65 L4.25 30.05 4.5 29.4 Q4.8 29.15 5.15 29.15 L5.75 29.4 M3.3 33.7 L0.25 32.95 2.7 33.6 3.3 33.7 5.15 33.85 6.9 33.9 M5.75 41.8 L6.05 42.45 5.75 43.05 Q5.5 43.35 5.15 43.35 4.8 43.35 4.5 43.05 L4.25 42.45 4.5 41.8 Q4.8 41.55 5.15 41.55 L5.75 41.8 M4.5 47.9 Q4.8 47.65 5.15 47.65 L5.75 47.9 6.05 48.55 5.75 49.15 Q5.5 49.45 5.15 49.45 4.8 49.45 4.5 49.15 L4.25 48.55 4.5 47.9 M4.5 44.9 Q4.8 44.65 5.15 44.65 L5.75 44.9 6.05 45.55 5.75 46.15 Q5.5 46.45 5.15 46.45 4.8 46.45 4.5 46.15 L4.25 45.55 4.5 44.9 M3.4 54.3 L2.25 53.5 0.85 52.4 Q-0.25 51.55 -1.65 51.2 M0.95 63.25 Q0.75 64.85 -0.5 65.95 -1.75 67.05 -3.4 66.8 -5.1 66.5 -5.85 65.35 -6.6 64.2 -6.45 62.95 -6.4 61.7 -5.85 60.9 L-4.85 59.7 Q-4.45 59.3 -3.05 59.05 -1.7 58.8 -0.55 59.4 0.55 60.0 0.85 60.85 1.15 61.65 0.95 63.25 M-7.1 -8.4 Q-7.35 -8.1 -7.7 -8.1 -8.05 -8.1 -8.35 -8.4 L-8.6 -9.0 -8.35 -9.65 -7.7 -9.9 -7.1 -9.65 -6.8 -9.0 Q-6.8 -8.65 -7.1 -8.4 M-5.35 -4.15 L-4.7 -4.4 -4.1 -4.15 Q-3.8 -3.85 -3.8 -3.5 -3.8 -3.15 -4.1 -2.9 -4.35 -2.6 -4.7 -2.6 -5.05 -2.6 -5.35 -2.9 L-5.6 -3.5 -5.35 -4.15 M-4.2 5.3 Q-4.2 5.65 -4.5 5.9 -4.75 6.2 -5.1 6.2 L-5.75 5.9 -6.0 5.3 -5.75 4.65 -5.1 4.4 Q-4.75 4.4 -4.5 4.65 -4.2 4.95 -4.2 5.3 M-0.1 27.9 L-5.8 29.9 -5.5 30.1 -5.1 30.3 -4.45 30.7 Q-1.75 32.2 0.25 32.95 M-5.9 29.9 L-5.8 29.9 -6.3 29.6 -8.9 27.85 M-5.1 30.3 L-5.9 29.9 -5.5 30.1 M-4.0 54.25 L-3.0 54.2 -2.65 54.2 M-23.4 100.3 Q-25.15 92.35 -25.8 90.7 L-26.9 87.15 Q-27.3 85.5 -27.15 84.3 -27.0 83.1 -19.3 74.6 L-17.3 71.6 -15.3 67.6 Q-14.65 66.65 -14.05 64.4 L-14.15 64.5 M-15.3 71.2 L-14.65 70.95 Q-14.3 70.95 -14.05 71.2 -13.75 71.5 -13.75 71.85 -13.75 72.2 -14.05 72.45 -14.3 72.75 -14.65 72.75 L-15.3 72.45 -15.55 71.85 -15.3 71.2 M-9.2 68.4 L-10.6 70.0 -11.45 68.85 -9.4 71.45 -7.95 69.5 -9.0 68.6 -9.2 68.4 -9.8 67.7 M-2.7 71.1 L-3.0 71.1 -4.9 70.9 Q-7.4 70.3 -7.95 69.5 M-35.45 96.35 Q-34.55 95.4 -33.3 95.4 -32.05 95.4 -31.15 96.35 -30.25 97.3 -30.25 98.65 -30.25 99.95 -31.15 100.95 -32.05 101.9 -33.3 101.9 -34.55 101.9 -35.45 100.95 -36.35 99.95 -36.35 98.65 -36.35 97.3 -35.45 96.35 M-38.5 95.85 L-38.3 96.6 -38.05 97.4 -38.5 95.85 M-9.4 71.45 L-6.6 74.25 -5.45 75.2 -5.3 75.35 M-5.65 79.35 Q-5.65 79.7 -5.95 79.95 -6.2 80.25 -6.55 80.25 L-7.2 79.95 -7.45 79.35 -7.2 78.7 Q-6.9 78.45 -6.55 78.45 -6.2 78.45 -5.95 78.7 -5.65 79.0 -5.65 79.35 M-38.05 97.4 L-37.35 100.25 -37.3 100.5 -36.75 103.8 -36.35 106.4 -36.1 108.1 M-39.4 109.7 L-39.15 109.05 -38.5 108.8 Q-38.15 108.8 -37.9 109.05 -37.6 109.35 -37.6 109.7 -37.6 110.05 -37.9 110.3 -38.15 110.6 -38.5 110.6 -38.85 110.6 -39.15 110.3 L-39.4 109.7 M-41.3 110.6 Q-40.95 110.6 -40.7 110.85 -40.4 111.15 -40.4 111.5 -40.4 111.85 -40.7 112.1 -40.95 112.4 -41.3 112.4 L-41.95 112.1 -42.2 111.5 -41.95 110.85 -41.3 110.6 M-31.3 90.15 Q-28.6 95.4 -28.35 99.25 M5.3 26.05 L-0.1 27.9" fill="none" stroke="#000000" stroke-linecap="round" stroke-linejoin="round" stroke-width="0.25"/>
    <path d="M-51.8 110.0 L-53.3 108.35 -50.55 104.1 -41.55 113.85 -46.05 116.25 -47.45 114.7 -51.8 110.0" fill="#4d4d4d" fill-rule="evenodd" stroke="none"/>
    <path d="M-50.3 118.7 L-49.55 119.5 -54.4 126.45 -58.5 125.6 -51.4 117.5 -50.3 118.7 M-54.85 113.7 L-63.5 120.1 -64.2 115.65 -56.8 111.55 -55.9 112.55 -54.85 113.7" fill="#373737" fill-rule="evenodd" stroke="none"/>
    <path d="M-47.45 114.7 L-50.3 118.7 -51.4 117.5 -52.6 116.15 -53.9 118.0 -55.7 116.05 -53.75 114.9 -54.85 113.7 -55.9 112.55 -51.8 110.0 -47.45 114.7" fill="#666666" fill-rule="evenodd" stroke="none"/>
    <path d="M-53.9 118.0 L-56.3 119.5 -57.45 118.25 -55.7 116.05 -53.9 118.0" fill="#2b2b2b" fill-rule="evenodd" stroke="none"/>
    <path d="M-54.4 126.45 L-65.1 132.5 -67.65 132.35 -58.5 125.6 -54.4 126.45 M-63.5 120.1 L-71.1 128.6 -71.0 125.75 -69.3 123.3 -64.2 115.65 -63.5 120.1" fill="#d0d0d0" fill-rule="evenodd" stroke="none"/>
    <path d="M-51.8 110.0 L-53.3 108.35 -50.55 104.1 -41.55 113.85 -46.05 116.25 -47.45 114.7 -50.3 118.7 -49.55 119.5 -54.4 126.45 -65.1 132.5 -67.65 132.35 -58.5 125.6 -51.4 117.5 -52.6 116.15 -53.9 118.0 -56.3 119.5 -57.45 118.25 -55.7 116.05 -53.75 114.9 -54.85 113.7 -63.5 120.1 -71.1 128.6 -71.0 125.75 -69.3 123.3 M-64.2 115.65 L-56.8 111.55 -55.9 112.55 -51.8 110.0 -47.45 114.7 M-54.85 113.7 L-55.9 112.55 M-51.4 117.5 L-50.3 118.7 M-64.2 115.65 L-63.5 120.1 M-58.5 125.6 L-54.4 126.45" fill="none" stroke="#000000" stroke-linecap="round" stroke-linejoin="round" stroke-width="0.25"/>
    <path d="M-69.3 123.3 L-64.2 115.65" fill="none" stroke="#000000" stroke-linecap="round" stroke-linejoin="round" stroke-width="0.25"/>
  </g>
  <defs>
    <radialGradient cx="0" cy="0" gradientTransform="matrix(0.0179, 0.0384, -0.0247, 0.0115, -3.3, -2.0)" gradientUnits="userSpaceOnUse" id="gradient0" r="819.2" spreadMethod="pad">
      <stop offset="0.0" stop-color="#666666"/>
      <stop offset="1.0" stop-color="#000000"/>
    </radialGradient>
    <radialGradient cx="0" cy="0" gradientTransform="matrix(0.0015, 0.0, 0.0, 0.0015, 6.0, -9.5)" gradientUnits="userSpaceOnUse" id="gradient1" r="819.2" spreadMethod="pad">
      <stop offset="0.0" stop-color="#bbbbbb"/>
      <stop offset="1.0" stop-color="#000000"/>
    </radialGradient>
    <radialGradient cx="0" cy="0" gradientTransform="matrix(0.0015, 0.0, 0.0, 0.0015, 1.7, -4.3)" gradientUnits="userSpaceOnUse" id="gradient2" r="819.2" spreadMethod="pad">
      <stop offset="0.0" stop-color="#bbbbbb"/>
      <stop offset="1.0" stop-color="#000000"/>
    </radialGradient>
    <radialGradient cx="0" cy="0" gradientTransform="matrix(0.0015, 0.0, 0.0, 0.0015, 8.8, -3.5)" gradientUnits="userSpaceOnUse" id="gradient3" r="819.2" spreadMethod="pad">
      <stop offset="0.0" stop-color="#bbbbbb"/>
      <stop offset="1.0" stop-color="#000000"/>
    </radialGradient>
    <radialGradient cx="0" cy="0" gradientTransform="matrix(0.0015, 0.0, 0.0, 0.0015, -13.5, -4.0)" gradientUnits="userSpaceOnUse" id="gradient4" r="819.2" spreadMethod="pad">
      <stop offset="0.0" stop-color="#bbbbbb"/>
      <stop offset="1.0" stop-color="#000000"/>
    </radialGradient>
    <radialGradient cx="0" cy="0" gradientTransform="matrix(0.0015, 0.0, 0.0, 0.0015, -1.0, -10.5)" gradientUnits="userSpaceOnUse" id="gradient5" r="819.2" spreadMethod="pad">
      <stop offset="0.0" stop-color="#bbbbbb"/>
      <stop offset="1.0" stop-color="#000000"/>
    </radialGradient>
    <radialGradient cx="0" cy="0" gradientTransform="matrix(0.0015, 0.0, 0.0, 0.0015, -7.7, -9.0)" gradientUnits="userSpaceOnUse" id="gradient6" r="819.2" spreadMethod="pad">
      <stop offset="0.0" stop-color="#bbbbbb"/>
      <stop offset="1.0" stop-color="#000000"/>
    </radialGradient>
    <radialGradient cx="0" cy="0" gradientTransform="matrix(0.0015, 0.0, 0.0, 0.0015, -4.7, -3.5)" gradientUnits="userSpaceOnUse" id="gradient7" r="819.2" spreadMethod="pad">
      <stop offset="0.0" stop-color="#bbbbbb"/>
      <stop offset="1.0" stop-color="#000000"/>
    </radialGradient>
    <radialGradient cx="0" cy="0" gradientTransform="matrix(0.0015, 0.0, 0.0, 0.0015, -5.1, 5.3)" gradientUnits="userSpaceOnUse" id="gradient8" r="819.2" spreadMethod="pad">
      <stop offset="0.0" stop-color="#bbbbbb"/>
      <stop offset="1.0" stop-color="#000000"/>
    </radialGradient>
    <radialGradient cx="0" cy="0" gradientTransform="matrix(0.0015, 0.0, 0.0, 0.0015, -9.9, 1.0)" gradientUnits="userSpaceOnUse" id="gradient9" r="819.2" spreadMethod="pad">
      <stop offset="0.0" stop-color="#bbbbbb"/>
      <stop offset="1.0" stop-color="#000000"/>
    </radialGradient>
    <radialGradient cx="0" cy="0" gradientTransform="matrix(0.0, -0.0761, 0.0398, 0.0, -1.75, 39.35)" gradientUnits="userSpaceOnUse" id="gradient10" r="819.2" spreadMethod="pad">
      <stop offset="0.0" stop-color="#666666"/>
      <stop offset="1.0" stop-color="#000000"/>
    </radialGradient>
    <linearGradient gradientTransform="matrix(0.0117, 0.0, 0.0, 0.0088, -1.45, 23.95)" gradientUnits="userSpaceOnUse" id="gradient11" spreadMethod="pad" x1="-819.2" x2="819.2">
      <stop offset="0.0" stop-color="#cccccc"/>
      <stop offset="1.0" stop-color="#666666"/>
    </linearGradient>
    <radialGradient cx="0" cy="0" gradientTransform="matrix(0.0294, 0.0, 0.0, 0.0294, -8.9, 16.1)" gradientUnits="userSpaceOnUse" id="gradient12" r="819.2" spreadMethod="pad">
      <stop offset="0.0" stop-color="#666666"/>
      <stop offset="1.0" stop-color="#000000"/>
    </radialGradient>
    <radialGradient cx="0" cy="0" gradientTransform="matrix(0.0073, 0.0271, -0.0204, 0.0055, 3.15, 28.75)" gradientUnits="userSpaceOnUse" id="gradient13" r="819.2" spreadMethod="pad">
      <stop offset="0.0" stop-color="#666666"/>
      <stop offset="1.0" stop-color="#000000"/>
    </radialGradient>
    <radialGradient cx="0" cy="0" gradientTransform="matrix(0.0104, 0.0, 0.0, 0.0104, -3.0, 62.65)" gradientUnits="userSpaceOnUse" id="gradient14" r="819.2" spreadMethod="pad">
      <stop offset="0.0" stop-color="#666666"/>
      <stop offset="0.5058823529411764" stop-color="#999999"/>
      <stop offset="1.0" stop-color="#333333"/>
    </radialGradient>
    <radialGradient cx="0" cy="0" gradientTransform="matrix(0.0159, 0.0, 0.0, 0.0159, -3.5, 61.8)" gradientUnits="userSpaceOnUse" id="gradient15" r="819.2" spreadMethod="pad">
      <stop offset="0.0" stop-color="#666666"/>
      <stop offset="1.0" stop-color="#000000"/>
    </radialGradient>
    <linearGradient gradientTransform="matrix(0.0114, 0.0, 0.0, 0.0258, -23.45, 85.5)" gradientUnits="userSpaceOnUse" id="gradient16" spreadMethod="pad" x1="-819.2" x2="819.2">
      <stop offset="0.0" stop-color="#cccccc"/>
      <stop offset="1.0" stop-color="#666666"/>
    </linearGradient>
    <radialGradient cx="0" cy="0" gradientTransform="matrix(0.0734, -0.0734, 0.0221, 0.0221, -14.7, 84.6)" gradientUnits="userSpaceOnUse" id="gradient17" r="819.2" spreadMethod="pad">
      <stop offset="0.0" stop-color="#666666"/>
      <stop offset="1.0" stop-color="#000000"/>
    </radialGradient>
    <radialGradient cx="0" cy="0" gradientTransform="matrix(0.002, 0.0, 0.0, 0.002, -15.05, 71.5)" gradientUnits="userSpaceOnUse" id="gradient18" r="819.2" spreadMethod="pad">
      <stop offset="0.0" stop-color="#bbbbbb"/>
      <stop offset="1.0" stop-color="#000000"/>
    </radialGradient>
    <linearGradient gradientTransform="matrix(0.0246, 0.0142, -0.0067, 0.0116, -37.85, 109.85)" gradientUnits="userSpaceOnUse" id="gradient19" spreadMethod="pad" x1="-819.2" x2="819.2">
      <stop offset="0.0" stop-color="#666666"/>
      <stop offset="1.0" stop-color="#000000"/>
    </linearGradient>
    <radialGradient cx="0" cy="0" gradientTransform="matrix(0.0193, -0.0193, 0.0082, 0.0082, -33.45, 99.25)" gradientUnits="userSpaceOnUse" id="gradient20" r="819.2" spreadMethod="pad">
      <stop offset="0.0" stop-color="#cccccc"/>
      <stop offset="1.0" stop-color="#000000"/>
    </radialGradient>
    <radialGradient cx="0" cy="0" gradientTransform="matrix(0.004, 0.0, 0.0, 0.004, -33.3, 98.65)" gradientUnits="userSpaceOnUse" id="gradient21" r="819.2" spreadMethod="pad">
      <stop offset="0.0" stop-color="#999999"/>
      <stop offset="1.0" stop-color="#333333"/>
    </radialGradient>
    <radialGradient cx="0" cy="0" gradientTransform="matrix(0.0015, 0.0, 0.0, 0.0015, -10.4, 76.1)" gradientUnits="userSpaceOnUse" id="gradient22" r="819.2" spreadMethod="pad">
      <stop offset="0.0" stop-color="#bbbbbb"/>
      <stop offset="1.0" stop-color="#000000"/>
    </radialGradient>
    <radialGradient cx="0" cy="0" gradientTransform="matrix(0.0018, 0.0, 0.0, 0.0018, -6.3, 79.55)" gradientUnits="userSpaceOnUse" id="gradient23" r="819.2" spreadMethod="pad">
      <stop offset="0.0" stop-color="#bbbbbb"/>
      <stop offset="1.0" stop-color="#000000"/>
    </radialGradient>
    <radialGradient cx="0" cy="0" gradientTransform="matrix(0.0015, 0.0, 0.0, 0.0015, -38.5, 109.7)" gradientUnits="userSpaceOnUse" id="gradient24" r="819.2" spreadMethod="pad">
      <stop offset="0.0" stop-color="#666666"/>
      <stop offset="1.0" stop-color="#000000"/>
    </radialGradient>
    <radialGradient cx="0" cy="0" gradientTransform="matrix(0.0015, 0.0, 0.0, 0.0015, -41.3, 111.5)" gradientUnits="userSpaceOnUse" id="gradient25" r="819.2" spreadMethod="pad">
      <stop offset="0.0" stop-color="#666666"/>
      <stop offset="1.0" stop-color="#000000"/>
    </radialGradient>
    <radialGradient cx="0" cy="0" gradientTransform="matrix(0.0015, 0.0, 0.0, 0.0015, 11.0, 5.3)" gradientUnits="userSpaceOnUse" id="gradient26" r="819.2" spreadMethod="pad">
      <stop offset="0.0" stop-color="#bbbbbb"/>
      <stop offset="1.0" stop-color="#000000"/>
    </radialGradient>
    <radialGradient cx="0" cy="0" gradientTransform="matrix(0.0015, 0.0, 0.0, 0.0015, 2.7, 3.9)" gradientUnits="userSpaceOnUse" id="gradient27" r="819.2" spreadMethod="pad">
      <stop offset="0.0" stop-color="#bbbbbb"/>
      <stop offset="1.0" stop-color="#000000"/>
    </radialGradient>
    <radialGradient cx="0" cy="0" gradientTransform="matrix(0.0015, 0.0, 0.0, 0.0015, 5.15, 30.0)" gradientUnits="userSpaceOnUse" id="gradient28" r="819.2" spreadMethod="pad">
      <stop offset="0.0" stop-color="#bbbbbb"/>
      <stop offset="1.0" stop-color="#000000"/>
    </radialGradient>
    <radialGradient cx="0" cy="0" gradientTransform="matrix(0.0015, 0.0, 0.0, 0.0015, 5.15, 42.45)" gradientUnits="userSpaceOnUse" id="gradient29" r="819.2" spreadMethod="pad">
      <stop offset="0.0" stop-color="#bbbbbb"/>
      <stop offset="1.0" stop-color="#000000"/>
    </radialGradient>
    <radialGradient cx="0" cy="0" gradientTransform="matrix(0.0017, 0.0, 0.0, 0.0017, 5.4, 45.65)" gradientUnits="userSpaceOnUse" id="gradient30" r="819.2" spreadMethod="pad">
      <stop offset="0.0" stop-color="#bbbbbb"/>
      <stop offset="1.0" stop-color="#000000"/>
    </radialGradient>
    <radialGradient cx="0" cy="0" gradientTransform="matrix(0.0015, 0.0, 0.0, 0.0015, 5.15, 48.55)" gradientUnits="userSpaceOnUse" id="gradient31" r="819.2" spreadMethod="pad">
      <stop offset="0.0" stop-color="#bbbbbb"/>
      <stop offset="1.0" stop-color="#000000"/>
    </radialGradient>
  </defs>
</svg>
