<?xml version="1.0" encoding="UTF-8" standalone="no"?>
<svg xmlns:xlink="http://www.w3.org/1999/xlink" height="55.75px" width="36.3px" xmlns="http://www.w3.org/2000/svg">
  <g transform="matrix(1.0, 0.0, 0.0, 1.0, 20.65, 41.35)">
    <path d="M4.25 -6.05 L6.55 -4.4 Q9.0 -1.95 9.0 1.45 9.0 4.85 6.55 7.25 4.15 9.7 0.75 9.7 -2.65 9.7 -5.1 7.25 -7.5 4.85 -7.5 1.45 -7.5 -1.95 -5.1 -4.4 L-4.65 -4.8 Q-2.35 -6.8 0.75 -6.8 L1.6 -6.75 Q3.0 -6.65 4.25 -6.05 M2.7 -12.2 L2.6 -12.2 2.7 -12.25 2.7 -12.2 M-5.6 -9.3 L-5.65 -9.25 -5.75 -9.3 -5.6 -9.3" fill="#333333" fill-rule="evenodd" stroke="none"/>
    <path d="M2.7 -12.2 L4.25 -6.05 Q3.0 -6.65 1.6 -6.75 L0.75 -6.8 Q-2.35 -6.8 -4.65 -4.8 L-4.7 -4.8 -5.65 -9.25 -5.6 -9.3 Q-3.9 -10.6 -1.9 -11.3 L-1.3 -11.55 Q0.5 -12.25 2.6 -12.2 L2.7 -12.2" fill="#2b2b2b" fill-rule="evenodd" stroke="none"/>
    <path d="M-17.6 -18.3 L-16.75 -29.8 Q-12.55 -43.8 8.7 -40.7 L11.7 -27.7 2.4 -24.35 -4.5 -22.2 -17.6 -18.3" fill="url(#gradient0)" fill-rule="evenodd" stroke="none"/>
    <path d="M2.4 -24.35 Q12.25 -27.5 14.5 -28.7 L15.15 -24.3 Q15.75 -19.5 15.5 -17.7 15.1 -14.8 12.85 -8.35 L11.4 -9.5 Q10.15 -10.4 8.8 -10.95 6.45 -12.2 4.75 -12.0 L4.5 -12.0 2.7 -12.2 2.7 -12.25 2.6 -12.2 Q0.5 -12.25 -1.3 -11.55 L-1.9 -11.3 Q-3.9 -10.6 -5.6 -9.3 L-5.75 -9.3 -5.65 -9.25 -6.75 -8.35 -7.4 -7.8 -9.45 -5.25 -9.8 -4.7 -10.85 -2.8 Q-11.4 -1.7 -11.6 0.95 L-11.65 1.7 -11.7 2.6 Q-11.7 5.4 -10.75 7.85 L-9.5 14.3 Q-12.9 12.6 -15.5 9.3 -17.1 7.3 -17.7 4.45 -18.15 1.5 -18.5 0.3 -20.9 -18.0 -20.5 -17.7 L-17.6 -18.3 -4.5 -22.2 2.4 -24.35" fill="url(#gradient1)" fill-rule="evenodd" stroke="none"/>
    <path d="M-17.6 -18.3 L-16.75 -29.8 Q-12.55 -43.8 8.7 -40.7 L11.7 -27.7 2.4 -24.35 Q12.25 -27.5 14.5 -28.7 L15.15 -24.3 Q15.75 -19.5 15.5 -17.7 15.1 -14.8 12.85 -8.35 L11.4 -9.5 Q10.15 -10.4 8.8 -10.95 6.45 -12.2 4.75 -12.0 L4.5 -12.0 2.7 -12.2 2.6 -12.2 Q0.5 -12.25 -1.3 -11.55 L-1.9 -11.3 Q-3.9 -10.6 -5.6 -9.3 L-5.65 -9.25 -6.75 -8.35 -7.4 -7.8 -9.45 -5.25 -9.8 -4.7 -10.85 -2.8 Q-11.4 -1.7 -11.6 0.95 L-11.65 1.7 -11.7 2.6 Q-11.7 5.4 -10.75 7.85 L-9.5 14.3 Q-12.9 12.6 -15.5 9.3 -17.1 7.3 -17.7 4.45 -18.15 1.5 -18.5 0.3 -20.9 -18.0 -20.5 -17.7 L-17.6 -18.3 -4.5 -22.2 2.4 -24.35" fill="none" stroke="#000000" stroke-linecap="round" stroke-linejoin="round" stroke-width="0.25"/>
    <path d="M2.7 -12.2 L4.25 -6.05 6.55 -4.4 Q9.0 -1.95 9.0 1.45 9.0 4.85 6.55 7.25 4.15 9.7 0.75 9.7 -2.65 9.7 -5.1 7.25 -7.5 4.85 -7.5 1.45 -7.5 -1.95 -5.1 -4.4 L-4.65 -4.8 -4.7 -4.8 -5.65 -9.25 -5.75 -9.3 -5.6 -9.3 M2.7 -12.2 L2.7 -12.25 2.6 -12.2 M-4.65 -4.8 Q-2.35 -6.8 0.75 -6.8 L1.6 -6.75 Q3.0 -6.65 4.25 -6.05" fill="none" stroke="#000000" stroke-linecap="round" stroke-linejoin="round" stroke-width="0.25"/>
  </g>
  <defs>
    <radialGradient cx="0" cy="0" gradientTransform="matrix(0.0168, 0.0629, -0.0328, 0.0088, -6.0, -29.8)" gradientUnits="userSpaceOnUse" id="gradient0" r="819.2" spreadMethod="pad">
      <stop offset="0.0" stop-color="#666666"/>
      <stop offset="1.0" stop-color="#000000"/>
    </radialGradient>
    <radialGradient cx="0" cy="0" gradientTransform="matrix(1.0, 0.0, 0.0, 1.0, -277.5, -176.7)" gradientUnits="userSpaceOnUse" id="gradient1" r="819.2" spreadMethod="pad">
      <stop offset="0.0" stop-color="#666666"/>
      <stop offset="1.0" stop-color="#000000"/>
    </radialGradient>
  </defs>
</svg>
