<?xml version="1.0" encoding="UTF-8" standalone="no"?>
<svg xmlns:xlink="http://www.w3.org/1999/xlink" height="81.3px" width="64.9px" xmlns="http://www.w3.org/2000/svg">
  <g transform="matrix(1.0, 0.0, 0.0, 1.0, 43.55, 69.85)">
    <path d="M-1.3 -65.25 Q14.45 -63.85 14.2 -23.9 13.95 -18.45 16.8 -16.6 24.45 -7.1 19.0 -0.15 L-10.45 11.35 Q-44.75 -13.3 -43.0 -37.3 L-36.3 -44.25 Q-35.35 -45.3 -34.3 -45.25 L-32.3 -42.25 Q-30.3 -39.15 -28.3 -38.25 -27.75 -38.0 -27.55 -40.2 L-27.3 -45.25 Q-26.75 -51.85 -25.3 -54.25 -23.25 -57.55 -19.3 -60.25 -15.6 -62.75 -11.3 -64.25 L-1.3 -65.25 M3.0 -46.25 Q2.95 -50.05 0.7 -52.95 L-0.3 -54.05 -0.85 -54.6 -2.45 -55.75 Q-5.6 -57.05 -7.6 -57.25 L-8.05 -57.25 -9.35 -57.2 -10.85 -56.95 Q-13.65 -56.25 -15.85 -54.05 -19.05 -50.8 -19.05 -46.25 -19.05 -42.5 -16.95 -39.7 L-16.15 -38.75 -15.85 -38.5 -14.5 -37.3 Q-13.75 -36.3 -10.5 -35.5 L-8.05 -35.2 -7.65 -35.2 Q-3.35 -35.35 -0.3 -38.5 2.95 -41.7 3.0 -46.25" fill="url(#gradient0)" fill-rule="evenodd" stroke="none"/>
    <path d="M3.0 -46.25 Q2.95 -41.7 -0.3 -38.5 -3.35 -35.35 -7.65 -35.2 L-8.05 -35.2 -10.5 -35.5 Q-13.75 -36.3 -14.5 -37.3 L-15.85 -38.5 -16.15 -38.75 -16.95 -39.7 Q-19.05 -42.5 -19.05 -46.25 -19.05 -50.8 -15.85 -54.05 -13.65 -56.25 -10.85 -56.95 L-9.35 -57.2 -8.05 -57.25 -7.6 -57.25 Q-5.6 -57.05 -2.45 -55.75 L-0.85 -54.6 -0.3 -54.05 0.7 -52.95 Q2.95 -50.05 3.0 -46.25" fill="url(#gradient1)" fill-rule="evenodd" stroke="none"/>
    <path d="M-43.0 -37.3 L-43.15 -37.2 -43.45 -39.0 Q-23.0 -62.55 -5.0 -69.75 L-1.3 -65.25 -11.3 -64.25 Q-15.6 -62.75 -19.3 -60.25 -23.25 -57.55 -25.3 -54.25 -26.75 -51.85 -27.3 -45.25 L-27.55 -40.2 Q-27.75 -38.0 -28.3 -38.25 -30.3 -39.15 -32.3 -42.25 L-34.3 -45.25 Q-35.35 -45.3 -36.3 -44.25 L-43.0 -37.3 -43.05 -38.2 -43.15 -37.2 -43.05 -38.2 -43.0 -37.3" fill="url(#gradient2)" fill-rule="evenodd" stroke="none"/>
    <path d="M-1.3 -65.25 Q14.45 -63.85 14.2 -23.9 13.95 -18.45 16.8 -16.6 24.45 -7.1 19.0 -0.15 L-10.45 11.35 Q-44.75 -13.3 -43.0 -37.3 L-43.15 -37.2 -43.45 -39.0 Q-23.0 -62.55 -5.0 -69.75 L-1.3 -65.25 -11.3 -64.25 Q-15.6 -62.75 -19.3 -60.25 -23.25 -57.55 -25.3 -54.25 -26.75 -51.85 -27.3 -45.25 L-27.55 -40.2 Q-27.75 -38.0 -28.3 -38.25 -30.3 -39.15 -32.3 -42.25 L-34.3 -45.25 Q-35.35 -45.3 -36.3 -44.25 L-43.0 -37.3 -43.05 -38.2 -43.15 -37.2" fill="none" stroke="#000000" stroke-linecap="round" stroke-linejoin="round" stroke-width="0.25"/>
    <path d="M3.0 -46.25 Q2.95 -41.7 -0.3 -38.5 -3.35 -35.35 -7.65 -35.2 L-8.05 -35.2 -10.5 -35.5 Q-13.75 -36.3 -14.5 -37.3 L-15.85 -38.5 -16.15 -38.75 -16.95 -39.7 Q-19.05 -42.5 -19.05 -46.25 -19.05 -50.8 -15.85 -54.05 -13.65 -56.25 -10.85 -56.95 L-9.35 -57.2 -8.05 -57.25 -7.6 -57.25 Q-5.6 -57.05 -2.45 -55.75 L-0.85 -54.6 -0.3 -54.05 0.7 -52.95 Q2.95 -50.05 3.0 -46.25" fill="none" stroke="#000000" stroke-linecap="round" stroke-linejoin="round" stroke-width="0.25"/>
  </g>
  <defs>
    <linearGradient gradientTransform="matrix(0.0394, 0.0, 0.0, 0.0501, -12.2, -29.3)" gradientUnits="userSpaceOnUse" id="gradient0" spreadMethod="pad" x1="-819.2" x2="819.2">
      <stop offset="0.0" stop-color="#cccccc"/>
      <stop offset="1.0" stop-color="#333333"/>
    </linearGradient>
    <radialGradient cx="0" cy="0" gradientTransform="matrix(0.0136, 0.0, 0.0, 0.0136, -8.05, -46.25)" gradientUnits="userSpaceOnUse" id="gradient1" r="819.2" spreadMethod="pad">
      <stop offset="0.43137254901960786" stop-color="#333333"/>
      <stop offset="0.5058823529411764" stop-color="#151515"/>
      <stop offset="1.0" stop-color="#2b2b2b"/>
    </radialGradient>
    <linearGradient gradientTransform="matrix(0.0255, 0.0, 0.0, 0.0202, -22.25, -53.75)" gradientUnits="userSpaceOnUse" id="gradient2" spreadMethod="pad" x1="-819.2" x2="819.2">
      <stop offset="0.0" stop-color="#333333"/>
      <stop offset="1.0" stop-color="#000000"/>
    </linearGradient>
  </defs>
</svg>
