<?xml version="1.0" encoding="UTF-8" standalone="no"?>
<svg xmlns:xlink="http://www.w3.org/1999/xlink" height="34.6px" width="69.1px" xmlns="http://www.w3.org/2000/svg">
  <g transform="matrix(1.0, 0.0, 0.0, 1.0, 49.55, 17.2)">
    <path d="M-43.45 -13.15 Q-32.35 -16.25 -17.05 -16.2 L-17.05 -17.2 -15.0 -17.2 -12.95 -17.2 Q-7.3 -10.65 7.25 -13.7 L11.4 -14.15 Q12.45 -14.15 13.45 -13.15 13.45 -12.1 12.95 -11.6 12.45 -11.1 11.4 -11.1 L9.4 -11.1 7.35 -11.1 5.3 -11.1 3.3 -11.1 -8.9 -11.1 -10.95 -11.1 -15.0 -11.1 -17.05 -11.1 -19.05 -11.1 Q-19.05 -12.1 -19.25 -12.15 -31.5 -14.4 -39.4 -11.1 L-41.4 -11.1 -43.45 -11.1 -43.45 -13.15" fill="#abacb4" fill-rule="evenodd" stroke="none"/>
    <path d="M5.3 -11.1 L7.35 -11.1 9.4 -11.1 Q9.4 -10.1 9.0 -9.85 7.35 -9.05 5.3 -9.05 L5.3 -11.1" fill="#7f8ba3" fill-rule="evenodd" stroke="none"/>
    <path d="M15.5 -9.05 L15.5 -7.0 15.5 -5.0 13.65 -4.6 11.4 -2.95 11.4 -0.9 9.6 -0.5 Q8.35 0.1 7.35 1.1 L7.35 3.15 5.3 3.15 5.3 5.2 3.3 5.2 3.3 7.2 3.3 9.25 2.2 9.05 Q1.45 5.75 -4.85 3.15 L-6.85 3.15 Q-10.9 3.2 -12.95 5.2 L-12.95 7.2 -15.0 7.2 -19.05 7.2 -19.05 9.25 Q-20.1 9.25 -20.3 8.85 -21.1 7.2 -21.1 5.2 L-20.1 5.2 Q-20.1 4.15 -21.1 3.15 L-21.1 1.1 -10.95 1.1 -8.9 1.1 Q1.4 2.3 6.9 -1.6 7.35 -1.95 7.35 -2.95 8.35 -2.95 8.9 -3.45 9.4 -3.95 9.4 -5.0 10.4 -5.0 10.55 -5.35 11.7 -8.3 7.35 -7.0 L7.35 -5.0 5.3 -5.0 5.3 -2.95 3.5 -2.55 1.25 -0.9 1.25 -2.95 1.25 -5.0 Q2.3 -5.0 2.8 -5.5 3.3 -6.0 3.3 -7.0 4.3 -7.0 4.8 -7.55 5.3 -8.05 5.3 -9.05 7.35 -9.05 9.0 -9.85 9.4 -10.1 9.4 -11.1 L11.4 -11.1 Q12.45 -10.1 13.65 -9.45 L15.5 -9.05 M-17.05 3.15 L-17.05 4.15 Q-9.2 4.15 -17.05 3.15" fill="#5e7793" fill-rule="evenodd" stroke="none"/>
    <path d="M-8.9 -11.1 L3.3 -11.1 5.3 -11.1 5.3 -9.05 3.3 -9.05 1.25 -9.05 1.25 -7.0 -0.75 -7.0 -2.8 -7.0 Q-2.8 -8.05 -3.2 -8.25 -4.85 -9.05 -6.85 -9.05 -7.9 -9.05 -8.4 -9.55 -8.9 -10.1 -8.9 -11.1 M-37.35 -2.95 L-37.35 -5.0 -35.3 -5.0 -35.3 -2.95 -35.3 -0.9 -35.3 1.1 -35.3 3.15 -37.35 3.15 -39.4 3.15 -41.4 3.15 -47.5 3.15 -47.5 1.1 -47.5 -0.9 -45.5 -0.9 Q-43.85 2.55 -37.7 0.25 -37.35 0.1 -37.35 -0.9 L-37.35 -2.95" fill="#5b7a97" fill-rule="evenodd" stroke="none"/>
    <path d="M5.3 -9.05 Q5.3 -8.05 4.8 -7.55 4.3 -7.0 3.3 -7.0 L1.25 -7.0 1.25 -9.05 3.3 -9.05 5.3 -9.05 M-15.0 -7.0 L-15.0 -9.05 Q-10.7 -10.35 -11.8 -7.35 -11.95 -7.0 -12.95 -7.0 L-15.0 -7.0 M-6.85 -9.05 Q-4.85 -9.05 -3.2 -8.25 -2.8 -8.05 -2.8 -7.0 L-4.85 -7.0 -6.85 -7.0 -6.85 -9.05" fill="#008ed0" fill-rule="evenodd" stroke="none"/>
    <path d="M3.3 -7.0 Q3.3 -6.0 2.8 -5.5 2.3 -5.0 1.25 -5.0 L1.25 -2.95 -0.75 -2.95 -2.8 -2.95 -2.8 -5.0 Q-1.8 -5.0 -1.3 -5.5 -0.75 -6.0 -0.75 -7.0 L1.25 -7.0 3.3 -7.0" fill="#00a4f1" fill-rule="evenodd" stroke="none"/>
    <path d="M-15.0 -11.1 L-10.95 -11.1 -8.9 -11.1 Q-8.9 -10.1 -8.4 -9.55 -7.9 -9.05 -6.85 -9.05 L-6.85 -7.0 -8.7 -6.6 -10.95 -5.0 Q-8.9 -0.2 -6.15 -4.55 -5.85 -5.0 -4.85 -5.0 -4.85 -3.95 -4.35 -3.45 -3.8 -2.95 -2.8 -2.95 L-0.75 -2.95 1.25 -2.95 1.25 -0.9 -0.75 -0.9 -8.9 -0.9 -10.95 -0.9 -21.1 -0.9 -21.1 -2.95 -21.1 -5.0 -19.05 -5.0 Q-17.0 -1.05 -13.45 -5.4 -12.95 -6.0 -12.95 -7.0 -11.95 -7.0 -11.8 -7.35 -10.7 -10.35 -15.0 -9.05 L-15.0 -11.1" fill="#5e819e" fill-rule="evenodd" stroke="none"/>
    <path d="M1.25 -0.9 L3.5 -2.55 5.3 -2.95 7.35 -2.95 Q7.35 -1.95 6.9 -1.6 1.4 2.3 -8.9 1.1 L-8.9 -0.9 -0.75 -0.9 1.25 -0.9" fill="#10b2fd" fill-rule="evenodd" stroke="none"/>
    <path d="M5.3 -2.95 L5.3 -5.0 7.35 -5.0 9.4 -5.0 Q9.4 -3.95 8.9 -3.45 8.35 -2.95 7.35 -2.95 L5.3 -2.95" fill="#0eabf4" fill-rule="evenodd" stroke="none"/>
    <path d="M7.35 -5.0 L7.35 -7.0 Q11.7 -8.3 10.55 -5.35 10.4 -5.0 9.4 -5.0 L7.35 -5.0" fill="#009be3" fill-rule="evenodd" stroke="none"/>
    <path d="M15.5 -7.0 L17.5 -7.0 19.55 -7.0 19.55 -5.0 17.5 -5.0 15.5 -5.0 15.5 -7.0" fill="#85879e" fill-rule="evenodd" stroke="none"/>
    <path d="M13.45 -13.15 L15.1 -10.9 Q15.5 -10.1 15.5 -9.05 L13.65 -9.45 Q12.45 -10.1 11.4 -11.1 12.45 -11.1 12.95 -11.6 13.45 -12.1 13.45 -13.15" fill="#505368" fill-rule="evenodd" stroke="none"/>
    <path d="M15.5 -2.95 Q15.5 -1.95 15.0 -1.45 13.45 0.1 11.4 1.1 L11.4 -0.9 11.4 -2.95 13.65 -4.6 15.5 -5.0 15.5 -2.95" fill="#363846" fill-rule="evenodd" stroke="none"/>
    <path d="M19.55 -5.0 L19.55 -2.95 17.5 -2.95 15.5 -2.95 15.5 -5.0 17.5 -5.0 19.55 -5.0" fill="#2f303c" fill-rule="evenodd" stroke="none"/>
    <path d="M11.4 1.1 Q11.4 2.15 10.9 2.65 10.4 3.15 9.4 3.15 L7.35 3.15 7.35 1.1 Q8.35 0.1 9.6 -0.5 L11.4 -0.9 11.4 1.1" fill="#414253" fill-rule="evenodd" stroke="none"/>
    <path d="M9.4 3.15 Q9.4 4.15 9.0 4.35 7.35 5.2 5.3 5.2 L5.3 3.15 7.35 3.15 9.4 3.15" fill="#393a49" fill-rule="evenodd" stroke="none"/>
    <path d="M-4.85 7.2 L-4.85 5.2 -4.85 3.15 Q1.45 5.75 2.2 9.05 L3.3 9.25 3.3 9.6 3.3 11.3 1.45 11.7 Q0.25 12.3 -0.75 13.35 L-0.75 15.35 -2.8 15.35 -2.6 13.35 Q-2.1 11.05 -2.45 9.6 -2.9 7.6 -4.85 7.2" fill="#676a84" fill-rule="evenodd" stroke="none"/>
    <path d="M3.3 13.35 Q3.3 14.35 2.8 14.85 2.3 15.35 1.25 15.35 L-0.75 15.35 -0.75 13.35 Q0.25 12.3 1.45 11.7 L3.3 11.3 3.3 13.35" fill="#404252" fill-rule="evenodd" stroke="none"/>
    <path d="M5.3 5.2 L5.3 7.2 5.3 9.25 3.3 9.25 3.3 7.2 3.3 5.2 5.3 5.2" fill="#3e404f" fill-rule="evenodd" stroke="none"/>
    <path d="M5.3 11.3 Q5.3 12.3 4.8 12.8 4.3 13.35 3.3 13.35 L3.3 11.3 3.3 9.6 3.3 9.25 5.3 9.25 5.3 9.6 5.3 11.3" fill="#282933" fill-rule="evenodd" stroke="none"/>
    <path d="M5.3 7.2 Q8.05 7.0 7.15 9.6 L6.55 10.85 Q6.35 11.3 5.3 11.3 L5.3 9.6 5.3 9.25 5.3 7.2 M-43.45 7.2 Q-43.45 8.25 -43.75 9.15 -45.4 14.0 -45.5 7.2 L-43.45 7.2" fill="#b2b2b2" fill-rule="evenodd" stroke="none"/>
    <path d="M1.25 15.35 L1.25 17.4 -0.75 17.4 -8.9 17.4 -8.9 15.35 -6.85 15.35 -4.85 15.35 -2.8 15.35 -0.75 15.35 1.25 15.35" fill="#2a2b36" fill-rule="evenodd" stroke="none"/>
    <path d="M-49.55 -7.0 L-49.55 -9.05 -49.55 -11.1 Q-45.25 -9.8 -44.5 -12.9 L-43.45 -13.15 -43.45 -11.1 -43.45 -9.05 -45.5 -9.05 -47.5 -9.05 -47.5 -7.0 -49.55 -7.0" fill="#b2b3c2" fill-rule="evenodd" stroke="none"/>
    <path d="M-43.45 -11.1 L-41.4 -11.1 -39.4 -11.1 -39.4 -9.05 -41.4 -9.05 -43.45 -9.05 -43.45 -11.1" fill="#7d8097" fill-rule="evenodd" stroke="none"/>
    <path d="M-43.45 -9.05 L-41.4 -9.05 -39.4 -9.05 Q-38.35 -9.05 -37.85 -8.55 -37.35 -8.05 -37.35 -7.0 L-38.4 -6.8 Q-39.15 -3.7 -43.45 -5.0 L-45.5 -5.0 Q-45.5 -6.0 -46.0 -6.5 -46.5 -7.0 -47.5 -7.0 L-47.5 -9.05 -45.5 -9.05 -43.45 -9.05" fill="#5c657d" fill-rule="evenodd" stroke="none"/>
    <path d="M-47.5 -7.0 Q-46.5 -7.0 -46.0 -6.5 -45.5 -6.0 -45.5 -5.0 L-45.5 -2.95 Q-46.5 -2.95 -46.7 -3.35 -47.5 -5.0 -47.5 -7.0" fill="#3c576d" fill-rule="evenodd" stroke="none"/>
    <path d="M-49.55 -0.9 L-49.55 -2.95 -49.55 -7.0 -47.5 -7.0 Q-47.5 -5.0 -46.7 -3.35 -46.5 -2.95 -45.5 -2.95 L-45.5 -0.9 -47.5 -0.9 -49.55 -0.9" fill="#616b84" fill-rule="evenodd" stroke="none"/>
    <path d="M-47.5 5.2 L-49.55 5.2 -49.55 3.15 -49.55 -0.9 -47.5 -0.9 -47.5 1.1 -47.5 3.15 -47.5 5.2" fill="#7e8097" fill-rule="evenodd" stroke="none"/>
    <path d="M-45.5 -5.0 L-43.45 -5.0 -43.45 -2.95 -43.45 -0.9 -45.5 -0.9 -45.5 -2.95 -45.5 -5.0" fill="#0085c3" fill-rule="evenodd" stroke="none"/>
    <path d="M-43.45 -0.9 L-41.4 -0.9 -39.4 -0.9 -37.35 -0.9 Q-37.35 0.1 -37.7 0.25 -43.85 2.55 -45.5 -0.9 L-43.45 -0.9" fill="#1db7ff" fill-rule="evenodd" stroke="none"/>
    <path d="M-43.45 -5.0 Q-39.15 -3.7 -38.4 -6.8 L-37.35 -7.0 -37.35 -5.0 -37.35 -2.95 -39.4 -2.95 -41.4 -2.95 -41.4 -0.9 -43.45 -0.9 -43.45 -2.95 -43.45 -5.0" fill="#6986a1" fill-rule="evenodd" stroke="none"/>
    <path d="M-41.4 -0.9 L-41.4 -2.95 -39.4 -2.95 -37.35 -2.95 -37.35 -0.9 -39.4 -0.9 -41.4 -0.9" fill="#008dce" fill-rule="evenodd" stroke="none"/>
    <path d="M-29.25 3.15 L-31.25 3.15 -33.3 3.15 -35.3 3.15 -35.3 1.1 -35.3 -0.9 -33.4 -1.25 Q-28.55 -2.9 -35.3 -2.95 L-35.3 -5.0 -25.15 -5.0 -23.15 -5.0 -21.1 -5.0 -21.1 -2.95 -21.1 -0.9 -21.1 1.1 -21.1 3.15 -23.15 3.15 -25.15 3.15 -29.25 3.15" fill="#656a84" fill-rule="evenodd" stroke="none"/>
    <path d="M-35.3 -2.95 Q-28.55 -2.9 -33.4 -1.25 L-35.3 -0.9 -35.3 -2.95" fill="#494b5d" fill-rule="evenodd" stroke="none"/>
    <path d="M-37.35 -5.0 L-37.35 -7.0 -25.15 -7.0 -23.15 -7.0 -23.15 -5.0 -25.15 -5.0 -35.3 -5.0 -37.35 -5.0" fill="#acaebc" fill-rule="evenodd" stroke="none"/>
    <path d="M-23.15 -7.0 L-23.15 -9.05 -21.1 -9.05 -21.1 -7.0 -21.1 -5.0 -23.15 -5.0 -23.15 -7.0" fill="#a6a8b8" fill-rule="evenodd" stroke="none"/>
    <path d="M-21.1 -9.05 L-21.1 -11.1 -19.05 -11.1 Q-19.05 -9.05 -18.25 -7.45 -18.05 -7.0 -17.05 -7.0 -17.05 -6.0 -17.55 -5.5 -18.05 -5.0 -19.05 -5.0 L-21.1 -5.0 -21.1 -7.0 -21.1 -9.05" fill="#8191a8" fill-rule="evenodd" stroke="none"/>
    <path d="M-19.05 -11.1 L-17.05 -11.1 -15.0 -11.1 -15.0 -9.05 -15.0 -7.0 -17.05 -7.0 Q-18.05 -7.0 -18.25 -7.45 -19.05 -9.05 -19.05 -11.1" fill="#687c97" fill-rule="evenodd" stroke="none"/>
    <path d="M-17.05 -7.0 L-15.0 -7.0 -12.95 -7.0 Q-12.95 -6.0 -13.45 -5.4 -17.0 -1.05 -19.05 -5.0 -18.05 -5.0 -17.55 -5.5 -17.05 -6.0 -17.05 -7.0" fill="#05a0e8" fill-rule="evenodd" stroke="none"/>
    <path d="M-0.75 -7.0 Q-0.75 -6.0 -1.3 -5.5 -1.8 -5.0 -2.8 -5.0 L-2.8 -2.95 Q-3.8 -2.95 -4.35 -3.45 -4.85 -3.95 -4.85 -5.0 L-4.85 -7.0 -2.8 -7.0 -0.75 -7.0" fill="#6d90ab" fill-rule="evenodd" stroke="none"/>
    <path d="M-4.85 -7.0 L-4.85 -5.0 Q-5.85 -5.0 -6.15 -4.55 -8.9 -0.2 -10.95 -5.0 L-8.7 -6.6 -6.85 -7.0 -4.85 -7.0" fill="#06a7f2" fill-rule="evenodd" stroke="none"/>
    <path d="M-8.9 1.1 L-10.95 1.1 -21.1 1.1 -21.1 -0.9 -10.95 -0.9 -8.9 -0.9 -8.9 1.1" fill="#01a9f7" fill-rule="evenodd" stroke="none"/>
    <path d="M-4.85 5.2 L-6.75 5.5 Q-8.9 6.2 -10.95 7.2 L-12.95 7.2 -12.95 5.2 Q-10.9 3.2 -6.85 3.15 L-4.85 3.15 -4.85 5.2" fill="#383e4d" fill-rule="evenodd" stroke="none"/>
    <path d="M-4.85 13.35 L-4.85 11.3 -4.85 9.6 -4.85 7.2 Q-2.9 7.6 -2.45 9.6 -2.1 11.05 -2.6 13.35 L-2.8 15.35 -4.85 15.35 -4.85 13.35" fill="#8f91a5" fill-rule="evenodd" stroke="none"/>
    <path d="M-17.05 3.15 Q-9.2 4.15 -17.05 4.15 L-17.05 3.15" fill="#1cb7ff" fill-rule="evenodd" stroke="none"/>
    <path d="M-10.95 7.2 Q-10.95 8.25 -11.15 8.3 -15.0 9.25 -19.05 9.25 L-19.05 7.2 -15.0 7.2 -12.95 7.2 -10.95 7.2" fill="#2c2d38" fill-rule="evenodd" stroke="none"/>
    <path d="M-17.05 15.35 L-17.05 13.35 -6.85 13.35 -4.85 13.35 -4.85 15.35 -6.85 15.35 -8.9 15.35 -10.95 15.35 -17.05 15.35" fill="#b1b3c1" fill-rule="evenodd" stroke="none"/>
    <path d="M-8.9 17.4 L-10.95 17.4 -17.05 17.4 -17.05 15.35 -10.95 15.35 -8.9 15.35 -8.9 17.4" fill="#3a3c4b" fill-rule="evenodd" stroke="none"/>
    <path d="M-21.1 5.2 L-23.15 5.2 -23.15 3.15 -21.1 3.15 Q-20.1 4.15 -20.1 5.2 L-21.1 5.2" fill="#5b5e75" fill-rule="evenodd" stroke="none"/>
    <path d="M-23.15 5.2 L-25.1 5.4 Q-29.5 6.45 -29.25 3.15 L-25.15 3.15 -23.15 3.15 -23.15 5.2" fill="#333542" fill-rule="evenodd" stroke="none"/>
    <path d="M-31.25 3.15 Q-31.25 4.15 -31.5 4.25 -35.3 5.2 -39.4 5.2 L-39.4 3.15 -37.35 3.15 -35.3 3.15 -33.3 3.15 -31.25 3.15" fill="#2a2b35" fill-rule="evenodd" stroke="none"/>
    <path d="M-39.4 5.2 L-41.4 5.2 -43.45 5.2 -47.5 5.2 -47.5 3.15 -41.4 3.15 -39.4 3.15 -39.4 5.2" fill="#333441" fill-rule="evenodd" stroke="none"/>
    <path d="M-41.4 5.2 Q-41.4 6.2 -41.95 6.7 -42.45 7.2 -43.45 7.2 L-45.5 7.2 Q-46.5 7.2 -47.0 6.7 -47.5 6.2 -47.5 5.2 L-43.45 5.2 -41.4 5.2" fill="#cbcbcb" fill-rule="evenodd" stroke="none"/>
  </g>
</svg>
