<?xml version="1.0" encoding="UTF-8" standalone="no"?>
<svg xmlns:xlink="http://www.w3.org/1999/xlink" height="13.6px" width="6.0px" xmlns="http://www.w3.org/2000/svg">
  <g transform="matrix(1.0, 0.0, 0.0, 1.0, 2.95, 7.05)">
    <path d="M-2.45 -1.95 L-2.45 -3.35 -1.9 -3.8 Q-0.9 -6.25 -0.05 -6.5 0.75 -6.8 1.9 -3.85 L2.05 -3.75 2.5 -3.4 2.55 -3.35 2.55 -1.95 0.95 -1.95 0.95 -3.85 -1.05 -3.8 -1.05 -1.95 -2.45 -1.95 M1.9 -3.85 L0.95 -3.85 1.9 -3.85 M-1.9 -3.8 L-1.05 -3.8 -1.9 -3.8" fill="#870000" fill-rule="evenodd" stroke="none"/>
    <path d="M-1.05 -1.95 L-1.05 -3.8 0.95 -3.85 0.95 -1.95 Q-0.15 0.5 -1.05 -1.95" fill="#333333" fill-rule="evenodd" stroke="none"/>
    <path d="M2.55 -1.95 Q1.45 0.05 1.95 3.05 1.0 3.55 0.95 3.05 0.4 2.3 -0.05 2.3 -0.6 2.25 -1.05 3.05 -1.1 3.55 -2.05 3.05 -1.55 0.05 -2.45 -1.95 L-1.05 -1.95 Q-0.15 0.5 0.95 -1.95 L2.55 -1.95 M-0.05 0.05 L-0.05 2.3 -0.05 0.05 M-1.05 -0.95 L-2.05 3.05 -1.05 -0.95 M1.95 3.05 L0.95 -0.95 1.95 3.05" fill="#4e0101" fill-rule="evenodd" stroke="none"/>
    <path d="M-0.55 3.55 Q-0.85 5.85 -1.55 6.55 -2.45 5.9 -2.55 3.55 L-0.55 3.55 M-1.6 4.95 L-1.6 3.95 -1.6 4.95 M1.4 5.1 L1.4 4.1 1.4 5.1 M0.45 3.55 L2.45 3.55 Q2.25 5.95 1.45 6.55 0.55 5.55 0.45 3.55" fill="#0099ff" fill-rule="evenodd" stroke="none"/>
    <path d="M-2.45 -1.95 L-2.45 -3.35 -1.9 -3.8 Q-0.9 -6.25 -0.05 -6.5 0.75 -6.8 1.9 -3.85 L2.05 -3.75 2.5 -3.4 2.55 -3.35 2.55 -1.95 Q1.45 0.05 1.95 3.05 1.0 3.55 0.95 3.05 0.4 2.3 -0.05 2.3 -0.6 2.25 -1.05 3.05 -1.1 3.55 -2.05 3.05 -1.55 0.05 -2.45 -1.95 L-1.05 -1.95 Q-0.15 0.5 0.95 -1.95 L2.55 -1.95 M-1.05 -3.8 L-1.9 -3.8 M0.95 -3.85 L1.9 -3.85 M0.95 -3.85 L-1.05 -3.8 M-0.05 2.3 L-0.05 0.05 M0.95 -0.95 L1.95 3.05 M-2.05 3.05 L-1.05 -0.95" fill="none" stroke="#000000" stroke-linecap="round" stroke-linejoin="round" stroke-width="1.0"/>
    <path d="M-1.05 -1.95 L-1.05 -3.8 M0.95 -1.95 L0.95 -3.85" fill="none" stroke="#000000" stroke-linecap="round" stroke-linejoin="round" stroke-width="1.0"/>
    <path d="M1.4 4.1 L1.4 5.1" fill="none" stroke="#ffffff" stroke-linecap="round" stroke-linejoin="round" stroke-width="1.0"/>
    <path d="M-1.6 3.95 L-1.6 4.95" fill="none" stroke="#ffffff" stroke-linecap="round" stroke-linejoin="round" stroke-width="1.0"/>
  </g>
</svg>
