<?xml version="1.0" encoding="UTF-8" standalone="no"?>
<svg xmlns:xlink="http://www.w3.org/1999/xlink" height="84.55px" width="128.1px" xmlns="http://www.w3.org/2000/svg">
  <g transform="matrix(1.0, 0.0, 0.0, 1.0, 64.05, 64.05)">
    <path d="M-64.0 1.0 L-64.05 1.0 -64.05 0.8 -64.05 0.0 Q-64.05 -26.55 -45.3 -45.3 -26.55 -64.05 0.0 -64.05 26.55 -64.05 45.3 -45.3 64.05 -26.55 64.05 0.0 L64.05 0.8 64.05 1.0 64.05 0.8 Q0.1 4.95 -64.05 0.8 L-64.0 1.0" fill="url(#gradient0)" fill-rule="evenodd" stroke="none"/>
    <path d="M64.05 1.0 Q63.45 8.95 45.3 14.6 26.55 20.45 0.0 20.5 -26.55 20.45 -45.3 14.6 -63.45 8.95 -64.0 1.0 L-64.05 0.8 Q0.1 4.95 64.05 0.8 L64.05 1.0" fill="url(#gradient1)" fill-rule="evenodd" stroke="none"/>
  </g>
  <defs>
    <radialGradient cx="0" cy="0" gradientTransform="matrix(0.0723, 0.0, 0.0, 0.0723, 0.0, 0.0)" gradientUnits="userSpaceOnUse" id="gradient0" r="819.2" spreadMethod="pad">
      <stop offset="0.17254901960784313" stop-color="#ffffff"/>
      <stop offset="1.0" stop-color="#fdd69b" stop-opacity="0.0"/>
    </radialGradient>
    <radialGradient cx="0" cy="0" gradientTransform="matrix(0.0723, 0.0, 0.0, 0.0226, 0.0, 0.45)" gradientUnits="userSpaceOnUse" id="gradient1" r="819.2" spreadMethod="pad">
      <stop offset="0.17254901960784313" stop-color="#ffffff"/>
      <stop offset="1.0" stop-color="#fdd69b" stop-opacity="0.0"/>
    </radialGradient>
  </defs>
</svg>
