<?xml version="1.0" encoding="UTF-8" standalone="no"?>
<svg xmlns:xlink="http://www.w3.org/1999/xlink" height="19.1px" width="55.85px" xmlns="http://www.w3.org/2000/svg">
  <g transform="matrix(1.0, 0.0, 0.0, 1.0, -0.9, 11.95)">
    <path d="M28.85 -7.55 Q40.4 -7.55 48.6 -5.4 56.75 -3.25 56.75 -0.2 56.75 2.8 48.6 5.0 40.4 7.15 28.85 7.15 17.25 7.15 9.1 5.0 0.9 2.8 0.9 -0.2 0.9 -3.25 9.1 -5.4 17.25 -7.55 28.85 -7.55" fill="url(#gradient0)" fill-rule="evenodd" stroke="none"/>
    <path d="M9.1 -9.8 Q17.25 -11.95 28.85 -11.95 40.4 -11.95 48.6 -9.8 56.75 -7.65 56.75 -4.6 56.75 -1.6 48.6 0.6 40.4 2.75 28.85 2.75 17.25 2.75 9.1 0.6 0.9 -1.6 0.9 -4.6 0.9 -7.65 9.1 -9.8" fill="url(#gradient1)" fill-rule="evenodd" stroke="none"/>
  </g>
  <defs>
    <radialGradient cx="0" cy="0" gradientTransform="matrix(0.0, 0.008, -0.0341, 0.0, 28.8, -0.2)" gradientUnits="userSpaceOnUse" id="gradient0" r="819.2" spreadMethod="pad">
      <stop offset="0.0" stop-color="#ffffff"/>
      <stop offset="0.5372549019607843" stop-color="#ff0000" stop-opacity="0.0"/>
      <stop offset="1.0" stop-color="#000a5e" stop-opacity="0.0"/>
    </radialGradient>
    <radialGradient cx="0" cy="0" gradientTransform="matrix(0.0, 0.008, -0.0341, 0.0, 28.8, -4.6)" gradientUnits="userSpaceOnUse" id="gradient1" r="819.2" spreadMethod="pad">
      <stop offset="0.0" stop-color="#ffffff"/>
      <stop offset="0.5372549019607843" stop-color="#ff3333" stop-opacity="0.0"/>
      <stop offset="1.0" stop-color="#000a5e" stop-opacity="0.0"/>
    </radialGradient>
  </defs>
</svg>
